<svg width="50" height="50" viewBox="0 0 50 50" fill="none" xmlns="http://www.w3.org/2000/svg">
<path fill-rule="evenodd" clip-rule="evenodd" d="M27.62 49.8644C40.1957 48.5547 50 37.9223 50 25C50 11.1929 38.8071 0 25 0C11.1929 0 0 11.1929 0 25C0 38.8071 11.1929 50 25 50C25.0285 50 25.057 50 25.0855 49.9999C23.9327 49.9957 22.7818 49.9011 21.6428 49.7169V33.4345H15.9091V26.699H21.6428V21.5655C21.6428 15.7257 25.0141 12.5 30.1723 12.5C32.643 12.5 35.2273 12.9551 35.2273 12.9551V18.6893H32.3797C29.5745 18.6893 28.6996 20.4855 28.6996 22.3281V26.699H34.9626L33.9614 33.4345H28.6996V49.7169C28.3425 49.7748 27.9825 49.824 27.62 49.8644Z" fill="white"/>
</svg>
