<svg width="101" height="40" viewBox="0 0 101 40" fill="none" xmlns="http://www.w3.org/2000/svg">
<path fill-rule="evenodd" clip-rule="evenodd" d="M59.4423 26.2681C54.7734 29.2233 47.9841 30.8013 42.1463 30.8013C33.9612 30.8013 26.5915 28.207 21.017 23.8904C20.5791 23.5509 20.9711 23.0886 21.4967 23.3522C27.5132 26.3536 34.9521 28.158 42.6357 28.158C47.8183 28.158 53.5192 27.2389 58.7613 25.3318C59.5534 25.0434 60.2151 25.7761 59.4407 26.2688L59.4423 26.2681ZM61.3871 24.3616C60.7914 23.7062 57.4427 24.0525 55.9277 24.2057C55.4689 24.254 55.3988 23.9111 55.8118 23.6648C58.4843 22.0516 62.8715 22.5173 63.3843 23.0576C63.8971 23.5978 63.2515 27.37 60.7391 29.1695C60.3527 29.4455 59.9857 29.2985 60.1571 28.9321C60.7206 27.7247 61.986 25.0185 61.3871 24.361" fill="#8C9EBC"/>
<path fill-rule="evenodd" clip-rule="evenodd" d="M56.0307 12.2777V10.71C56.0291 10.6575 56.0399 10.6053 56.0626 10.5565C56.0853 10.5077 56.1193 10.4634 56.1626 10.4263C56.2059 10.3892 56.2576 10.36 56.3145 10.3406C56.3714 10.3211 56.4324 10.3118 56.4936 10.3133H64.682C64.9444 10.3133 65.1553 10.4754 65.1553 10.71V12.052C65.1521 12.277 64.9299 12.5716 64.5387 13.0373L60.2964 18.2302C61.8741 18.1971 63.5373 18.3986 64.9669 19.0892C65.2889 19.2452 65.3694 19.4736 65.4016 19.6992V21.3724C65.4016 21.6001 65.107 21.8678 64.7979 21.7298C62.2783 20.5982 58.9319 20.4741 56.1467 21.7416C55.8625 21.874 55.5647 21.6091 55.5647 21.3814V19.7923C55.5647 19.537 55.5679 19.1023 55.8657 18.7139L60.7818 12.671H56.5113C56.2489 12.671 56.038 12.5123 56.038 12.2777H56.0307ZM26.1584 22.0603H23.6678C23.4295 22.0452 23.2412 21.892 23.2226 21.6967V10.7369C23.2226 10.5175 23.4368 10.3436 23.7024 10.3436H26.0256C26.2671 10.3526 26.4603 10.512 26.478 10.7093V12.1417H26.5239C27.1301 10.7569 28.2691 10.1111 29.8034 10.1111C31.3627 10.1111 32.3367 10.7569 33.0379 12.1417C33.6416 10.7569 35.0101 10.1111 36.4792 10.1111C37.5233 10.1111 38.6655 10.4802 39.3627 11.3096C40.1515 12.2314 39.9905 13.5714 39.9905 14.7458L39.9849 21.6636C39.9849 21.883 39.7708 22.0603 39.5051 22.0603H37.0097C36.7682 22.0452 36.5613 21.874 36.5613 21.6636V15.847C36.5613 15.3847 36.6096 14.231 36.4913 13.7929C36.3061 13.0573 35.7483 12.8497 35.0262 12.8497C34.4224 12.8497 33.7929 13.1947 33.537 13.748C33.281 14.3014 33.3059 15.226 33.3059 15.8477V21.6574C33.3059 21.8768 33.0918 22.0541 32.8261 22.0541H30.3307C30.0787 22.0389 29.8823 21.8678 29.8823 21.6574L29.8791 15.8477C29.8791 14.625 30.1141 12.8255 28.344 12.8255C26.5537 12.8255 26.6237 14.5795 26.6237 15.8477V21.6574C26.6237 21.8768 26.4096 22.0541 26.1439 22.0541L26.1584 22.0603ZM72.2054 10.1201C75.9019 10.1201 77.9031 12.8414 77.9031 16.301C77.9031 19.644 75.6918 22.2956 72.2054 22.2956C68.5829 22.2956 66.5986 19.5743 66.5986 16.1837C66.5986 12.7717 68.5998 10.1118 72.2054 10.1118V10.1201ZM72.2263 12.3494C70.3909 12.3494 70.2742 14.4939 70.2742 15.8304C70.2742 17.1669 70.25 20.029 72.2046 20.029C74.1349 20.029 74.2267 17.7224 74.2267 16.3169C74.2267 15.3923 74.1808 14.2862 73.8564 13.4092C73.5763 12.6461 73.0192 12.3487 72.2271 12.3487L72.2263 12.3494ZM82.6976 22.0603H80.2166C79.9751 22.0452 79.7682 21.874 79.7682 21.6636L79.765 10.701C79.7859 10.4996 79.9928 10.3436 80.2448 10.3436H82.5551C82.7725 10.3526 82.9512 10.4789 83.0003 10.65V12.3266H83.0462C83.7433 10.828 84.7205 10.1132 86.4416 10.1132C87.5686 10.1132 88.6489 10.4582 89.35 11.4048C89.994 12.2811 89.994 13.7563 89.994 14.8168V21.7167C89.9658 21.9099 89.7589 22.0617 89.5142 22.0617H87.0204C86.7926 22.0465 86.6034 21.903 86.5792 21.7167V15.7642C86.5792 14.5657 86.7402 12.811 85.02 12.811C84.4138 12.811 83.8568 13.1595 83.571 13.6873C83.2208 14.3566 83.1749 15.0238 83.1749 15.7628V21.665C83.1717 21.8844 82.9544 22.0617 82.6879 22.0617L82.6976 22.0603ZM49.5023 16.8178C49.5023 17.6499 49.5264 18.3358 49.0354 19.0823C48.6393 19.6826 48.009 20.0525 47.3111 20.0525C46.3548 20.0525 45.7937 19.428 45.7937 18.5055C45.7937 16.6853 47.6967 16.3548 49.5007 16.3548V16.8171L49.5023 16.8178ZM52.0122 22.0224C51.8472 22.1487 51.6097 22.1576 51.4246 22.0734C50.5979 21.4849 50.4473 21.211 49.9949 20.65C48.6281 21.8451 47.6581 22.2025 45.8879 22.2025C43.7893 22.2025 42.1592 21.0944 42.1592 18.8747C42.1592 17.1414 43.2524 15.9615 44.8156 15.3847C46.168 14.8741 48.0565 14.7844 49.5007 14.6429V14.3669C49.5007 13.8591 49.5466 13.2588 49.1948 12.82C48.8937 12.4267 48.3117 12.2645 47.7965 12.2645C46.8466 12.2645 46.0014 12.682 45.7953 13.5479C45.7535 13.7411 45.5884 13.9295 45.3606 13.9385L42.9457 13.7163C42.7428 13.677 42.515 13.5369 42.5754 13.2678C43.1292 10.7562 45.7792 10 48.1459 10C49.3582 10 50.9424 10.276 51.8987 11.0626C53.111 12.0327 52.9951 13.3271 52.9951 14.7361V18.0639C52.9951 19.0644 53.4781 19.5025 53.9345 20.0442C54.0923 20.2374 54.1277 20.4678 53.9241 20.612L52.0195 22.0362L52.0163 22.0293L52.0122 22.0224ZM16.8415 16.8247C16.8415 17.6568 16.8656 18.3427 16.3746 19.0892C15.9785 19.6895 15.3523 20.0594 14.6503 20.0594C13.694 20.0594 13.1369 19.4349 13.1369 18.5124C13.1369 16.6922 15.0399 16.3617 16.8399 16.3617V16.824L16.8415 16.8247ZM19.3514 22.0293C19.1864 22.1556 18.949 22.1645 18.7638 22.0803C17.9371 21.4918 17.7978 21.2179 17.3341 20.6569C15.9673 21.852 14.9997 22.2094 13.2271 22.2094C11.1325 22.2101 9.5 21.1019 9.5 18.8829C9.5 17.1497 10.5964 15.9698 12.1565 15.393C13.5088 14.8824 15.3973 14.7927 16.8415 14.6512V14.3752C16.8415 13.8674 16.8874 13.2671 16.5404 12.8283C16.2345 12.435 15.6549 12.2728 15.1422 12.2728C14.1923 12.2728 13.3446 12.6903 13.1297 13.5562C13.0878 13.7494 12.9228 13.9378 12.699 13.9467L10.2808 13.7246C10.078 13.6852 9.8542 13.5452 9.91054 13.2761C10.4676 10.7645 13.1144 10.0083 15.4811 10.0083C16.6934 10.0083 18.2776 10.2843 19.2339 11.0709C20.4462 12.041 20.3303 13.3354 20.3303 14.7444V18.0722C20.3303 19.0727 20.8133 19.5108 21.2697 20.0525C21.4307 20.2457 21.4662 20.4761 21.2617 20.6203L19.3619 22.0362L19.3539 22.0293" fill="#8C9EBC"/>
</svg>
