<svg width="121" height="40" viewBox="0 0 121 40" fill="none" xmlns="http://www.w3.org/2000/svg">
<path d="M42.4394 17.8423V22.2479H43.5123C43.7861 22.2438 44.0563 22.1834 44.3069 22.0705C44.5575 21.9575 44.7835 21.7942 44.9714 21.5903C45.3571 21.1722 45.5681 20.6165 45.5595 20.0415C45.5677 19.7558 45.5207 19.4714 45.4211 19.2044C45.3216 18.9375 45.1716 18.6933 44.9796 18.4859C44.7909 18.2817 44.5634 18.1192 44.311 18.0084C44.0587 17.8976 43.7868 17.8409 43.5123 17.8417H42.4399L42.4394 17.8423ZM43.5123 16.4609C45.5119 16.4609 47.0246 18.0473 47.0246 20.0415C47.0246 22.0356 45.5119 23.631 43.5123 23.631H41.146C41.1235 23.6307 41.1012 23.6258 41.0805 23.6167C41.0597 23.6076 41.041 23.5944 41.0252 23.5779C41.0095 23.5613 40.997 23.5418 40.9887 23.5203C40.9803 23.4989 40.9761 23.4759 40.9764 23.4528V16.6463C40.9764 16.5477 41.0525 16.4676 41.146 16.4676L43.5123 16.4609ZM52.1789 22.4014C53.0871 22.4042 53.9072 21.8323 54.2568 20.9523C54.428 20.5223 54.4738 20.0507 54.3885 19.5947C54.3033 19.1386 54.0907 18.7177 53.7764 18.3828C53.4677 18.0535 53.0687 17.8278 52.632 17.7356C52.1954 17.6434 51.7417 17.689 51.3309 17.8664C50.4916 18.2293 49.9434 19.0881 49.9418 20.0415C49.9418 21.341 50.9419 22.3953 52.1794 22.4014H52.1789ZM52.1794 16.2985C54.2841 16.2985 55.8932 17.9969 55.8932 20.0415C55.8932 22.086 54.2841 23.7845 52.1789 23.7845C50.0742 23.7845 48.4788 22.0945 48.4788 20.0415C48.4788 17.9885 50.0879 16.2985 52.1789 16.2985H52.1794ZM61.0058 22.4014C62.2439 22.3981 63.2457 21.3427 63.2446 20.0431C63.2429 18.7425 62.239 17.6894 61.0015 17.6888C59.7628 17.6888 58.7583 18.7413 58.7567 20.0415C58.7567 20.6677 58.9936 21.2682 59.4154 21.7107C59.6219 21.9288 59.8689 22.1023 60.142 22.2209C60.4151 22.3396 60.7086 22.4009 61.0053 22.4014H61.0058ZM61.0053 16.2985C63.1034 16.2985 64.7125 17.9885 64.7125 20.0415C64.7125 22.0945 63.0969 23.7845 61.0053 23.7845C58.9143 23.7845 57.2916 22.0945 57.2916 20.0415C57.2916 17.9885 58.9006 16.2985 61.0053 16.2985ZM69.62 17.8423H68.1072V19.7384H69.62C69.7395 19.7438 69.8588 19.7241 69.9706 19.6805C70.0824 19.6368 70.1843 19.5702 70.2699 19.4847C70.445 19.311 70.5446 19.0701 70.5467 18.817C70.5512 18.6885 70.5302 18.5605 70.485 18.4405C70.4399 18.3206 70.3716 18.2112 70.2841 18.119C70.1983 18.0282 70.0949 17.9569 69.9805 17.9095C69.8661 17.8621 69.7433 17.8398 69.62 17.844V17.8423ZM66.6437 16.6463C66.6437 16.5477 66.7203 16.4676 66.8139 16.4676H69.6621C71.02 16.4676 72.0026 17.5123 72.0026 18.8242C72.013 19.7115 71.5397 20.5266 70.7842 20.9237L72.0978 23.3621C72.116 23.3901 72.1262 23.4228 72.1273 23.4564C72.1285 23.49 72.1205 23.5233 72.1043 23.5525C72.0885 23.5814 72.065 23.6049 72.0364 23.6204C72.0079 23.6359 71.9757 23.6427 71.9435 23.6399H70.7908C70.7588 23.6404 70.7273 23.6316 70.7 23.6145C70.6727 23.5975 70.6507 23.5729 70.6365 23.5436L69.3705 21.1304H68.1017V23.4472C68.1021 23.4704 68.098 23.4934 68.0897 23.5149C68.0813 23.5364 68.0689 23.556 68.0532 23.5726C68.0374 23.5892 68.0186 23.6025 67.9979 23.6116C67.9771 23.6208 67.9548 23.6256 67.9321 23.6259H66.8215C66.7989 23.6256 66.7766 23.6208 66.7558 23.6116C66.7351 23.6025 66.7163 23.5892 66.7005 23.5726C66.6847 23.556 66.6723 23.5364 66.664 23.5149C66.6557 23.4934 66.6516 23.4704 66.6519 23.4472L66.6443 16.6469L66.6437 16.6463ZM75.817 17.8759V22.2821H76.8893C77.163 22.2783 77.4332 22.2183 77.684 22.1058C77.9347 21.9932 78.1608 21.8303 78.349 21.6267C78.7348 21.2091 78.9463 20.6538 78.9382 20.079C78.947 19.793 78.9004 19.5081 78.8011 19.2407C78.7019 18.9732 78.5519 18.7285 78.3599 18.5206C78.1709 18.3161 77.9429 18.1534 77.6901 18.0426C77.4372 17.9318 77.1649 17.8752 76.8898 17.8764L75.817 17.8759ZM76.8893 16.4929C78.889 16.4929 80.4017 18.0809 80.4017 20.079C80.4017 22.0771 78.889 23.6651 76.8893 23.6651H74.5302C74.5076 23.6648 74.4853 23.66 74.4645 23.6508C74.4437 23.6417 74.4249 23.6284 74.4092 23.6118C74.3934 23.5952 74.381 23.5756 74.3727 23.5541C74.3643 23.5326 74.3602 23.5096 74.3606 23.4864V16.6805C74.3606 16.5814 74.4366 16.5013 74.5302 16.5013L76.8898 16.4929H76.8893ZM84.8639 18.245L84.0339 20.6011H85.6922L84.8639 18.245ZM83.547 21.9326L83.0037 23.501C82.9928 23.5379 82.9702 23.5701 82.9395 23.5924C82.9088 23.6147 82.8717 23.6259 82.8341 23.6242H81.6556C81.6256 23.6271 81.5954 23.6217 81.5682 23.6084C81.5409 23.5952 81.5177 23.5748 81.5008 23.5492C81.4836 23.5233 81.4732 23.4933 81.4706 23.4621C81.468 23.4309 81.4733 23.3995 81.486 23.3711L84.0323 16.5713C84.0441 16.5354 84.0671 16.5045 84.0977 16.4833C84.1284 16.462 84.1649 16.4516 84.2019 16.4536H85.5204C85.5574 16.4515 85.5941 16.4619 85.6248 16.4831C85.6555 16.5043 85.6786 16.5353 85.6905 16.5713L88.2367 23.3711C88.2494 23.3996 88.2546 23.431 88.2519 23.4622C88.2492 23.4934 88.2387 23.5234 88.2214 23.5492C88.2045 23.5747 88.1812 23.595 88.154 23.6081C88.1267 23.6212 88.0965 23.6266 88.0666 23.6237H86.8887C86.8511 23.6253 86.814 23.6141 86.7833 23.5918C86.7526 23.5695 86.73 23.5374 86.7191 23.5005L86.1758 21.932H83.547V21.9326ZM89.6029 18.398C89.6029 17.272 90.5296 16.2985 91.9931 16.2985C92.7812 16.2805 93.5443 16.5823 94.1159 17.1382C94.1333 17.155 94.1472 17.1753 94.1567 17.1979C94.1662 17.2204 94.171 17.2447 94.171 17.2692C94.171 17.2938 94.1662 17.3181 94.1567 17.3406C94.1472 17.3631 94.1333 17.3835 94.1159 17.4003L93.4632 18.0809C93.4476 18.0974 93.4289 18.1106 93.4082 18.1196C93.3875 18.1285 93.3653 18.1332 93.3428 18.1332C93.3204 18.1332 93.2981 18.1285 93.2775 18.1196C93.2568 18.1106 93.2381 18.0974 93.2225 18.0809C92.915 17.7859 92.5113 17.6187 92.09 17.6121C91.5046 17.6121 91.0718 17.9689 91.0718 18.3806C91.0718 19.7115 94.5311 18.9436 94.5311 21.5046C94.5295 22.8025 93.5956 23.7845 91.9444 23.7845C91.4859 23.7893 91.0312 23.6996 90.6072 23.5208C90.1832 23.342 89.7987 23.0777 89.4765 22.7437C89.459 22.7268 89.4452 22.7065 89.4357 22.684C89.4262 22.6614 89.4213 22.6371 89.4213 22.6126C89.4213 22.5881 89.4262 22.5638 89.4357 22.5412C89.4452 22.5187 89.459 22.4984 89.4765 22.4815L90.1078 21.8183C90.1235 21.801 90.1426 21.7871 90.1638 21.7777C90.185 21.7682 90.2078 21.7633 90.2309 21.7633C90.254 21.7633 90.2769 21.7682 90.2981 21.7777C90.3193 21.7871 90.3383 21.801 90.354 21.8183C90.7514 22.2216 91.2865 22.4506 91.846 22.4569C92.5774 22.4569 93.0594 22.0468 93.0594 21.5332C93.0594 20.2017 89.6018 20.9702 89.6018 18.4086L89.6029 18.398ZM100.804 16.6374V19.3284H97.8761V16.6374C97.8764 16.6143 97.8722 16.5913 97.8639 16.5699C97.8555 16.5484 97.8431 16.5289 97.8274 16.5123C97.8116 16.4958 97.7928 16.4826 97.7721 16.4735C97.7514 16.4644 97.7291 16.4595 97.7065 16.4592H96.5959C96.5733 16.4595 96.5511 16.4644 96.5303 16.4735C96.5096 16.4826 96.4908 16.4958 96.4751 16.5123C96.4593 16.5289 96.4469 16.5484 96.4385 16.5699C96.4302 16.5913 96.426 16.6143 96.4263 16.6374V23.436C96.4263 23.5346 96.5029 23.6147 96.5959 23.6147H97.7065C97.7995 23.6147 97.8761 23.5346 97.8761 23.436V20.7025H100.802V23.436C100.802 23.5346 100.879 23.6147 100.972 23.6147H102.082C102.176 23.6147 102.252 23.5346 102.252 23.436V16.6374C102.252 16.6143 102.248 16.5913 102.24 16.5699C102.231 16.5484 102.219 16.5289 102.203 16.5123C102.187 16.4958 102.169 16.4826 102.148 16.4735C102.127 16.4644 102.105 16.4595 102.082 16.4592H100.972C100.926 16.4604 100.884 16.4798 100.852 16.5131C100.821 16.5465 100.804 16.5911 100.804 16.6374ZM34.7422 17.3667C33.9719 15.9047 32.4646 14.9944 30.8255 15H18.4238C18.3401 15.0004 18.2583 15.0259 18.1886 15.0736C18.1189 15.1212 18.0645 15.1887 18.0321 15.2678C18.0001 15.3463 17.9918 15.4329 18.0082 15.5163C18.0246 15.5997 18.0649 15.6763 18.124 15.7361L20.8256 18.4809C21.0641 18.724 21.3891 18.8601 21.7272 18.8601H30.4699C31.093 18.8534 31.6024 19.3586 31.609 19.9877C31.6155 20.6167 31.116 21.1321 30.4929 21.1383H24.4655C24.3816 21.1383 24.2997 21.1636 24.2298 21.211C24.16 21.2584 24.1053 21.3259 24.0726 21.4049C24.0404 21.4835 24.0318 21.5703 24.0481 21.6539C24.0644 21.7376 24.1048 21.8143 24.164 21.8743L26.8672 24.6213C27.1073 24.8643 27.4313 25.0004 27.7689 25H30.4951C34.0419 25 36.7238 21.1685 34.7422 17.365" fill="#8C9EBC"/>
</svg>
