<svg width="121" height="40" viewBox="0 0 121 40" fill="none" xmlns="http://www.w3.org/2000/svg">
<path d="M23.8952 15.345C22.854 15.345 22.5586 15.7519 22.5586 16.6481V18.129H25.327L25.055 20.526H22.5586V27.7931H19.2461V20.526H17V18.129H19.2349V16.6901C19.2349 14.2718 20.335 13 23.4222 13C24.0849 13 24.8775 13.042 25.3504 13.1046V15.3565L23.8952 15.345ZM25.541 23.2588C25.541 25.9588 26.9963 27.9809 30.0246 27.9809C31.6808 27.9809 32.722 27.2511 33.1829 26.3244V27.784H36.3654V18.1275H33.1829V19.6084C32.6978 18.6809 31.6929 17.9198 30.0246 17.9198C26.9928 17.9198 25.541 19.9527 25.541 22.642V23.2588ZM28.8656 22.6C28.8656 21.1611 29.4685 20.2031 31.0069 20.2031C32.3669 20.2031 33.0538 21.0786 33.0538 22.455V23.4244C33.0538 24.8008 32.3677 25.6763 31.0069 25.6763C29.4693 25.6763 28.8656 24.7275 28.8656 23.2794V22.6ZM43.2744 17.9191C39.392 17.9206 37.6162 19.7649 37.6162 22.726V23.174C37.6162 26.1343 39.3902 27.9802 43.2831 27.9802C44.5824 27.9802 45.7908 27.7405 46.4656 27.3336L45.7319 25.2588C45.0398 25.5472 44.285 25.7 43.5195 25.7069C41.7213 25.7069 40.9408 24.7893 40.9408 23.2359V22.6733C40.9408 21.1099 41.7204 20.2023 43.5195 20.2023C44.3858 20.2023 45.2234 20.4214 45.7319 20.6504L46.4656 18.5756C45.7917 18.1588 44.5729 17.9191 43.2831 17.9191H43.2744ZM46.8909 23.3191C46.8909 26.155 48.4527 28 52.64 28C54.2252 28 56.0235 27.6977 56.8984 27.2901L56.2955 25.2779C55.3253 25.6427 54.0121 25.8618 52.77 25.8618C50.9249 25.8618 50.2622 25.2779 50.1912 23.9534H57.1704V22.4114C57.1704 19.7397 55.6805 17.9076 52.2728 17.9076C48.6519 17.9076 46.89 19.7114 46.89 22.4527V23.3252L46.8909 23.3191ZM50.2025 22.0641C50.2025 20.7611 50.7829 19.9374 52.2814 19.9374C53.7367 19.9374 54.2096 20.7718 54.2096 21.8244V22.0641H50.2025ZM69.4734 22.6481C69.4734 19.9481 67.9948 17.926 64.9664 17.926C63.4289 17.926 62.3643 18.613 61.8792 19.4679V13.0153L58.5668 13.2748V27.7786H61.7025V26.3191C62.1642 27.2466 63.3111 27.987 64.9682 27.987C68 27.987 69.4752 25.9542 69.4752 23.2649L69.4734 22.6481ZM66.1627 23.3069C66.1627 24.6618 65.5598 25.684 63.9746 25.684C62.6146 25.684 61.881 24.829 61.881 23.4527V22.4412C61.881 21.0649 62.6146 20.2099 63.9746 20.2099C65.5598 20.2099 66.1627 21.2214 66.1627 22.587V23.3069ZM70.5874 23.1924C70.5874 25.9756 72.3857 27.9771 76.0412 27.9771C79.6966 27.9771 81.4949 25.9649 81.4949 23.1924V22.7023C81.4949 19.9191 79.6966 17.9176 76.0412 17.9176C72.3857 17.9176 70.5874 19.9298 70.5874 22.7023V23.1924ZM78.1825 23.3908C78.1825 24.6733 77.5796 25.684 76.0412 25.684C74.5028 25.684 73.8999 24.6725 73.8999 23.3908V22.4947C73.8999 21.2122 74.5028 20.2015 76.0412 20.2015C77.5796 20.2015 78.1825 21.213 78.1825 22.4947V23.3908ZM82.595 23.1924C82.595 25.9756 84.3933 27.9771 88.0488 27.9771C91.7043 27.9771 93.5026 25.9649 93.5026 23.1924V22.7023C93.5026 19.9191 91.7043 17.9176 88.0488 17.9176C84.3933 17.9176 82.595 19.9298 82.595 22.7023V23.1924ZM90.2005 23.3908C90.2005 24.6733 89.5976 25.684 88.0592 25.684C86.5208 25.684 85.917 24.6916 85.917 23.3939V22.4977C85.917 21.2153 86.5199 20.2046 88.0583 20.2046C89.5968 20.2046 90.1996 21.216 90.1996 22.4977L90.2005 23.3908ZM98.0676 13.0076L94.7551 13.2672V27.7527H98.0676V23.0305L101.474 27.7527H105L101.428 22.8672L104.858 18.1038H101.332L98.0667 22.7114" fill="#8C9EBC"/>
</svg>
