<svg width="121" height="40" viewBox="0 0 121 40" fill="none" xmlns="http://www.w3.org/2000/svg">
<path d="M95.5645 13.2971C95.5567 13.2701 95.5487 13.2432 95.5382 13.2163C89.3072 13.219 83.0788 13.2163 76.8505 13.219C76.8347 13.2378 76.8242 13.2567 76.8215 13.2809C76.8215 18.2258 76.8215 23.1679 76.8188 28.1128C76.8583 28.3766 77.0003 28.6162 77.1898 28.7965C77.1977 28.7992 77.2161 28.8018 77.224 28.8046C77.3213 28.9095 77.4607 28.9607 77.5922 29.0092C77.6895 29.0038 77.7842 29.0469 77.8815 29.0361H85.6144C85.688 29.0334 85.7643 29.0469 85.8353 29.0173C85.838 29.0066 85.8405 28.9877 85.8432 28.9769C85.8458 28.9634 85.8484 28.9338 85.8511 28.9177C86.0168 27.9702 86.1772 27.02 86.3535 26.0725L86.3693 25.9513C85.6539 25.9486 84.9358 25.9513 84.2204 25.9486C84.0468 25.9432 83.868 25.9486 83.6943 25.927C83.3972 25.9136 83.0973 25.9243 82.8001 25.8948C82.4319 25.8948 82.0663 25.8597 81.698 25.8597C81.4087 25.8301 81.1167 25.8409 80.8248 25.8275C80.6355 25.8033 80.4408 25.814 80.2488 25.8059C79.9358 25.7709 79.6176 25.7952 79.3046 25.7602C78.9732 25.7629 78.6418 25.7333 78.3103 25.7252C78.313 25.7225 78.3156 25.7117 78.3156 25.709C78.4261 25.7117 78.5339 25.7036 78.6444 25.701C78.889 25.6686 79.1362 25.6902 79.3808 25.6552C79.636 25.6552 79.8885 25.6202 80.1436 25.6202C80.3698 25.5879 80.5986 25.6067 80.8248 25.5744C81.0905 25.5744 81.3508 25.5394 81.6165 25.5367C81.8349 25.5071 82.0558 25.5233 82.2741 25.4937C82.5292 25.4963 82.7817 25.456 83.0369 25.4587C83.2867 25.429 83.5418 25.4371 83.7917 25.4102C83.7681 25.3106 83.7496 25.211 83.7286 25.1114C83.7102 25.0495 83.6366 25.0629 83.5892 25.0548C83.0185 24.9713 82.4503 24.888 81.8822 24.8072C81.919 24.7776 81.969 24.791 82.0111 24.7857C82.453 24.7506 82.8922 24.7103 83.3341 24.678C83.434 24.6726 83.5314 24.6538 83.6313 24.6511C83.5866 24.5111 83.5603 24.3577 83.4998 24.2285C82.5556 24.0804 81.6113 23.9485 80.6697 23.7897C80.9143 23.7493 81.1615 23.7305 81.4061 23.7036L81.4272 23.6955C82.2083 23.612 82.9922 23.5178 83.7733 23.4397C84.7649 23.4344 85.7539 23.437 86.7455 23.4397C86.777 23.4344 86.8323 23.4505 86.8376 23.4047C86.9191 22.9687 86.998 22.5326 87.0795 22.0965C87.1926 21.4909 87.3714 20.8933 87.6476 20.3415C88.0816 19.4532 88.7681 18.6995 89.6044 18.1988C90.3856 17.7304 91.2905 17.5043 92.19 17.4612C92.482 17.4343 92.7766 17.4424 93.0659 17.4801C93.2553 17.5259 93.4499 17.5797 93.5998 17.7116C93.7234 17.8139 93.7971 17.9646 93.8523 18.1154C93.9734 18.4734 94.0417 18.8448 94.0996 19.219C94.1022 19.3697 94.1285 19.5393 94.0496 19.6766C93.9759 19.8112 93.8287 19.8758 93.6893 19.9162C93.1816 20.0508 92.6503 19.9242 92.1427 20.0508C91.7245 20.1423 91.3352 20.3792 91.0695 20.721C90.7566 21.1194 90.5908 21.6146 90.4988 22.11C90.4278 22.5515 90.3383 22.9929 90.2673 23.4371C90.7671 23.4398 91.2695 23.4344 91.7718 23.4398C91.9717 23.4398 92.1769 23.5528 92.2584 23.7466C92.3636 23.9943 92.3399 24.2743 92.3057 24.5353C92.2637 24.8288 92.1953 25.1194 92.0664 25.3886C91.9585 25.6174 91.7797 25.8274 91.5351 25.9082C91.4088 25.9593 91.2721 25.9485 91.1379 25.9485C90.696 25.9485 90.2541 25.9539 89.8123 25.9485C89.7413 26.2797 89.6939 26.6188 89.6308 26.9553C89.5151 27.6094 89.402 28.2662 89.2862 28.923C89.2836 28.9446 89.281 28.9903 89.281 29.0145C89.4888 29.0253 89.6966 29.0145 89.9043 29.0199C91.4457 29.0199 92.9896 29.0171 94.5336 29.0199C94.6993 29.0253 94.8676 28.9849 95.0123 28.9014C95.0991 28.8692 95.1517 28.7911 95.2279 28.748C95.3016 28.705 95.3226 28.6162 95.3857 28.5596C95.4541 28.4358 95.5251 28.3066 95.5304 28.1612C95.5383 28.1612 95.5593 28.1585 95.5699 28.1558C95.5619 23.2029 95.5698 18.25 95.5645 13.2971Z" fill="#8C9EBC"/>
<path d="M79.2693 10.0415C79.4928 9.96881 79.7269 10.0173 79.9558 10.0011C84.251 10.0038 88.5461 10.0011 92.8413 10.0011C93.0964 9.99034 93.32 10.1384 93.5567 10.2138C93.7461 10.2918 93.9433 10.3537 94.1327 10.4372C94.1722 10.4533 94.2011 10.4883 94.23 10.5179C94.2273 10.8733 94.23 11.2313 94.23 11.5893C94.2326 11.6835 94.2168 11.7804 94.2484 11.8719C94.3037 11.88 94.3325 11.9231 94.3694 11.9581C94.543 12.0388 94.6903 12.1707 94.8481 12.2784C95.0848 12.4507 95.3373 12.6014 95.5688 12.7791C95.5792 12.8491 95.5714 12.9217 95.5503 12.9863C95.5267 13.0617 95.5424 13.1425 95.5346 13.2178C89.3035 13.2205 83.0752 13.2178 76.8468 13.2205C76.8336 13.1317 76.8573 13.0429 76.8205 12.9594C76.8152 12.8894 76.7915 12.7979 76.8573 12.7495C77.1203 12.561 77.3991 12.3914 77.6568 12.1922C77.8173 12.0873 77.9725 11.9796 78.1276 11.8719C78.1592 11.8181 78.1487 11.7508 78.1487 11.6916C78.1487 11.3013 78.1487 10.9109 78.1513 10.5206C78.2407 10.4022 78.396 10.3887 78.5195 10.3295C78.7695 10.2326 79.022 10.1384 79.2693 10.0415ZM79.285 10.0872C78.9484 10.2191 78.6091 10.3457 78.2724 10.4776C78.2277 10.4856 78.204 10.526 78.1804 10.561C78.183 10.5825 78.1856 10.6202 78.1856 10.6418C78.1829 10.9648 78.1856 11.2878 78.1829 11.6108C78.1856 11.6916 78.175 11.7723 78.204 11.845C78.1698 11.88 78.133 11.915 78.0909 11.9419C77.7095 12.1949 77.3413 12.4695 76.9599 12.7198C76.8941 12.7602 76.8205 12.8141 76.8415 12.9029C76.8284 12.9513 76.852 12.9917 76.902 12.9783C77.7279 12.9729 78.5512 12.9836 79.3771 12.9702C80.6054 12.9702 81.8311 12.9729 83.0594 12.9702L83.0778 12.9621C83.1331 12.9756 83.1883 12.9702 83.2461 12.9702C85.4713 12.9702 87.6965 12.9729 89.9243 12.9702C90.6239 12.9729 91.3262 12.9702 92.0284 12.9702C93.1857 12.9702 94.3457 12.981 95.503 12.9756C95.5372 12.9675 95.5477 12.9433 95.5346 12.9002C95.5319 12.8571 95.5477 12.7979 95.503 12.771C95.3189 12.6822 95.1611 12.5449 94.9848 12.4372C94.9218 12.3834 94.8402 12.3538 94.7928 12.2811C94.6113 12.1761 94.443 12.0469 94.2641 11.9311C94.2299 11.9096 94.2036 11.8746 94.1747 11.845C94.1905 11.7885 94.1958 11.7266 94.1958 11.6673C94.1931 11.3255 94.1958 10.9836 94.1931 10.6418C94.201 10.5879 94.1984 10.526 94.151 10.491C93.8354 10.3753 93.5224 10.2514 93.2094 10.133C93.1121 10.0846 93.0042 10.0576 92.899 10.0415H79.4559C79.3981 10.0442 79.3429 10.0738 79.285 10.0872Z" fill="#DFDFDF" stroke="#F8F3B5" stroke-width="0.0047786"/>
<path d="M78.1887 10.6399C78.4202 10.7395 78.6674 10.796 78.9015 10.8929C79.0278 10.9441 79.0672 11.084 79.1224 11.1971C79.0672 11.2536 79.0014 11.2994 78.9357 11.3425C78.6937 11.5093 78.4464 11.6709 78.2071 11.8431C78.1781 11.7705 78.1887 11.6897 78.186 11.6089C78.1887 11.2859 78.1861 10.9629 78.1887 10.6399ZM93.4835 10.8929C93.7175 10.7987 93.9622 10.7341 94.1963 10.6399C94.1989 10.9818 94.1963 11.3236 94.1989 11.6655C94.1989 11.7247 94.1937 11.7866 94.1779 11.8431C93.9727 11.6978 93.7649 11.5605 93.5598 11.4178C93.4598 11.3425 93.3494 11.2859 93.2599 11.1944C93.3152 11.0814 93.3573 10.9441 93.4835 10.8929Z" fill="#415068"/>
<path d="M82.1996 11.0033C82.4889 10.9333 82.8124 11.1971 82.7888 11.5067C82.7914 11.8109 82.4783 12.0585 82.1917 11.9885C82.076 11.9481 81.9655 11.8862 81.8945 11.7813C81.8024 11.6386 81.7813 11.4475 81.855 11.2913C81.9076 11.1406 82.0497 11.0383 82.1996 11.0033ZM89.7036 11.1729C89.8246 11.0356 90.0166 10.9576 90.1955 11.006C90.3296 11.0464 90.4612 11.1352 90.519 11.2698C90.6347 11.5013 90.5453 11.8136 90.3191 11.9347C90.1192 12.0477 89.8667 11.9939 89.7142 11.8297C89.559 11.6494 89.5484 11.3533 89.7036 11.1729Z" fill="#415068"/>
<path d="M78.9355 11.3441C79.0013 11.301 79.067 11.2553 79.1223 11.1987L79.1407 11.2176C79.1591 11.3576 79.1459 11.5002 79.1512 11.6402C79.1433 12.0601 79.1591 12.4827 79.1407 12.9027C78.3753 12.9027 77.6099 12.8973 76.8445 12.9027C76.8234 12.8138 76.8971 12.76 76.9628 12.7196C77.3442 12.4693 77.7125 12.1947 78.0938 11.9417C78.136 11.9148 78.1727 11.8798 78.2069 11.8448C78.4463 11.6725 78.6935 11.511 78.9355 11.3441ZM93.2334 11.2903C93.2334 11.2553 93.2413 11.2257 93.2597 11.196C93.3491 11.2876 93.4597 11.3441 93.5596 11.4195C93.7647 11.5621 93.9725 11.6994 94.1777 11.8448C94.2066 11.8744 94.2329 11.9094 94.2671 11.9309C94.4459 12.0467 94.6142 12.1759 94.7958 12.2808C94.8431 12.3535 94.9246 12.3831 94.9878 12.437C95.164 12.5446 95.3218 12.6819 95.5059 12.7708C95.5506 12.7977 95.5349 12.8569 95.5375 12.9C94.772 12.9027 94.0093 12.8973 93.2439 12.9027C93.2308 12.795 93.2387 12.6873 93.236 12.5823C93.2361 12.1516 93.2308 11.7209 93.2334 11.2903Z" fill="#8C9EBC"/>
<path d="M95.5376 12.899C94.7721 12.9017 94.0093 12.8963 93.244 12.9017C93.2308 12.794 93.2387 12.6863 93.2361 12.5814C93.2361 12.1507 93.2308 11.72 93.2334 11.2893C93.2334 11.2543 93.2414 11.2247 93.2597 11.1951C93.315 11.082 93.357 10.9447 93.4833 10.8936C93.7174 10.7994 93.962 10.7348 94.1961 10.6406C94.204 10.5867 94.2014 10.5248 94.154 10.4898C93.8384 10.3741 93.5254 10.2502 93.2124 10.1318C93.1151 10.0834 93.0072 10.0564 92.902 10.0403H79.4589C79.401 10.043 79.3458 10.0726 79.2879 10.086C78.9513 10.2179 78.612 10.3445 78.2753 10.4764C78.2306 10.4844 78.2069 10.5248 78.1832 10.5598C78.1859 10.5813 78.1885 10.619 78.1885 10.6406C78.42 10.7402 78.6672 10.7967 78.9013 10.8936C79.0275 10.9447 79.067 11.0847 79.1222 11.1978L79.1406 11.2166C79.159 11.3566 79.1459 11.4992 79.1511 11.6392C79.1432 12.0591 79.159 12.4818 79.1406 12.9017C78.3752 12.9017 77.6099 12.8963 76.8444 12.9017C76.8313 12.9501 76.8549 12.9905 76.9049 12.9771C77.7308 12.9717 78.5541 12.9824 79.38 12.969C80.6083 12.969 81.834 12.9717 83.0623 12.969L83.0807 12.9609C83.136 12.9744 83.1912 12.969 83.249 12.969C85.4742 12.969 87.6994 12.9717 89.9271 12.969C90.6268 12.9717 91.3291 12.969 92.0313 12.969C93.1886 12.969 94.3486 12.9797 95.5059 12.9744C95.5402 12.9663 95.5507 12.9421 95.5376 12.899ZM81.8577 11.292C81.9103 11.1412 82.0523 11.0389 82.2023 11.004C82.4916 10.934 82.8151 11.1978 82.7915 11.5073C82.7941 11.8115 82.481 12.0591 82.1944 11.9892C82.0787 11.9488 81.9681 11.8869 81.8972 11.7819C81.8051 11.6392 81.7841 11.4481 81.8577 11.292ZM89.7063 11.1735C89.8273 11.0363 90.0193 10.9582 90.1982 11.0066C90.3323 11.047 90.4638 11.1359 90.5217 11.2704C90.6374 11.5019 90.548 11.8142 90.3218 11.9353C90.1219 12.0484 89.8694 11.9945 89.7169 11.8303C89.5617 11.65 89.5511 11.3539 89.7063 11.1735Z" fill="#6D7F9E"/>
<path d="M90.3755 14.0776C90.4122 14.0856 90.1838 13.8529 90.2285 13.8421C90.2706 13.8475 90.4301 13.7208 90.623 13.8242C90.8159 13.9276 90.7681 14.1696 90.7462 14.2594C90.7201 14.3662 90.6537 14.4343 90.6011 14.4882C90.5722 14.5124 90.5073 14.5501 90.4678 14.5474C90.4915 14.4155 90.4152 14.394 90.41 14.2594L90.3755 14.0776Z" fill="#415068"/>
<path d="M81.9682 14.2268C81.9629 14.3614 81.8866 14.3829 81.9103 14.5148C81.8709 14.5175 81.806 14.4798 81.7771 14.4556C81.7245 14.4018 81.6581 14.3336 81.632 14.2268C81.6101 14.1371 81.5623 13.8951 81.7552 13.7916C81.948 13.6882 82.1076 13.8149 82.1497 13.8096C82.1944 13.8203 81.9659 14.0531 82.0027 14.045L81.9682 14.2268Z" fill="#415068"/>
<path d="M90.0323 15.8063C90.0719 15.7711 90.0982 15.7711 90.1508 15.7711C89.8351 16.471 89.4669 17.1709 88.9133 17.7158C88.854 17.7699 88.7915 17.82 88.726 17.8659C88.6626 17.9134 88.6005 17.9579 88.5387 18.0033C88.4782 18.0462 88.4181 18.0895 88.3595 18.1346C88.2096 18.218 88.0781 18.3338 87.9124 18.3849C87.6099 18.5329 87.2838 18.6325 86.9551 18.7025C86.8262 18.7241 86.6947 18.7564 86.5631 18.7591C86.4001 18.8075 86.2265 18.7725 86.0608 18.7833C85.9687 18.7994 85.8871 18.7456 85.7977 18.7564C85.7202 18.7451 85.6428 18.7317 85.5658 18.716C85.4877 18.6996 85.4102 18.6808 85.3333 18.6595C84.1275 18.2745 82.9439 17.3324 82.5991 16.0582C82.5836 15.9724 82.5757 15.8853 82.5757 15.798C82.6125 15.8734 82.6506 15.9482 82.6901 16.0224C83.1806 17.117 84.1538 17.9784 85.3036 18.2381C85.3969 18.2817 85.4979 18.2664 85.5873 18.3041C85.6689 18.3041 85.7478 18.3014 85.8267 18.3283C86.0976 18.3337 86.3685 18.331 86.6394 18.331C86.6762 18.3337 86.7104 18.3149 86.7473 18.3068C87.1988 18.2911 87.6412 18.1651 88.0531 17.974C88.1355 17.9358 88.2167 17.8949 88.2965 17.8519C88.3663 17.8142 88.4345 17.7735 88.5008 17.7297C88.5659 17.6867 88.6293 17.641 88.6906 17.5925C89.1776 17.1978 89.5984 16.6863 89.8842 16.0982C89.9386 15.9924 89.9883 15.8943 90.0323 15.8063Z" fill="#415068"/>
<path d="M89.6022 18.1993C90.3834 17.731 91.2882 17.5048 92.1878 17.4618C92.4797 17.4349 92.7743 17.4429 93.0636 17.4806C93.253 17.5264 93.4476 17.5802 93.5976 17.7121C93.5213 17.7175 93.4476 17.6825 93.3714 17.6717C93.1557 17.6287 92.9321 17.6448 92.7138 17.6394C92.0799 17.6394 91.4408 17.6906 90.8279 17.8682C90.507 17.9678 90.1862 18.0836 89.8942 18.2559C89.3892 18.5412 88.9342 18.918 88.5659 19.3703C87.9084 20.1429 87.5217 21.1226 87.335 22.1213C87.2456 22.657 87.1429 23.1899 87.0614 23.7283C86.9299 23.7417 86.7958 23.7337 86.6643 23.7337C86.0856 23.731 85.507 23.7283 84.9283 23.723C84.8047 23.7283 84.6837 23.6987 84.5601 23.7068C83.508 23.7121 82.4559 23.7041 81.4038 23.7041L81.4249 23.696C82.206 23.6125 82.9898 23.5183 83.771 23.4402C84.7626 23.4349 85.7516 23.4375 86.7432 23.4402C86.7747 23.4349 86.83 23.451 86.8352 23.4052C86.9168 22.9692 86.9957 22.5331 87.0772 22.097C87.1903 21.4914 87.3692 20.8938 87.6453 20.342C88.0793 19.4537 88.7658 18.7 89.6022 18.1993Z" fill="white" stroke="#0D69B3" stroke-width="0.0047786"/>
<path d="M90.8293 17.8685C91.4422 17.6908 92.0813 17.6396 92.7152 17.6396C92.9335 17.645 93.1571 17.6289 93.3727 17.672C93.449 17.6827 93.5226 17.7177 93.5989 17.7123C93.7226 17.8146 93.7962 17.9654 93.8515 18.1161C93.9725 18.4741 94.0408 18.8456 94.0987 19.2197C94.1013 19.3705 94.1276 19.5401 94.0487 19.6774C93.9751 19.8119 93.8278 19.8765 93.6884 19.9169C93.1807 20.0515 92.6495 19.925 92.1418 20.0515C91.7236 20.143 91.3343 20.3799 91.0687 20.7218C90.7557 21.1201 90.59 21.6154 90.4979 22.1108C90.4269 22.5522 90.3375 22.9936 90.2664 23.4378C90.2349 23.5374 90.2165 23.6451 90.1981 23.7501C90.6951 23.7582 91.1923 23.7501 91.6894 23.7555C91.8787 23.7501 92.0681 23.7608 92.2575 23.7474C92.3627 23.995 92.3391 24.275 92.3049 24.5361C92.2628 24.8295 92.1944 25.1202 92.0655 25.3894C91.9576 25.6182 91.7788 25.8282 91.5342 25.9089C91.408 25.9601 91.2712 25.9493 91.1371 25.9493C90.6951 25.9493 90.2532 25.9546 89.8114 25.9493C89.7404 26.2804 89.6931 26.6195 89.6299 26.956C89.5143 27.6101 89.4011 28.2669 89.2854 28.9237C89.2827 28.9453 89.2801 28.991 89.2801 29.0153V29.018C88.1307 29.018 86.9839 29.0207 85.8345 29.018C85.8372 29.0072 85.8398 28.9883 85.8424 28.9776C85.8451 28.9641 85.8477 28.9345 85.8503 28.9184C85.853 28.9399 85.8555 28.9803 85.8582 28.9991C85.9292 29.0072 86.0581 29.0449 86.0765 28.9399C86.2554 27.9493 86.4211 26.9534 86.6052 25.9627C86.5342 25.9466 86.4606 25.9466 86.3869 25.9601C86.3764 25.9977 86.3659 26.0354 86.3527 26.0731L86.3685 25.952C85.6531 25.9492 84.935 25.952 84.2196 25.9492C84.046 25.9439 83.8672 25.9492 83.6936 25.9277C83.3964 25.9142 83.0965 25.925 82.7993 25.8954C82.4311 25.8954 82.0655 25.8604 81.6973 25.8604C81.4079 25.8308 81.116 25.8415 80.824 25.8281C80.6347 25.8039 80.44 25.8146 80.2481 25.8066C79.9351 25.7715 79.6168 25.7959 79.3038 25.7608C78.9724 25.7635 78.641 25.7339 78.3096 25.7258C78.3122 25.7231 78.3148 25.7124 78.3148 25.7097C78.4253 25.7124 78.5331 25.7042 78.6436 25.7016C78.8882 25.6693 79.1355 25.6908 79.3801 25.6558C79.6352 25.6558 79.8877 25.6208 80.1428 25.6208C80.369 25.5885 80.5979 25.6073 80.824 25.5751C81.0897 25.5751 81.3501 25.54 81.6158 25.5374C81.8341 25.5078 82.055 25.5239 82.2733 25.4943C82.5285 25.497 82.781 25.4566 83.0361 25.4593C83.286 25.4296 83.541 25.4377 83.7909 25.4108C83.7673 25.3112 83.7488 25.2117 83.7278 25.112C83.7094 25.0501 83.6358 25.0635 83.5884 25.0555C83.0177 24.972 82.4496 24.8886 81.8814 24.8078C81.9182 24.7782 81.9682 24.7916 82.0103 24.7863C82.4522 24.7512 82.8914 24.7109 83.3333 24.6786C83.4333 24.6732 83.5306 24.6544 83.6305 24.6517C83.5858 24.5117 83.5595 24.3583 83.499 24.2291C82.5548 24.081 81.6105 23.9491 80.6689 23.7903C80.9135 23.75 81.1607 23.7311 81.4054 23.7042C82.4574 23.7042 83.5095 23.7123 84.5616 23.7069C84.6852 23.6988 84.8062 23.7284 84.9299 23.7231C85.5085 23.7284 86.0872 23.7312 86.6658 23.7338C86.7973 23.7338 86.9315 23.7419 87.063 23.7284C87.1445 23.1901 87.2471 22.6571 87.3365 22.1214C87.5233 21.1227 87.9099 20.143 88.5675 19.3704C88.9357 18.9182 89.3907 18.5413 89.8957 18.256C90.1875 18.0838 90.5084 17.9681 90.8293 17.8685Z" fill="#415068" stroke="#107BD4" stroke-width="0.0047786"/>
<path d="M90.2672 23.4355C90.767 23.4383 91.2694 23.4329 91.7717 23.4383C91.9716 23.4383 92.1768 23.5513 92.2583 23.7451C92.0689 23.7586 91.8796 23.7479 91.6902 23.7532C91.1931 23.7479 90.6959 23.756 90.1988 23.7479C90.2173 23.6428 90.2356 23.5352 90.2672 23.4355ZM86.3876 25.9578C86.4613 25.9443 86.535 25.9443 86.606 25.9605C86.4218 26.9511 86.2561 27.9471 86.0773 28.9377C86.0589 29.0426 85.93 29.005 85.859 28.9969C85.8563 28.9781 85.8537 28.9377 85.8511 28.9161C86.0168 27.9686 86.1772 27.0184 86.3534 26.0709C86.3666 26.0332 86.3771 25.9955 86.3876 25.9578Z" fill="white" stroke="#0D69B3" stroke-width="0.0047786"/>
<path d="M90.4968 14.1552C90.4758 14.1148 90.4732 14.0663 90.4732 14.0206L90.4521 14.0233C90.4206 13.9048 90.3233 13.7918 90.197 13.7864C90.1023 13.7783 89.9839 13.781 89.9288 13.8725C89.8236 14.0179 89.8735 14.2036 89.8682 14.3678C89.8682 14.3786 89.8709 14.3974 89.8709 14.4082C89.8709 14.5186 89.8578 14.6262 89.8393 14.7339C89.8236 14.7662 89.8157 14.8012 89.8157 14.8389C89.771 15.0919 89.6815 15.3423 89.5606 15.5711C89.5369 15.6034 89.5185 15.6384 89.5106 15.676C89.4317 15.816 89.337 15.9452 89.2397 16.0744C89.2239 16.0879 89.2107 16.104 89.1976 16.1202C89.1292 16.2063 89.0556 16.279 88.9793 16.3544C88.9609 16.3651 88.9477 16.3786 88.9319 16.3894C88.8425 16.4782 88.7425 16.5617 88.6347 16.6289C88.6215 16.637 88.6084 16.6478 88.5926 16.6586C87.9192 17.1135 87.1013 17.3019 86.3043 17.31C85.6283 17.3315 84.947 17.1835 84.3368 16.8847C84.3264 16.8793 84.3001 16.8685 84.2895 16.8631C84.1869 16.8066 84.0817 16.7582 83.987 16.6882C83.966 16.6774 83.9449 16.6639 83.9213 16.6532C83.8239 16.594 83.7319 16.5294 83.6451 16.454C83.6161 16.4271 83.5846 16.4055 83.553 16.3813C83.4583 16.3032 83.361 16.2198 83.2795 16.1256C83.2585 16.1014 83.2374 16.0798 83.2164 16.0583C82.9298 15.7541 82.7062 15.3826 82.5878 14.9789C82.4747 14.6585 82.4905 14.3086 82.4774 13.9721C82.3826 13.8241 82.1828 13.7406 82.025 13.8321C81.9592 13.8806 81.9513 13.9694 81.9013 14.0313C81.8198 14.9196 82.1907 15.8053 82.7825 16.4459C82.7825 16.4674 82.793 16.4809 82.8114 16.489C82.9167 16.5886 83.0192 16.6909 83.1244 16.7878C83.1428 16.8066 83.1638 16.8254 83.1875 16.8416C83.2927 16.9304 83.4058 17.0112 83.5163 17.0946C83.5373 17.1108 83.5584 17.1242 83.5821 17.1377C83.7267 17.2238 83.8634 17.3261 84.0187 17.3853C84.0292 17.3934 84.0476 17.4069 84.0581 17.4123C84.5579 17.6572 85.0971 17.8241 85.6494 17.878C85.7099 17.878 85.7704 17.8833 85.8309 17.8968C86.0939 17.9129 86.357 17.9049 86.62 17.8995C87.4327 17.8268 88.2718 17.6249 88.9504 17.135L88.9583 17.1458C88.9793 17.1269 88.9977 17.1108 89.0188 17.0946C89.1266 17.0139 89.2319 16.9277 89.3371 16.8389C89.3607 16.8201 89.387 16.7985 89.4107 16.7743C89.5264 16.6451 89.6606 16.5267 89.7579 16.3786L89.7737 16.3867C89.7816 16.3732 89.7947 16.3463 89.8027 16.3328C89.892 16.209 89.9736 16.0798 90.0525 15.9506C90.0578 15.9425 90.0709 15.9291 90.0762 15.921L90.0657 15.9102C90.0736 15.8995 90.092 15.8779 90.0999 15.8672C90.2446 15.5657 90.3734 15.2507 90.4181 14.917C90.4366 14.9089 90.4471 14.8927 90.4471 14.8739C90.4498 14.7662 90.4866 14.6639 90.4761 14.5562C90.4994 14.4243 90.5021 14.2898 90.4968 14.1552Z" fill="white" stroke="white" stroke-width="0.0047786"/>
<path d="M81.6978 14.0621C81.911 14.1306 82.4008 13.9584 82.5394 14.116L81.6978 14.0621ZM81.8205 14.7261C82.0248 14.6533 82.4629 14.4811 82.6446 14.5826L81.8205 14.7261ZM82.0309 15.3901C82.1297 15.4228 82.3244 15.2453 82.4211 15.1932C82.565 15.1158 82.7126 15.0564 82.8726 15.0312L82.0309 15.3901ZM82.3466 16.09C82.4484 15.9418 82.5704 15.8188 82.7175 15.7135C82.8634 15.6092 83.2625 15.3306 83.4337 15.426L82.3466 16.09ZM82.6446 16.5925C82.7603 16.4984 82.8073 16.332 82.9288 16.2331C83.0756 16.1135 83.3006 16.0921 83.4512 16.0182L82.6446 16.5925ZM83.14 16.9648C83.1746 16.7045 83.4328 16.3905 83.6792 16.413L83.14 16.9648ZM83.5214 17.3282C83.6516 17.3149 83.7617 17.0166 83.8498 16.9155C83.9817 16.7641 84.1184 16.7175 84.2929 16.6642L83.5214 17.3282ZM84.2754 17.6512C84.2669 17.4629 84.4571 16.923 84.6787 16.9514L84.2754 17.6512ZM84.8365 17.8307C84.8273 17.6081 84.9397 16.9387 85.2047 16.9155L84.8365 17.8307ZM85.4151 18.1896C85.3649 17.8784 85.3681 17.4281 85.608 17.2026L85.4151 18.1896ZM86.1341 18.2614C86.1073 18.0019 85.8554 17.4775 86.1341 17.2744V18.2614ZM86.9056 18.0819C86.7853 17.9392 86.7154 17.3764 86.7653 17.2205L86.9056 18.0819ZM87.642 17.9563C87.5493 17.7839 87.4344 17.6221 87.3992 17.422C87.3782 17.3024 87.415 17.1321 87.3965 17.0411L87.642 17.9563ZM88.2558 17.6871C88.0546 17.5524 87.9988 17.0575 88.0629 16.8437L88.2558 17.6871ZM88.852 17.4179C88.7089 17.1038 88.5563 16.8602 88.5538 16.5027L88.852 17.4179ZM89.4306 16.8437C89.2082 16.6906 88.9245 16.4123 88.9572 16.1079L89.4306 16.8437ZM90.0443 16.3592C89.7065 16.2825 89.301 15.9732 89.0975 15.6952L90.0443 16.3592ZM90.3249 15.767C90.0812 15.7135 89.2759 15.3919 89.3254 15.0671L90.3249 15.767ZM90.5879 15.1389C90.2483 15.0115 89.7543 14.8969 89.4832 14.6543L90.5879 15.1389ZM90.7632 14.5646C90.5493 14.5833 90.2429 14.4774 90.0255 14.439C89.7841 14.3964 89.5603 14.3131 89.3254 14.2595L90.7632 14.5646ZM90.5528 14.0083C90.1403 14.0336 89.7532 13.8891 89.378 13.7571L90.5528 14.0083Z" fill="#DFDFDF"/>
<path d="M37.7643 15.305C38.1455 15.2462 38.5841 15.2094 38.9077 15.4522C39.1091 15.6067 39.181 15.8864 39.1666 16.1367C39.181 16.5488 38.994 16.9904 38.6345 17.2038C38.3181 17.3805 37.937 17.3951 37.5845 17.3584C37.3472 17.329 37.1099 17.1965 36.9877 16.9757C36.7143 16.3354 37.0524 15.4302 37.7643 15.305ZM26.3588 15.7687C26.3804 15.5479 26.5746 15.3492 26.7975 15.3566C28.4587 15.3566 30.1127 15.3639 31.7668 15.3566C31.9465 15.3419 32.1407 15.4228 32.227 15.5847C32.3492 15.8055 32.2414 16.0484 32.227 16.2765C32.1767 16.5856 32.191 16.9978 31.8387 17.1155C30.6305 17.1523 29.4223 17.1155 28.2142 17.1302C28.0991 17.9103 27.9913 18.6831 27.8762 19.4558C27.8762 19.4853 27.8834 19.5516 27.8834 19.5809C28.7679 19.5736 29.6524 19.5809 30.537 19.5736C30.7815 19.5589 31.0403 19.7724 31.0188 20.0373C30.9972 20.3096 30.9397 20.5745 30.9037 20.8469C30.8749 21.0308 30.7311 21.2001 30.5441 21.2369C29.5589 21.259 28.5593 21.2148 27.5742 21.259C27.4159 22.3703 27.2289 23.4816 27.0635 24.5929C27.042 24.8137 26.8693 25.0051 26.6536 25.0124C26.2437 25.0198 25.8338 25.0198 25.4239 25.0124C25.1579 25.0198 24.9421 24.7179 25.014 24.4604C25.4528 21.5608 25.9058 18.6685 26.3588 15.7687ZM33.6652 15.3712C34.0392 15.3418 34.4203 15.3639 34.7943 15.3566C35.0244 15.3419 35.2545 15.5258 35.2761 15.7687C35.2761 15.96 35.2257 16.1514 35.2042 16.3427C34.9021 18.3152 34.5929 20.2876 34.2908 22.26C34.2477 22.5764 34.1686 22.915 34.2621 23.2388C34.37 23.5626 34.8517 23.4228 34.9668 23.7613C35.0387 24.0336 34.9596 24.3206 34.938 24.6003C34.9165 24.9683 34.5066 25.0492 34.2262 25.1303C33.6149 25.248 32.8741 25.1597 32.4355 24.6445C32.119 24.2692 32.0975 23.7392 32.1622 23.2683C32.5434 20.766 32.9245 18.2637 33.3129 15.754C33.3344 15.57 33.4782 15.4007 33.6652 15.3712ZM47.94 15.7687C47.9615 15.5479 48.1557 15.3566 48.3715 15.3566H49.4646C49.7378 15.3492 49.9608 15.651 49.8961 15.9159C49.6444 17.5497 49.3855 19.1836 49.1338 20.8174C49.5149 20.7586 49.9465 20.685 50.2125 20.3685C50.6583 19.8533 51.0252 19.2572 51.2984 18.6317C51.3918 18.3888 51.4422 18.0355 51.7515 17.9913C52.1614 17.9766 52.5784 17.984 52.9883 17.9913C53.2688 17.984 53.4774 18.3078 53.3839 18.5727C53.276 18.9629 53.0962 19.3234 52.9093 19.6694C52.4922 20.3612 52.032 21.0456 51.4278 21.5902C51.6939 22.4071 52.0319 23.202 52.3268 24.0042C52.413 24.2692 52.6217 24.5782 52.4274 24.8359C52.2045 25.145 51.7874 24.9904 51.4782 25.0272C51.1546 24.9904 50.6871 25.1596 50.5073 24.7843C50.1693 23.9821 49.8889 23.1579 49.5437 22.3556C49.3423 22.3629 49.1338 22.3704 48.9324 22.3483C48.9181 22.3777 48.8893 22.4365 48.8749 22.4661C48.767 23.202 48.652 23.938 48.5369 24.6739C48.4937 24.8505 48.3571 25.0051 48.1701 25.0199C47.789 25.0346 47.4007 25.0272 47.0123 25.0272C46.8469 25.0272 46.6959 24.9168 46.624 24.7696C46.5521 24.6223 46.5952 24.4531 46.6169 24.2912C47.0626 21.4504 47.5013 18.6095 47.94 15.7687ZM67.9247 16.5709C67.9751 16.3648 68.1692 16.225 68.3706 16.2323C68.6583 16.2397 68.9531 16.225 69.2479 16.2397C69.4853 16.247 69.6722 16.4899 69.6434 16.7254C69.6003 17.1449 69.4996 17.5645 69.4708 17.9839C69.7513 17.9839 70.0389 17.9766 70.3194 17.9839C70.5711 17.9839 70.7797 18.2489 70.7365 18.4991C70.7005 18.7273 70.6502 18.9481 70.6142 19.1762C70.5783 19.3676 70.4201 19.5221 70.2403 19.5515C69.8951 19.5736 69.5572 19.5368 69.2192 19.5736C69.0753 20.5598 68.9171 21.5459 68.7661 22.5322C68.7445 22.7604 68.7301 23.0179 68.8596 23.2167C69.0538 23.4595 69.3917 23.3712 69.665 23.4007C69.8808 23.4669 70.0174 23.7098 69.9814 23.9306C69.9454 24.1808 69.9383 24.431 69.8808 24.6739C69.7945 24.9462 69.4852 24.9977 69.2479 25.0639C68.5935 25.2406 67.8384 25.2406 67.256 24.8505C66.7166 24.4751 66.6303 23.7465 66.6878 23.1283C66.8388 21.936 67.0762 20.7511 67.2056 19.5515C67.0042 19.5588 66.7597 19.5883 66.6087 19.4043C66.4361 19.2203 66.5224 18.948 66.5512 18.7198C66.5944 18.4769 66.5871 18.1605 66.8461 18.028C67.0546 17.947 67.2919 18.006 67.5148 17.9765C67.6515 17.5055 67.7809 17.0346 67.9247 16.5709ZM63.8616 18.9554C64.3147 18.4917 64.8612 18.1091 65.4868 17.9177C65.7601 17.7926 66.1125 18.0281 66.1053 18.3372C66.055 18.742 65.9615 19.1394 65.8968 19.5368C65.8679 19.7356 65.7026 19.9048 65.5084 19.9269C64.8036 20.052 64.1924 20.4861 63.7034 21.0014C63.5812 21.156 63.4014 21.3032 63.3798 21.5166C63.2288 22.5469 63.0706 23.5773 62.9124 24.6076C62.8908 24.8284 62.7038 25.0419 62.4809 25.0272H61.3877C61.1361 25.0419 60.9132 24.7843 60.9419 24.5267C61.2583 22.488 61.5748 20.4568 61.884 18.4181C61.8984 18.2121 62.0422 18.0134 62.2507 17.9913C62.5168 17.9766 62.7829 17.9839 63.0562 17.9839C63.2719 17.9839 63.4732 18.1826 63.4732 18.4108C63.4732 18.7273 63.4445 19.0511 63.4373 19.3749C63.6099 19.2646 63.7178 19.0879 63.8616 18.9554ZM36.9804 18.0207C37.3687 17.9398 37.7715 18.0061 38.1598 17.9839C38.3828 17.9545 38.6201 18.1017 38.656 18.3299C38.6848 18.5359 38.6272 18.7347 38.6056 18.9334C38.3108 20.8249 38.0159 22.7163 37.7283 24.6077C37.7067 24.8212 37.5342 25.0346 37.3112 25.0272C36.9229 25.0272 36.5345 25.0346 36.1391 25.0199C35.8945 24.9904 35.7147 24.7035 35.7795 24.4605C36.0887 22.4956 36.3836 20.5378 36.6928 18.5727C36.7072 18.3593 36.7647 18.109 36.9804 18.0207ZM60.2515 18.1165C59.18 17.9103 58.087 17.7632 57.0011 17.8735C56.0302 17.9987 55.0522 18.4477 54.4554 19.2646C53.6284 20.3391 53.3479 21.7816 53.5348 23.1211C53.6355 23.7614 53.9088 24.409 54.4194 24.8064C54.894 25.1818 55.534 25.2333 56.1094 25.1376C56.9147 24.9757 57.5979 24.4459 58.1589 23.857C58.1876 24.1073 58.1301 24.3575 58.1445 24.6004C58.1589 24.8285 58.3602 25.0419 58.5831 25.0272H59.3167C59.5324 25.0272 59.7122 24.8212 59.7266 24.6077C60.0358 22.6132 60.3451 20.6261 60.6471 18.639C60.6902 18.3887 60.4961 18.1459 60.2515 18.1165ZM58.2308 21.5829C57.9431 22.1348 57.5404 22.6353 57.0873 23.0621C56.8285 23.2829 56.4977 23.5111 56.1454 23.4375C55.8001 23.3639 55.6347 22.996 55.5557 22.6795C55.3759 21.8552 55.5413 20.9573 55.9943 20.2434C56.1956 19.9122 56.5192 19.662 56.8932 19.5589C57.4182 19.4264 57.972 19.4927 58.4826 19.6399L58.5113 19.6694C58.4466 20.3096 58.3243 20.9426 58.2308 21.5829ZM46.135 20.4789C46.1278 19.7429 45.9336 18.9702 45.4303 18.4182C45.0851 18.0281 44.5673 17.8294 44.0639 17.8367C43.2297 17.8074 42.4459 18.2269 41.8346 18.7861C41.6979 18.8966 41.6045 19.0585 41.4535 19.1468C41.4535 18.9039 41.475 18.661 41.4678 18.4108C41.475 18.1826 41.2665 17.9839 41.0507 17.9839H40.3172C40.0871 17.9839 39.9001 18.19 39.8857 18.4182C39.4327 21.3621 38.9725 24.3059 38.5194 27.2498C38.4547 27.5221 38.6849 27.8018 38.9581 27.7944C39.3608 27.7871 39.7707 27.8239 40.1662 27.7649C40.4827 27.6766 40.4754 27.3013 40.5258 27.029C40.6408 26.3813 40.72 25.7337 40.7919 25.0786C42.2086 25.3583 43.8554 25.167 44.9125 24.0704C45.7754 23.1063 46.1781 21.7742 46.135 20.4789ZM44.1214 21.2222C44.0783 21.8993 43.841 22.5838 43.3808 23.0768C42.7839 23.6583 41.8777 23.5773 41.1442 23.3787C41.1299 23.3565 41.1083 23.3124 41.1011 23.2903C41.2161 22.65 41.2737 22.0024 41.4175 21.3694C41.8203 20.6924 42.3092 20.0079 43.0068 19.6326C43.2657 19.5075 43.618 19.5369 43.805 19.7798C44.1214 20.1845 44.1502 20.7292 44.1214 21.2222Z" fill="#8C9EBC" stroke="#107BD4" stroke-width="0.00513445"/>
</svg>
