<svg width="121" height="40" viewBox="0 0 121 40" fill="none" xmlns="http://www.w3.org/2000/svg">
<path d="M35.4124 16.6324C35.4124 16.6324 33.6849 18.9686 33.6849 20.9913C33.6849 20.9913 33.5287 25.7554 40.4083 25.7554H41.3502C41.3502 25.7554 42.7326 26.0705 66.5444 20.9913H60.5133L60.1986 15.6436L57.3708 20.9929H53.0347L59.884 8.00466H64.0313L62.1453 11.7349L66.6073 8.00466H79.6765L78.5458 10.1624H74.086L72.7035 12.9038H76.8508L75.5313 15.33H71.447L69.8128 18.52H74.7132L74.3355 19.4638C74.3355 19.4638 92.1162 16.1838 94 15.8237C94 15.8237 43.3251 33 35.0326 33C35.0326 33 27.0245 33.0357 27.0245 28.3617C27.0245 28.3617 26.113 24.0028 35.4124 16.6324ZM64.7214 20.0941L70.7959 8.34927L64.346 13.2623L64.7214 20.0941ZM54.7948 8.00466L48.0519 20.9929H52.2404L59.0267 8.00466H54.7948ZM36.0309 20.9929H40.2195L43.2361 15.33L42.8997 20.9929H47.34L54.1263 8.00466H49.979L46.8799 13.742L47.3834 8.00466H42.8997L36.0309 20.9929ZM39.18 23.9857C39.18 24.1006 39.1387 24.2077 39.0606 24.307C38.9803 24.4064 38.8718 24.484 38.7329 24.5414C38.594 24.5989 38.4442 24.6268 38.2836 24.6268C38.1252 24.6268 37.9755 24.5989 37.8366 24.5414C37.6977 24.484 37.5892 24.4064 37.5089 24.307C37.4286 24.2077 37.3895 24.1006 37.3895 23.9857C37.3895 23.8708 37.4307 23.7637 37.5089 23.6644C37.5892 23.565 37.6977 23.4874 37.8366 23.43C37.9755 23.3726 38.1252 23.3446 38.2836 23.3446C38.4442 23.3446 38.594 23.3726 38.7329 23.43C38.8718 23.4874 38.9803 23.565 39.0606 23.6644C39.1387 23.7637 39.18 23.8708 39.18 23.9857ZM39.0063 23.9857C39.0063 23.8429 38.9347 23.7203 38.7937 23.6194C38.6526 23.5185 38.4833 23.4672 38.2836 23.4672C38.084 23.4672 37.9147 23.5169 37.7736 23.6194C37.6326 23.7203 37.561 23.8429 37.561 23.9857C37.561 24.1285 37.6326 24.2512 37.7736 24.3521C37.9147 24.453 38.0862 24.5042 38.2836 24.5042C38.4833 24.5042 38.6526 24.453 38.7937 24.3521C38.9347 24.2512 39.0063 24.1285 39.0063 23.9857ZM37.8756 23.6427H38.3032C38.4247 23.6427 38.5115 23.6597 38.5658 23.6954C38.62 23.7311 38.6482 23.7777 38.6482 23.8367C38.6482 23.8833 38.6287 23.9221 38.5853 23.9562C38.5441 23.9904 38.479 24.0137 38.39 24.0292C38.4269 24.04 38.4551 24.0494 38.4725 24.0618C38.4963 24.0773 38.5224 24.1006 38.5484 24.1316C38.5506 24.1347 38.6027 24.1999 38.7047 24.3303H38.4225C38.3314 24.1999 38.2685 24.1223 38.2381 24.0959C38.2077 24.0711 38.1751 24.0571 38.1448 24.0571C38.1382 24.0571 38.1274 24.0571 38.1165 24.0602V24.3303H37.88V23.6427H37.8756ZM38.1144 23.9345H38.2185C38.288 23.9345 38.3357 23.9267 38.3639 23.9097C38.3922 23.8941 38.4074 23.8724 38.4074 23.8476C38.4074 23.8212 38.3943 23.801 38.3661 23.7855C38.3379 23.7684 38.2923 23.7606 38.2272 23.7606H38.1144V23.9345ZM82.3567 8.64111C82.3567 8.75598 82.3176 8.86309 82.2373 8.96243C82.157 9.06178 82.0485 9.1394 81.9096 9.19683C81.7707 9.25427 81.621 9.28221 81.4604 9.28221C81.302 9.28221 81.1522 9.25427 81.0133 9.19683C80.8744 9.1394 80.7659 9.06178 80.6856 8.96243C80.6053 8.86309 80.5641 8.75598 80.5641 8.64111C80.5641 8.52623 80.6053 8.41912 80.6856 8.31978C80.7659 8.22043 80.8744 8.14281 81.0133 8.08538C81.1522 8.02794 81.2998 8 81.4604 8C81.621 8 81.7707 8.02794 81.9096 8.08538C82.0485 8.14281 82.157 8.22043 82.2373 8.31978C82.3176 8.42068 82.3567 8.52623 82.3567 8.64111ZM82.1831 8.64111C82.1831 8.49829 82.1115 8.37566 81.9726 8.27476C81.8315 8.17386 81.6601 8.12263 81.4604 8.12263C81.2607 8.12263 81.0915 8.17386 80.9504 8.27476C80.8093 8.37566 80.7399 8.49829 80.7399 8.64111C80.7399 8.78392 80.8093 8.90655 80.9504 9.00745C81.0915 9.10835 81.2629 9.15958 81.4604 9.15958C81.6601 9.15958 81.8315 9.10835 81.9726 9.00745C82.1115 8.90655 82.1831 8.78392 82.1831 8.64111ZM81.0524 8.29804H81.4799C81.6015 8.29804 81.6883 8.31512 81.7425 8.35082C81.7968 8.38653 81.825 8.4331 81.825 8.49208C81.825 8.53865 81.8033 8.57746 81.7621 8.61161C81.7208 8.64576 81.6557 8.66905 81.5667 8.68457C81.6036 8.69544 81.6297 8.70475 81.647 8.71717C81.6709 8.73269 81.697 8.75598 81.723 8.78702C81.7252 8.78857 81.7773 8.85532 81.8793 8.98572H81.5971C81.506 8.85532 81.443 8.77771 81.4127 8.75132C81.3823 8.72648 81.3497 8.71406 81.3193 8.71406C81.3128 8.71406 81.302 8.71406 81.2911 8.71562V8.98572H81.0524V8.29804ZM81.2911 8.58988H81.3953C81.4647 8.58988 81.5125 8.58212 81.5429 8.56504C81.5711 8.54952 81.5863 8.52779 81.5863 8.50295C81.5863 8.47811 81.5732 8.45638 81.545 8.44086C81.5168 8.42533 81.4712 8.41757 81.4061 8.41757H81.2933V8.58988H81.2911Z" fill="#8C9EBC"/>
</svg>
