<svg width="121" height="40" viewBox="0 0 121 40" fill="none" xmlns="http://www.w3.org/2000/svg">
<path d="M35.9275 30.6932V15.8951H32V30.6786H35.9275V30.6932ZM61.9342 30.8393V27.2165C61.3605 27.2165 60.8751 27.1873 60.5221 27.1288C60.1102 27.0704 59.8013 26.9243 59.5954 26.7198C59.3894 26.5153 59.257 26.2231 59.1835 25.8287C59.1246 25.4635 59.0952 24.9814 59.0952 24.3971V19.2404H61.9342V15.8951H59.0952V10.1394H55.1677V24.4409C55.1677 25.6534 55.2707 26.676 55.4766 27.494C55.6826 28.2975 56.0356 28.9548 56.521 29.4515C57.0065 29.9482 57.6537 30.2988 58.4333 30.5179C59.2276 30.7371 60.2279 30.8393 61.4194 30.8393H61.9342ZM84.4106 30.6932V9H80.4831V30.6932H84.4106ZM51.3874 17.3559C50.2988 16.1873 48.769 15.6029 46.8274 15.6029C45.8859 15.6029 45.0181 15.7928 44.2532 16.1726C43.4735 16.5525 42.8263 17.0784 42.2968 17.7503L42.0908 18.0279V17.7795V15.8951H38.2222V30.6786H42.1203V22.8048V23.3453C42.1203 23.2576 42.1203 23.17 42.1203 23.0823C42.1644 21.6946 42.5027 20.672 43.1499 20.0146C43.8413 19.3134 44.6797 18.9628 45.6359 18.9628C46.7685 18.9628 47.6364 19.3134 48.2101 19.9854C48.769 20.6574 49.0632 21.6069 49.0632 22.8194V22.8632V30.6786H53.0201V22.2935C53.0348 20.1899 52.4759 18.5246 51.3874 17.3559ZM78.4532 23.2722C78.4532 22.2058 78.2619 21.2125 77.8942 20.2776C77.5117 19.3572 76.9822 18.5392 76.3203 17.838C75.6436 17.1368 74.8346 16.5963 73.8932 16.2019C72.9517 15.8074 71.9074 15.6175 70.7747 15.6175C69.7009 15.6175 68.6859 15.822 67.7445 16.2165C66.8031 16.6255 65.9794 17.166 65.288 17.8526C64.5966 18.5392 64.0377 19.3572 63.6405 20.2922C63.2286 21.2271 63.0374 22.2351 63.0374 23.3015C63.0374 24.3679 63.2286 25.3758 63.6111 26.3108C63.9935 27.2457 64.5378 28.0637 65.2145 28.7503C65.8911 29.4369 66.7295 29.992 67.7004 30.3865C68.6712 30.7955 69.745 31 70.8924 31C74.2168 31 76.2761 29.4954 77.5117 28.093L74.6875 25.9602C74.0991 26.6614 72.687 27.6109 70.9218 27.6109C69.8186 27.6109 68.9066 27.3626 68.2152 26.8513C67.5239 26.3546 67.0532 25.6534 66.8031 24.7915L66.759 24.66H78.4532V23.2722ZM66.7884 21.9137C66.7884 20.8327 68.0387 18.9482 70.7306 18.9336C73.4225 18.9336 74.6875 20.8181 74.6875 21.8991L66.7884 21.9137ZM88.8823 28.8234C88.8088 28.6481 88.7058 28.502 88.5734 28.3705C88.441 28.239 88.2939 28.1368 88.1174 28.0637C87.9409 27.9907 87.7497 27.9469 87.5585 27.9469C87.3525 27.9469 87.176 27.9907 86.9995 28.0637C86.823 28.1368 86.6759 28.239 86.5435 28.3705C86.4111 28.502 86.3081 28.6481 86.2346 28.8234C86.161 28.9987 86.1169 29.1886 86.1169 29.3785C86.1169 29.583 86.161 29.7583 86.2346 29.9336C86.3081 30.1089 86.4111 30.255 86.5435 30.3865C86.6759 30.5179 86.823 30.6202 86.9995 30.6932C87.176 30.7663 87.3672 30.8101 87.5585 30.8101C87.7644 30.8101 87.9409 30.7663 88.1174 30.6932C88.2939 30.6202 88.441 30.5179 88.5734 30.3865C88.7058 30.255 88.8088 30.1089 88.8823 29.9336C88.9559 29.7583 89 29.5684 89 29.3785C89 29.1886 88.9559 28.9987 88.8823 28.8234ZM88.647 29.8459C88.5881 29.992 88.4999 30.1235 88.3969 30.2258C88.2939 30.328 88.1615 30.4157 88.0145 30.4741C87.8674 30.5325 87.7203 30.5618 87.5437 30.5618C87.3819 30.5618 87.2201 30.5325 87.073 30.4741C86.9259 30.4157 86.7935 30.328 86.6906 30.2258C86.5876 30.1235 86.4994 29.992 86.4405 29.8459C86.3817 29.6999 86.3523 29.5538 86.3523 29.3785C86.3523 29.2178 86.3817 29.0571 86.4405 28.911C86.4994 28.7649 86.5876 28.6335 86.6906 28.5312C86.7935 28.429 86.9259 28.3413 87.073 28.2829C87.2201 28.2244 87.3672 28.1952 87.5437 28.1952C87.7055 28.1952 87.8674 28.2244 88.0145 28.2829C88.1615 28.3413 88.2939 28.429 88.3969 28.5312C88.4999 28.6335 88.5881 28.7649 88.647 28.911C88.7058 29.0571 88.7352 29.2032 88.7352 29.3785C88.7352 29.5538 88.7058 29.6999 88.647 29.8459ZM87.8232 29.51C87.9409 29.4954 88.0292 29.4515 88.1027 29.3785C88.1763 29.3054 88.2204 29.2032 88.2204 29.0571C88.2204 28.8964 88.1763 28.7795 88.0733 28.6919C87.985 28.6042 87.8232 28.5604 87.632 28.5604H86.9848V30.2112H87.2937V29.5392H87.5143L87.9262 30.2112H88.2498L87.8232 29.51ZM87.6614 29.2616C87.6173 29.2616 87.5732 29.2616 87.5143 29.2616H87.2937V28.7942H87.5143C87.5584 28.7942 87.6026 28.7942 87.6614 28.7942C87.7055 28.7942 87.7497 28.8088 87.7938 28.8234C87.8379 28.838 87.8674 28.8672 87.8821 28.8964C87.9115 28.9256 87.9115 28.9695 87.9115 29.0279C87.9115 29.0863 87.8968 29.1301 87.8821 29.1594C87.8526 29.1886 87.8232 29.2178 87.7938 29.2324C87.7497 29.247 87.7055 29.2616 87.6614 29.2616Z" fill="#8C9EBC"/>
</svg>
