<svg width="122" height="40" viewBox="0 0 122 40" fill="none" xmlns="http://www.w3.org/2000/svg">
<path fill-rule="evenodd" clip-rule="evenodd" d="M38 4.57589H45.1372V23.5777C45.1372 26.5848 46.5238 28.3761 47.6202 29.1439C46.4594 30.1676 42.9122 31.0633 40.2679 28.8879C38.709 27.6056 38 25.4971 38 23.5136V4.57589ZM82.6046 20.3602V18.3633H84.7813V11.3577H82.3909C81.4732 7.15173 77.6985 4 73.1842 4C67.9838 4 63.7682 8.18221 63.7682 13.341V29.7012C65.2498 29.9078 67.0148 29.6755 68.5166 28.4401C70.0753 27.1576 70.7843 25.0493 70.7843 23.0658V22.4631H74.3488V15.4575H70.7843V13.341H70.7928C70.7928 12.0309 71.8634 10.9689 73.1842 10.9689C74.5048 10.9689 75.5797 12.0309 75.5797 13.341V20.3602C75.5797 25.519 79.7998 29.7012 85 29.7012V22.7323C83.6794 22.7323 82.6046 21.6703 82.6046 20.3602ZM55.5735 11.3577V21.6392C55.5735 22.2229 55.0853 22.6961 54.483 22.6961C53.8806 22.6961 53.3924 22.2229 53.3924 21.6392V11.3577H46.3303V23.4498C46.3303 25.625 47.0739 28.3761 50.458 29.2718C53.8457 30.1685 55.8109 28.3122 55.8109 28.3122C55.6319 29.5351 54.4708 30.4309 52.6006 30.6228C51.1855 30.7679 49.3758 30.303 48.4731 29.9191V36.3255C50.7733 36.9984 53.2063 37.2158 55.5872 36.7574C59.9083 35.9258 62.6354 32.343 62.6354 27.5764V11.3577H55.5735Z" fill="#8C9EBC"/>
</svg>
