<svg width="122" height="40" viewBox="0 0 122 40" fill="none" xmlns="http://www.w3.org/2000/svg">
<g clip-path="url(#clip0_252_1346)">
<path d="M118 18.8578V16.8818H115.51V13.8098L115.426 13.8353L113.088 14.5405L113.042 14.5543V16.8819H109.351V15.5852C109.351 14.9814 109.488 14.5194 109.758 14.2112C110.026 13.9068 110.409 13.752 110.899 13.752C111.25 13.752 111.614 13.8336 111.98 13.9946L112.072 14.035V11.954L112.029 11.9384C111.687 11.8173 111.223 11.7563 110.646 11.7563C109.92 11.7563 109.26 11.9121 108.685 12.2208C108.109 12.5299 107.656 12.9712 107.339 13.5322C107.023 14.0926 106.862 14.7399 106.862 15.4562V16.8818H105.129V18.8578H106.862V27.1824H109.351V18.8578H113.042V24.1479C113.042 26.3267 114.085 27.4307 116.141 27.4307C116.479 27.4307 116.834 27.3917 117.198 27.3153C117.567 27.2368 117.819 27.1585 117.967 27.0748L118 27.0556V25.0614L117.899 25.1273C117.764 25.216 117.596 25.2885 117.398 25.3424C117.2 25.3973 117.035 25.4248 116.907 25.4248C116.425 25.4248 116.069 25.2969 115.847 25.0444C115.624 24.7896 115.51 24.3441 115.51 23.7209V18.8578H118ZM99.5711 25.4252C98.6679 25.4252 97.9557 25.13 97.4538 24.5485C96.9488 23.964 96.693 23.1308 96.693 22.0721C96.693 20.9799 96.9488 20.125 97.454 19.5303C97.9562 18.9394 98.6616 18.6395 99.5508 18.6395C100.414 18.6395 101.101 18.9259 101.593 19.4912C102.087 20.0595 102.338 20.9075 102.338 22.0125C102.338 23.131 102.102 23.9902 101.637 24.565C101.175 25.1354 100.48 25.4252 99.5711 25.4252ZM99.6817 16.6336C97.9584 16.6336 96.5896 17.1313 95.6137 18.1129C94.6384 19.0946 94.1439 20.4532 94.1439 22.1512C94.1439 23.7639 94.6266 25.0612 95.5787 26.0062C96.5309 26.9516 97.8266 27.4305 99.4298 27.4305C101.1 27.4305 102.442 26.9259 103.417 25.9307C104.393 24.9366 104.887 23.5909 104.887 21.9326C104.887 20.2946 104.423 18.9877 103.508 18.0489C102.593 17.1097 101.305 16.6336 99.6817 16.6336ZM90.1314 16.6336C88.9592 16.6336 87.9895 16.9292 87.2487 17.5119C86.5035 18.098 86.1254 18.8668 86.1254 19.7971C86.1254 20.2807 86.207 20.7102 86.3676 21.0746C86.5292 21.4401 86.7792 21.7619 87.1113 22.032C87.4409 22.3 87.9498 22.5806 88.624 22.8661C89.1908 23.096 89.6135 23.2905 89.8821 23.4437C90.1445 23.5939 90.3308 23.7449 90.436 23.892C90.5382 24.0359 90.5901 24.2328 90.5901 24.4758C90.5901 25.1679 90.0643 25.5046 88.9823 25.5046C88.581 25.5046 88.1232 25.422 87.6218 25.2592C87.1239 25.0988 86.654 24.864 86.2285 24.5629L86.1252 24.4899V26.8514L86.1631 26.8688C86.5153 27.029 86.9592 27.1641 87.4825 27.2704C88.0048 27.3768 88.4793 27.431 88.8916 27.431C90.1636 27.431 91.188 27.134 91.9355 26.5478C92.6877 25.9576 93.0689 25.1707 93.0689 24.2082C93.0689 23.5139 92.8637 22.9185 92.4592 22.4383C92.0574 21.962 91.3601 21.5248 90.3876 21.1383C89.6128 20.8317 89.1164 20.5773 88.9116 20.382C88.7142 20.1933 88.614 19.9265 88.614 19.5885C88.614 19.289 88.7377 19.049 88.9917 18.8546C89.2476 18.6593 89.6039 18.56 90.0508 18.56C90.4654 18.56 90.8897 18.6245 91.3116 18.7511C91.7332 18.8776 92.1035 19.047 92.4126 19.2543L92.5143 19.3228V17.0826L92.4753 17.0661C92.1901 16.9456 91.814 16.8424 91.3573 16.7587C90.9026 16.6756 90.4901 16.6336 90.1314 16.6336ZM79.6376 25.4252C78.7346 25.4252 78.0222 25.13 77.5204 24.5485C77.0153 23.964 76.7599 23.131 76.7599 22.0721C76.7599 20.9799 77.0157 20.125 77.521 19.5303C78.0227 18.9394 78.7279 18.6395 79.6177 18.6395C80.4803 18.6395 81.1672 18.9259 81.6594 19.4912C82.154 20.0595 82.4049 20.9075 82.4049 22.0125C82.4049 23.131 82.1688 23.9902 81.7034 24.565C81.2412 25.1354 80.5466 25.4252 79.6376 25.4252ZM79.7486 16.6336C78.0248 16.6336 76.6559 17.1313 75.6805 18.1129C74.7052 19.0946 74.2104 20.4532 74.2104 22.1512C74.2104 23.7646 74.6934 25.0612 75.6456 26.0062C76.5977 26.9516 77.8934 27.4305 79.4965 27.4305C81.1668 27.4305 82.5086 26.9259 83.4841 25.9307C84.4593 24.9366 84.9537 23.5909 84.9537 21.9326C84.9537 20.2946 84.4899 18.9877 83.5747 18.0489C82.659 17.1097 81.3717 16.6336 79.7486 16.6336ZM70.4327 18.6656V16.8818H67.9744V27.1822H70.4327V21.9131C70.4327 21.0172 70.6388 20.2811 71.0455 19.7252C71.447 19.1758 71.9821 18.8975 72.6354 18.8975C72.8568 18.8975 73.1054 18.9334 73.3746 19.0046C73.641 19.0754 73.834 19.1522 73.9478 19.2331L74.0512 19.3069V16.8642L74.0113 16.8473C73.7824 16.7515 73.4585 16.7031 73.0487 16.7031C72.4309 16.7031 71.8781 16.8987 71.4046 17.2839C70.9889 17.6225 70.6885 18.0867 70.4588 18.6656H70.4327ZM63.5719 16.6336C62.4441 16.6336 61.4382 16.872 60.5825 17.3419C59.7251 17.8128 59.062 18.4852 58.6108 19.3402C58.1617 20.1931 57.9336 21.1893 57.9336 22.3004C57.9336 23.2736 58.1547 24.1667 58.5918 24.9539C59.029 25.7423 59.6479 26.3591 60.4313 26.787C61.2136 27.2142 62.1178 27.4308 63.1189 27.4308C64.2872 27.4308 65.2847 27.2006 66.0844 26.7466L66.1167 26.7284V24.5086L66.0134 24.5829C65.6511 24.843 65.2463 25.0506 64.8107 25.2002C64.3762 25.3496 63.9801 25.4252 63.6327 25.4252C62.6681 25.4252 61.8937 25.1277 61.3316 24.5412C60.7683 23.9539 60.4827 23.1293 60.4827 22.0916C60.4827 21.0474 60.7806 20.2015 61.3676 19.5774C61.9528 18.9552 62.7286 18.6395 63.6733 18.6395C64.4813 18.6395 65.2687 18.9092 66.0136 19.4418L66.1167 19.5156V17.1767L66.0834 17.1582C65.8031 17.0035 65.4208 16.8758 64.9461 16.779C64.4735 16.6823 64.0112 16.6336 63.5719 16.6336ZM56.2405 16.8819H53.7822V27.1822H56.2405V16.8819ZM55.0365 12.4939C54.6319 12.4939 54.279 12.6297 53.9891 12.8987C53.6979 13.1684 53.5503 13.5081 53.5503 13.909C53.5503 14.3035 53.6962 14.637 53.9845 14.8996C54.271 15.1614 54.625 15.2941 55.0366 15.2941C55.448 15.2941 55.8034 15.1614 56.0933 14.9C56.3851 14.637 56.5331 14.3036 56.5331 13.909C56.5331 13.5221 56.3891 13.1859 56.1053 12.9095C55.8218 12.6337 55.4621 12.4939 55.0365 12.4939ZM48.9028 16.1219V27.1822H51.4116V12.8092H47.9393L43.5257 23.485L39.2426 12.8092H35.6289V27.1821H37.9866V16.1208H38.0675L42.5903 27.1822H44.3696L48.8219 16.1219H48.9028Z" fill="#8C9EBC"/>
<path d="M15.5647 19.4058H4V8.00748H15.5647V19.4058Z" fill="#8C9EBC"/>
<path d="M28.3335 19.4045H16.769V8.00626H28.3335V19.4045Z" fill="#8C9EBC"/>
<path d="M15.5644 31.9937H4V20.5956H15.5644V31.9937Z" fill="#8C9EBC"/>
<path d="M28.3335 31.9937H16.769V20.5956H28.3335V31.9937Z" fill="#8C9EBC"/>
</g>
<defs>
<clipPath id="clip0_252_1346">
<rect width="114" height="24" fill="white" transform="translate(4 8)"/>
</clipPath>
</defs>
</svg>
