<svg width="121" height="40" viewBox="0 0 121 40" fill="none" xmlns="http://www.w3.org/2000/svg">
<path d="M75.6226 16.9824V14.2279C79.7044 14.1738 79.8696 14.1262 81.2192 14.1568C83.2935 14.2028 84.5444 14.7239 85.444 15.5247C86.311 16.2966 86.9987 17.4738 86.9668 19.1824C86.948 20.1662 86.2569 23.7853 81.2528 24.0112C80.666 24.0572 79.3188 24.0166 78.4631 24.0342L79.3091 21.2081C81.2916 21.3533 82.8645 20.8033 82.9483 19.1533C83.0399 17.301 81.1726 16.7129 79.3096 17.0029L75.6226 16.9824Z" fill="#8C9EBC"/>
<path d="M79.3073 26.6945L75.6226 26.694V16.3918L79.3073 16.4128V26.6945Z" fill="#8C9EBC"/>
<path d="M92.5554 18.6184L95.5798 19.5656C97.5931 20.2644 98.021 21.6824 98.0016 22.9036C97.9572 25.7363 95.3867 26.7982 93.3376 26.9515C91.0076 27.1254 89.204 26.7823 88.5977 26.6956V23.613C90.4419 24.1055 92.5879 24.0859 93.3125 23.8375C93.8606 23.6496 94.2771 23.3626 94.244 22.9859C94.2257 22.7815 94.2024 22.5216 93.5096 22.2611L90.7205 21.3715C88.9295 20.8045 88.2384 19.3093 88.313 17.9774C88.4646 15.2865 90.9097 13.9245 93.3508 14.0032C94.1039 14.0272 95.1185 14.0117 96.5941 14.1911V17.2451C94.9408 16.907 94.1655 16.9125 93.3126 17.0057C92.3585 17.1094 91.93 17.5432 91.95 18.0066C91.9596 18.2415 92.2263 18.499 92.5556 18.6142" fill="#8C9EBC"/>
<path d="M40.827 18.8742H44.7949L44.7938 14.2388H48.4791V26.6994H44.7949V21.6969H40.827L40.8264 26.6994H37.1372V14.2388H40.8264L40.827 18.8742Z" fill="#8C9EBC"/>
<path d="M55.6407 14.2373H51.9531V26.6979H55.6407V14.2373Z" fill="#8C9EBC"/>
<path d="M72.1179 14.2373H68.4297V26.6979H72.1179V14.2373Z" fill="#8C9EBC"/>
<path d="M62.7947 23.8703H66.5969V26.6984L59.106 26.6994V14.2388H62.7947V23.8703Z" fill="#8C9EBC"/>
<path d="M24 16.9805V14.2259C28.0823 14.1719 28.2471 14.1243 29.5972 14.1549C31.6708 14.2009 32.9218 14.7219 33.822 15.5228C34.6884 16.2947 35.3767 17.4719 35.3448 19.1805C35.3253 20.1643 34.6343 23.7834 29.6302 24.0092C29.044 24.0553 27.7388 24.0147 26.8832 24.0322L27.6887 21.2061C29.6717 21.3514 31.2436 20.8013 31.3255 19.1514C31.4172 17.2991 29.5493 16.7109 27.687 17.001L24 16.9805Z" fill="#8C9EBC"/>
<path d="M27.6904 26.697L24 26.6965V16.6082L27.687 16.6287L27.6904 26.697Z" fill="#8C9EBC"/>
</svg>
