<svg width="121" height="43" viewBox="0 0 121 43" fill="none" xmlns="http://www.w3.org/2000/svg">
<mask id="mask0_178_3217" style="mask-type:alpha" maskUnits="userSpaceOnUse" x="34" y="1" width="53" height="39">
<path d="M34.7109 1.95361H86.1622V39.4199H34.7109V1.95361Z" fill="white"/>
</mask>
<g mask="url(#mask0_178_3217)">
<path fill-rule="evenodd" clip-rule="evenodd" d="M56.0645 6.25782C57.7297 4.4645 60.0473 3.35398 62.6077 3.35398C66.0216 3.35398 68.9803 5.31603 70.5734 8.23949C71.9876 7.58549 73.5193 7.24785 75.0683 7.24866C81.2133 7.24866 86.2014 12.4481 86.2014 18.864C86.2014 25.2799 81.2133 30.4794 75.0683 30.4794C74.3173 30.4794 73.5852 30.4013 72.8683 30.2537C71.4743 32.824 68.8096 34.5703 65.775 34.5703C64.5396 34.5728 63.3199 34.2829 62.2094 33.7227C60.7965 37.1562 57.5059 39.5696 53.6747 39.5696C49.6729 39.5696 46.278 36.96 44.9694 33.291C44.3869 33.4182 43.7932 33.4821 43.1979 33.4817C38.4375 33.4817 34.5874 29.4399 34.5874 24.4759C34.5874 21.1404 36.3209 18.2366 38.8927 16.6669C38.3471 15.3667 38.0662 13.9641 38.0677 12.5466C38.0677 6.8174 42.5626 2.18695 48.1006 2.18695C51.3438 2.18695 54.2456 3.78602 56.0663 6.26802" fill="#8C9EBC"/>
<path fill-rule="evenodd" clip-rule="evenodd" d="M42.1504 21.4362C42.118 21.5241 42.1619 21.5425 42.1723 21.558C42.269 21.631 42.3671 21.6838 42.4655 21.7432C42.9914 22.0331 43.487 22.1179 44.0053 22.1179C45.0608 22.1179 45.7172 21.5322 45.7172 20.5896V20.5711C45.7172 19.6995 44.9756 19.382 44.2833 19.1553L44.1927 19.1247C43.6687 18.9476 43.2167 18.7934 43.2167 18.4345V18.4162C43.2167 18.1086 43.4815 17.8818 43.8901 17.8818C44.344 17.8818 44.885 18.0394 45.2312 18.2387C45.2312 18.2387 45.3337 18.3077 45.371 18.2046C45.3912 18.1488 45.5677 17.6564 45.5866 17.6012C45.6067 17.5434 45.5715 17.4998 45.5354 17.4774C45.1381 17.225 44.5896 17.0534 44.0221 17.0534L43.9167 17.0538C42.9501 17.0538 42.2748 17.6631 42.2748 18.5347V18.5534C42.2748 19.4723 43.0201 19.7721 43.7162 19.9791L43.8282 20.0154C44.3352 20.1779 44.774 20.3191 44.774 20.6898V20.7083C44.774 21.0495 44.4884 21.3039 44.0306 21.3039C43.8526 21.3039 43.2853 21.3007 42.6706 20.8957C42.5962 20.8505 42.5538 20.818 42.4965 20.7815C42.4663 20.7624 42.3906 20.7279 42.3577 20.8312L42.1496 21.4346L42.1504 21.4362ZM57.6039 21.4346C57.5716 21.5225 57.6154 21.5409 57.6262 21.5565C57.7225 21.6294 57.8211 21.6823 57.9194 21.7416C58.4453 22.0315 58.9409 22.1163 59.4592 22.1163C60.5147 22.1163 61.1711 21.5306 61.1711 20.588V20.5695C61.1711 19.6979 60.4315 19.3804 59.7372 19.1537L59.6466 19.1231C59.1227 18.946 58.6706 18.7918 58.6706 18.4329V18.4146C58.6706 18.107 58.9354 17.8802 59.344 17.8802C59.798 17.8802 60.3371 18.0378 60.6851 18.2371C60.6851 18.2371 60.7876 18.3062 60.8251 18.203C60.8451 18.1472 61.0218 17.6548 61.0388 17.5996C61.0591 17.5418 61.0237 17.4983 60.9878 17.4758C60.5905 17.2234 60.042 17.0518 59.4745 17.0518L59.3689 17.0522C58.4023 17.0522 57.727 17.6615 57.727 18.5331V18.5519C57.727 19.4708 58.4723 19.7705 59.1684 19.9775L59.2802 20.0138C59.7891 20.1763 60.226 20.3175 60.226 20.6882V20.7068C60.226 21.0479 59.9404 21.3023 59.4826 21.3023C59.3043 21.3023 58.7355 21.2991 58.1226 20.8941C58.0482 20.8489 58.0047 20.8178 57.9484 20.7799C57.9293 20.7673 57.8402 20.731 57.8097 20.8296L57.6016 21.433L57.6039 21.4346ZM68.1567 19.5873C68.1567 20.1197 68.0614 20.5397 67.8749 20.8375C67.6887 21.1313 67.4076 21.2753 67.0161 21.2753C66.6245 21.2753 66.3446 21.1325 66.1611 20.8395C65.9763 20.5437 65.883 20.1217 65.883 19.5893C65.883 19.0569 65.9768 18.6388 66.1611 18.345C66.3442 18.0532 66.6226 17.9131 67.0161 17.9131C67.4095 17.9131 67.6895 18.0545 67.8749 18.345C68.0625 18.6388 68.1567 19.0569 68.1567 19.5893V19.5873ZM69.0382 18.6013C68.9514 18.2957 68.8169 18.0275 68.6372 17.8027C68.4573 17.5779 68.2305 17.3965 67.96 17.2664C67.6914 17.1352 67.3736 17.0692 67.0142 17.0692C66.6548 17.0692 66.3389 17.1356 66.0684 17.2664C65.7998 17.3973 65.5709 17.5779 65.3912 17.8027C65.2119 18.0275 65.0772 18.2957 64.9902 18.6013C64.9041 18.905 64.8604 19.2363 64.8604 19.5893C64.8604 19.9422 64.9041 20.2735 64.9902 20.5772C65.0766 20.8828 65.2115 21.151 65.3912 21.3758C65.5711 21.6006 65.7998 21.7801 66.0684 21.9082C66.3389 22.036 66.6567 22.1011 67.0142 22.1011C67.3717 22.1011 67.6895 22.036 67.9581 21.9082C68.2267 21.7805 68.4556 21.6006 68.6353 21.3758C68.8148 21.151 68.9493 20.8828 69.0363 20.5772C69.1222 20.2735 69.1659 19.9422 69.1659 19.5893C69.1659 19.2383 69.1222 18.905 69.0363 18.6013H69.0382ZM76.2811 21.1254C76.2522 21.0361 76.1685 21.0698 76.1685 21.0698C76.0405 21.1209 75.9037 21.1682 75.7581 21.1918C75.6113 21.2159 75.4478 21.2279 75.2757 21.2279C74.8501 21.2279 74.5096 21.0956 74.2675 20.8336C74.0235 20.5713 73.8873 20.1493 73.8892 19.5774C73.8905 19.0569 74.0112 18.6664 74.2278 18.3667C74.4415 18.0709 74.7707 17.9171 75.2057 17.9171C75.5689 17.9171 75.847 17.9611 76.1383 18.0561C76.1383 18.0561 76.2073 18.0875 76.2404 17.9926C76.3178 17.7698 76.3749 17.6101 76.458 17.3655C76.4814 17.2955 76.4239 17.266 76.4029 17.2575C76.2887 17.211 76.0189 17.1346 75.8146 17.1025C75.6236 17.0721 75.4023 17.0564 75.1526 17.0564C74.7818 17.0564 74.4527 17.1224 74.1708 17.2533C73.889 17.3841 73.6506 17.5649 73.4615 17.7897C73.2723 18.0145 73.1286 18.2827 73.0321 18.5883C72.9366 18.892 72.8883 19.2253 72.8883 19.5782C72.8883 20.3394 73.0851 20.9566 73.4747 21.4082C73.8644 21.8617 74.4508 22.0904 75.215 22.0904C75.6671 22.0904 76.1305 21.9952 76.4634 21.8578C76.4634 21.8578 76.527 21.8258 76.4994 21.7485L76.2818 21.1254H76.2811ZM77.8235 19.0746C77.8657 18.7788 77.9434 18.5323 78.0656 18.3411C78.2485 18.0492 78.5272 17.8895 78.9187 17.8895C79.3103 17.8895 79.5694 18.05 79.7548 18.3411C79.8778 18.5333 79.9315 18.7887 79.9515 19.0746L77.814 19.0742L77.8235 19.0746ZM80.7933 18.4239C80.7182 18.1301 80.5323 17.8323 80.4112 17.6962C80.2183 17.4813 80.031 17.3295 79.8437 17.2466C79.5734 17.1268 79.2825 17.0653 78.9887 17.0658C78.6161 17.0658 78.2775 17.1315 78.0032 17.265C77.7289 17.3995 77.4981 17.5825 77.3165 17.8112C77.1351 18.0399 76.9988 18.3101 76.9118 18.6197C76.8247 18.9253 76.7808 19.2606 76.7808 19.6116C76.7808 19.9704 76.8264 20.3037 76.9161 20.6054C77.0067 20.9091 77.1525 21.1753 77.3493 21.3961C77.546 21.619 77.7976 21.7925 78.1002 21.9147C78.401 22.036 78.7661 22.0989 79.1841 22.0975C80.0467 22.0946 80.5007 21.8944 80.686 21.786C80.7191 21.7667 80.7504 21.7333 80.7114 21.6373L80.5166 21.0674C80.4867 20.9824 80.4042 21.0132 80.4042 21.0132C80.1904 21.0964 79.8878 21.2459 79.1784 21.2439C78.715 21.2431 78.3726 21.1005 78.157 20.8771C77.9376 20.6484 77.8278 20.3151 77.8108 19.8419L80.7995 19.8442C80.7995 19.8442 80.8782 19.8435 80.8864 19.7634C80.8896 19.7303 80.9887 19.1245 80.7973 18.4245L80.7933 18.4239ZM53.9327 19.0746C53.9749 18.7788 54.0528 18.5323 54.1748 18.3411C54.3579 18.0492 54.6364 17.8895 55.0279 17.8895C55.4195 17.8895 55.6786 18.05 55.864 18.3411C55.9868 18.5333 56.0405 18.7887 56.0607 19.0746L53.9233 19.0742L53.9327 19.0746ZM56.9025 18.4239C56.8276 18.1301 56.6415 17.8323 56.5204 17.6962C56.3275 17.4813 56.1402 17.3295 55.9529 17.2466C55.6826 17.1268 55.3917 17.0653 55.0979 17.0658C54.7253 17.0658 54.3867 17.1315 54.1124 17.265C53.8381 17.3995 53.6074 17.5825 53.4258 17.8112C53.2447 18.0399 53.108 18.3101 53.021 18.6197C52.9341 18.9253 52.8904 19.2606 52.8904 19.6116C52.8904 19.9704 52.9357 20.3037 53.0259 20.6054C53.1163 20.9091 53.2623 21.1753 53.4572 21.3961C53.6539 21.619 53.9055 21.7925 54.2081 21.9147C54.5089 22.036 54.8721 22.0989 55.292 22.0975C56.1546 22.0946 56.6086 21.8944 56.7939 21.786C56.8268 21.7667 56.8582 21.7333 56.8191 21.6373L56.6243 21.0674C56.5942 20.9824 56.5117 21.0132 56.5117 21.0132C56.298 21.0964 55.9953 21.2459 55.286 21.2439C54.8244 21.2431 54.4801 21.1005 54.2645 20.8771C54.0451 20.6484 53.9354 20.3151 53.9183 19.8419L56.907 19.8442C56.907 19.8442 56.9857 19.8435 56.9939 19.7634C56.9971 19.7303 57.0962 19.1245 56.9046 18.4245L56.9025 18.4239ZM47.4824 21.1057C47.3653 21.0083 47.349 20.9844 47.3103 20.9211C47.251 20.8259 47.2208 20.6904 47.2208 20.5169C47.2208 20.2447 47.3078 20.0475 47.4875 19.9154C47.4856 19.9158 47.7447 19.6827 48.3538 19.6906C48.6249 19.6957 48.8954 19.7197 49.1634 19.7626V21.1765H49.1638C49.1638 21.1765 48.7855 21.2615 48.358 21.2883C47.7508 21.3263 47.4822 21.1061 47.4841 21.1067L47.4824 21.1057ZM48.6703 18.9169C48.5492 18.9076 48.3922 18.903 48.205 18.903C47.9496 18.903 47.7018 18.9362 47.471 19.0013C47.2384 19.0667 47.0284 19.1681 46.8487 19.303C46.6685 19.437 46.5203 19.6124 46.4155 19.8156C46.3098 20.0207 46.2559 20.2613 46.2559 20.5334C46.2559 20.8095 46.3018 21.0481 46.3926 21.2433C46.4816 21.437 46.6156 21.6044 46.7823 21.7304C46.9482 21.8562 47.1531 21.9493 47.3895 22.0045C47.6241 22.0603 47.8889 22.0885 48.1802 22.0885C48.4866 22.0885 48.7912 22.0617 49.0863 22.0098C49.3376 21.9646 49.588 21.9139 49.8372 21.8576C49.9367 21.8337 50.0472 21.8024 50.0472 21.8024C50.121 21.7828 50.1153 21.7006 50.1153 21.7006L50.1136 18.861C50.1136 18.2379 49.9539 17.7745 49.6388 17.4886C49.3248 17.2027 48.8651 17.0587 48.2693 17.0587C48.0461 17.0587 47.6848 17.0903 47.4691 17.1354C47.4691 17.1354 46.8184 17.2672 46.5498 17.4864C46.5498 17.4864 46.4908 17.5243 46.523 17.6101L46.7348 18.2016C46.7611 18.2783 46.8328 18.2521 46.8328 18.2521C46.8328 18.2521 46.8553 18.2429 46.8818 18.2265C47.455 17.9011 48.1813 17.911 48.1813 17.911C48.5029 17.911 48.7526 17.979 48.919 18.1121C49.0819 18.2425 49.165 18.4395 49.165 18.8536V18.9851C48.9096 18.9464 48.6731 18.9241 48.6731 18.9241L48.6703 18.9169ZM72.6935 17.3137C72.6978 17.3033 72.7001 17.2921 72.7001 17.2808C72.7002 17.2694 72.6981 17.2582 72.6939 17.2478C72.6897 17.2373 72.6835 17.2279 72.6758 17.2199C72.668 17.212 72.6588 17.2058 72.6487 17.2017C72.5978 17.1816 72.3441 17.1258 72.1493 17.1131C71.7748 17.0887 71.5667 17.1546 71.3794 17.2421C71.1944 17.3291 70.9897 17.4689 70.8763 17.6306L70.8759 17.252C70.8759 17.1999 70.8405 17.1579 70.7902 17.1579H70.026C69.9764 17.1579 69.9405 17.1999 69.9405 17.252V21.886C69.9405 21.911 69.9501 21.935 69.9671 21.9527C69.9841 21.9704 70.0071 21.9804 70.0311 21.9804H70.8142C70.8382 21.9804 70.8612 21.9704 70.8782 21.9527C70.8951 21.935 70.9046 21.911 70.9046 21.886V19.5591C70.9046 19.2475 70.9375 18.938 71.0032 18.7427C71.0679 18.5497 71.1558 18.3957 71.2642 18.2852C71.3676 18.1786 71.4941 18.0995 71.6331 18.0545C71.7635 18.0155 71.8984 17.9957 72.0341 17.9958C72.1902 17.9958 72.3613 18.0376 72.3613 18.0376C72.4188 18.0443 72.4508 18.0076 72.4703 17.9536C72.5216 17.8114 72.667 17.3857 72.6954 17.3009" fill="#FFFFFE"/>
<path fill-rule="evenodd" clip-rule="evenodd" d="M65.3816 15.1755C65.2848 15.145 65.1863 15.1207 65.0867 15.1026C64.9527 15.0793 64.817 15.0683 64.6812 15.0698C64.1415 15.0698 63.7161 15.2288 63.4174 15.5427C63.1208 15.8543 62.919 16.3289 62.8178 16.9534L62.7812 17.1642H62.1039C62.1039 17.1642 62.0212 17.1607 62.0038 17.2547L61.8926 17.9015C61.8848 17.9634 61.9104 18.0021 61.9898 18.0017H62.6492L61.9802 21.8948C61.9278 22.2084 61.8678 22.4663 61.8014 22.6617C61.736 22.8546 61.672 22.9991 61.5933 23.104C61.5171 23.2056 61.4448 23.2803 61.3202 23.3239C61.2173 23.36 61.0989 23.3765 60.9691 23.3765C60.8968 23.3765 60.8007 23.3639 60.7298 23.3491C60.6589 23.3345 60.622 23.318 60.5688 23.2947C60.5688 23.2947 60.4915 23.2639 60.461 23.3448C60.4362 23.4108 60.2605 23.9147 60.2397 23.977C60.2185 24.0385 60.2482 24.087 60.2857 24.101C60.3734 24.1337 60.4387 24.1546 60.5582 24.184C60.7243 24.2248 60.8643 24.2274 60.9954 24.2274C61.2701 24.2274 61.5203 24.1872 61.7278 24.1091C61.9366 24.0304 62.1184 23.8934 62.2792 23.7078C62.4531 23.5076 62.5624 23.298 62.667 23.0121C62.7705 22.7287 62.8586 22.377 62.9292 21.967L63.6014 18.0017H64.5843C64.5843 18.0017 64.6672 18.0048 64.6844 17.9112L64.7956 17.2644C64.8034 17.2025 64.778 17.1638 64.6982 17.1642H63.7443C63.749 17.1417 63.7923 16.7919 63.9018 16.4626C63.9485 16.322 64.0365 16.2086 64.111 16.1307C64.1806 16.0565 64.2663 16.0009 64.3609 15.9686C64.4646 15.9352 64.5727 15.919 64.6812 15.9205C64.771 15.9205 64.8592 15.9318 64.9263 15.9464C65.0188 15.9669 65.0547 15.9777 65.079 15.9852C65.1762 16.0162 65.1892 15.9862 65.2083 15.9371L65.4365 15.284C65.4599 15.2138 65.4028 15.1842 65.3816 15.1755ZM52.0508 21.9031C52.0508 21.9552 52.0153 21.9976 51.9653 21.9976H51.1741C51.1239 21.9976 51.0884 21.9552 51.0884 21.9031V15.2641C51.0884 15.2122 51.1239 15.1702 51.1741 15.1702H51.9653C52.0153 15.1702 52.0508 15.2122 52.0508 15.2641V21.9031Z" fill="#FFFFFE"/>
</g>
</svg>
