<svg width="122" height="40" viewBox="0 0 122 40" fill="none" xmlns="http://www.w3.org/2000/svg">
<path d="M94.9999 13.8984V29.6736L92.7358 31.8046V16.3674L94.9999 13.8984Z" fill="#43526A"/>
<path d="M80.1623 13.9114L77.8174 16.3674L77.9387 16.5233L92.6416 16.4713L92.7764 16.3674L95 13.8984L80.1623 13.9114Z" fill="#939FAF"/>
<path d="M92.7764 16.3672H77.8174V31.8175H92.7764V16.3672Z" fill="#6E7C91"/>
<path d="M90.4989 21.9289C90.2024 21.2142 89.7577 20.5645 89.1782 20.0058C88.6257 19.46 88.0058 19.0442 87.305 18.7713C86.6177 18.4984 85.8765 18.3555 85.0679 18.3555C84.2593 18.3555 83.5046 18.4984 82.8173 18.7713C82.1165 19.0442 81.4966 19.46 80.944 20.0058C80.3646 20.5645 79.9333 21.2142 79.6368 21.9289C79.3403 22.6436 79.2056 23.4233 79.2056 24.2809C79.2056 25.1125 79.3538 25.8922 79.6503 26.6199C79.9468 27.3476 80.378 27.9973 80.9575 28.569C81.4966 29.1018 82.1165 29.5046 82.8038 29.7775C83.4911 30.0504 84.2593 30.1933 85.0813 30.1933C85.8765 30.1933 86.6177 30.0504 87.305 29.7775C87.9923 29.5046 88.6257 29.1018 89.1782 28.569C89.7577 27.9973 90.2024 27.3476 90.4989 26.6329C90.7954 25.9182 90.9436 25.1255 90.9436 24.2939C90.9436 23.4233 90.7954 22.6436 90.4989 21.9289ZM87.4128 27.0227C86.8333 27.6854 86.0651 28.0233 85.0679 28.0233C84.0706 28.0233 83.289 27.6854 82.7095 27.0227C82.13 26.36 81.847 25.4374 81.847 24.2679C81.847 23.0724 82.1435 22.1498 82.7095 21.4741C83.289 20.7984 84.0571 20.4735 85.0679 20.4735C86.0651 20.4735 86.8333 20.8114 87.4128 21.4741C87.9788 22.1498 88.2753 23.0724 88.2753 24.2679C88.2753 25.4374 87.9923 26.36 87.4128 27.0227Z" fill="white"/>
<path d="M76.3485 12.6133V12.6912L78.2622 26.8681L77.1437 29.8568L76.9954 29.7528L75.0278 16.1607L75.0683 15.9788L76.2946 12.6912L76.3485 12.6133Z" fill="#6E7C91"/>
<path d="M61.6188 14.5884L76.3487 12.6133L75.1089 16.0178L74.9337 16.1997L61.1606 18.1489L61.228 15.7189L61.6188 14.5884Z" fill="#939FAF"/>
<path d="M75.1087 16.0176L77.1437 29.8566L62.6294 31.8187L60.6753 18.4475L61.5243 17.8108L75.1087 16.0176Z" fill="#43526A"/>
<path d="M72.6426 18.6681C72.5752 18.2392 72.427 17.9144 72.1844 17.6935C71.9822 17.5246 71.7396 17.4336 71.4566 17.4336C71.3893 17.4336 71.3084 17.4336 71.2275 17.4466C70.8502 17.4986 70.5672 17.6675 70.392 17.9404C70.2572 18.1353 70.2033 18.3822 70.2033 18.6681C70.2033 18.772 70.2168 18.889 70.2303 19.0059L70.7559 22.6053L66.5781 23.2031L66.0525 19.6036C65.9852 19.1878 65.8369 18.863 65.5943 18.6421C65.3922 18.4601 65.1496 18.3692 64.8801 18.3692C64.8127 18.3692 64.7453 18.3692 64.6779 18.3822C64.2871 18.4342 63.9906 18.6031 63.802 18.876C63.6672 19.0709 63.6133 19.3178 63.6133 19.6036C63.6133 19.7076 63.6268 19.8246 63.6402 19.9545L65.0688 29.3234C65.1361 29.7522 65.2844 30.0771 65.5539 30.298C65.7561 30.4669 65.9986 30.5449 66.2951 30.5449C66.376 30.5449 66.4568 30.5449 66.5377 30.5319C66.9016 30.4799 67.1711 30.311 67.3463 30.0381C67.4676 29.8432 67.5215 29.6093 67.5215 29.3364C67.5215 29.2325 67.508 29.1155 67.4945 28.9986L66.915 25.2952L71.0928 24.6974L71.6723 28.4008C71.7396 28.8296 71.8879 29.1545 72.1439 29.3624C72.3461 29.5313 72.5887 29.6223 72.8717 29.6223C72.9391 29.6223 73.0199 29.6223 73.1008 29.6093C73.4781 29.5573 73.7611 29.3884 73.9363 29.1155C74.0576 28.9206 74.125 28.6867 74.125 28.4008C74.125 28.2969 74.1115 28.1799 74.098 28.063L72.6426 18.6681Z" fill="white"/>
<path d="M47.8322 9L42.5898 21.0068L43.3041 26.2825L43.3445 26.2695L49.2338 13.496L49.2068 13.2232L47.94 9.16893L47.8322 9Z" fill="#6E7C91"/>
<path d="M47.832 9L49.1932 13.4051L49.2201 13.496L62.1846 19.0966L62.225 19.0706L61.1199 14.8605L47.832 9Z" fill="#939FAF"/>
<path d="M49.1935 13.4043L62.2253 19.0698L56.336 31.9472L43.3042 26.2817L49.1935 13.4043Z" fill="#43526A"/>
<path d="M58.2764 20.11C57.9934 19.3823 57.6025 18.7585 57.0904 18.2388C56.5783 17.719 55.9584 17.3032 55.2307 17.0043C54.5029 16.7054 53.7752 16.5625 53.034 16.5625H52.9936C52.2389 16.5625 51.4977 16.7314 50.7699 17.0433C50.0018 17.3681 49.3414 17.81 48.7754 18.3947C48.2094 18.9665 47.7512 19.6682 47.4008 20.4738C47.0504 21.2665 46.8617 22.0721 46.8213 22.8648V23.1376C46.8213 23.8393 46.9426 24.528 47.1986 25.2037C47.4682 25.9184 47.859 26.5292 48.3711 27.0489C48.8832 27.5687 49.5166 27.9845 50.2713 28.2834C50.9855 28.5823 51.7133 28.7252 52.4545 28.7252H52.468C53.2092 28.7252 53.9504 28.5693 54.6781 28.2704C55.4463 27.9456 56.1201 27.4908 56.6861 26.906C57.2522 26.3343 57.7238 25.6456 58.0742 24.8399C58.4246 24.0343 58.6133 23.2416 58.6537 22.4489V22.215C58.6672 21.5004 58.5459 20.7987 58.2764 20.11ZM55.6754 23.8523C55.1902 24.9698 54.5299 25.7365 53.7348 26.1523C53.3035 26.3732 52.8588 26.4902 52.4141 26.4902C52.0232 26.4902 51.6055 26.3992 51.1877 26.2303C50.2713 25.8535 49.7053 25.2557 49.4627 24.3981C49.3818 24.1122 49.3414 23.8133 49.3414 23.5015C49.3414 22.8778 49.5031 22.1891 49.8266 21.4484C50.3252 20.3049 50.9855 19.5252 51.7807 19.0964C52.2119 18.8625 52.6566 18.7585 53.1014 18.7585C53.5057 18.7585 53.91 18.8495 54.3412 19.0184C55.2441 19.3953 55.8102 19.993 56.0527 20.8506C56.1336 21.1235 56.174 21.4224 56.174 21.7343C56.174 22.384 56.0123 23.0857 55.6754 23.8523Z" fill="white"/>
<path d="M41.5521 11.041L43.6814 24.789L42.7111 29.6229L42.5764 29.454L40.501 16.1738V15.9139L41.4174 11.2749L41.5521 11.041Z" fill="#263349"/>
<path d="M26 18.1489L27.0107 13.289L41.552 11.041L40.5682 15.9919V16.3167L26.1752 18.2789L26 18.1489Z" fill="#69788C"/>
<path d="M40.5682 15.9922L42.7109 29.6233L28.318 31.7933L26 18.1493L40.5682 15.9922Z" fill="#516077"/>
<path d="M39.0184 27.4534C38.9105 27.3234 38.7488 27.2325 38.5602 27.1675C38.3715 27.1025 38.1424 27.0766 37.8594 27.0766C37.6033 27.0766 37.3068 27.1025 36.9834 27.1545L33.183 27.7782C33.2234 27.4924 33.3717 27.1285 33.6277 26.6737C33.9107 26.167 34.342 25.5562 34.8945 24.8545C35.0832 24.6076 35.2314 24.4257 35.3393 24.2958C35.4066 24.2048 35.5145 24.0879 35.6492 23.9189C36.5252 22.8144 37.0508 21.9178 37.2664 21.2161C37.3877 20.8133 37.4551 20.4105 37.482 20.0076C37.4955 19.8907 37.4955 19.7867 37.4955 19.6828C37.4955 19.3969 37.4686 19.111 37.4146 18.8251C37.3742 18.5653 37.3068 18.3573 37.2125 18.1884C37.1182 18.0195 37.0104 17.8896 36.8756 17.8116C36.7273 17.7206 36.4982 17.6816 36.2152 17.6816C35.9861 17.6816 35.7031 17.7076 35.3662 17.7596L30.9729 18.4873C30.4473 18.5783 30.043 18.7212 29.8004 18.9551C29.5982 19.137 29.5039 19.3709 29.5039 19.6308C29.5039 19.6958 29.5039 19.7737 29.5174 19.8517C29.5848 20.2155 29.7734 20.4754 30.0834 20.6054C30.2721 20.6833 30.4877 20.7223 30.7572 20.7223C30.9324 20.7223 31.1346 20.7093 31.3502 20.6703L35.0158 20.0466C35.0158 20.1116 35.0293 20.1766 35.0293 20.2285C35.0293 20.4494 34.9889 20.6703 34.908 20.8783C34.8002 21.1771 34.5307 21.5929 34.0859 22.1257C33.9646 22.2686 33.776 22.5025 33.5199 22.8014C32.5227 23.9579 31.8219 24.9455 31.3906 25.7641C31.0807 26.3359 30.8785 26.8816 30.7572 27.4404C30.6898 27.7653 30.6494 28.0641 30.6494 28.363C30.6494 28.5709 30.6629 28.7788 30.7033 28.9737C30.7572 29.2596 30.8246 29.4935 30.9189 29.6754C31.0133 29.8573 31.148 30.0003 31.2963 30.0782C31.4445 30.1562 31.6467 30.1822 31.9432 30.1822C32.307 30.1822 32.8057 30.1302 33.4391 30.0263L37.4281 29.3636C38.1289 29.2466 38.6275 29.0777 38.9105 28.8568C39.1396 28.6749 39.2609 28.428 39.2609 28.1421C39.2609 28.0641 39.2475 27.9862 39.234 27.9082C39.207 27.7393 39.1396 27.5833 39.0184 27.4534Z" fill="white"/>
</svg>
