<svg width="140" height="70" viewBox="0 0 140 70" fill="none" xmlns="http://www.w3.org/2000/svg">
<path d="M27.3073 18.5974C23.7962 18.5974 21.9235 18.8322 21.1039 18.8322C19.7384 18.8322 18.529 18.7929 17.3191 18.7929C16.6561 18.7929 16.5391 18.8323 16.5391 19.1058C16.5391 19.5746 16.6949 19.6143 18.4511 19.6143C19.543 19.6143 20.168 19.9661 20.168 23.0543V41.0367C20.168 41.623 20.0895 41.7013 18.334 41.7013C17.4755 41.7013 17.2412 41.779 17.2412 42.1704C17.2412 42.5612 17.5143 42.6002 17.905 42.6002C19.1532 42.6002 20.0116 42.444 21.6501 42.444C23.3668 42.444 25.0057 42.8346 26.6445 42.8346C32.068 42.8346 35.6968 40.7632 35.6968 36.3848C35.6968 32.9838 33.3941 31.6544 31.5604 30.7156C30.7801 30.3249 30.0386 30.1295 30.0386 30.0515C30.0386 29.9346 30.8971 29.5043 31.6389 28.9959C32.8877 28.1361 34.5653 26.7672 34.5653 23.9919C34.5653 21.2162 32.3801 18.5973 27.3071 18.5973L27.3073 18.5974ZM94.1594 18.6421C93.9557 18.6421 92.6661 19.2202 90.0191 19.3902C89.4424 19.4242 89.1704 19.3899 89.1704 19.7979C89.1704 20.1723 89.5101 20.2405 90.121 20.2405C91.6478 20.2405 91.8516 20.2404 91.8516 22.3822V41.1173C91.8516 41.7294 91.2745 41.6955 89.8832 41.6955C89.0684 41.6955 89.0346 41.9001 89.0346 42.138C89.0346 42.41 89.1023 42.478 89.8832 42.478C90.3583 42.478 92.1573 42.4102 93.3107 42.4102C93.9222 42.4102 94.6687 42.478 95.1776 42.478C96.3991 42.478 96.6367 42.4779 96.6367 42.138C96.6367 41.8655 96.7044 41.6616 95.0075 41.6616C94.3969 41.6616 94.1593 41.2876 94.1593 38.4657C94.1593 37.4792 94.3289 34.7935 94.3289 21.8382C94.3289 20.8184 94.4986 19.5937 94.4986 19.1856C94.4986 18.8115 94.3287 18.6418 94.1593 18.6418L94.1594 18.6421ZM65.9846 18.676C65.679 18.676 63.6765 19.4237 61.2334 19.4237C60.86 19.4237 60.7922 19.5598 60.7922 19.8997C60.7922 20.1383 60.9279 20.2406 62.3189 20.2406C63.2351 20.2406 63.5068 20.5466 63.5068 22.9605C63.5068 30.1352 63.4048 40.1997 63.4048 41.1856C63.4048 41.6956 63.0995 41.6955 61.9458 41.6955C61.1312 41.6955 60.9618 41.8655 60.9618 42.1381C60.9618 42.444 61.1654 42.478 61.9458 42.478C62.4208 42.478 63.6767 42.4102 64.831 42.4102C65.917 42.4102 67.4775 42.478 67.9864 42.478C68.7328 42.478 68.9027 42.4779 68.9027 42.1381C68.9027 41.8655 68.7671 41.6955 67.9864 41.6955C65.8826 41.6955 65.9508 41.6957 65.9508 40.0981V37.9559C65.9508 37.6497 66.4257 37.4114 66.9686 37.0712C67.5453 36.6971 68.0201 36.3575 68.156 36.3575C68.3596 36.3575 69.7857 38.5001 71.2109 40.132C72.636 41.7639 72.9416 42.6141 73.5529 42.6141C74.0279 42.6141 75.0459 42.5802 75.4531 42.5802C75.7584 42.5802 76.1995 42.6141 76.6067 42.6141C77.3532 42.6141 77.5907 42.546 77.5907 42.308C77.5907 42.0361 77.3195 41.8655 76.5053 41.8655C75.3515 41.8655 74.2655 40.1996 73.1112 38.8057C70.7359 35.9492 70.1254 35.3035 70.1254 34.9973C70.1254 34.7593 72.2293 33.2636 73.9265 31.5971C74.9782 30.5772 76.1317 29.1154 76.1317 28.8089C76.1317 28.7067 75.9962 28.6729 75.7248 28.6729C75.3178 28.6729 73.3488 28.7745 72.9077 28.7745C72.5004 28.7745 71.856 28.6729 71.5168 28.6729C71.0756 28.6729 70.9059 28.7407 70.9059 29.0133C70.9059 29.3195 71.0755 29.3871 71.5844 29.3871C73.0773 29.3871 73.1793 29.4553 73.1793 29.9991C73.1793 30.7131 72.8738 31.2912 71.5506 32.5491C70.4646 33.5696 66.9345 36.6974 66.0861 36.6974C65.9844 36.6974 65.9508 36.5953 65.9508 36.4592C65.9508 30.917 66.1537 27.1089 66.1537 21.9405C66.1537 20.8525 66.2219 19.4236 66.2219 18.9819C66.2219 18.7779 66.154 18.6759 65.9846 18.6759L65.9846 18.676ZM26.1363 19.5357C29.6869 19.5357 31.3258 23.2888 31.3258 25.2436C31.3258 28.3317 30.0382 29.0745 28.9068 29.9347C28.9068 29.9347 27.2677 29.6999 24.8881 29.6999C23.9511 29.6999 23.4442 29.7778 23.4442 29.1522V20.6696C23.4442 19.8877 23.5615 19.5359 26.1363 19.5359L26.1363 19.5357ZM43.2469 28.3326C40.1588 28.3326 36.9344 31.1891 36.9344 35.9833C36.9344 41.6617 41.075 43.0223 43.8575 43.0223C46.6064 43.0223 49.4911 40.8794 49.4911 40.7097C49.4911 40.6414 49.3893 40.4375 49.2195 40.4375C49.0162 40.4375 47.7945 41.2539 45.5548 41.2539C42.9753 41.2539 39.3436 39.9957 39.3436 35.3033C39.3436 34.5214 39.4459 34.3513 39.9893 34.3174C43.8575 34.0794 47.2512 33.3318 48.1336 33.1271C49.0504 32.9231 49.5254 32.7873 49.5254 32.6511C49.5254 32.3792 48.982 31.5629 48.4047 30.8833C47.1832 29.455 45.0116 28.3329 43.2466 28.3329L43.2469 28.3326ZM82.8178 28.3326C79.73 28.3326 76.5054 31.1891 76.5054 35.9833C76.5054 41.6617 80.6456 43.0223 83.4284 43.0223C86.177 43.0223 89.062 40.8794 89.062 40.7097C89.062 40.6414 88.9599 40.4375 88.7904 40.4375C88.5868 40.4375 87.3649 41.2539 85.1252 41.2539C82.546 41.2539 78.915 39.9957 78.915 35.3033C78.915 34.5214 79.0169 34.3513 79.5597 34.3174C83.4285 34.0794 86.8216 33.3318 87.7045 33.1271C88.6207 32.9231 89.0959 32.7873 89.0959 32.6511C89.0959 32.3792 88.5532 31.5629 87.9761 30.8833C86.754 29.455 84.5825 28.3329 82.8175 28.3329L82.8178 28.3326ZM102.392 28.3326C99.3036 28.3326 96.0796 31.1891 96.0796 35.9833C96.0796 41.6617 100.22 43.0223 103.003 43.0223C105.752 43.0223 108.636 40.8794 108.636 40.7097C108.636 40.6414 108.534 40.4375 108.365 40.4375C108.161 40.4375 106.94 41.2539 104.7 41.2539C102.121 41.2539 98.4893 39.9957 98.4893 35.3033C98.4893 34.5214 98.5912 34.3513 99.1341 34.3174C103.003 34.0794 106.397 33.3318 107.279 33.1271C108.195 32.9231 108.67 32.7873 108.67 32.6511C108.67 32.3792 108.128 31.5629 107.551 30.8833C106.329 29.455 104.157 28.3329 102.392 28.3329L102.392 28.3326ZM55.0566 28.5704C54.5131 28.5704 53.8683 28.7403 53.3255 28.7403C52.6468 28.7403 52.0019 28.6721 50.8481 28.6721C50.2708 28.6721 50.3049 28.7745 50.3049 29.1829C50.3049 29.557 50.3047 29.5228 50.9163 29.5228C52.8165 29.5228 52.7484 29.5908 52.7484 31.9028V41.2197C52.7484 41.6957 52.6468 41.7296 51.2555 41.7296C50.4406 41.7296 50.4068 41.7974 50.4068 42.1378C50.4068 42.478 50.4745 42.4777 51.2555 42.4777C51.7305 42.4777 52.8845 42.3078 54.0383 42.3078C55.1246 42.3078 57.3981 42.4777 57.8731 42.4777C58.7555 42.4777 58.7895 42.512 58.7895 42.1378C58.7895 41.8313 58.7555 41.7296 57.8731 41.7296C55.362 41.7296 55.2605 41.7293 55.2605 40.0634V33.0584C55.2605 31.6305 56.0066 30.8145 57.9746 30.8145C59.6718 30.8145 60.0793 32.2086 60.5544 32.2086C60.758 32.2086 61.3006 30.7126 61.3006 30.3724C61.3006 29.4887 59.7398 28.7401 59.1282 28.7401C57.5333 28.7401 55.939 30.5085 55.4301 30.5085C55.2942 30.5085 55.2605 30.2706 55.2605 29.9647C55.2605 29.8625 55.3281 29.1145 55.3281 28.9444C55.3281 28.6719 55.1924 28.5701 55.0565 28.5701L55.0566 28.5704ZM122.819 28.6043C122.344 28.6043 121.427 28.7403 120.918 28.7403C120.001 28.7403 119.391 28.6725 118.475 28.6725C117.864 28.6725 117.762 28.6723 117.762 29.1146C117.762 29.4548 117.898 29.455 118.95 29.455C120.103 29.455 120.103 29.6588 120.103 30.6787C120.103 31.1546 118.882 34.6914 118.067 37.1392C117.525 38.7378 117.321 39.2136 117.083 39.2136C116.948 39.2136 116.54 38.6356 116.268 37.9216C114.232 32.6847 113.35 31.4945 113.35 30.5086C113.35 29.7267 113.554 29.5227 114.368 29.5227C115.08 29.5227 115.216 29.4887 115.216 29.1828C115.216 28.808 115.08 28.6724 114.368 28.6724C113.282 28.6724 112.094 28.7741 111.144 28.7741C110.33 28.7741 110.092 28.7063 109.142 28.7063C108.531 28.7063 108.43 28.8766 108.43 29.1828C108.43 29.4887 108.463 29.5227 109.142 29.5227C109.753 29.5227 109.991 29.693 110.839 31.7327C112.706 36.1531 115.42 42.4436 115.42 42.8177C115.42 43.8375 112.502 47.8496 111.28 49.3794C110.126 50.8419 108.531 51.0459 108.531 51.2499C108.531 51.42 108.87 51.5898 109.448 51.5898C110.194 51.5898 110.431 51.318 111.449 51.1822C112.196 51.08 112.604 51.0459 112.977 50.298C114.063 48.0536 115.59 45.2992 117.728 40.097C120.409 33.5692 121.903 29.4886 122.649 29.4886C123.056 29.4886 123.531 29.3185 123.531 29.0126C123.531 28.6382 123.361 28.6039 122.819 28.6039V28.6043ZM42.9074 29.0468C44.4687 29.0468 46.4706 31.5626 46.4706 32.4126C46.4706 32.6167 46.4371 32.6847 46.0637 32.7526C43.5184 33.1606 41.6858 33.6034 39.9211 33.6034C39.5135 33.6034 39.5137 33.5691 39.5137 33.399C39.5137 32.9224 40.3285 29.0468 42.9073 29.0468L42.9074 29.0468ZM82.4777 29.0468C84.0393 29.0468 86.0414 31.5626 86.0414 32.4126C86.0414 32.6167 86.0074 32.6847 85.634 32.7526C83.0887 33.1606 81.2563 33.6034 79.4919 33.6034C79.0847 33.6034 79.0845 33.5691 79.0845 33.399C79.0845 32.9224 79.8988 29.0468 82.4777 29.0468L82.4777 29.0468ZM102.052 29.0468C103.613 29.0468 105.616 31.5626 105.616 32.4126C105.616 32.6167 105.582 32.6847 105.208 32.7526C102.663 33.1606 100.831 33.6034 99.0657 33.6034C98.6585 33.6034 98.6583 33.5691 98.6583 33.399C98.6583 32.9224 99.4724 29.0468 102.052 29.0468L102.052 29.0468ZM24.8517 30.4419C29.1043 30.4419 31.9913 33.1785 31.9913 36.6971C31.9913 40.098 29.8067 42.1314 26.8415 42.1314C25.5927 42.1314 24.3447 41.8576 23.9151 41.3882C23.5643 40.9971 23.4469 38.8082 23.4469 38.4561V31.4581C23.4469 30.5982 23.7595 30.4417 24.8521 30.4417L24.8517 30.4419ZM44.1995 46.4004C43.3978 46.4004 42.7292 46.885 42.7292 47.6879C42.7292 49.2139 44.7358 48.9419 44.7358 49.7913C44.7358 50.1296 44.4774 50.4215 43.9544 50.4215C43.6033 50.4215 43.1597 50.2561 42.7885 50.004L42.4576 50.5881C42.8285 50.8465 43.3316 51.0925 43.9544 51.0925C44.822 51.0925 45.5438 50.5344 45.5438 49.7648C45.5438 48.2183 43.5372 48.6834 43.5372 47.6545C43.5372 47.3163 43.7624 47.071 44.1995 47.071C44.5902 47.071 44.8946 47.2037 45.2325 47.376L45.5174 46.8052C45.1336 46.5666 44.6762 46.4005 44.1995 46.4005L44.1995 46.4004ZM60.1974 46.4004C58.8331 46.4004 58.2241 47.3761 58.2241 48.7431C58.2241 50.0437 58.8266 51.0925 60.1974 51.0925C61.5683 51.0925 62.1712 50.0437 62.1712 48.7431C62.1712 47.3761 61.5617 46.4004 60.1974 46.4004ZM70.8324 46.4004C69.4681 46.4004 68.7988 47.3827 68.7988 48.7499C68.7988 50.1432 69.4087 51.0925 70.8059 51.0925C71.4152 51.0925 71.9849 50.8399 72.4483 50.4152L72.0443 49.8979C71.6734 50.2365 71.2497 50.4216 70.8456 50.4216C70.0044 50.4216 69.6067 49.8182 69.6067 48.7431C69.6067 47.6748 70.031 47.071 70.8323 47.071C71.2628 47.071 71.5807 47.2238 71.9315 47.5155L72.3424 46.9845C71.8655 46.5928 71.3953 46.4005 70.8324 46.4005L70.8324 46.4004ZM88.0754 46.4004C86.7108 46.4004 86.1021 47.3761 86.1021 48.7431C86.1021 50.0437 86.7045 51.0925 88.0754 51.0925C89.4462 51.0925 90.0492 50.0437 90.0492 48.7431C90.0492 47.3761 89.4396 46.4004 88.0754 46.4004ZM24.6999 46.4668L23.938 46.5468V51.0194H24.7263V47.9669H24.7395L26.6535 51.0194H27.3556V46.4736H26.5673V49.4602H26.5477L24.6999 46.4668L24.6999 46.4668ZM34.8108 46.4668V51.0193H37.5661L37.6259 50.3488H35.5991V49.0618H37.3014V48.3913H35.5991V47.1373H37.5132V46.4668H34.8108ZM63.1851 46.4668V51.0193H63.973V49.0618H65.6424V48.3913H63.973V47.1373H65.8341V46.4668H63.1851ZM75.3695 46.4668L74.4493 46.5399L72.8529 51.0193H73.5884L73.9654 49.9239H75.7936L76.1711 51.0193H76.9796L75.3695 46.4668H75.3695ZM82.9446 46.4668V51.0193H83.7325V49.0618H85.4018V48.3913H83.7325V47.1373H85.594V46.4668H82.9446ZM95.3542 46.4668L94.5923 46.5468V51.0194H95.3802V47.9669H95.3939L97.3074 51.0194H98.0095V46.4736H97.2217V49.4602H97.2016L95.3542 46.4668V46.4668ZM102.949 46.4668L102.028 46.5399L100.432 51.0193H101.167L101.545 49.9239H103.372L103.75 51.0193H104.558L102.949 46.4668H102.949ZM19.4856 46.4736V49.4396C19.4856 50.4616 20.0484 51.0925 21.1613 51.0925C22.2671 51.0925 22.8302 50.4618 22.8302 49.4332V46.4736H22.0419V49.4862C22.0419 50.0506 21.804 50.4215 21.1614 50.4215C20.5122 50.4215 20.2736 50.0503 20.2736 49.4794V46.4736H19.4857H19.4856ZM28.4783 46.4736V51.0193H29.2662V46.4736H28.4783ZM30.0408 46.4736L31.6037 51.0193H32.471L34.0408 46.4736H33.2657L32.3984 49.0152C32.3984 49.0152 32.3124 49.2736 32.0871 50.0502H32.0474C31.8287 49.2736 31.7429 49.0083 31.7429 49.0083L30.8752 46.4736H30.0407H30.0408ZM38.6688 46.4736V51.0193H39.4567V49.2008H39.8342C40.1191 49.2008 40.2847 49.4668 40.4171 49.7387L41.0461 51.0193H41.9139L41.0461 49.3802C40.9934 49.2739 40.9137 49.1542 40.7682 49.0677V49.055C41.364 48.8292 41.6227 48.3649 41.6227 47.821C41.6227 47.0313 41.1257 46.4736 40.1254 46.4736H38.6688H38.6688ZM46.4824 46.4736V51.0193H47.2702V46.4736H46.4824ZM48.1772 46.4736V47.1505H49.3764V51.0193H50.1643V47.1436H51.31L51.3699 46.4736H48.1772ZM51.8856 46.4736L53.3162 49.0746V51.0193H54.1041V49.0746L55.5352 46.4736H54.667L54.0247 47.768C54.0247 47.768 53.9453 47.9334 53.7203 48.438H53.7007C53.4619 47.9334 53.3757 47.768 53.3757 47.768L52.7731 46.4736H51.8857H51.8856ZM77.618 46.4736V51.0193H80.3002L80.36 50.3488H78.4063V46.4736H77.618ZM81.1273 46.4736V51.0193H81.9152V46.4736H81.1273ZM90.7287 46.4736V51.0193H91.517V49.2008H91.8946C92.1791 49.2008 92.3451 49.4668 92.4775 49.7387L93.1065 51.0193H93.9743L93.1065 49.3802C93.0538 49.2739 92.9741 49.1542 92.8285 49.0677V49.055C93.4244 48.8292 93.6831 48.3649 93.6831 47.821C93.6831 47.0313 93.1861 46.4736 92.1858 46.4736H90.7287ZM98.9997 46.4736V51.0193H99.7876V46.4736H98.9997ZM60.1963 47.0709C60.9779 47.0709 61.3553 47.7543 61.3553 48.743C61.3553 49.7318 60.9716 50.4215 60.1963 50.4215C59.415 50.4215 59.0309 49.7314 59.0309 48.7361C59.0309 47.7474 59.415 47.0709 60.1963 47.0709ZM88.0736 47.0709C88.8552 47.0709 89.2326 47.7543 89.2326 48.743C89.2326 49.7318 88.8486 50.4215 88.0736 50.4215C87.292 50.4215 86.9082 49.7314 86.9082 48.7361C86.9082 47.7474 87.292 47.0709 88.0736 47.0709ZM39.4566 47.1505H40.1058C40.6423 47.1505 40.8147 47.4027 40.8147 47.8274C40.8147 48.2588 40.596 48.5372 40.119 48.5372H39.4566V47.1505ZM91.5169 47.1505H92.166C92.7026 47.1505 92.875 47.4027 92.875 47.8274C92.875 48.2588 92.6562 48.5372 92.1793 48.5372H91.5169V47.1505ZM74.8632 47.2699H74.8764C75.1877 48.2121 75.2407 48.3579 75.2407 48.3579L75.5917 49.36H74.1543L74.5053 48.3579C74.5053 48.3579 74.5585 48.2121 74.8632 47.2699ZM102.442 47.2699H102.456C102.767 48.2121 102.82 48.3579 102.82 48.3579L103.171 49.36H101.734L102.085 48.3579C102.085 48.3579 102.138 48.2121 102.442 47.2699H102.442Z" fill="#8C9EBC"/>
</svg>
