<svg width="140" height="70" viewBox="0 0 140 70" fill="none" xmlns="http://www.w3.org/2000/svg">
<g clip-path="url(#clip0_5332_74368)">
<path fill-rule="evenodd" clip-rule="evenodd" d="M123.762 41.3841H123.283L115.247 31.6835H115.209V36.3738C115.187 37.5418 115.237 38.71 115.359 39.8719C115.453 40.5146 115.949 40.7716 117.173 40.8271V41.253H112.731V40.8271C113.745 40.7893 114.229 40.5146 114.325 39.8719C114.444 38.7098 114.493 37.5417 114.472 36.3738V32.3816C114.472 31.056 114.454 30.7586 114.12 30.3377C113.785 29.9168 113.268 29.7681 112.493 29.7127V29.2867H115.192L122.986 38.5664H123.022V34.166C123.045 32.9981 122.996 31.8299 122.877 30.6679C122.784 30.0252 122.282 29.7681 121.063 29.7127V29.2867H125.5V29.7127C124.486 29.7505 124.002 30.0252 123.909 30.6679C123.787 31.8298 123.738 32.9981 123.762 34.166V41.3841ZM97.3522 29.7127L96.7795 29.7858C95.9458 29.8967 95.8368 30.0605 96.0928 30.872L98.5938 38.7126H98.6395L101.599 29.4732H102.045L105.393 38.6949H105.433C106.193 36.3738 107.263 32.49 107.579 31.1669C107.833 30.0983 107.742 29.8765 106.913 29.7858L106.376 29.7127V29.2867H110.296V29.7127C109.075 29.8588 108.945 29.9345 108.335 31.6079C108.17 32.0691 106.814 36.3007 105.263 41.3639H104.757L101.427 32.3665L101.389 32.4043L98.3734 41.369H97.8666L94.6636 31.4844C94.1568 29.9571 93.8856 29.8286 92.829 29.7202V29.2943H97.3648V29.7202L97.3522 29.7127ZM84.672 29.627C82.4876 29.627 80.6353 31.4113 80.6353 34.8717C80.6353 38.4253 82.5054 40.9203 85.1965 40.9203C87.4163 40.9203 89.2332 39.2091 89.2332 35.7865C89.2332 31.8095 87.3073 29.6194 84.672 29.6194V29.627ZM91.0374 35.1061C91.0374 38.9369 88.3539 41.5328 84.8189 41.5328C81.284 41.5328 78.8285 38.8764 78.8285 35.3909C78.8285 32.296 81.0128 29.002 85.1382 29.002C88.3412 29.002 91.0247 31.4693 91.0247 35.0935L91.0374 35.1061ZM68.9915 35.4564H70.0659C70.8261 35.4564 71.4165 35.3631 71.9183 34.9523C72.7139 34.3273 72.9902 33.425 72.9902 32.5203C72.9902 30.5897 71.5838 29.816 70.2027 29.816C69.8538 29.7915 69.5031 29.8221 69.1638 29.9067C69.0548 29.942 68.9991 30.0353 68.9991 30.4108V35.4513L68.9915 35.4564ZM68.9915 38.5866C68.9915 40.6028 69.1385 40.7212 70.6589 40.8296V41.2555H65.7403V40.8296C67.2962 40.7187 67.4432 40.5776 67.4432 38.5866V31.9582C67.4432 29.942 67.2962 29.8236 65.8138 29.7127V29.2867H70.5119C71.6953 29.2867 72.752 29.4531 73.4336 29.9143C73.8252 30.1676 74.1438 30.5177 74.3584 30.9304C74.5729 31.343 74.676 31.804 74.6575 32.2682C74.6575 33.7955 73.7124 34.8843 72.2122 35.4892C72.5467 36.0436 73.3044 37.3138 73.8593 38.1228C74.326 38.8331 74.8461 39.5071 75.4152 40.1391C75.7513 40.6023 76.2445 40.9291 76.8039 41.059L76.7658 41.4093H76.5124C74.3864 41.3513 73.725 40.7086 73.0332 39.698C72.4605 38.8663 71.6801 37.5054 71.1631 36.6409C71.0589 36.4265 70.8916 36.2485 70.6835 36.1306C70.4753 36.0127 70.2361 35.9604 69.9975 35.9806H68.9915V38.5765V38.5866ZM56.2935 35.033V39.0453C56.2935 40.2802 56.5469 40.7011 57.8874 40.6834C59.4408 40.6834 60.7559 39.9097 60.7559 37.9565C60.7559 35.9403 59.2735 35.0305 57.368 35.0305H56.2935V35.033ZM56.2935 34.4962H57.4592C59.233 34.4962 60.125 33.667 60.125 32.1599C60.125 31.056 59.6638 29.8236 57.4769 29.8236C57.1351 29.8016 56.7921 29.8391 56.4633 29.9345C56.3543 29.9697 56.2986 30.0428 56.2986 30.4108L56.2935 34.4962ZM58.1079 29.2867C59.4408 29.2867 60.1984 29.5085 60.8117 29.9345C61.4249 30.3604 61.7721 31.0383 61.7721 31.9507C61.7721 33.5712 60.2365 34.3626 59.3496 34.5844V34.6348C61.0347 34.8742 62.5526 35.8697 62.5526 37.7297C62.5526 39.0352 61.9038 39.9576 60.8319 40.5625C59.8868 41.0665 58.7034 41.2631 57.297 41.2631H53.0449V40.8372C54.6008 40.7263 54.7478 40.5851 54.7478 38.5941V31.9658C54.73 29.9496 54.6185 29.8311 53.1539 29.7202V29.2943H58.1155L58.1079 29.2867Z" fill="#8C9EBC"/>
<path fill-rule="evenodd" clip-rule="evenodd" d="M45.0245 20.0632C44.8156 20.0315 44.6048 20.0129 44.3936 20.0077C44.1148 20.0077 42.2751 20.0077 41.7734 20.0934C40.7446 20.2547 38.7554 20.1715 37.6657 20.1287C36.9662 20.1284 36.2748 20.278 35.6385 20.5672C35.8083 20.9873 35.9208 21.428 35.973 21.8778C36.3202 21.9382 36.6521 21.5022 37.6429 21.5199C38.6743 21.5375 41.2108 21.3989 42.493 20.9024C43.2762 20.6039 44.0843 20.3745 44.908 20.2169C45.1259 20.1715 45.4705 20.1287 45.0372 20.0632H45.0245ZM26.402 18.7879C25.5151 18.0772 24.6992 17.926 23.3992 17.3186C23.12 17.172 22.8485 17.0114 22.5858 16.8372C22.5503 16.812 22.4845 16.7717 22.4059 16.7238C22.3208 16.9931 22.1952 17.248 22.0334 17.4799C22.2336 17.7319 23.6881 19.3902 25.5481 19.9044C25.7937 19.5051 26.0808 19.1326 26.4046 18.7929L26.402 18.7879ZM24.9855 20.9478C24.7304 20.7347 24.4336 20.5767 24.1138 20.4839C23.7941 20.391 23.4584 20.3653 23.1281 20.4084C21.9324 20.5191 20.728 20.4962 19.5374 20.3404C18.3971 20.1766 17.6876 20.3404 17.1174 20.3404C15.3816 20.3404 17.1656 20.4966 17.3708 20.5748C18.1868 20.8948 19.8339 21.3006 21.1288 21.2074C21.7623 21.1645 22.8215 21.5476 23.0014 21.6081C23.4677 21.7744 24.3089 22.0441 24.7752 22.034C24.8227 21.6689 24.8964 21.3075 24.9957 20.9528L24.9855 20.9478ZM37.4123 16.691C37.278 16.7641 36.9664 16.943 36.8625 17.0313C36.1504 17.563 34.6097 18.2914 34.255 18.672C34.6083 18.9783 34.9087 19.3401 35.1444 19.7431C35.3167 19.7431 35.8159 19.3474 36.8016 18.1931C37.1184 17.8251 37.4554 17.6286 38.0687 17.2934C37.827 17.1206 37.6082 16.9182 37.4174 16.691H37.4123ZM33.7912 14.7252C33.1907 15.2293 32.2708 16.4592 32.1517 17.4421C32.5398 17.6021 32.9173 17.7865 33.2819 17.994C34.0218 17.2682 33.8723 16.4692 34.1612 15.8492C34.2575 15.6459 34.3631 15.4468 34.4779 15.2519C34.2208 15.1161 33.9887 14.938 33.7912 14.7252ZM35.4814 22.7901C35.4882 22.1197 35.3604 21.4546 35.1056 20.8339C34.8507 20.2132 34.474 19.6493 33.9973 19.1752C33.5206 18.7011 32.9536 18.3264 32.3295 18.0729C31.7055 17.8195 31.0368 17.6924 30.3627 17.6991C29.0051 17.6991 27.7032 18.2355 26.7432 19.1902C25.7833 20.145 25.244 21.4399 25.244 22.7901C25.2545 23.0192 25.2799 23.2473 25.32 23.4731C26.7923 23.1328 28.746 23.1883 29.6126 23.8713C30.3662 23.4639 31.2104 23.2504 32.0681 23.2504C32.9258 23.2504 33.77 23.4639 34.5236 23.8713C34.8156 23.7301 35.1201 23.6162 35.4333 23.5311C35.466 23.2803 35.483 23.0278 35.484 22.775L35.4814 22.7901ZM29.2401 21.0536C29.2362 21.1314 29.217 21.2077 29.1834 21.2781C29.1498 21.3485 29.1026 21.4116 29.0444 21.4638C28.9863 21.516 28.9184 21.5563 28.8446 21.5823C28.7707 21.6084 28.6925 21.6197 28.6142 21.6156C28.536 21.6118 28.4593 21.5926 28.3885 21.5592C28.3178 21.5258 28.2543 21.4788 28.2018 21.421C28.1493 21.3632 28.1088 21.2956 28.0826 21.2222C28.0564 21.1488 28.0451 21.0709 28.0492 20.9931V20.9276C27.9985 20.8495 27.7299 20.7638 27.332 21.0032C27.1318 21.1267 26.9088 21.041 27.256 20.7512C27.5386 20.4761 27.8949 20.288 28.2823 20.2093C28.7972 20.1796 29.3131 20.2471 29.8027 20.4084C29.9345 20.4614 29.8027 21.1015 29.7672 21.0939C29.5963 21.028 29.4127 21.0013 29.23 21.0158L29.2401 21.0536ZM30.9481 22.8178C30.8442 23.1202 29.7672 23.216 29.5696 22.8178C29.491 22.6616 29.382 22.2583 29.529 22.3415C29.7672 22.4801 30.6338 22.3818 30.796 22.3415C30.9582 22.3012 30.8467 22.1046 30.9354 22.1298C31.0241 22.155 31.0444 22.5381 30.9481 22.8329V22.8178ZM33.4821 21.1444C33.2109 20.9226 32.8587 20.8268 32.7219 20.9226V20.9679C32.7312 21.0466 32.7245 21.1264 32.7023 21.2025C32.68 21.2786 32.6426 21.3495 32.5923 21.411C32.542 21.4725 32.4798 21.5233 32.4094 21.5604C32.339 21.5975 32.2618 21.6202 32.1824 21.6271C32.103 21.634 32.0231 21.625 31.9472 21.6007C31.8714 21.5763 31.8013 21.537 31.741 21.4852C31.6807 21.4333 31.6315 21.37 31.5963 21.2989C31.5611 21.2278 31.5406 21.1504 31.536 21.0713V21.0461C31.3231 20.978 30.981 21.0965 30.9329 21.0788C30.8847 21.0612 30.7606 20.4639 30.9506 20.3857C31.4574 20.1766 33.1197 20.0758 33.6012 21.0007C33.6569 21.1116 33.6215 21.2527 33.4795 21.1444H33.4821ZM30.9481 17.19C31.026 16.2027 30.9019 15.2099 30.5832 14.2716C30.3475 14.2096 30.1184 14.1252 29.899 14.0195C29.7619 14.5802 29.6771 15.1522 29.6456 15.7283C29.6126 16.2323 29.6278 17.0061 29.7216 17.1749C30.1347 17.1395 30.5501 17.1395 30.9633 17.1749L30.9481 17.19ZM25.6976 14.7605L25.951 15.1713C26.2424 15.6527 26.696 17.4647 27.2813 18.0646C27.6464 17.8296 28.0344 17.6321 28.4394 17.4748C28.2072 17.0783 27.9534 16.6946 27.6792 16.3256C26.9773 15.3981 26.473 14.9041 26.4122 14.8134C26.173 14.8253 25.9334 14.804 25.7001 14.7504" fill="#1E2635"/>
<path fill-rule="evenodd" clip-rule="evenodd" d="M36.3944 48.5501V53.6562C36.3944 53.6562 36.6706 53.8679 37.4409 53.6562C38.4368 53.374 38.8803 53.6814 38.8803 53.6814V48.5249C38.8222 48.4419 38.7415 48.377 38.6478 48.3377C38.554 48.2984 38.451 48.2865 38.3506 48.3032C37.5904 48.3258 36.8302 48.6283 36.3944 48.5552V48.5501ZM38.2544 32.2994C37.4942 32.3221 36.7339 32.622 36.2956 32.5514V37.66C36.2956 37.66 36.5743 37.8692 37.3446 37.66C38.338 37.3778 38.7814 37.6877 38.7814 37.6877V32.5161C38.7814 32.5161 38.6674 32.2818 38.2544 32.2944V32.2994ZM39.6582 48.5224V53.6739C39.6582 53.6739 40.1017 53.3664 41.0975 53.6487C41.8577 53.8679 42.1441 53.6487 42.1441 53.6487V48.5501C41.7031 48.6258 40.9556 48.3258 40.1878 48.2981C39.7748 48.2855 39.6582 48.5199 39.6582 48.5199V48.5224ZM21.1599 53.6714V48.5249C21.102 48.4417 21.0214 48.3766 20.9276 48.3373C20.8338 48.298 20.7306 48.2862 20.6303 48.3032C19.8701 48.3258 19.1099 48.6283 18.674 48.5552V53.6613C18.674 53.6613 18.9502 53.873 19.7206 53.6613C20.7164 53.379 21.1599 53.6865 21.1599 53.6865V53.6714ZM22.4674 32.307C22.3671 32.2903 22.2641 32.3022 22.1703 32.3415C22.0766 32.3808 21.9959 32.4457 21.9378 32.5287V37.66C21.9378 37.66 22.3813 37.35 23.3772 37.6323C24.1374 37.8491 24.4237 37.6323 24.4237 37.6323V32.5413C23.9828 32.617 23.2327 32.317 22.4649 32.2893L22.4674 32.307ZM40.0941 32.2893C39.9937 32.2729 39.8908 32.285 39.7971 32.3243C39.7034 32.3635 39.6228 32.4283 39.5644 32.5111V37.66C39.5644 37.66 40.0079 37.35 41.0038 37.6323C41.764 37.8491 42.0503 37.6323 42.0503 37.6323V32.5413C41.6094 32.617 40.8593 32.317 40.0941 32.2893ZM23.3696 53.6436C24.1298 53.8629 24.4161 53.6436 24.4161 53.6436V48.5501C23.9752 48.6258 23.2251 48.3258 22.4573 48.2981C22.357 48.2814 22.2539 48.2934 22.1602 48.3327C22.0664 48.3719 21.9858 48.4369 21.9277 48.5199V53.6714C21.9277 53.6714 22.3712 53.3639 23.367 53.6461L23.3696 53.6436ZM20.6176 32.2918C19.8574 32.3145 19.0972 32.6144 18.6614 32.5439V37.66C18.6614 37.66 18.9401 37.8692 19.7079 37.66C20.7038 37.3778 21.1472 37.6877 21.1472 37.6877V32.5161C21.1472 32.5161 21.0307 32.2818 20.6176 32.2944V32.2918ZM28.7062 24.0808C27.6267 23.5767 26.1012 23.7431 24.8215 24.1967C25.1763 24.668 25.7667 25.7668 26.0708 26.1373C26.6612 26.8506 27.6672 26.4902 27.7103 26.2759C27.4819 25.9261 27.2075 25.6083 26.8944 25.3308C26.7043 25.2225 26.5928 25.0511 26.6993 24.8999C26.8766 24.6478 27.2973 24.8999 27.5253 25.1746C27.8553 25.6041 28.2151 26.01 28.6023 26.3894C29.2333 26.8153 30.4344 26.5935 30.333 26.2281C29.92 25.6862 29.7401 24.5672 28.7037 24.0833L28.7062 24.0808ZM36.2753 26.155C36.9265 26.8128 37.816 26.5305 37.8591 26.3163C37.7856 26.1852 37.3751 25.5829 37.1318 25.4518C36.9341 25.3434 36.8074 25.1645 36.9139 25.0133C37.0912 24.7613 37.4485 24.9402 37.6741 25.2149C37.8996 25.4896 38.5306 26.3062 38.751 26.4297C39.3237 26.7447 40.5831 26.6313 40.4818 26.2659C40.1321 25.7164 39.8913 24.6075 38.8549 24.1236C37.7754 23.6196 36.3944 23.7506 35.1147 24.2043C35.3453 24.6604 35.9433 25.8248 36.2778 26.1575L36.2753 26.155ZM17.5261 23.7204C16.5835 23.7002 15.7979 23.9724 15.5217 24.4462C15.341 24.7548 15.2868 25.1208 15.3703 25.4681C15.4539 25.8154 15.6687 26.1173 15.9702 26.3112C16.7913 26.8027 17.5717 26.4826 17.63 26.1802C17.407 25.9281 17.0193 25.3611 16.8039 25.356C16.4897 25.356 16.515 24.9427 16.7431 24.8671C17.2905 24.6882 17.8226 25.7215 18.6107 26.281C19.3126 26.785 20.2958 26.4146 20.2958 26.2104C19.8675 25.8248 19.3557 23.7632 17.5312 23.7229L17.5261 23.7204ZM22.0569 14.97C22.1002 14.9402 22.1504 14.9221 22.2028 14.9172C22.2552 14.9124 22.3079 14.921 22.3559 14.9423C23.2251 15.222 24.4718 15.033 25.0547 14.1156C25.0946 14.0547 25.1549 14.0097 25.2248 13.9885C25.2948 13.9673 25.37 13.9713 25.4373 13.9997C26.0379 14.2517 27.2694 14.355 28.767 12.8403C28.8245 12.7881 28.8995 12.7591 28.9773 12.7591C29.0552 12.7591 29.1302 12.7881 29.1877 12.8403C30.5053 13.8913 31.8762 13.9568 33.2674 13.0369C33.3536 12.979 33.4625 12.9059 33.5588 12.9437C33.6061 12.9631 33.6478 12.9936 33.6805 13.0327C33.7132 13.0718 33.7358 13.1182 33.7463 13.168C34.1898 15.2119 36.3361 15.0305 36.9823 14.9322C37.0636 14.9183 37.1471 14.937 37.2146 14.9842C37.282 15.0315 37.3279 15.1034 37.3421 15.1842C37.4131 15.6631 37.9452 16.5905 38.8625 17.0643C39.6506 17.4676 40.5096 17.4373 41.4168 16.9711C41.4613 16.9461 41.5115 16.933 41.5625 16.933C41.6136 16.933 41.6638 16.9461 41.7082 16.9711C42.8739 17.5911 43.9204 17.6263 44.5818 17.0719C44.8093 16.8837 44.9755 16.6326 45.0594 16.3504C45.1433 16.0682 45.1411 15.7676 45.0531 15.4866C44.8453 14.8666 44.2245 14.4785 43.3503 14.4256C43.2803 14.4223 43.2135 14.3956 43.1606 14.3499C43.1077 14.3041 43.0719 14.242 43.0589 14.1736C43.0215 13.9303 42.9298 13.6985 42.7903 13.4952C42.6508 13.2919 42.4672 13.1224 42.253 12.9991C41.5689 12.5833 40.5603 12.5354 39.5594 12.8681C39.5157 12.8826 39.4694 12.8873 39.4237 12.8821C39.378 12.8768 39.334 12.8616 39.2948 12.8376C39.2557 12.8135 39.2223 12.7812 39.1971 12.7429C39.1719 12.7047 39.1554 12.6613 39.1489 12.616C39.1273 12.3776 39.053 12.1468 38.9312 11.9403C38.8094 11.7337 38.6432 11.5565 38.4444 11.4214C37.9376 11.1114 37.1774 11.119 36.2221 11.4441C36.151 11.4682 36.0736 11.4663 36.0039 11.4385C35.9341 11.4108 35.8767 11.3591 35.842 11.2929C35.2338 10.1336 34.3799 9.38252 33.3738 9.11789C32.9075 9.00341 32.4224 8.98641 31.9492 9.06797C31.4759 9.14953 31.0248 9.32787 30.6244 9.59171C30.5717 9.62836 30.5089 9.64801 30.4445 9.64801C30.3802 9.64801 30.3174 9.62836 30.2646 9.59171C29.8777 9.28567 29.4231 9.07554 28.9385 8.9787C28.4538 8.88185 27.9529 8.90106 27.4772 9.03473C27.0192 9.18347 26.6042 9.44014 26.2676 9.78287C25.9309 10.1256 25.6826 10.5442 25.5437 11.0031C25.5297 11.0428 25.5077 11.0793 25.4791 11.1104C25.4504 11.1415 25.4158 11.1665 25.3772 11.1839C25.3386 11.2014 25.2969 11.2108 25.2545 11.2118C25.2122 11.2128 25.17 11.2052 25.1307 11.1896C23.7522 10.6376 22.6246 10.6527 21.872 11.2299C21.6356 11.4097 21.4405 11.6376 21.2998 11.8983C21.1591 12.1591 21.076 12.4468 21.056 12.7421C21.067 12.8171 21.0495 12.8936 21.0068 12.9565C20.9642 13.0194 20.8995 13.0643 20.8254 13.0823L20.496 13.1604C19.7358 13.3343 18.9401 13.5133 18.7019 14.723C18.6892 14.7889 18.6555 14.8491 18.6057 14.8944C18.556 14.9398 18.4928 14.9681 18.4257 14.975C17.0953 15.1061 16.2287 15.5975 16.0437 16.3183C15.9868 16.5826 16.0115 16.8578 16.1146 17.1079C16.2177 17.3579 16.3944 17.5712 16.6215 17.7196C16.8569 17.8748 17.1365 17.9498 17.4184 17.9334C17.7003 17.9171 17.9693 17.8102 18.185 17.6289C18.2265 17.5968 18.2759 17.5763 18.328 17.5697C18.3802 17.563 18.4331 17.5704 18.4814 17.5911C19.2619 17.8885 20.5289 17.828 21.2967 17.2181C21.8542 16.7745 22.0721 16.1192 21.9454 15.2724C21.9355 15.2196 21.9404 15.165 21.9597 15.1148C21.9789 15.0645 22.0117 15.0205 22.0544 14.9876L22.0569 14.97ZM43.1146 15.0582C43.9027 14.8767 44.8504 15.4488 44.5818 16.5048C44.5362 16.6863 44.0902 16.6964 44.1054 16.5048C44.1738 15.6227 43.7354 15.5522 43.1501 15.5572C42.9296 15.5572 42.9448 15.0884 43.1121 15.0531L43.1146 15.0582ZM39.7368 13.4931C40.497 13.0571 42.0731 13.1352 42.5597 14.5264C42.6433 14.7633 42.3265 15.164 42.1314 14.8062C41.541 13.7275 40.5882 13.73 39.7925 14.0324C39.6151 14.103 39.4529 13.6519 39.7368 13.4906V13.4931ZM36.4425 11.8877C37.1546 11.6356 38.3659 11.5248 38.6902 12.7093C38.784 13.0394 38.3735 13.1982 38.2848 12.9613C37.9553 12.1044 37.332 12.1397 36.5895 12.3741C36.2474 12.485 36.3361 11.923 36.4425 11.8826V11.8877ZM30.6143 10.557C31.1211 9.7278 33.8097 8.95407 35.1755 11.3131C35.3225 11.5651 35.1274 11.7163 34.9728 11.8171C34.8638 11.8952 34.798 11.7188 34.7194 11.6029C33.5512 9.7656 31.4379 10.2495 30.8702 11.0988C30.7562 11.2727 30.4471 10.804 30.5966 10.5595L30.6143 10.557ZM26.2913 10.6905C26.7626 9.94706 28.3793 8.80538 29.811 10.063C29.9732 10.2016 29.7806 10.7183 29.6007 10.5998C28.2906 9.7026 27.2593 10.4234 26.7119 11.0711C26.4585 11.3786 26.1772 10.8695 26.2887 10.6905H26.2913ZM18.5651 15.8722C18.0177 15.8722 17.5768 15.8722 17.1916 16.3007C16.8065 16.7291 16.8799 16.9887 16.8039 17.0568C16.7279 17.1248 16.4086 16.9736 16.4137 16.7518C16.4365 15.7059 17.7086 15.2976 18.4612 15.3808C18.7475 15.4135 18.8235 15.8571 18.5676 15.8571L18.5651 15.8722ZM20.795 14.108C19.9942 14.1962 19.7586 14.5844 19.6167 15.033C19.5584 15.2018 19.1099 15.0809 19.1783 14.7507C19.3912 13.7678 20.463 13.5284 20.8507 13.6115C20.9774 13.6443 20.9369 14.103 20.7899 14.1181L20.795 14.108ZM21.4817 13.0495C21.6464 12.1826 22.4953 10.9199 24.4465 11.4113C24.6847 11.4718 24.5453 12.0742 24.2869 11.9734C22.8653 11.4189 22.1507 12.4925 21.9201 13.3368C21.8846 13.4654 21.4082 13.4175 21.4766 13.0571L21.4817 13.0495Z" fill="#1E2635"/>
<path fill-rule="evenodd" clip-rule="evenodd" d="M33.0515 60.9889C36.1556 60.0942 39.2319 58.9022 41.3149 57.0069C42.0208 56.3743 42.6463 55.6583 43.1774 54.8747H39.9997V55.3032H38.5376V54.8747H35.0077V48.942H35.7679V47.8633C36.5281 48.0473 37.7799 47.629 38.3374 47.629C38.6714 47.6128 39.0013 47.7077 39.275 47.8986C39.5486 47.7092 39.8771 47.6145 40.2101 47.629C40.7676 47.629 42.0168 48.0448 42.7821 47.8633V48.942H43.5423V54.2951C44.675 52.3444 45.2148 49.9577 45.3972 46.6007L45.3744 46.0966H33.0515V60.9663V60.9889ZM15.359 41.1115H27.687V30.0273H15.3564L15.359 41.1115ZM25.8067 38.8433H22.2768V39.2843H20.8147V38.8433H17.2848V32.9357H18.045V31.8646C18.8052 32.0486 20.0596 31.6302 20.6171 31.6302C20.9506 31.6145 21.2801 31.7084 21.5546 31.8974C21.8285 31.7089 22.157 31.615 22.4897 31.6302C23.0472 31.6302 24.2939 32.0436 25.0592 31.8646V32.9433H25.8194L25.8067 38.8433ZM33.054 41.1115H45.3668V30.0273H33.0515V41.1317L33.054 41.1115ZM43.5322 38.8433H39.9997V39.2843H38.5376V38.8433H35.0103V32.9357H35.7705V31.8646C36.5307 32.0486 37.785 31.6302 38.3425 31.6302C38.676 31.6145 39.0055 31.7084 39.2801 31.8974C39.5546 31.7084 39.8841 31.6145 40.2177 31.6302C40.7752 31.6302 42.0219 32.0436 42.7897 31.8646V32.9433H43.5499L43.5322 38.8433Z" fill="#1E2635"/>
<path fill-rule="evenodd" clip-rule="evenodd" d="M17.2848 54.2468V48.9542H18.045V47.8755C18.8052 48.0595 20.057 47.6411 20.6145 47.6411C20.9484 47.6261 21.2779 47.7209 21.5521 47.9108C21.8257 47.7214 22.1542 47.6267 22.4872 47.6411C23.0447 47.6411 24.2914 48.057 25.0567 47.8755V48.9542H25.8169V54.8743H22.2743V55.3028H20.8122V54.8743H17.67C18.1832 55.6462 18.7862 56.3551 19.4666 56.9863C21.4279 58.816 24.5068 60.056 27.6768 60.981V46.1113H15.3564L15.3818 46.5826C15.5034 49.6523 16.0837 52.155 17.2823 54.2468" fill="#1E2635"/>
<path fill-rule="evenodd" clip-rule="evenodd" d="M46.7329 19.7451C46.548 19.609 44.5841 19.3695 44.2775 19.3695C43.9709 19.3695 42.2832 19.3847 41.6294 19.4829C40.2763 19.6338 38.9104 19.6338 37.5573 19.4829C37.0697 19.4502 36.5805 19.518 36.1205 19.682C36.2205 19.5989 36.3161 19.5105 36.4068 19.4174C36.7971 19.0192 37.2329 18.2631 38.0058 17.8876C38.1933 17.7952 38.3783 17.6977 38.5607 17.5953C39.2094 17.9179 40.2332 18.1371 41.5053 17.5423C43.4032 18.4849 44.5461 17.8473 44.9363 17.5121C45.1737 17.3119 45.3646 17.0629 45.4959 16.7823C45.6271 16.5016 45.6956 16.196 45.6965 15.8865C45.6972 15.6716 45.663 15.458 45.5952 15.2539C45.3215 14.4323 44.5816 13.9207 43.535 13.8022C43.4782 13.587 43.393 13.3802 43.2816 13.1873C43.383 13.0579 43.486 12.9302 43.5908 12.8042C43.682 12.6908 43.9937 12.1767 43.1574 12.6051L42.9319 12.7286C42.8136 12.6104 42.6818 12.5063 42.5391 12.4186C41.7612 11.9473 40.707 11.8893 39.625 12.1666C39.513 11.6232 39.1932 11.1443 38.733 10.8308C38.1924 10.5351 37.5636 10.4404 36.9592 10.5637C37.0023 10.4603 37.0429 10.3696 37.0783 10.2965C37.3926 9.64126 37.2228 9.47744 36.8933 9.76727C36.5208 10.0974 36.2852 10.3318 36.1053 10.5234C35.4363 9.45475 34.5519 8.73144 33.5104 8.45673C32.5818 8.22946 31.602 8.34031 30.7484 8.76924C30.7157 8.42931 30.6572 8.09231 30.5735 7.76113C30.4088 7.22935 30.2137 7.64772 30.1833 7.81154L30.0388 8.69364C29.6211 8.46018 29.1609 8.31186 28.6849 8.25733C28.2089 8.20281 27.7267 8.24318 27.2666 8.37608C26.7651 8.53848 26.3063 8.81007 25.9236 9.17106C25.541 9.53205 25.244 9.97335 25.0544 10.4629C24.7244 10.3502 24.3853 10.2659 24.0408 10.2108C23.7912 9.89154 23.5102 9.59774 23.2021 9.33378C22.9487 9.10696 22.7333 9.22542 22.8878 9.6715C22.9487 9.8454 22.9994 9.99662 23.05 10.1428C22.4754 10.1585 21.9192 10.3484 21.4561 10.6872C20.8908 11.1266 20.5192 11.7673 20.4197 12.4741L20.3234 12.4967C19.7381 12.6303 18.95 12.8496 18.4559 13.6233L18.2785 13.5124C16.8062 12.5396 17.4853 13.7896 18.0555 14.3416C16.0967 14.6163 15.5443 15.5538 15.4024 16.1058C15.3666 16.2467 15.3487 16.3914 15.3492 16.5367C15.3534 16.861 15.4363 17.1794 15.5907 17.4651C15.7451 17.7507 15.9665 17.9951 16.2361 18.1774C16.5565 18.389 16.934 18.4989 17.3185 18.4926C17.7031 18.4863 18.0767 18.3641 18.39 18.1422C19.3124 18.437 20.6148 18.3942 21.5499 17.7137C22.0896 18.2908 22.523 18.7017 22.7611 18.936C23.3107 19.4457 23.9509 19.8492 24.649 20.1256C24.0503 19.891 23.4034 19.8045 22.7637 19.8736C21.1977 20.0903 20.1587 19.8081 19.4897 19.7425C18.3849 19.6342 17.2497 19.8232 16.6846 19.8232C16.1195 19.8232 15.2402 20.1029 14.8271 20.1634C14.4141 20.2239 14.4116 20.5238 15.0299 20.6876C15.6482 20.8515 16.8037 20.9548 17.1052 21.0884C18.3185 21.5841 19.6231 21.8202 20.9341 21.7814C21.7704 21.7184 22.6116 22.1242 22.8296 22.1872C23.2451 22.3132 24.274 22.593 24.6946 22.5854C24.6939 22.88 24.7083 23.1744 24.7377 23.4675C24.5843 23.5164 24.4337 23.5736 24.2866 23.6389C23.8178 23.3566 21.7526 22.5274 19.2617 23.5582C18.7321 23.3768 17.6146 22.7618 16.0815 23.2634C14.1886 23.8859 14.4952 25.6097 15.1211 26.3986C15.9649 27.4672 17.5284 27.2504 17.982 26.7136C18.3983 26.9901 18.8884 27.136 19.389 27.1324C19.8895 27.1288 20.3775 26.9759 20.7897 26.6934C21.2965 26.9833 23.719 27.4621 25.5688 26.7136C25.8222 26.9001 26.8358 27.4294 28.1409 26.7741C28.9011 27.2177 30.1377 27.253 30.7762 26.6934C31.0068 26.89 31.7037 27.1698 33.1836 27.1521C34.9574 27.132 35.3729 26.8673 35.6238 26.6481C36.0187 26.8705 36.4589 27.0014 36.9117 27.0311C37.3645 27.0608 37.8181 26.9884 38.2389 26.8195C38.9054 27.2353 40.2383 27.2126 40.9528 26.7464C42.2604 27.3361 44.655 27.069 45.2607 26.6582C46.3326 25.9172 45.8156 24.4101 44.6322 23.6943C42.3111 22.53 40.1496 23.4423 39.5642 23.7271C38.88 23.2684 37.4508 22.971 35.9634 23.2482C35.9748 23.0485 35.9748 22.8482 35.9634 22.6484C35.9634 22.6257 35.9634 22.603 35.9634 22.5778C36.2573 22.4896 36.6754 22.1746 37.5294 22.1191C38.69 22.041 41.4242 22.0788 42.7925 21.3807C43.573 20.985 46.2895 20.4532 46.6518 20.2441C47.0142 20.0349 46.9281 19.8736 46.7355 19.74L46.7329 19.7451ZM36.7717 18.185C35.786 19.3393 35.2893 19.7425 35.1145 19.735C34.8788 19.332 34.5784 18.9702 34.225 18.6639C34.5798 18.2707 36.1205 17.5574 36.8325 17.0231C36.9364 16.945 37.2481 16.7535 37.3824 16.6829C37.5732 16.9101 37.792 17.1124 38.0337 17.2853C37.423 17.623 37.0885 17.817 36.7666 18.185H36.7717ZM22.5635 15.6798C23.005 15.7536 23.4574 15.73 23.8887 15.6106C24.32 15.4913 24.7197 15.2792 25.0595 14.9893C25.9211 16.3578 25.9439 17.5978 26.775 18.4496C25.7259 17.4415 24.8086 17.4592 23.3085 16.6527C23.0551 16.5141 22.6623 16.2646 22.5483 16.2091C22.5666 16.0771 22.5759 15.9441 22.5762 15.8109C22.5762 15.7706 22.5762 15.7227 22.5762 15.6824L22.5635 15.6798ZM28.9543 17.2071L28.9771 17.255C28.9771 17.255 28.521 16.572 28.4703 16.4863C28.3132 16.2494 28.1105 16.0075 27.8824 15.7302C27.5868 15.374 27.2818 15.0271 26.9676 14.6894C27.7356 14.481 28.4348 14.075 28.9948 13.5124C29.0734 13.5704 29.1519 13.6132 29.233 13.6611C29.1992 13.861 29.1638 14.061 29.1266 14.2609C29.0111 14.9001 28.9458 15.5472 28.9315 16.1965C28.9263 16.5329 28.9381 16.8694 28.9669 17.2046L28.9543 17.2071ZM27.6417 16.3553C27.9159 16.7243 28.1697 17.108 28.4019 17.5045C27.9968 17.6617 27.6088 17.8593 27.2438 18.0943C26.6737 17.497 26.2175 15.6824 25.9135 15.201L25.6601 14.7902C25.8933 14.8438 26.133 14.865 26.3721 14.8532C26.4279 14.9338 26.9321 15.4278 27.6391 16.3654L27.6417 16.3553ZM30.3556 17.7036C31.0297 17.6969 31.6983 17.824 32.3224 18.0774C32.9465 18.3309 33.5135 18.7056 33.9902 19.1797C34.4668 19.6538 34.8436 20.2177 35.0985 20.8384C35.3533 21.4591 35.4811 22.1242 35.4743 22.7946C35.4733 23.0474 35.4564 23.2999 35.4236 23.5507C35.1104 23.6358 34.8059 23.7497 34.5139 23.8909C33.7603 23.4835 32.9162 23.2701 32.0585 23.2701C31.2007 23.2701 30.3566 23.4835 29.603 23.8909C28.7364 23.2079 26.7826 23.1525 25.3104 23.4927C25.2702 23.2669 25.2448 23.0388 25.2344 22.8097C25.2344 21.4595 25.7736 20.1646 26.7336 19.2099C27.6935 18.2551 28.9955 17.7187 30.3531 17.7187L30.3556 17.7036ZM29.6182 15.758C29.6497 15.1819 29.7345 14.6099 29.8716 14.0492C30.091 14.1549 30.3201 14.2393 30.5558 14.3013C30.8745 15.2395 30.9986 16.2324 30.9207 17.2197C30.5076 17.1844 30.0921 17.1844 29.679 17.2197C29.5852 17.0509 29.5726 16.2797 29.603 15.7731L29.6182 15.758ZM34.1566 15.8613C33.8677 16.4788 34.0172 17.2802 33.2773 18.0061C32.9127 17.7985 32.5352 17.6142 32.1471 17.4541C32.2637 16.4712 33.1836 15.2438 33.7866 14.7373C33.9841 14.95 34.2163 15.1281 34.4734 15.264C34.3585 15.4589 34.2529 15.658 34.1566 15.8613ZM34.9396 15.6647C34.9624 15.6244 34.9903 15.5715 35.0207 15.5135C35.5849 15.6926 36.1811 15.7493 36.7692 15.6798C36.8379 15.8916 36.9296 16.0953 37.0429 16.2872C36.7489 16.4258 35.8595 17.0433 34.557 17.754C34.3128 17.8828 34.0891 18.0467 33.8931 18.2404C34.067 18.0181 34.211 17.7741 34.3213 17.5146C34.5469 16.9299 34.486 16.4611 34.9472 15.6622L34.9396 15.6647ZM31.7898 16.4208C31.6888 16.6619 31.6041 16.9094 31.5364 17.1618C31.6454 16.4057 31.4376 15.2842 31.2146 14.3189C31.9273 14.3271 32.6285 14.1405 33.2418 13.7796C33.2946 13.9219 33.3581 14.0601 33.4319 14.1929C33.0569 14.523 32.1497 15.5135 31.7974 16.4082L31.7898 16.4208ZM21.2864 17.2021C20.5261 17.8145 19.2591 17.8725 18.4711 17.5751C18.4228 17.5544 18.3698 17.5471 18.3176 17.5537C18.2655 17.5604 18.2161 17.5808 18.1746 17.6129C17.9589 17.7942 17.69 17.9011 17.408 17.9175C17.1261 17.9338 16.8465 17.8588 16.6111 17.7036C16.384 17.5552 16.2073 17.342 16.1042 17.0919C16.0011 16.8418 15.9764 16.5666 16.0333 16.3024C16.2158 15.579 17.085 15.0901 18.4153 14.959C18.4825 14.9521 18.5456 14.9239 18.5953 14.8785C18.6451 14.8331 18.6788 14.773 18.6915 14.707C18.9297 13.4973 19.7203 13.3158 20.4856 13.1444L20.815 13.0663C20.8891 13.0483 20.9538 13.0034 20.9965 12.9405C21.0391 12.8776 21.0566 12.8012 21.0456 12.7261C21.0656 12.4308 21.1487 12.1431 21.2894 11.8824C21.4301 11.6216 21.6252 11.3937 21.8616 11.2139C22.6218 10.6368 23.7393 10.6216 25.1203 11.1736C25.1602 11.1912 25.2034 11.2004 25.247 11.2004C25.2907 11.2004 25.3338 11.1912 25.3737 11.1736C25.413 11.157 25.4483 11.1322 25.4771 11.1009C25.506 11.0696 25.5277 11.0325 25.541 10.9921C25.6798 10.5333 25.9281 10.1147 26.2648 9.77195C26.6015 9.42921 27.0165 9.17253 27.4744 9.02379C27.9502 8.89012 28.451 8.87092 28.9357 8.96777C29.4204 9.06462 29.8749 9.27473 30.2618 9.58077C30.3146 9.61742 30.3774 9.63707 30.4417 9.63707C30.5061 9.63707 30.5689 9.61742 30.6217 9.58077C31.0221 9.31693 31.4731 9.13859 31.9464 9.05703C32.4196 8.97548 32.9048 8.99248 33.3711 9.10696C34.3847 9.37159 35.2336 10.1151 35.8392 11.282C35.8739 11.3482 35.9314 11.3998 36.0011 11.4276C36.0708 11.4553 36.1482 11.4573 36.2193 11.4332C37.1645 11.1106 37.9323 11.103 38.4416 11.4105C38.6404 11.5456 38.8066 11.7228 38.9284 11.9293C39.0502 12.1359 39.1245 12.3666 39.1461 12.6051C39.1526 12.6504 39.1691 12.6937 39.1943 12.732C39.2195 12.7703 39.2529 12.8026 39.2921 12.8266C39.3312 12.8507 39.3752 12.8659 39.4209 12.8711C39.4666 12.8764 39.513 12.8716 39.5566 12.8571C40.5702 12.5245 41.5661 12.5723 42.2503 12.9882C42.4644 13.1114 42.648 13.281 42.7875 13.4842C42.927 13.6875 43.0188 13.9194 43.0561 14.1626C43.0691 14.2311 43.1049 14.2932 43.1578 14.3389C43.2107 14.3847 43.2775 14.4113 43.3475 14.4147C44.2217 14.4676 44.8451 14.8532 45.0503 15.4757C45.1383 15.7567 45.1405 16.0573 45.0566 16.3395C44.9727 16.6217 44.8065 16.8728 44.579 17.061C43.9176 17.6154 42.8686 17.5801 41.7054 16.9601C41.661 16.9352 41.6108 16.9221 41.5597 16.9221C41.5087 16.9221 41.4585 16.9352 41.414 16.9601C40.5069 17.4239 39.6402 17.4642 38.8597 17.0534C37.9374 16.5796 37.4027 15.6521 37.3393 15.1733C37.3251 15.0924 37.2792 15.0205 37.2118 14.9733C37.1443 14.9261 37.0608 14.9073 36.9795 14.9212C36.3333 15.0246 34.1921 15.206 33.7436 13.157C33.7346 13.1067 33.7125 13.0595 33.6797 13.0202C33.6468 12.9809 33.6042 12.9507 33.5561 12.9327C33.4598 12.8949 33.3508 12.968 33.2646 13.026C31.8735 13.9459 30.5 13.8804 29.1849 12.8294C29.1274 12.7772 29.0524 12.7482 28.9746 12.7482C28.8967 12.7482 28.8217 12.7772 28.7642 12.8294C27.2641 14.3416 26.0351 14.2307 25.4345 13.9887C25.3672 13.9603 25.292 13.9564 25.2221 13.9776C25.1521 13.9988 25.0919 14.0438 25.0519 14.1047C24.4716 15.0195 23.2223 15.2086 22.3532 14.9313C22.3051 14.91 22.2524 14.9014 22.2 14.9063C22.1477 14.9111 22.0974 14.9293 22.0542 14.959C22.0114 14.992 21.9786 15.036 21.9594 15.0862C21.9402 15.1364 21.9353 15.191 21.9452 15.2438C22.0719 16.0906 21.8514 16.756 21.2965 17.1895L21.2864 17.2021ZM22.0111 17.4869C22.1729 17.255 22.2985 17.0001 22.3836 16.7308C22.4647 16.7787 22.528 16.819 22.5635 16.8442C22.8262 17.0184 23.0977 17.1791 23.3769 17.3256C24.6769 17.933 25.4928 18.0817 26.3797 18.7949C26.0559 19.1345 25.7688 19.5071 25.5232 19.9063C23.6633 19.4023 22.2113 17.7439 22.0085 17.4818L22.0111 17.4869ZM22.9765 21.6075C22.7941 21.5445 21.7349 21.1614 21.1039 21.2068C19.809 21.3001 18.1619 20.8943 17.346 20.5742C17.1432 20.4961 15.3593 20.3398 17.0926 20.3398C17.6627 20.3398 18.3596 20.1811 19.5125 20.3398C20.7031 20.4957 21.9075 20.5185 23.1032 20.4079C23.4335 20.3648 23.7692 20.3905 24.089 20.4833C24.4087 20.5762 24.7056 20.7342 24.9607 20.9472C24.8614 21.3019 24.7877 21.6633 24.7402 22.0284C24.2841 22.0284 23.4428 21.7764 22.9664 21.6025L22.9765 21.6075ZM18.5978 26.2852C17.8122 25.7257 17.2775 24.6924 16.7302 24.8713C16.5021 24.9444 16.4768 25.3527 16.791 25.3602C17.0064 25.3602 17.3941 25.9323 17.6171 26.1844C17.5588 26.4868 16.7783 26.8069 15.9573 26.3154C15.6558 26.1215 15.441 25.8196 15.3574 25.4723C15.2739 25.125 15.3281 24.759 15.5088 24.4504C15.785 23.969 16.5706 23.6943 17.5132 23.7246C19.3377 23.7649 19.8496 25.8265 20.2778 26.2121C20.2778 26.4162 19.2946 26.7817 18.5927 26.2826L18.5978 26.2852ZM21.2458 26.2574C20.5566 25.9525 20.0117 24.3773 19.809 24.1757C19.7279 24.095 21.0279 23.6263 22.343 23.7397C24.5907 23.9312 24.5983 25.3174 25.1507 26.0079C25.3661 26.2524 23.3414 26.822 21.2534 26.2448L21.2458 26.2574ZM28.5944 26.3986C28.2073 26.0192 27.8474 25.6133 27.5175 25.1838C27.2894 24.9091 26.8688 24.6596 26.6914 24.9091C26.585 25.0603 26.6914 25.2317 26.8865 25.3401C27.1996 25.6175 27.4741 25.9354 27.7025 26.2852C27.6619 26.4994 26.6534 26.8598 26.063 26.1466C25.7589 25.7761 25.1685 24.6772 24.8137 24.2059C26.0959 23.7523 27.6189 23.5834 28.6983 24.09C29.7348 24.5739 29.9147 25.6904 30.3277 26.2348C30.4291 26.6002 29.228 26.822 28.597 26.3961L28.5944 26.3986ZM31.4173 26.3709C30.7306 26.0659 30.1833 24.4882 29.9806 24.2866C29.8995 24.2059 31.1994 23.7397 32.5146 23.8531C34.7648 24.0421 34.7698 25.4333 35.3223 26.1213C35.5427 26.3658 33.5155 26.9455 31.4351 26.3583L31.4173 26.3709ZM42.6608 23.7775C44.9084 23.9665 45.4482 25.4384 45.2201 25.9172C45.0225 26.3356 43.6465 26.88 41.5585 26.2952C40.8692 25.9903 40.3244 24.4126 40.1217 24.211C40.0406 24.1303 41.338 23.6641 42.6557 23.7775H42.6608ZM38.842 24.1278C39.881 24.6117 40.109 25.7231 40.4688 26.27C40.5702 26.6355 39.3108 26.7489 38.7381 26.4339C38.5177 26.3104 37.8892 25.4963 37.6612 25.2191C37.4331 24.9419 37.0758 24.768 36.9009 25.0175C36.7945 25.1687 36.9212 25.3476 37.1189 25.456C37.3723 25.587 37.7727 26.1894 37.8461 26.3205C37.8056 26.5347 36.9162 26.8245 36.2624 26.1592C35.9279 25.8265 35.3299 24.6621 35.0993 24.2059C36.3789 23.7523 37.7625 23.6212 38.8395 24.1253L38.842 24.1278ZM44.8755 20.2264C44.0519 20.384 43.2438 20.6134 42.4606 20.9119C41.1784 21.416 38.6418 21.547 37.6105 21.5294C36.6222 21.5143 36.2877 21.9478 35.9406 21.8873C35.8884 21.4376 35.7759 20.9968 35.6061 20.5767C36.2423 20.2875 36.9337 20.138 37.6333 20.1382C38.7229 20.1785 40.7146 20.2617 41.7409 20.1029C42.2477 20.0273 44.0823 20.0172 44.3611 20.0172C44.5724 20.0225 44.7831 20.041 44.9921 20.0727C45.4279 20.1382 45.0808 20.1811 44.8628 20.2264H44.8755Z" fill="#8C9EBC"/>
<path fill-rule="evenodd" clip-rule="evenodd" d="M30.9484 22.8339C30.8445 23.1363 29.7675 23.2321 29.5699 22.8339C29.4913 22.6776 29.3824 22.2744 29.5293 22.3576C29.7675 22.4962 30.6342 22.3979 30.7963 22.3576C30.9585 22.3172 30.847 22.1207 30.9357 22.1459C31.0244 22.1711 31.0421 22.5415 30.9357 22.8289L30.9484 22.8339ZM29.2278 21.0647C29.2239 21.1425 29.2046 21.2188 29.171 21.2891C29.1374 21.3595 29.0902 21.4226 29.0321 21.4748C28.974 21.527 28.906 21.5673 28.8322 21.5934C28.7584 21.6194 28.6801 21.6308 28.6019 21.6267C28.5237 21.6228 28.447 21.6036 28.3762 21.5702C28.3054 21.5368 28.242 21.4899 28.1895 21.432C28.137 21.3742 28.0965 21.3067 28.0703 21.2332C28.0441 21.1598 28.0327 21.082 28.0368 21.0042V20.9386C27.9861 20.8605 27.7175 20.7748 27.3197 21.0143C27.1195 21.1378 26.8965 21.0521 27.2437 20.7622C27.5262 20.4872 27.8826 20.299 28.2699 20.2204C28.7848 20.1906 29.3007 20.2582 29.7903 20.4195C29.9221 20.4724 29.7903 21.1125 29.7549 21.105C29.584 21.039 29.4004 21.0123 29.2177 21.0269V21.0747L29.2278 21.0647ZM44.5763 16.4904C44.5307 16.6718 44.0847 16.6819 44.0999 16.4904C44.1683 15.6083 43.73 15.5377 43.1446 15.5427C42.9241 15.5427 42.9394 15.074 43.1066 15.0387C43.8947 14.8572 44.8424 15.4293 44.5738 16.4853L44.5763 16.4904ZM42.131 14.7967C41.5406 13.7181 40.5878 13.7206 39.7921 14.023C39.6147 14.0936 39.4525 13.6424 39.7363 13.4811C40.4966 13.0451 42.0727 13.1233 42.5592 14.5145C42.6429 14.7514 42.3261 15.1521 42.131 14.7942V14.7967ZM38.2768 12.962C37.9473 12.1051 37.324 12.1404 36.5815 12.3748C36.2394 12.4856 36.3281 11.9236 36.4345 11.8833C37.1466 11.6313 38.3579 11.5204 38.6822 12.7049C38.776 13.0351 38.3655 13.1938 38.2768 12.9569V12.962ZM34.9825 11.8026C34.8736 11.8808 34.8077 11.7044 34.7291 11.5884C33.561 9.75114 31.4476 10.235 30.88 11.0844C30.7659 11.2583 30.4568 10.7895 30.6063 10.545C31.1131 9.71586 33.8017 8.94213 35.1675 11.3011C35.3145 11.5531 35.1194 11.7044 34.9648 11.8052L34.9825 11.8026ZM29.5826 10.5929C28.2725 9.6957 27.2411 10.4165 26.6938 11.0642C26.4404 11.3717 26.1591 10.8626 26.2706 10.6836C26.7419 9.94016 28.3586 8.79848 29.7903 10.0561C29.9525 10.1947 29.7599 10.7114 29.58 10.5929H29.5826ZM24.2586 11.9866C22.837 11.4322 22.1224 12.5058 21.8918 13.3501C21.8614 13.466 21.385 13.4207 21.4509 13.0628C21.6156 12.1958 22.4645 10.9331 24.4157 11.4246C24.6539 11.4851 24.5145 12.0874 24.2561 11.9866H24.2586ZM20.7642 14.1213C19.9634 14.2095 19.7278 14.5976 19.5859 15.0462C19.5276 15.2151 19.0791 15.0941 19.1475 14.764C19.3603 13.7811 20.4322 13.5416 20.8199 13.6248C20.9517 13.65 20.9112 14.1087 20.7642 14.1289V14.1213ZM18.5342 15.8931C17.9869 15.8931 17.546 15.8931 17.1608 16.3215C16.7756 16.7499 16.8491 17.0095 16.7731 17.0776C16.6971 17.1456 16.3778 16.9944 16.3829 16.7726C16.4057 15.7267 17.6778 15.3184 18.4304 15.4016C18.7167 15.4344 18.7927 15.8779 18.5368 15.8779" fill="#8C9EBC"/>
<path fill-rule="evenodd" clip-rule="evenodd" d="M33.0521 41.1337H45.3649V30.0268H33.0521V41.1337ZM15.3596 41.1337H27.6876V30.0268H15.3571L15.3596 41.1337ZM27.6876 60.9784C24.5176 60.0559 21.4387 58.8134 19.4774 56.9837C18.797 56.3525 18.194 55.6436 17.6808 54.8717H20.823V55.3027H22.2851V54.8742H25.815V48.9415H25.0548V47.8628C24.2946 48.0443 23.0428 47.6284 22.4853 47.6284C22.1523 47.614 21.8238 47.7087 21.5502 47.8981C21.276 47.7082 20.9465 47.6134 20.6126 47.6284C20.0552 47.6284 18.8059 48.0468 18.0432 47.8628V48.9415H17.2829V54.2341C16.0844 52.1423 15.5091 49.6396 15.3824 46.5699L15.3571 46.0986H27.6876V60.9784ZM18.6792 53.6695V48.5509C19.1176 48.6265 19.8676 48.3266 20.6355 48.2988C20.7358 48.2818 20.8389 48.2937 20.9328 48.3329C21.0266 48.3722 21.1072 48.4373 21.1651 48.5206V53.6721C21.1651 53.6721 20.7216 53.3646 19.7257 53.6469C18.9655 53.8661 18.6792 53.6469 18.6792 53.6469V53.6695ZM21.943 53.6872V48.5257C22.0011 48.4426 22.0817 48.3777 22.1755 48.3384C22.2692 48.2992 22.3723 48.2872 22.4726 48.3039C23.2328 48.3266 23.993 48.629 24.4314 48.5559V53.662C24.4314 53.662 24.1527 53.8737 23.3849 53.662C22.389 53.3797 21.9455 53.6872 21.9455 53.6872H21.943ZM32.4161 61.1926L30.3762 61.6966L28.3313 61.1724V45.4282H15.3571V41.8142H28.3211V30.0268H32.4059V41.8142H45.3624V45.4282H32.4085V61.18L32.4161 61.1926ZM43.5303 54.2946V48.9415H42.7701V47.8628C42.0099 48.0443 40.7581 47.6284 40.198 47.6284C39.8651 47.614 39.5365 47.7087 39.263 47.8981C38.9893 47.7071 38.6594 47.6123 38.3254 47.6284C37.7679 47.6284 36.5187 48.0468 35.7559 47.8628V48.9415H34.9957V54.8742H38.5256V55.3027H39.9877V54.8742H43.1628C42.6317 55.6578 42.0062 56.3738 41.3003 57.0064C39.2174 58.9016 36.1411 60.0937 33.0369 60.9884V46.1188H45.3497L45.3725 46.6228C45.2027 49.9673 44.6655 52.3565 43.5303 54.2946ZM42.1442 48.5408V53.6469C42.1442 53.6469 41.868 53.8586 41.0976 53.6469C40.1018 53.3646 39.6583 53.6721 39.6583 53.6721V48.5257C39.6583 48.5257 39.7723 48.2913 40.1879 48.3039C40.9481 48.3266 41.7083 48.629 42.1442 48.5559V48.5408ZM38.8804 48.5131V53.6645C38.8804 53.6645 38.4369 53.357 37.441 53.6393C36.6808 53.8586 36.3945 53.6393 36.3945 53.6393V48.5509C36.8329 48.6265 37.5829 48.3266 38.3507 48.2988C38.4511 48.2821 38.5541 48.2941 38.6479 48.3334C38.7416 48.3726 38.8223 48.4376 38.8804 48.5206V48.5131ZM14.6045 29.2682V45.7256C14.6045 51.1568 15.9678 54.9196 18.887 57.5709C21.8062 60.2223 26.1241 61.5253 30.3686 62.5233C34.7271 61.5 38.9209 60.2223 41.8477 57.5709C44.7745 54.9196 46.1226 51.1669 46.1226 45.7256V29.2783L14.6045 29.2682ZM33.4804 21.1479C33.2092 20.9261 32.857 20.8303 32.7202 20.9261V20.9715C32.7295 21.0502 32.7228 21.13 32.7006 21.2061C32.6783 21.2822 32.6409 21.3531 32.5906 21.4145C32.5403 21.476 32.4781 21.5268 32.4077 21.5639C32.3373 21.6011 32.2601 21.6238 32.1807 21.6307C32.1013 21.6376 32.0214 21.6286 31.9455 21.6042C31.8697 21.5798 31.7996 21.5405 31.7393 21.4887C31.679 21.4369 31.6298 21.3735 31.5946 21.3024C31.5594 21.2313 31.5388 21.1539 31.5342 21.0748V21.0496C31.3214 20.9815 30.9793 21.1 30.9312 21.0824C30.883 21.0647 30.7588 20.4674 30.9489 20.3893C31.4557 20.1801 33.118 20.0793 33.5995 21.0042C33.6552 21.1151 33.6197 21.2563 33.4778 21.1479" fill="#8C9EBC"/>
<path fill-rule="evenodd" clip-rule="evenodd" d="M42.7771 32.9352V31.8641C42.0169 32.0431 40.7626 31.6297 40.2051 31.6297C39.8716 31.614 39.5421 31.7079 39.2675 31.8969C38.9952 31.7016 38.6655 31.6015 38.3299 31.6121C37.7724 31.6121 36.5232 32.0305 35.7579 31.8465V32.9252H34.9977V38.8554H38.525V39.2964H39.9872V38.8554H43.5145V32.9352H42.7543H42.7771ZM38.7835 37.6608C38.7835 37.6608 38.3401 37.3508 37.3467 37.633C36.5865 37.8498 36.2977 37.633 36.2977 37.633V32.5421C36.7386 32.6177 37.4886 32.3178 38.2564 32.2901C38.6695 32.2774 38.7835 32.5118 38.7835 32.5118V37.6608ZM42.0499 37.6406C42.0499 37.6406 41.7711 37.8498 41.0033 37.6406C40.0074 37.3583 39.564 37.6683 39.564 37.6683V32.5169C39.6223 32.4341 39.703 32.3693 39.7967 32.3301C39.8904 32.2908 39.9933 32.2787 40.0936 32.2951C40.8538 32.3178 41.614 32.6177 42.0499 32.5471V37.6608V37.6406ZM25.0517 32.9277V31.8641C24.2915 32.0431 23.0397 31.6297 22.4822 31.6297C22.1495 31.6145 21.821 31.7084 21.5472 31.8969C21.2726 31.7079 20.9431 31.614 20.6096 31.6297C20.0521 31.6297 18.8028 32.0481 18.0375 31.8641V32.9428H17.2773V38.873H20.8072V39.3141H22.2693V38.873H25.7967V32.9352H25.0365L25.0517 32.9277ZM21.1544 37.6608C21.1544 37.6608 20.7109 37.3508 19.7151 37.633C18.9549 37.8498 18.6685 37.633 18.6685 37.633V32.5421C19.1094 32.6177 19.8595 32.3178 20.6248 32.2901C21.0378 32.2774 21.1544 32.5118 21.1544 32.5118V37.6608ZM24.4207 37.6406C24.4207 37.6406 24.142 37.8498 23.3742 37.6406C22.3783 37.3583 21.9349 37.6683 21.9349 37.6683V32.5169C21.993 32.4338 22.0736 32.3689 22.1673 32.3296C22.2611 32.2904 22.3641 32.2784 22.4645 32.2951C23.2247 32.3178 23.9849 32.6177 24.4233 32.5471L24.4207 37.6406Z" fill="#8C9EBC"/>
<path fill-rule="evenodd" clip-rule="evenodd" d="M41.5784 26.2866C43.6665 26.8713 45.0424 26.3269 45.2401 25.9086C45.4631 25.4297 44.9284 23.9579 42.6807 23.7689C41.3605 23.6554 40.0606 24.1217 40.1467 24.2023C40.3469 24.404 40.8943 25.9817 41.5835 26.2866H41.5784ZM32.5447 23.8445C31.2245 23.7311 29.9245 24.1998 30.0107 24.278C30.2134 24.4796 30.7709 26.0573 31.4474 26.3622C33.5355 26.9469 35.5601 26.3622 35.3574 26.1102C34.805 25.4196 34.7974 24.0285 32.5497 23.842L32.5447 23.8445ZM22.3655 23.7285C21.0453 23.6151 19.7454 24.0839 19.8315 24.1645C20.0342 24.3662 20.5791 25.9439 21.2683 26.2463C23.3563 26.831 25.381 26.2463 25.1783 25.9943C24.6233 25.3012 24.6183 23.9125 22.3706 23.726L22.3655 23.7285ZM28.3205 61.1748L30.3654 61.699L32.4053 61.195V45.4432H45.3617V41.814H32.4078V30.0267H28.3205V41.814H15.3564V45.4281H28.3205V61.1748Z" fill="#4C5B74"/>
</g>
<defs>
<clipPath id="clip0_5332_74368">
<rect width="111" height="55" fill="white" transform="translate(14.5 7.5)"/>
</clipPath>
</defs>
</svg>
