<svg width="140" height="70" viewBox="0 0 140 70" fill="none" xmlns="http://www.w3.org/2000/svg">
<path d="M69.9998 66.3389C87.3033 66.3389 101.331 52.3069 101.331 34.9976C101.331 17.6882 87.3033 3.65625 69.9998 3.65625C52.6962 3.65625 38.6689 17.6882 38.6689 34.9976C38.6689 52.3069 52.6962 66.3389 69.9998 66.3389Z" fill="#273246"/>
<path d="M69.9939 66.9999C70.3573 66.9999 70.6518 66.7053 70.6518 66.3418C70.6518 65.9783 70.3573 65.6836 69.9939 65.6836C69.6305 65.6836 69.3359 65.9783 69.3359 66.3418C69.3359 66.7053 69.6305 66.9999 69.9939 66.9999Z" fill="#8C9EBC"/>
<path d="M68.4098 66.9589C68.7728 66.977 69.0817 66.6974 69.0998 66.3344C69.1179 65.9713 68.8384 65.6623 68.4755 65.6442C68.1126 65.626 67.8037 65.9056 67.7855 66.2687C67.7674 66.6317 68.0469 66.9407 68.4098 66.9589Z" fill="#8C9EBC"/>
<path d="M66.8206 66.8421C67.1822 66.8782 67.5046 66.6144 67.5408 66.2527C67.5769 65.891 67.3131 65.5684 66.9516 65.5323C66.59 65.4961 66.2676 65.76 66.2314 66.1217C66.1953 66.4834 66.4591 66.8059 66.8206 66.8421Z" fill="#8C9EBC"/>
<path d="M65.2358 66.64C65.5951 66.6941 65.9303 66.4466 65.9844 66.0872C66.0386 65.7278 65.7912 65.3925 65.4319 65.3383C65.0725 65.2841 64.7374 65.5316 64.6832 65.8911C64.6291 66.2505 64.8764 66.5858 65.2358 66.64Z" fill="#8C9EBC"/>
<path d="M63.6664 66.364C64.0225 66.4361 64.3696 66.2056 64.4416 65.8493C64.5136 65.493 64.2833 65.1458 63.9271 65.0738C63.571 65.0018 63.2239 65.2322 63.1518 65.5885C63.0798 65.9448 63.3102 66.292 63.6664 66.364Z" fill="#8C9EBC"/>
<path d="M62.1067 66.0064C62.4589 66.0961 62.817 65.8833 62.9067 65.5311C62.9964 65.1788 62.7837 64.8205 62.4315 64.7308C62.0794 64.6411 61.7212 64.8539 61.6315 65.2062C61.5419 65.5584 61.7546 65.9167 62.1067 66.0064Z" fill="#8C9EBC"/>
<path d="M60.5769 65.5749C60.9241 65.682 61.2924 65.4873 61.3995 65.1399C61.5066 64.7926 61.3119 64.4241 60.9647 64.317C60.6174 64.2099 60.2491 64.4046 60.142 64.752C60.0349 65.0993 60.2296 65.4678 60.5769 65.5749Z" fill="#8C9EBC"/>
<path d="M59.0598 65.0675C59.4013 65.1918 59.7788 65.0157 59.9031 64.6742C60.0274 64.3326 59.8513 63.9549 59.5099 63.8306C59.1684 63.7063 58.7909 63.8824 58.6666 64.2239C58.5423 64.5655 58.7183 64.9432 59.0598 65.0675Z" fill="#8C9EBC"/>
<path d="M57.5716 64.4823C57.9065 64.6235 58.2923 64.4665 58.4335 64.1315C58.5747 63.7966 58.4177 63.4106 58.0828 63.2694C57.748 63.1281 57.3621 63.2852 57.221 63.6201C57.0798 63.9551 57.2368 64.3411 57.5716 64.4823Z" fill="#8C9EBC"/>
<path d="M56.1255 63.8329C56.4529 63.9906 56.8461 63.8529 57.0037 63.5254C57.1613 63.1979 57.0237 62.8045 56.6963 62.6469C56.3689 62.4892 55.9757 62.6268 55.8181 62.9543C55.6604 63.2818 55.7981 63.6752 56.1255 63.8329Z" fill="#8C9EBC"/>
<path d="M54.7034 63.1017C55.0225 63.2755 55.4221 63.1576 55.5959 62.8384C55.7697 62.5192 55.6518 62.1195 55.3327 61.9456C55.0136 61.7718 54.614 61.8896 54.4402 62.2089C54.2665 62.5281 54.3843 62.9278 54.7034 63.1017Z" fill="#8C9EBC"/>
<path d="M53.3176 62.3004C53.6277 62.4899 54.0326 62.3922 54.2221 62.082C54.4116 61.7718 54.3139 61.3667 54.0038 61.1772C53.6937 60.9876 53.2888 61.0854 53.0993 61.3956C52.9098 61.7057 53.0076 62.1108 53.3176 62.3004Z" fill="#8C9EBC"/>
<path d="M51.9796 61.4379C52.2799 61.6428 52.6895 61.5652 52.8944 61.2646C53.0992 60.9641 53.0219 60.5543 52.7215 60.3495C52.4212 60.1446 52.0116 60.2222 51.8068 60.5227C51.6019 60.8233 51.6792 61.233 51.9796 61.4379Z" fill="#8C9EBC"/>
<path d="M50.6925 60.5102C50.9823 60.7297 51.3952 60.6727 51.6148 60.3827C51.8343 60.0927 51.7774 59.6796 51.4876 59.4601C51.1978 59.2405 50.7849 59.2976 50.5653 59.5876C50.3458 59.8776 50.4027 60.2906 50.6925 60.5102Z" fill="#8C9EBC"/>
<path d="M49.4391 59.5124C49.7176 59.7462 50.1328 59.7098 50.3666 59.4312C50.6003 59.1525 50.564 58.7371 50.2855 58.5033C50.007 58.2696 49.5918 58.306 49.358 58.5846C49.1243 58.8633 49.1606 59.2787 49.4391 59.5124Z" fill="#8C9EBC"/>
<path d="M48.2429 58.4594C48.5096 58.707 48.9265 58.6915 49.174 58.4246C49.4215 58.1578 49.4059 57.7408 49.1392 57.4932C48.8725 57.2456 48.4556 57.2612 48.2081 57.528C47.9606 57.7948 47.9762 58.2118 48.2429 58.4594Z" fill="#8C9EBC"/>
<path d="M47.0989 57.3473C47.353 57.6078 47.7701 57.613 48.0305 57.3588C48.291 57.1047 48.2962 56.6874 48.0421 56.4268C47.788 56.1663 47.3709 56.1611 47.1104 56.4153C46.85 56.6695 46.8448 57.0867 47.0989 57.3473Z" fill="#8C9EBC"/>
<path d="M46.0169 56.1778C46.2575 56.4505 46.6735 56.4765 46.9461 56.2358C47.2187 55.9952 47.2446 55.579 47.004 55.3063C46.7634 55.0336 46.3474 55.0076 46.0748 55.2482C45.8022 55.4889 45.7763 55.9051 46.0169 56.1778Z" fill="#8C9EBC"/>
<path d="M44.9906 54.9493C45.2173 55.2337 45.6315 55.2805 45.9157 55.0537C46.2 54.827 46.2466 54.4127 46.0199 54.1282C45.7932 53.8438 45.379 53.7971 45.0947 54.0238C44.8105 54.2506 44.7639 54.6649 44.9906 54.9493Z" fill="#8C9EBC"/>
<path d="M44.0283 53.6785C44.2406 53.9739 44.6519 54.0413 44.9471 53.829C45.2423 53.6168 45.3095 53.2052 45.0972 52.9098C44.885 52.6145 44.4736 52.5471 44.1784 52.7593C43.8833 52.9716 43.816 53.3831 44.0283 53.6785Z" fill="#8C9EBC"/>
<path d="M43.1275 52.3655C43.3249 52.6711 43.7324 52.7589 44.0377 52.5616C44.343 52.3643 44.4306 51.9566 44.2333 51.651C44.0359 51.3454 43.6284 51.2576 43.3231 51.4549C43.0178 51.6522 42.9302 52.0599 43.1275 52.3655Z" fill="#8C9EBC"/>
<path d="M42.3036 51.0016C42.4853 51.3164 42.8877 51.4242 43.2024 51.2425C43.5171 51.0608 43.6249 50.6582 43.4432 50.3434C43.2615 50.0286 42.8592 49.9208 42.5445 50.1025C42.2298 50.2843 42.1219 50.6868 42.3036 51.0016Z" fill="#8C9EBC"/>
<path d="M41.5364 49.5963C41.7021 49.9198 42.0986 50.0476 42.422 49.8818C42.7454 49.716 42.8731 49.3193 42.7074 48.9959C42.5416 48.6724 42.1451 48.5446 41.8217 48.7104C41.4984 48.8762 41.3706 49.2729 41.5364 49.5963Z" fill="#8C9EBC"/>
<path d="M40.8457 48.1648C40.9951 48.4961 41.3848 48.6435 41.716 48.494C42.0472 48.3445 42.1945 47.9547 42.0451 47.6233C41.8956 47.292 41.5059 47.1447 41.1747 47.2942C40.8435 47.4437 40.6962 47.8335 40.8457 48.1648Z" fill="#8C9EBC"/>
<path d="M40.2235 46.6952C40.3562 47.0335 40.7381 47.2002 41.0763 47.0674C41.4146 46.9346 41.5812 46.5526 41.4484 46.2142C41.3156 45.8759 40.9338 45.7092 40.5955 45.842C40.2573 45.9748 40.0907 46.3568 40.2235 46.6952Z" fill="#8C9EBC"/>
<path d="M39.678 45.1915C39.7937 45.5361 40.1667 45.7216 40.5112 45.6058C40.8556 45.4901 41.0411 45.1169 40.9254 44.7723C40.8096 44.4278 40.4366 44.2423 40.0921 44.358C39.7477 44.4738 39.5622 44.847 39.678 45.1915Z" fill="#8C9EBC"/>
<path d="M39.2093 43.6599C39.3077 44.0098 39.671 44.2137 40.0208 44.1153C40.3706 44.0169 40.5744 43.6534 40.476 43.3035C40.3776 42.9536 40.0143 42.7497 39.6645 42.8481C39.3147 42.9466 39.1109 43.31 39.2093 43.6599Z" fill="#8C9EBC"/>
<path d="M38.8217 42.1217C38.9027 42.476 39.2555 42.6978 39.6098 42.617C39.9641 42.5362 40.1857 42.1835 40.1047 41.8291C40.0237 41.4748 39.6708 41.253 39.3165 41.3338C38.9622 41.4146 38.7407 41.7673 38.8217 42.1217Z" fill="#8C9EBC"/>
<path d="M38.499 40.5564C38.5621 40.9144 38.9034 41.1534 39.2612 41.0903C39.6191 41.0272 39.858 40.6858 39.7949 40.3279C39.7318 39.9699 39.3906 39.7309 39.0327 39.794C38.6749 39.8571 38.4359 40.1985 38.499 40.5564Z" fill="#8C9EBC"/>
<path d="M38.2566 38.9768C38.3017 39.3375 38.6306 39.5933 38.9912 39.5481C39.3517 39.5029 39.6074 39.1739 39.5622 38.8132C39.5171 38.4525 39.1882 38.1968 38.8276 38.242C38.4671 38.2871 38.2114 38.6162 38.2566 38.9768Z" fill="#8C9EBC"/>
<path d="M38.1052 37.3954C38.1324 37.7579 38.4481 38.0297 38.8105 38.0025C39.1729 37.9753 39.4446 37.6594 39.4174 37.2969C39.3902 36.9345 39.0744 36.6627 38.7121 36.6899C38.3497 36.7171 38.078 37.0329 38.1052 37.3954Z" fill="#8C9EBC"/>
<path d="M38.0183 35.8021C38.0274 36.1655 38.3292 36.4528 38.6925 36.4437C39.0557 36.4346 39.3429 36.1327 39.3338 35.7693C39.3247 35.4059 39.0229 35.1187 38.6596 35.1278C38.2964 35.1368 38.0092 35.4388 38.0183 35.8021Z" fill="#8C9EBC"/>
<path d="M38.0255 34.1994C38.0164 34.5628 38.3035 34.8647 38.6668 34.8737C39.0301 34.8828 39.3319 34.5956 39.341 34.2322C39.3501 33.8688 39.0629 33.5669 38.6997 33.5578C38.3364 33.5488 38.0346 33.836 38.0255 34.1994Z" fill="#8C9EBC"/>
<path d="M38.1015 32.6067C38.0743 32.9692 38.346 33.2851 38.7084 33.3122C39.0707 33.3394 39.3865 33.0676 39.4137 32.7052C39.4409 32.3427 39.1691 32.0268 38.8068 31.9996C38.4444 31.9724 38.1286 32.2442 38.1015 32.6067Z" fill="#8C9EBC"/>
<path d="M38.2619 31.0266C38.2168 31.3872 38.4725 31.7163 38.833 31.7614C39.1936 31.8066 39.5225 31.5509 39.5676 31.1902C39.6128 30.8295 39.3571 30.5005 38.9966 30.4553C38.636 30.4101 38.3071 30.6659 38.2619 31.0266Z" fill="#8C9EBC"/>
<path d="M38.501 29.443C38.4379 29.801 38.6768 30.1424 39.0347 30.2055C39.3925 30.2686 39.7338 30.0296 39.7969 29.6716C39.86 29.3136 39.621 28.9723 39.2632 28.9091C38.9053 28.846 38.5641 29.0851 38.501 29.443Z" fill="#8C9EBC"/>
<path d="M38.8177 27.8799C38.7369 28.2343 38.9585 28.5872 39.3127 28.6681C39.667 28.749 40.0198 28.5273 40.1006 28.1729C40.1815 27.8185 39.9599 27.4657 39.6056 27.3848C39.2514 27.3039 38.8986 27.5256 38.8177 27.8799Z" fill="#8C9EBC"/>
<path d="M39.2045 26.3318C39.1061 26.6818 39.3099 27.0452 39.6597 27.1436C40.0095 27.2421 40.3729 27.0382 40.4713 26.6883C40.5697 26.3384 40.3658 25.9749 40.016 25.8765C39.6662 25.7781 39.3029 25.9819 39.2045 26.3318Z" fill="#8C9EBC"/>
<path d="M39.6769 24.8043C39.5612 25.1489 39.7466 25.522 40.091 25.6378C40.4355 25.7536 40.8085 25.5681 40.9243 25.2235C41.04 24.8789 40.8546 24.5058 40.5101 24.39C40.1656 24.2742 39.7926 24.4597 39.6769 24.8043Z" fill="#8C9EBC"/>
<path d="M40.2232 23.3114C40.0904 23.6498 40.257 24.0317 40.5952 24.1645C40.9335 24.2974 41.3153 24.1307 41.4481 23.7924C41.5809 23.454 41.4143 23.072 41.076 22.9392C40.7378 22.8064 40.3559 22.973 40.2232 23.3114Z" fill="#8C9EBC"/>
<path d="M40.8434 21.8397C40.6939 22.171 40.8413 22.5608 41.1725 22.7103C41.5037 22.8598 41.8934 22.7125 42.0428 22.3812C42.1923 22.0498 42.045 21.66 41.7138 21.5105C41.3826 21.361 40.9929 21.5084 40.8434 21.8397Z" fill="#8C9EBC"/>
<path d="M41.5347 20.4012C41.369 20.7247 41.4967 21.1214 41.8201 21.2872C42.1435 21.453 42.54 21.3252 42.7057 21.0017C42.8715 20.6782 42.7437 20.2816 42.4204 20.1158C42.097 19.95 41.7005 20.0778 41.5347 20.4012Z" fill="#8C9EBC"/>
<path d="M42.2931 18.9978C42.1115 19.3126 42.2193 19.7151 42.534 19.8968C42.8487 20.0786 43.2511 19.9707 43.4327 19.6559C43.6144 19.3411 43.5066 18.9386 43.1919 18.7569C42.8772 18.5751 42.4748 18.683 42.2931 18.9978Z" fill="#8C9EBC"/>
<path d="M43.1317 17.6357C42.9344 17.9413 43.0219 18.349 43.3273 18.5463C43.6326 18.7436 44.0401 18.6558 44.2374 18.3502C44.4348 18.0446 44.3472 17.6369 44.0419 17.4396C43.7365 17.2423 43.329 17.3301 43.1317 17.6357Z" fill="#8C9EBC"/>
<path d="M44.0243 16.3209C43.812 16.6163 43.8792 17.0278 44.1744 17.2401C44.4696 17.4523 44.8809 17.3849 45.0932 17.0895C45.3055 16.7941 45.2383 16.3826 44.9431 16.1704C44.6479 15.9581 44.2365 16.0255 44.0243 16.3209Z" fill="#8C9EBC"/>
<path d="M44.9879 15.0474C44.7612 15.3318 44.8078 15.7462 45.0921 15.9729C45.3763 16.1996 45.7905 16.1529 46.0172 15.8685C46.2439 15.5841 46.1973 15.1697 45.9131 14.943C45.6288 14.7162 45.2146 14.763 44.9879 15.0474Z" fill="#8C9EBC"/>
<path d="M46.0147 13.8274C45.7741 14.1001 45.8 14.5163 46.0726 14.7569C46.3452 14.9976 46.7612 14.9716 47.0018 14.6989C47.2424 14.4262 47.2165 14.01 46.9439 13.7693C46.6713 13.5287 46.2553 13.5547 46.0147 13.8274Z" fill="#8C9EBC"/>
<path d="M47.1065 12.6529C46.8524 12.9134 46.8576 13.3307 47.118 13.5849C47.3785 13.839 47.7956 13.8339 48.0497 13.5733C48.3038 13.3128 48.2986 12.8955 48.0382 12.6413C47.7777 12.3872 47.3606 12.3923 47.1065 12.6529Z" fill="#8C9EBC"/>
<path d="M48.2379 11.5427C47.9712 11.7902 47.9556 12.2073 48.2031 12.4741C48.4506 12.7409 48.8675 12.7565 49.1342 12.5089C49.401 12.2613 49.4165 11.8443 49.169 11.5774C48.9215 11.3106 48.5047 11.2951 48.2379 11.5427Z" fill="#8C9EBC"/>
<path d="M49.4384 10.4865C49.1599 10.7202 49.1236 11.1356 49.3573 11.4143C49.591 11.6929 50.0063 11.7293 50.2848 11.4955C50.5633 11.2618 50.5996 10.8464 50.3658 10.5677C50.1321 10.2891 49.7169 10.2527 49.4384 10.4865Z" fill="#8C9EBC"/>
<path d="M50.688 9.49195C50.3982 9.71151 50.3413 10.1246 50.5608 10.4146C50.7804 10.7046 51.1933 10.7616 51.4831 10.5421C51.7729 10.3225 51.8298 9.90945 51.6103 9.61947C51.3907 9.32948 50.9778 9.27239 50.688 9.49195Z" fill="#8C9EBC"/>
<path d="M51.976 8.56375C51.6756 8.76861 51.5983 9.17835 51.8031 9.47891C52.008 9.77948 52.4176 9.85706 52.7179 9.65219C53.0183 9.44733 53.0956 9.03759 52.8907 8.73703C52.6859 8.43646 52.2763 8.35888 51.976 8.56375Z" fill="#8C9EBC"/>
<path d="M53.3198 7.69266C53.0097 7.88221 52.912 8.28731 53.1015 8.59747C53.291 8.90763 53.6959 9.00541 54.006 8.81586C54.316 8.62631 54.4138 8.22122 54.2243 7.91106C54.0348 7.60089 53.6298 7.50312 53.3198 7.69266Z" fill="#8C9EBC"/>
<path d="M54.7001 6.89699C54.381 7.07082 54.2631 7.47054 54.4369 7.78977C54.6107 8.109 55.0103 8.22687 55.3294 8.05304C55.6485 7.8792 55.7664 7.47949 55.5926 7.16026C55.4188 6.84102 55.0192 6.72315 54.7001 6.89699Z" fill="#8C9EBC"/>
<path d="M56.1215 6.17177C55.7941 6.32946 55.6565 6.72279 55.8141 7.0503C55.9717 7.37781 56.3649 7.51548 56.6923 7.35779C57.0197 7.2001 57.1574 6.80677 56.9997 6.47926C56.8421 6.15175 56.4489 6.01408 56.1215 6.17177Z" fill="#8C9EBC"/>
<path d="M57.5739 5.51149C57.2391 5.6527 57.0821 6.0387 57.2233 6.37365C57.3644 6.70859 57.7503 6.86565 58.0851 6.72444C58.42 6.58322 58.577 6.19722 58.4358 5.86228C58.2946 5.52733 57.9088 5.37028 57.5739 5.51149Z" fill="#8C9EBC"/>
<path d="M59.0645 4.92956C58.723 5.05389 58.547 5.43157 58.6712 5.77314C58.7955 6.11472 59.1731 6.29084 59.5145 6.16651C59.856 6.04219 60.0321 5.66451 59.9078 5.32293C59.7835 4.98136 59.4059 4.80524 59.0645 4.92956Z" fill="#8C9EBC"/>
<path d="M60.5772 4.42047C60.23 4.52759 60.0353 4.89602 60.1424 5.24337C60.2495 5.59072 60.6178 5.78547 60.965 5.67834C61.3123 5.57122 61.5069 5.20279 61.3998 4.85544C61.2928 4.50809 60.9245 4.31334 60.5772 4.42047Z" fill="#8C9EBC"/>
<path d="M62.1118 3.99232C61.7597 4.08204 61.5469 4.44033 61.6366 4.79258C61.7263 5.14483 62.0845 5.35765 62.4366 5.26792C62.7888 5.1782 63.0015 4.81991 62.9118 4.46767C62.8221 4.11542 62.464 3.9026 62.1118 3.99232Z" fill="#8C9EBC"/>
<path d="M63.6656 3.63317C63.3095 3.7052 63.0791 4.05243 63.1511 4.40871C63.2231 4.765 63.5702 4.99543 63.9264 4.9234C64.2826 4.85136 64.5129 4.50414 64.4409 4.14785C64.3689 3.79157 64.0218 3.56114 63.6656 3.63317Z" fill="#8C9EBC"/>
<path d="M65.2353 3.35894C64.876 3.41311 64.6286 3.7484 64.6828 4.10784C64.7369 4.46728 65.0721 4.71475 65.4314 4.66058C65.7907 4.60641 66.0381 4.27112 65.984 3.91168C65.9298 3.55224 65.5947 3.30477 65.2353 3.35894Z" fill="#8C9EBC"/>
<path d="M66.8189 3.15998C66.4573 3.19614 66.1935 3.51867 66.2297 3.88036C66.2658 4.24205 66.5882 4.50595 66.9498 4.46978C67.3114 4.43361 67.5752 4.11109 67.539 3.7494C67.5029 3.3877 67.1805 3.12381 66.8189 3.15998Z" fill="#8C9EBC"/>
<path d="M68.41 3.03846C68.0471 3.05659 67.7676 3.3656 67.7857 3.72864C67.8039 4.09169 68.1128 4.37129 68.4757 4.35315C68.8386 4.33502 69.1181 4.02601 69.1 3.66297C69.0819 3.29992 68.7729 3.02032 68.41 3.03846Z" fill="#8C9EBC"/>
<path d="M70.0012 3.00007C69.6379 3.00007 69.3433 3.29474 69.3433 3.65824C69.3433 4.02174 69.6379 4.31641 70.0012 4.31641C70.3646 4.31641 70.6592 4.02174 70.6592 3.65824C70.6592 3.29474 70.3646 3.00007 70.0012 3.00007Z" fill="#8C9EBC"/>
<path d="M71.596 3.04309C71.2331 3.02495 70.9242 3.30455 70.9061 3.6676C70.8879 4.03064 71.1675 4.33965 71.5304 4.35779C71.8933 4.37592 72.2022 4.09632 72.2203 3.73328C72.2385 3.37023 71.959 3.06123 71.596 3.04309Z" fill="#8C9EBC"/>
<path d="M73.1823 3.15596C72.8207 3.1198 72.4983 3.38369 72.4622 3.74538C72.426 4.10707 72.6898 4.4296 73.0514 4.46577C73.4129 4.50193 73.7354 4.23804 73.7715 3.87635C73.8077 3.51466 73.5439 3.19213 73.1823 3.15596Z" fill="#8C9EBC"/>
<path d="M74.7642 3.3581C74.4049 3.30393 74.0697 3.5514 74.0156 3.91084C73.9614 4.27027 74.2088 4.60557 74.5681 4.65973C74.9275 4.7139 75.2626 4.46643 75.3168 4.10699C75.3709 3.74756 75.1236 3.41226 74.7642 3.3581Z" fill="#8C9EBC"/>
<path d="M76.3415 3.63598C75.9853 3.56395 75.6382 3.79438 75.5662 4.15067C75.4942 4.50695 75.7245 4.85418 76.0807 4.92621C76.4369 4.99825 76.784 4.76781 76.856 4.41153C76.928 4.05524 76.6976 3.70802 76.3415 3.63598Z" fill="#8C9EBC"/>
<path d="M77.8972 3.99358C77.545 3.90386 77.1869 4.11668 77.0972 4.46893C77.0075 4.82118 77.2202 5.17946 77.5724 5.26919C77.9245 5.35891 78.2827 5.14609 78.3724 4.79384C78.4621 4.44159 78.2493 4.0833 77.8972 3.99358Z" fill="#8C9EBC"/>
<path d="M79.4261 4.42316C79.0788 4.31604 78.7105 4.51078 78.6034 4.85813C78.4964 5.20548 78.691 5.57391 79.0383 5.68103C79.3855 5.78816 79.7538 5.59342 79.8609 5.24606C79.968 4.89871 79.7733 4.53029 79.4261 4.42316Z" fill="#8C9EBC"/>
<path d="M80.9402 4.93247C80.5987 4.80815 80.2212 4.98427 80.0969 5.32584C79.9726 5.66742 80.1487 6.0451 80.4901 6.16942C80.8316 6.29375 81.2091 6.11763 81.3334 5.77606C81.4577 5.43448 81.2817 5.0568 80.9402 4.93247Z" fill="#8C9EBC"/>
<path d="M82.4323 5.51574C82.0974 5.37453 81.7116 5.53159 81.5704 5.86653C81.4292 6.20148 81.5862 6.58748 81.9211 6.72869C82.2559 6.8699 82.6418 6.71285 82.7829 6.3779C82.9241 6.04296 82.7671 5.65696 82.4323 5.51574Z" fill="#8C9EBC"/>
<path d="M83.8804 6.16908C83.553 6.01139 83.1598 6.14906 83.0021 6.47657C82.8445 6.80408 82.9821 7.19741 83.3095 7.3551C83.6369 7.51279 84.0301 7.37513 84.1878 7.04762C84.3454 6.72011 84.2078 6.32677 83.8804 6.16908Z" fill="#8C9EBC"/>
<path d="M85.3024 6.89638C84.9833 6.72255 84.5837 6.84041 84.41 7.15965C84.2362 7.47888 84.354 7.8786 84.6731 8.05243C84.9923 8.22627 85.3919 8.1084 85.5656 7.78916C85.7394 7.46993 85.6216 7.07022 85.3024 6.89638Z" fill="#8C9EBC"/>
<path d="M86.6824 7.69375C86.3723 7.5042 85.9674 7.60198 85.7779 7.91214C85.5884 8.22231 85.6861 8.6274 85.9962 8.81695C86.3063 9.0065 86.7112 8.90872 86.9007 8.59856C87.0902 8.28839 86.9924 7.8833 86.6824 7.69375Z" fill="#8C9EBC"/>
<path d="M88.0214 8.56015C87.7211 8.35528 87.3115 8.43286 87.1066 8.73343C86.9017 9.03399 86.9791 9.44373 87.2794 9.64859C87.5798 9.85346 87.9893 9.77588 88.1942 9.47531C88.3991 9.17475 88.3217 8.76501 88.0214 8.56015Z" fill="#8C9EBC"/>
<path d="M89.3163 9.48982C89.0265 9.27025 88.6136 9.32734 88.394 9.61733C88.1744 9.90732 88.2314 10.3204 88.5212 10.5399C88.811 10.7595 89.2239 10.7024 89.4434 10.4124C89.663 10.1224 89.6061 9.70938 89.3163 9.48982Z" fill="#8C9EBC"/>
<path d="M90.5648 10.4856C90.2863 10.2519 89.8711 10.2882 89.6373 10.5669C89.4036 10.8455 89.4399 11.2609 89.7184 11.4947C89.9969 11.7285 90.4121 11.6921 90.6459 11.4134C90.8796 11.1348 90.8433 10.7194 90.5648 10.4856Z" fill="#8C9EBC"/>
<path d="M91.759 11.5386C91.4923 11.291 91.0755 11.3066 90.8279 11.5734C90.5804 11.8402 90.596 12.2572 90.8628 12.5048C91.1295 12.7524 91.5463 12.7368 91.7939 12.47C92.0414 12.2032 92.0258 11.7862 91.759 11.5386Z" fill="#8C9EBC"/>
<path d="M92.8992 12.6566C92.6451 12.3961 92.228 12.3909 91.9675 12.6451C91.707 12.8992 91.7019 13.3165 91.956 13.5771C92.21 13.8376 92.6272 13.8428 92.8876 13.5886C93.1481 13.3344 93.1533 12.9172 92.8992 12.6566Z" fill="#8C9EBC"/>
<path d="M93.9841 13.8222C93.7435 13.5495 93.3274 13.5235 93.0549 13.7642C92.7823 14.0048 92.7563 14.421 92.997 14.6937C93.2376 14.9664 93.6536 14.9924 93.9262 14.7518C94.1988 14.5111 94.2247 14.0949 93.9841 13.8222Z" fill="#8C9EBC"/>
<path d="M95.0153 15.0487C94.7886 14.7643 94.3744 14.7176 94.0901 14.9443C93.8059 15.171 93.7593 15.5854 93.986 15.8698C94.2127 16.1542 94.6269 16.201 94.9111 15.9742C95.1954 15.7475 95.242 15.3331 95.0153 15.0487Z" fill="#8C9EBC"/>
<path d="M95.9727 16.3215C95.7604 16.0261 95.349 15.9587 95.0539 16.171C94.7587 16.3832 94.6915 16.7948 94.9037 17.0902C95.116 17.3855 95.5274 17.4529 95.8225 17.2407C96.1177 17.0284 96.1849 16.6169 95.9727 16.3215Z" fill="#8C9EBC"/>
<path d="M96.8686 17.6384C96.6712 17.3328 96.2637 17.2451 95.9584 17.4424C95.6531 17.6397 95.5655 18.0473 95.7628 18.3529C95.9602 18.6585 96.3676 18.7463 96.673 18.549C96.9783 18.3517 97.0659 17.944 96.8686 17.6384Z" fill="#8C9EBC"/>
<path d="M97.7042 19.0023C97.5225 18.6875 97.1201 18.5797 96.8054 18.7614C96.4907 18.9432 96.3829 19.3457 96.5646 19.6605C96.7463 19.9753 97.1487 20.0831 97.4634 19.9014C97.778 19.7196 97.8859 19.3171 97.7042 19.0023Z" fill="#8C9EBC"/>
<path d="M98.4724 20.4037C98.3067 20.0802 97.9102 19.9524 97.5868 20.1182C97.2634 20.284 97.1357 20.6807 97.3014 21.0041C97.4672 21.3276 97.8637 21.4554 98.1871 21.2896C98.5104 21.1238 98.6382 20.7271 98.4724 20.4037Z" fill="#8C9EBC"/>
<path d="M99.1543 21.8332C99.0049 21.5019 98.6152 21.3545 98.284 21.5041C97.9528 21.6536 97.8055 22.0434 97.9549 22.3747C98.1044 22.706 98.4941 22.8534 98.8253 22.7039C99.1565 22.5543 99.3038 22.1645 99.1543 21.8332Z" fill="#8C9EBC"/>
<path d="M99.7775 23.3087C99.6447 22.9704 99.2629 22.8037 98.9246 22.9365C98.5864 23.0694 98.4198 23.4513 98.5526 23.7897C98.6853 24.128 99.0672 24.2947 99.4054 24.1619C99.7437 24.0291 99.9103 23.6471 99.7775 23.3087Z" fill="#8C9EBC"/>
<path d="M100.327 24.8065C100.211 24.4619 99.8381 24.2764 99.4937 24.3922C99.1492 24.508 98.9638 24.8811 99.0795 25.2257C99.1953 25.5703 99.5683 25.7558 99.9128 25.64C100.257 25.5242 100.443 25.1511 100.327 24.8065Z" fill="#8C9EBC"/>
<path d="M100.8 26.3342C100.701 25.9843 100.338 25.7804 99.988 25.8788C99.6382 25.9773 99.4344 26.3407 99.5328 26.6906C99.6312 27.0406 99.9945 27.2444 100.344 27.146C100.694 27.0476 100.898 26.6841 100.8 26.3342Z" fill="#8C9EBC"/>
<path d="M101.185 27.8779C101.104 27.5235 100.752 27.3018 100.397 27.3827C100.043 27.4636 99.8215 27.8165 99.9024 28.1708C99.9833 28.5252 100.336 28.7469 100.69 28.666C101.045 28.5851 101.266 28.2322 101.185 27.8779Z" fill="#8C9EBC"/>
<path d="M101.505 29.4436C101.442 29.0856 101.101 28.8466 100.743 28.9097C100.385 28.9728 100.146 29.3142 100.209 29.6721C100.272 30.0301 100.613 30.2691 100.971 30.206C101.329 30.1429 101.568 29.8015 101.505 29.4436Z" fill="#8C9EBC"/>
<path d="M101.746 31.0193C101.701 30.6586 101.372 30.4028 101.012 30.448C100.651 30.4932 100.396 30.8222 100.441 31.1829C100.486 31.5436 100.815 31.7993 101.175 31.7541C101.536 31.709 101.792 31.3799 101.746 31.0193Z" fill="#8C9EBC"/>
<path d="M101.899 32.6065C101.872 32.2441 101.556 31.9723 101.193 31.9994C100.831 32.0266 100.559 32.3425 100.587 32.705C100.614 33.0675 100.929 33.3393 101.292 33.3121C101.654 33.2849 101.926 32.969 101.899 32.6065Z" fill="#8C9EBC"/>
<path d="M101.981 34.2037C101.972 33.8403 101.67 33.5531 101.307 33.5622C100.943 33.5713 100.656 33.8732 100.665 34.2366C100.674 34.6 100.976 34.8872 101.339 34.8781C101.703 34.869 101.99 34.5671 101.981 34.2037Z" fill="#8C9EBC"/>
<path d="M101.979 35.8007C101.988 35.4373 101.701 35.1354 101.338 35.1263C100.975 35.1172 100.673 35.4044 100.664 35.7678C100.655 36.1312 100.942 36.4331 101.305 36.4422C101.668 36.4513 101.97 36.1641 101.979 35.8007Z" fill="#8C9EBC"/>
<path d="M101.904 37.3933C101.932 37.0308 101.66 36.7149 101.298 36.6878C100.935 36.6606 100.619 36.9324 100.592 37.2948C100.565 37.6573 100.837 37.9732 101.199 38.0004C101.561 38.0276 101.877 37.7558 101.904 37.3933Z" fill="#8C9EBC"/>
<path d="M101.743 38.9754C101.788 38.6147 101.532 38.2857 101.172 38.2405C100.811 38.1953 100.482 38.4511 100.437 38.8118C100.392 39.1725 100.648 39.5015 101.008 39.5467C101.369 39.5918 101.698 39.3361 101.743 38.9754Z" fill="#8C9EBC"/>
<path d="M101.507 40.557C101.57 40.199 101.331 39.8576 100.973 39.7945C100.615 39.7314 100.274 39.9704 100.211 40.3284C100.148 40.6864 100.387 41.0277 100.745 41.0909C101.102 41.154 101.444 40.9149 101.507 40.557Z" fill="#8C9EBC"/>
<path d="M101.186 42.1181C101.267 41.7637 101.045 41.4109 100.691 41.33C100.337 41.2491 99.9842 41.4708 99.9033 41.8251C99.8224 42.1795 100.044 42.5324 100.398 42.6133C100.753 42.6942 101.105 42.4725 101.186 42.1181Z" fill="#8C9EBC"/>
<path d="M100.795 43.6682C100.894 43.3182 100.69 42.9548 100.34 42.8564C99.9905 42.7579 99.6271 42.9618 99.5287 43.3117C99.4303 43.6616 99.6342 44.0251 99.984 44.1235C100.334 44.2219 100.697 44.0181 100.795 43.6682Z" fill="#8C9EBC"/>
<path d="M100.324 45.1937C100.44 44.8492 100.254 44.476 99.9099 44.3602C99.5655 44.2445 99.1924 44.43 99.0767 44.7745C98.961 45.1191 99.1464 45.4923 99.4909 45.608C99.8353 45.7238 100.208 45.5383 100.324 45.1937Z" fill="#8C9EBC"/>
<path d="M99.772 46.6905C99.9047 46.3522 99.7381 45.9702 99.3999 45.8374C99.0616 45.7046 98.6798 45.8712 98.547 46.2096C98.4143 46.548 98.5808 46.9299 98.9191 47.0627C99.2574 47.1955 99.6392 47.0289 99.772 46.6905Z" fill="#8C9EBC"/>
<path d="M99.1605 48.1603C99.31 47.829 99.1626 47.4392 98.8314 47.2897C98.5002 47.1402 98.1106 47.2875 97.9611 47.6188C97.8116 47.9502 97.9589 48.34 98.2901 48.4895C98.6213 48.639 99.011 48.4916 99.1605 48.1603Z" fill="#8C9EBC"/>
<path d="M98.4711 49.5968C98.6369 49.2733 98.5091 48.8767 98.1858 48.7109C97.8624 48.5451 97.4659 48.6729 97.3001 48.9963C97.1344 49.3198 97.2621 49.7165 97.5855 49.8823C97.9089 50.0481 98.3054 49.9203 98.4711 49.5968Z" fill="#8C9EBC"/>
<path d="M97.7059 51.0022C97.8876 50.6874 97.7797 50.2849 97.4651 50.1032C97.1504 49.9214 96.748 50.0293 96.5663 50.3441C96.3846 50.6589 96.4924 51.0614 96.8071 51.2431C97.1218 51.4249 97.5242 51.317 97.7059 51.0022Z" fill="#8C9EBC"/>
<path d="M96.8722 52.3643C97.0695 52.0587 96.982 51.651 96.6766 51.4537C96.3713 51.2564 95.9638 51.3442 95.7665 51.6498C95.5691 51.9554 95.6567 52.3631 95.962 52.5604C96.2674 52.7577 96.6749 52.6699 96.8722 52.3643Z" fill="#8C9EBC"/>
<path d="M95.9806 53.6772C96.1929 53.3818 96.1256 52.9702 95.8305 52.758C95.5353 52.5457 95.1239 52.6131 94.9117 52.9085C94.6994 53.2039 94.7666 53.6154 95.0618 53.8277C95.357 54.0399 95.7683 53.9725 95.9806 53.6772Z" fill="#8C9EBC"/>
<path d="M95.0121 54.9526C95.2388 54.6682 95.1922 54.2538 94.9079 54.0271C94.6237 53.8004 94.2095 53.8471 93.9828 54.1315C93.7561 54.4159 93.8027 54.8303 94.0869 55.057C94.3712 55.2838 94.7854 55.237 95.0121 54.9526Z" fill="#8C9EBC"/>
<path d="M93.9833 56.1746C94.2239 55.9018 94.198 55.4857 93.9254 55.245C93.6528 55.0044 93.2368 55.0304 92.9962 55.3031C92.7556 55.5758 92.7815 55.992 93.0541 56.2326C93.3267 56.4733 93.7427 56.4473 93.9833 56.1746Z" fill="#8C9EBC"/>
<path d="M92.9023 57.3452C93.1564 57.0846 93.1512 56.6673 92.8908 56.4132C92.6303 56.159 92.2132 56.1642 91.9591 56.4247C91.705 56.6853 91.7102 57.1025 91.9706 57.3567C92.2311 57.6109 92.6482 57.6057 92.9023 57.3452Z" fill="#8C9EBC"/>
<path d="M91.7611 58.4554C92.0278 58.2078 92.0434 57.7908 91.7959 57.524C91.5484 57.2572 91.1315 57.2416 90.8648 57.4892C90.5981 57.7368 90.5825 58.1538 90.83 58.4206C91.0775 58.6874 91.4944 58.703 91.7611 58.4554Z" fill="#8C9EBC"/>
<path d="M90.5646 59.5155C90.8431 59.2817 90.8794 58.8663 90.6456 58.5877C90.4119 58.309 89.9966 58.2726 89.7181 58.5064C89.4396 58.7402 89.4033 59.1556 89.6371 59.4342C89.8708 59.7129 90.2861 59.7493 90.5646 59.5155Z" fill="#8C9EBC"/>
<path d="M89.3149 60.508C89.6047 60.2885 89.6617 59.8754 89.4421 59.5854C89.2225 59.2954 88.8096 59.2384 88.5198 59.4579C88.23 59.6775 88.1731 60.0905 88.3927 60.3805C88.6122 60.6705 89.0251 60.7276 89.3149 60.508Z" fill="#8C9EBC"/>
<path d="M88.0231 61.4382C88.3234 61.2333 88.4008 60.8236 88.1959 60.523C87.991 60.2225 87.5814 60.1449 87.2811 60.3498C86.9808 60.5546 86.9034 60.9644 87.1083 61.2649C87.3132 61.5655 87.7227 61.6431 88.0231 61.4382Z" fill="#8C9EBC"/>
<path d="M86.6851 62.3015C86.9952 62.1119 87.0929 61.7068 86.9034 61.3967C86.7139 61.0865 86.309 60.9887 85.9989 61.1783C85.6889 61.3678 85.5911 61.7729 85.7806 62.0831C85.9701 62.3932 86.375 62.491 86.6851 62.3015Z" fill="#8C9EBC"/>
<path d="M85.3009 63.105C85.62 62.9311 85.7378 62.5314 85.5641 62.2122C85.3903 61.8929 84.9907 61.7751 84.6716 61.9489C84.3525 62.1228 84.2346 62.5225 84.4084 62.8417C84.5822 63.1609 84.9818 63.2788 85.3009 63.105Z" fill="#8C9EBC"/>
<path d="M83.8834 63.8302C84.2108 63.6725 84.3484 63.2792 84.1908 62.9516C84.0331 62.6241 83.6399 62.4865 83.3125 62.6442C82.9851 62.8019 82.8475 63.1952 83.0052 63.5227C83.1628 63.8502 83.556 63.9879 83.8834 63.8302Z" fill="#8C9EBC"/>
<path d="M82.43 64.4866C82.7648 64.3453 82.9218 63.9593 82.7806 63.6244C82.6395 63.2895 82.2536 63.1324 81.9188 63.2736C81.5839 63.4148 81.4269 63.8008 81.5681 64.1358C81.7093 64.4707 82.0951 64.6278 82.43 64.4866Z" fill="#8C9EBC"/>
<path d="M80.9384 65.0724C81.2799 64.9481 81.456 64.5704 81.3317 64.2288C81.2074 63.8872 80.8298 63.7111 80.4884 63.8354C80.1469 63.9598 79.9709 64.3374 80.0951 64.679C80.2194 65.0206 80.597 65.1967 80.9384 65.0724Z" fill="#8C9EBC"/>
<path d="M79.4257 65.5776C79.7729 65.4705 79.9676 65.102 79.8605 64.7547C79.7534 64.4073 79.3851 64.2126 79.0379 64.3197C78.6907 64.4268 78.496 64.7953 78.6031 65.1426C78.7102 65.49 79.0785 65.6847 79.4257 65.5776Z" fill="#8C9EBC"/>
<path d="M77.896 66.0096C78.2481 65.9199 78.4609 65.5616 78.3712 65.2094C78.2815 64.8571 77.9233 64.6443 77.5712 64.734C77.2191 64.8238 77.0063 65.182 77.096 65.5343C77.1857 65.8865 77.5439 66.0994 77.896 66.0096Z" fill="#8C9EBC"/>
<path d="M76.3393 66.3649C76.6954 66.2928 76.9258 65.9456 76.8538 65.5893C76.7818 65.233 76.4347 65.0026 76.0785 65.0746C75.7223 65.1467 75.492 65.4939 75.564 65.8502C75.636 66.2065 75.9831 66.4369 76.3393 66.3649Z" fill="#8C9EBC"/>
<path d="M74.7715 66.6372C75.1308 66.583 75.3782 66.2477 75.3241 65.8883C75.2699 65.5288 74.9347 65.2813 74.5754 65.3355C74.2161 65.3897 73.9687 65.725 74.0229 66.0844C74.077 66.4438 74.4122 66.6913 74.7715 66.6372Z" fill="#8C9EBC"/>
<path d="M73.1831 66.84C73.5446 66.8039 73.8084 66.4813 73.7723 66.1196C73.7361 65.7579 73.4137 65.4941 73.0521 65.5302C72.6906 65.5664 72.4268 65.8889 72.4629 66.2506C72.4991 66.6123 72.8215 66.8762 73.1831 66.84Z" fill="#8C9EBC"/>
<path d="M71.5978 66.9596C71.9607 66.9415 72.2402 66.6324 72.2221 66.2694C72.204 65.9064 71.895 65.6268 71.5321 65.6449C71.1692 65.663 70.8897 65.972 70.9078 66.3351C70.926 66.6981 71.2349 66.9777 71.5978 66.9596Z" fill="#8C9EBC"/>
<path d="M65.2999 15.2559L59.9736 15.4128L65.2999 15.2559Z" fill="#080808"/>
<path d="M65.2999 15.2559L59.9736 15.4128" stroke="#8C9EBC" stroke-width="0.367776"/>
<path d="M65.9362 15.8848L54.3438 19.3323L65.9362 15.8848Z" fill="#080808"/>
<path d="M65.9362 15.8848L54.3438 19.3323" stroke="#8C9EBC" stroke-width="0.367776"/>
<path d="M66.5507 16.5098L49.9453 27.7926L66.5507 16.5098Z" fill="#080808"/>
<path d="M66.5507 16.5098L49.9453 27.7926" stroke="#8C9EBC" stroke-width="0.367776"/>
<path d="M66.8698 17.4492L48.0713 34.5302L66.8698 17.4492Z" fill="#080808"/>
<path d="M66.8698 17.4492L48.0713 34.5302" stroke="#8C9EBC" stroke-width="0.367776"/>
<path d="M66.8674 18.8594L49.0088 39.0745L66.8674 18.8594Z" fill="#080808"/>
<path d="M66.8674 18.8594L49.0088 39.0745" stroke="#8C9EBC" stroke-width="0.367776"/>
<path d="M67.4943 19.6406L50.4189 44.4003L67.4943 19.6406Z" fill="#080808"/>
<path d="M67.4943 19.6406L50.4189 44.4003" stroke="#8C9EBC" stroke-width="0.367776"/>
<path d="M67.805 20.8945L55.5859 52.2359L67.805 20.8945Z" fill="#080808"/>
<path d="M67.805 20.8945L55.5859 52.2359" stroke="#8C9EBC" stroke-width="0.367776"/>
<path d="M68.9044 19.6445L59.0352 54.4334L68.9044 19.6445Z" fill="#080808"/>
<path d="M68.9044 19.6445L59.0352 54.4334" stroke="#8C9EBC" stroke-width="0.367776"/>
<path d="M69.6897 19.1719L62.7969 53.804L69.6897 19.1719Z" fill="#080808"/>
<path d="M69.6897 19.1719L62.7969 53.804" stroke="#8C9EBC" stroke-width="0.367776"/>
<path d="M67.1784 52.2402L66.5508 57.0981L67.1784 52.2402Z" fill="#080808"/>
<path d="M67.1784 52.2402L66.5508 57.0981" stroke="#8C9EBC" stroke-width="0.367776"/>
<path d="M74.2305 15.8848L80.0267 16.3554L74.2305 15.8848Z" fill="#080808"/>
<path d="M74.2305 15.8848L80.0267 16.3554" stroke="#8C9EBC" stroke-width="0.367776"/>
<path d="M73.7617 16.5098L86.9207 21.8378L73.7617 16.5098Z" fill="#080808"/>
<path d="M73.7617 16.5098L86.9207 21.8378" stroke="#8C9EBC" stroke-width="0.367776"/>
<path d="M73.7617 17.4473L90.6804 27.7899L73.7617 17.4473Z" fill="#080808"/>
<path d="M73.7617 17.4473L90.6804 27.7899" stroke="#8C9EBC" stroke-width="0.367776"/>
<path d="M73.7617 18.3906L91.6203 33.121L73.7617 18.3906Z" fill="#080808"/>
<path d="M73.7617 18.3906L91.6203 33.121" stroke="#8C9EBC" stroke-width="0.367776"/>
<path d="M73.1328 19.3281L91.3047 39.3866L73.1328 19.3281Z" fill="#080808"/>
<path d="M73.1328 19.3281L91.3047 39.3866" stroke="#8C9EBC" stroke-width="0.367776"/>
<path d="M74.3906 22.4648L90.3694 43.4635L74.3906 22.4648Z" fill="#080808"/>
<path d="M74.3906 22.4648L90.3694 43.4635" stroke="#8C9EBC" stroke-width="0.367776"/>
<path d="M77.5225 28.7305L88.1749 47.2218L77.5225 28.7305Z" fill="#080808"/>
<path d="M77.5225 28.7305L88.1749 47.2218" stroke="#8C9EBC" stroke-width="0.367776"/>
<path d="M71.8867 19.3281L84.7324 51.6097L71.8867 19.3281Z" fill="#080808"/>
<path d="M71.8867 19.3281L84.7324 51.6097" stroke="#8C9EBC" stroke-width="0.367776"/>
<path d="M70.4688 19.168L79.868 53.33L70.4688 19.168Z" fill="#080808"/>
<path d="M70.4688 19.168L79.868 53.33" stroke="#8C9EBC" stroke-width="0.367776"/>
<path d="M74.8594 52.2383L75.0163 56.1559L74.8594 52.2383Z" fill="#080808"/>
<path d="M74.8594 52.2383L75.0163 56.1559" stroke="#8C9EBC" stroke-width="0.367776"/>
<path d="M70.625 52.2402L70.7819 57.2548L70.625 52.2402Z" fill="#080808"/>
<path d="M70.625 52.2402L70.7819 57.2548" stroke="#8C9EBC" stroke-width="0.367776"/>
<path d="M53.7125 43.7773C52.7725 44.7176 51.9893 45.031 51.9893 46.5981C51.9893 48.1651 53.7125 48.1651 54.0258 48.1651C54.3391 48.1651 55.5923 47.8517 55.5923 49.5755C55.5923 51.2993 58.0988 51.7694 58.0988 53.4932C58.2554 54.4334 58.4121 51.9261 57.7855 51.2993C58.0988 50.9858 57.9421 50.9858 58.2554 50.359C58.5687 50.6724 60.7619 52.5529 61.0752 52.5529C62.0151 52.5529 61.5452 50.5157 60.4486 51.6127C59.9786 51.1426 59.9786 50.2023 59.352 50.2023C58.7254 50.2023 58.7254 49.5755 58.7254 48.9487C58.7254 48.3218 58.7254 46.2846 54.3391 46.2846C53.3991 46.2846 53.3991 46.2846 53.3991 45.6578C53.3991 45.031 53.7125 44.4042 53.7125 44.0908V43.7773Z" fill="#273246" stroke="#8C9EBC" stroke-width="0.367776"/>
<path d="M55.1143 20.7363H68.1166C69.0565 20.7363 69.6831 21.99 69.9964 22.3034C70.3097 21.99 70.9363 20.7363 71.8763 20.7363H84.8786V48.6301H71.2496C71.2496 49.2569 68.7432 49.2569 68.7432 48.6301H55.1143V20.7363Z" fill="#273246" stroke="#8C9EBC" stroke-width="0.367776"/>
<path d="M58.875 20.7363V46.4362H68.1176C69.0575 46.4362 69.6841 47.6899 69.9974 48.0033C70.3108 47.6899 70.9374 46.4362 71.8773 46.4362H81.1199V20.7363" stroke="#8C9EBC" stroke-width="0.367776"/>
<path d="M57.9336 20.7363V46.9847H68.1161C69.056 46.9847 69.6827 48.2383 69.996 48.5518C70.3093 48.2383 70.9359 46.9847 71.8758 46.9847H82.0583V20.7363" stroke="#8C9EBC" stroke-width="0.367776"/>
<path d="M57.001 20.7363V47.5332H68.1234C69.0633 47.5332 69.69 48.3167 70.0033 48.6301C70.3166 48.3167 70.9432 47.5332 71.8831 47.5332H83.0056V20.7363" stroke="#8C9EBC" stroke-width="0.367776"/>
<path d="M56.0635 20.7363V48.0816H68.1258C69.0658 48.0816 69.6924 48.3167 70.0057 48.6301C70.319 48.3167 70.9456 48.0816 71.8855 48.0816H83.9479V20.7363" stroke="#8C9EBC" stroke-width="0.367776"/>
<path d="M70 22.3047V48.0046V22.3047Z" fill="#080808"/>
<path d="M70 22.3047V48.0046" stroke="#8C9EBC" stroke-width="0.367776"/>
<path d="M68.7461 48.633C68.7461 46.7525 71.2526 46.7525 71.2526 48.633C71.2526 49.2598 68.7461 49.2598 68.7461 48.633Z" fill="#273246" stroke="#8C9EBC" stroke-width="0.367776"/>
<path d="M71.8832 22.043H72.8231H71.8832ZM73.763 22.043H74.3896H73.763ZM74.7029 22.043H75.6429H74.7029ZM76.5828 22.043H78.776H76.5828ZM79.0893 22.043H80.3425H79.0893ZM71.8832 23.0459H72.1965H71.8832ZM72.5098 23.0459H76.5828H72.5098ZM77.5227 23.0459H80.3425H77.5227ZM71.8832 24.0488H73.1364H71.8832ZM73.4497 24.0488H74.3896H73.4497ZM75.3296 24.0488H77.5227H75.3296ZM77.836 24.0488H79.0893H77.836ZM79.4026 24.0488H80.3425H79.4026ZM71.8832 25.0517H80.3425H71.8832ZM71.8832 26.0547H72.1965H71.8832ZM72.5098 26.0547H75.3296H72.5098ZM75.6429 26.0547H77.2094H75.6429ZM77.5227 26.0547H80.3425H77.5227ZM71.8832 27.0576H73.4497H71.8832ZM73.763 27.0576H75.9562H73.763ZM76.2695 27.0576H78.4626H76.2695ZM79.4026 27.0576H80.3425H79.4026ZM71.8832 28.0605H72.1965H71.8832ZM73.1364 28.0605H74.7029H73.1364ZM75.0163 28.0605H75.9562H75.0163ZM76.8961 28.0605H79.0893H76.8961ZM79.4026 28.0605H80.3425H79.4026ZM71.8832 29.0634H73.1364H71.8832ZM74.0763 29.0634H75.9562H74.0763ZM76.2695 29.0634H77.5227H76.2695ZM78.4626 29.0634H80.3425H78.4626ZM71.8832 30.0663H72.1965H71.8832ZM72.5098 30.0663H75.3296H72.5098ZM75.6429 30.0663H77.2094H75.6429ZM77.5227 30.0663H80.3425H77.5227ZM71.8832 31.0693H72.5098H71.8832ZM72.8231 31.0693H73.763H72.8231ZM74.7029 31.0693H75.0163H74.7029ZM75.3296 31.0693H76.2695H75.3296ZM77.2094 31.0693H77.5227H77.2094ZM77.836 31.0693H78.776H77.836ZM79.7159 31.0693H80.3425H79.7159ZM71.8832 32.0722H72.5098H71.8832ZM72.8231 32.0722H74.3896H72.8231ZM74.7029 32.0722H75.6429H74.7029ZM76.5828 32.0722H78.4626H76.5828ZM78.776 32.0722H80.3425H78.776ZM71.8832 33.0751H75.0163H71.8832ZM75.3296 33.0751H80.3425H75.3296ZM71.8832 34.078H72.5098H71.8832ZM72.8231 34.078H76.5828H72.8231ZM77.5227 34.078H80.3425H77.5227ZM71.8832 35.081H73.1364H71.8832ZM73.4497 35.081H75.0163H73.4497ZM75.9562 35.081H78.1493H75.9562ZM78.4626 35.081H80.3425H78.4626ZM71.8832 36.0839H80.3425H71.8832ZM71.8832 37.0868H74.7029H71.8832ZM75.6429 37.0868H80.3425H75.6429ZM71.8832 38.0897H72.8231H71.8832ZM73.1364 38.0897H73.763H73.1364ZM74.0763 38.0897H75.9562H74.0763ZM76.2695 38.0897H77.5227H76.2695ZM77.836 38.0897H80.3425H77.836ZM71.8832 39.0926H75.0163H71.8832ZM75.3296 39.0926H80.3425H75.3296ZM71.8832 40.0956H80.3425H71.8832ZM71.8832 41.0985H74.7029H71.8832ZM75.6429 41.0985H80.3425H75.6429ZM71.8832 42.1014H72.3531H71.8832ZM72.6664 42.1014H78.682H72.6664ZM79.6219 42.1014H79.8099H79.6219ZM80.1232 42.1014H80.3425H80.1232ZM71.8832 43.1043H72.0398H71.8832ZM72.3531 43.1043H80.3425H72.3531ZM71.8832 44.1073H72.2591H71.8832ZM72.5724 44.1073H80.3425H72.5724ZM71.8832 45.1102H80.3425H71.8832ZM59.6641 22.043H60.6041H59.6641ZM61.544 22.043H62.7972H61.544ZM63.1105 22.043H64.6771H63.1105ZM64.9904 22.043H66.5569H64.9904ZM66.8702 22.043H68.1235H66.8702ZM59.6641 23.0459H65.3037H59.6641ZM65.617 23.0459H68.1235H65.617ZM59.6641 24.0488H64.3638H59.6641ZM64.6771 24.0488H66.2436H64.6771ZM67.1835 24.0488H68.1235H67.1835ZM59.6641 25.0517H65.3037H59.6641ZM66.2436 25.0517H68.1235H66.2436ZM59.6641 26.0547H68.1235H59.6641ZM59.6328 27.0576H60.5727H59.6328ZM61.5127 27.0576H62.7659H61.5127ZM63.0792 27.0576H64.3324H63.0792ZM65.2724 27.0576H67.4655H65.2724ZM67.7788 27.0576H68.0921H67.7788ZM59.6328 28.0605H61.1994H59.6328ZM61.5127 28.0605H66.2123H61.5127ZM67.1522 28.0605H68.0921H67.1522ZM59.6328 29.0634H60.886H59.6328ZM61.1994 29.0634H62.1393H61.1994ZM63.0792 29.0634H65.2724H63.0792ZM65.5857 29.0634H67.1522H65.5857ZM67.4655 29.0634H68.0921H67.4655ZM59.6328 30.0663H60.2594H59.6328ZM60.5727 30.0663H61.5127H60.5727ZM62.4526 30.0663H62.9225H62.4526ZM63.2359 30.0663H64.1758H63.2359ZM65.1157 30.0663H65.429H65.1157ZM65.7423 30.0663H66.9956H65.7423ZM67.9355 30.0663H68.0921H67.9355ZM59.6328 31.0693H68.0921H59.6328ZM59.6328 32.0722H61.5127H59.6328ZM62.4526 32.0722H64.9591H62.4526ZM65.899 32.0722H67.4655H65.899ZM67.7788 32.0722H68.0921H67.7788ZM59.6328 33.0751H60.2594H59.6328ZM61.1994 33.0751H63.3925H61.1994ZM64.3324 33.0751H66.2123H64.3324ZM67.1522 33.0751H68.0921H67.1522ZM59.6328 34.078H68.0921H59.6328ZM59.6328 35.081H61.1994H59.6328ZM61.5127 35.081H64.3324H61.5127ZM64.6457 35.081H67.1522H64.6457ZM67.4655 35.081H68.0921H67.4655ZM59.6328 36.0839H63.0792H59.6328ZM64.0191 36.0839H68.0921H64.0191ZM59.6328 37.0868H62.7659H59.6328ZM63.0792 37.0868H65.5857H63.0792ZM66.5256 37.0868H68.0921H66.5256ZM59.6328 38.0897H61.1994H59.6328ZM62.1393 38.0897H67.4655H62.1393ZM67.7788 38.0897H68.0921H67.7788ZM59.6328 39.0926H60.2594H59.6328ZM60.5727 39.0926H62.1393H60.5727ZM62.4526 39.0926H63.3925H62.4526ZM64.3324 39.0926H66.8389H64.3324ZM67.1522 39.0926H68.0921H67.1522ZM59.6328 40.0956H60.5727H59.6328ZM61.5127 40.0956H64.0191H61.5127ZM64.9591 40.0956H66.5256H64.9591ZM67.4655 40.0956H68.0921H67.4655ZM59.6328 41.0985H61.826H59.6328ZM62.1393 41.0985H63.7058H62.1393ZM64.6457 41.0985H66.8389H64.6457ZM67.1522 41.0985H68.0921H67.1522ZM59.6328 42.1014H62.4526H59.6328ZM63.3925 42.1014H64.9591H63.3925ZM65.2724 42.1014H67.4655H65.2724ZM67.7788 42.1014H68.0921H67.7788ZM59.6328 43.1043H62.6092H59.6328ZM62.9225 43.1043H63.2359H62.9225ZM64.1758 43.1043H64.4891H64.1758ZM64.8024 43.1043H65.1157H64.8024ZM66.0556 43.1043H66.3689H66.0556ZM66.6822 43.1043H66.9956H66.6822ZM67.9355 43.1043H68.0921H67.9355ZM59.6328 44.1073H68.0921H59.6328ZM59.6328 45.1102H68.0921H59.6328ZM67.9355 22.043H68.0921C69.0321 22.043 69.6587 23.2966 69.972 23.61C70.2853 23.2966 70.9119 22.043 71.8518 22.043H72.0085H67.9355ZM67.9355 23.0459H68.0921C69.0321 23.0459 69.6587 24.2995 69.972 24.613C70.2853 24.2995 70.9119 23.0459 71.8518 23.0459H72.0085H67.9355ZM67.9355 24.0488H68.0921C69.0321 24.0488 69.6587 25.3025 69.972 25.6159C70.2853 25.3025 70.9119 24.0488 71.8518 24.0488H72.0085H67.9355ZM67.9355 25.0517H68.0921C69.0321 25.0517 69.6587 26.3054 69.972 26.6188C70.2853 26.3054 70.9119 25.0517 71.8518 25.0517H72.0085H67.9355ZM67.9355 26.0547H68.0921C69.0321 26.0547 69.6587 27.3083 69.972 27.6217C70.2853 27.3083 70.9119 26.0547 71.8518 26.0547H72.0085H67.9355ZM67.9355 27.0576H68.0921C69.0321 27.0576 69.6587 28.3112 69.972 28.6246C70.2853 28.3112 70.9119 27.0576 71.8518 27.0576H72.0085H67.9355ZM67.9355 28.0605H68.0921C69.0321 28.0605 69.6587 29.3142 69.972 29.6276C70.2853 29.3142 70.9119 28.0605 71.8518 28.0605H72.0085H67.9355ZM67.9355 29.0634H68.0921C69.0321 29.0634 69.6587 30.3171 69.972 30.6305C70.2853 30.3171 70.9119 29.0634 71.8518 29.0634H72.0085H67.9355ZM67.9355 30.0663H68.0921C69.0321 30.0663 69.6587 31.32 69.972 31.6334C70.2853 31.32 70.9119 30.0663 71.8518 30.0663H72.0085H67.9355ZM67.9355 31.0693H68.0921C69.0321 31.0693 69.6587 32.3229 69.972 32.6363C70.2853 32.3229 70.9119 31.0693 71.8518 31.0693H72.0085H67.9355ZM67.9355 32.0722H68.0921C69.0321 32.0722 69.6587 33.3258 69.972 33.6393C70.2853 33.3258 70.9119 32.0722 71.8518 32.0722H72.0085H67.9355ZM67.9355 33.0751H68.0921C69.0321 33.0751 69.6587 34.3288 69.972 34.6422C70.2853 34.3288 70.9119 33.0751 71.8518 33.0751H72.0085H67.9355ZM67.9355 34.078H68.0921C69.0321 34.078 69.6587 35.3317 69.972 35.6451C70.2853 35.3317 70.9119 34.078 71.8518 34.078H72.0085H67.9355ZM67.9355 35.081H68.0921C69.0321 35.081 69.6587 36.3346 69.972 36.648C70.2853 36.3346 70.9119 35.081 71.8518 35.081H72.0085H67.9355ZM67.9355 36.0839H68.0921C69.0321 36.0839 69.6587 37.3375 69.972 37.6509C70.2853 37.3375 70.9119 36.0839 71.8518 36.0839H72.0085H67.9355ZM67.9355 37.0868H68.0921C69.0321 37.0868 69.6587 38.3405 69.972 38.6539C70.2853 38.3405 70.9119 37.0868 71.8518 37.0868H72.0085H67.9355ZM67.9355 38.0897H68.0921C69.0321 38.0897 69.6587 39.3434 69.972 39.6568C70.2853 39.3434 70.9119 38.0897 71.8518 38.0897H72.0085H67.9355ZM67.9355 39.0926H68.0921C69.0321 39.0926 69.6587 40.3463 69.972 40.6597C70.2853 40.3463 70.9119 39.0926 71.8518 39.0926H72.0085H67.9355ZM67.9355 40.0956H68.0921C69.0321 40.0956 69.6587 41.3492 69.972 41.6626C70.2853 41.3492 70.9119 40.0956 71.8518 40.0956H72.0085H67.9355ZM67.9355 41.0985H68.0921C69.0321 41.0985 69.6587 42.3521 69.972 42.6656C70.2853 42.3521 70.9119 41.0985 71.8518 41.0985H72.0085H67.9355ZM67.9355 42.1014H68.0921C69.0321 42.1014 69.6587 43.3551 69.972 43.6685C70.2853 43.3551 70.9119 42.1014 71.8518 42.1014H72.0085H67.9355ZM67.9355 43.1043H68.0921C69.0321 43.1043 69.6587 44.358 69.972 44.6714C70.2853 44.358 70.9119 43.1043 71.8518 43.1043H72.0085H67.9355ZM67.9355 44.1073H68.0921C69.0321 44.1073 69.6587 45.3609 69.972 45.6743C70.2853 45.3609 70.9119 44.1073 71.8518 44.1073H72.0085H67.9355ZM67.9355 45.1102H68.0921C69.0321 45.1102 69.6587 46.3638 69.972 46.6773C70.2853 46.3638 70.9119 45.1102 71.8518 45.1102H72.0085H67.9355Z" stroke="#8C9EBC" stroke-width="0.367776"/>
<path d="M59.8213 23.043V26.0517H62.829V23.043H59.8213Z" fill="#273246" stroke="#273246" stroke-width="1.4711"/>
<path d="M60.8082 24.6727H61.8421M59.8213 23.043V26.0517H62.829V23.043H59.8213ZM60.2913 25.707L61.3252 23.6385L62.3591 25.707H60.2913Z" stroke="#8C9EBC" stroke-width="0.367776"/>
<path d="M76.5854 49.1055C74.3922 47.5384 74.7055 45.3445 76.8987 45.0311L74.7055 44.4043C70.0059 46.2848 71.8857 48.9488 75.9588 49.1055H76.5854Z" fill="#273246" stroke="#8C9EBC" stroke-width="0.367776"/>
<path d="M58.4088 40.9551C59.9754 40.9551 60.602 41.8953 61.5419 42.8356C62.4819 43.7758 62.6385 43.6191 63.7351 44.4026C64.8317 45.1862 65.145 46.2831 66.5549 48.1636C67.9647 50.0441 70.6279 50.3575 71.2545 50.3575C71.8811 50.3575 73.761 50.5142 74.3876 50.0441C75.0142 49.5739 75.0142 48.6337 76.1108 48.6337C77.2073 48.6337 77.5207 50.2008 77.5207 50.8276C77.5207 51.4544 76.894 55.2154 70.6279 55.0587C64.3617 54.902 62.7952 50.9843 61.6986 49.4172C60.602 47.8502 61.072 44.4026 53.2393 44.4026C53.2393 43.7758 53.3959 43.4624 53.3959 42.8356C53.3959 42.2087 53.3959 41.5819 55.5891 41.2685C57.7822 40.9551 56.8423 40.9551 58.4088 40.9551Z" fill="#273246" stroke="#8C9EBC" stroke-width="0.367776"/>
<path d="M72.9749 43.7754C72.9749 44.4022 73.2882 44.7156 73.2882 45.029C73.2882 45.3424 74.2281 45.1857 74.5414 45.4991C74.8547 45.8126 80.8076 47.3796 83.9407 47.3796C87.0738 47.3796 88.0137 46.126 89.4236 42.9918C89.7682 42.2083 89.4236 41.2681 88.4836 40.1711C87.5437 39.0742 86.7604 38.4473 85.9772 38.4473C85.1939 38.4473 83.1574 39.0742 82.8441 39.2309C82.5308 39.3876 79.711 40.1711 79.3977 38.1339C79.0844 36.0967 81.7475 35.94 82.5308 36.5669C83.3141 37.1937 84.254 37.5071 85.1939 37.5071C86.1338 37.5071 87.0738 36.7236 87.7004 36.0967C88.327 35.4699 89.7369 35.1565 89.7369 34.0596C89.7369 32.9626 89.1103 32.8059 89.1103 31.8657C88.7969 31.2388 89.4236 33.5894 88.1703 33.9029C86.9171 34.2163 87.0738 34.5297 87.0738 34.5297C86.9171 33.5894 87.7004 32.1791 85.6639 31.5523C86.9171 29.9852 84.0973 29.9852 84.7239 31.5523L85.5072 32.4925C85.6639 32.8059 85.8205 32.8059 85.9772 33.9029C85.5072 34.2163 85.5072 34.373 85.1939 34.9998C84.8806 35.6266 83.0007 34.8431 82.0608 35.3132C81.1209 35.7833 81.1209 34.373 82.2175 34.2163C83.3141 34.0596 83.0007 34.2163 83.3141 33.7461C83.6274 33.276 82.3741 33.7461 82.0608 33.4327C81.7475 33.1193 81.1209 33.5894 80.8076 33.7461C80.4943 33.9029 78.4578 35.3132 78.6144 37.5071C78.7711 39.701 79.0844 41.7382 81.7475 41.5815C84.4106 41.4248 85.3506 38.7608 86.9171 40.3278C87.3871 40.7979 86.9171 43.3052 85.6639 43.3052C77.8312 43.3052 79.3977 41.7382 74.6981 41.7382C72.8182 41.7382 72.9749 42.6784 72.9749 43.3052V43.7754Z" fill="#273246" stroke="#8C9EBC" stroke-width="0.367776"/>
<path d="M88.4874 40.1699L86.9209 40.3268L88.4874 40.1699Z" fill="#080808"/>
<path d="M88.4874 40.1699L86.9209 40.3268" stroke="#8C9EBC" stroke-width="0.367776"/>
<path d="M58.9924 56.4581C60.3428 52.3179 60.5245 52.9196 61.4456 54.0605C61.9218 54.6528 62.8586 53.9414 62.8304 54.5839C62.7866 55.5868 61.9344 56.0381 61.69 58.8306C60.1642 59.633 59.1804 58.9936 58.9893 56.4581H58.9924Z" fill="#273246" stroke="#8C9EBC" stroke-width="0.367776"/>
<path d="M80.5948 59.2767C73.5673 60.9315 77.3959 59.2077 77.1829 57.9133C76.4215 53.2654 76.9071 54.6695 78.5865 53.9518C79.4637 53.5788 80.4287 53.209 80.6418 53.8013C82.39 60.6588 82.5122 58.8629 80.5916 59.2767H80.5948Z" fill="#273246" stroke="#8C9EBC" stroke-width="0.367776"/>
<path d="M59.2724 60.3924C51.3488 58.5965 60.5663 56.7913 60.3188 55.7413C59.5042 52.2844 60.7418 52.9238 61.4436 53.7324C61.9417 54.309 62.8566 53.9455 62.8284 54.588C62.7845 55.5909 61.1867 54.7854 61.3559 55.9513C61.6942 59.9097 63.3203 61.6711 59.2724 60.3924Z" fill="#273246" stroke="#8C9EBC" stroke-width="0.367776"/>
<path d="M80.9846 60.218C73.9571 61.8728 79.5841 57.1936 77.8202 55.8428C75.8307 54.3196 77.1027 54.2162 78.6661 53.8338C79.5904 53.6081 80.43 53.207 80.6431 53.7993C80.9313 54.5985 80.0008 54.2663 79.5528 55.4667C79.2332 56.3192 88.7922 57.7013 80.9815 60.218H80.9846Z" fill="#273246" stroke="#8C9EBC" stroke-width="0.367776"/>
<path d="M59.6182 60.6465C59.6276 59.606 61.3946 57.5563 61.2474 57.2773C60.3262 55.5159 61.7957 56.1647 63.4938 56.4405C64.5778 56.616 68.2874 57.6785 70.0231 57.5469C70.4618 57.5124 71.6179 57.7412 73.0591 57.0172C75.669 55.7134 75.8726 56.9169 77.3201 56.1459C78.9524 55.2746 78.8929 56.3057 78.9336 57.1175C78.9869 58.2646 78.7582 57.1676 79.1247 58.5811C79.3221 59.3396 80.5346 59.5809 80.3404 60.891C80.1399 62.2669 79.0401 62.4894 75.6752 63.1758C72.6612 63.7901 73.7672 64.022 70.2299 64.0408C67.4697 64.0565 68.3501 63.2478 62.911 63.182C60.7022 63.157 59.6025 62.3045 59.6213 60.6497L59.6182 60.6465Z" fill="#273246" stroke="#8C9EBC" stroke-width="0.367776"/>
<path d="M92.0684 17.7435C92.5603 19.0818 93.5002 19.3012 94.3148 20.4451C95.1326 21.5891 96.0819 24.25 96.461 25.4566C97.2693 28.0329 98.3314 29.4683 98.3283 31.9254C98.322 34.8245 98.4756 38.341 98.1215 39.3784C97.7675 40.4158 96.815 42.9733 96.3576 45.9131C95.9315 48.6492 93.5535 50.912 93.2183 51.2975C92.883 51.683 91.9024 54.347 89.3301 56.3591C88.1959 57.2461 86.573 58.3399 85.185 59.3491C83.9349 60.258 83.3428 61.1293 82.6096 61.0259C81.8765 60.9224 81.3752 60.0292 81.2311 58.9009C81.1402 58.1957 81.0024 57.6755 80.0342 56.5253C79.1977 55.5317 78.9721 55.2246 80.783 55.0146C82.0801 54.8642 83.8848 52.2816 84.9438 51.9494C86.0028 51.6172 88.1458 48.3765 90.1384 44.0827C91.5859 40.9549 92.4193 36.5765 91.5985 30.8598C90.8246 25.4691 89.7719 25.0398 88.0612 22.4478C86.6795 20.3542 85.7051 18.806 83.8315 17.8093C83.537 17.6526 82.6974 17.452 81.6446 16.471C81.0368 15.9038 80.1345 15.5465 79.3418 15.0889C78.5492 14.6313 73.1227 12.6317 70.1556 12.5471C67.7087 12.4782 64.137 12.9953 58.5162 16.0448C56.6019 17.0853 54.7597 18.6399 52.3754 21.3352C51.3916 22.4478 51.094 23.8206 50.5331 25.0147C50.223 25.6791 49.6371 26.2119 49.2642 26.798C47.8481 29.0295 47.563 33.0725 47.5598 34.8997C47.5504 37.9712 48.6909 40.1745 48.7222 41.6444C48.7723 43.8916 50.0475 45.4242 51.6266 48.1164C52.5634 49.7148 54.509 51.5357 55.615 52.2754C56.7836 53.0526 57.3539 54.0399 58.9392 54.7983C61.5741 56.0583 59.5251 56.4406 59.0927 57.7632C58.8546 58.4935 58.6008 61.9128 56.58 60.6247C55.5962 59.9979 53.9419 59.1736 52.3973 57.9011C51.9305 57.5156 49.3896 55.8984 48.365 53.7139C48.0549 53.0526 46.5573 51.4762 45.2476 49.4264C44.0727 47.5898 43.4492 45.6498 42.4748 43.3024C41.4879 40.9204 41.5568 37.3506 41.3281 34.9091C40.8174 29.4056 42.7756 27.5941 42.7756 27.1428C42.7756 25.5757 44.3265 21.8116 44.8497 21.1096C45.3729 20.4044 45.6706 19.5895 47.2058 17.3925C47.5567 16.891 50.5645 14.2427 51.9806 12.8919C54.2396 10.7387 61.1355 7.57638 62.4827 7.55757C64.6101 7.52623 65.9855 6.57032 69.2157 6.39167C71.3086 6.27571 76.2025 7.6516 78.4928 8.11858C82.6598 8.96793 82.2587 9.93324 85.9965 11.9673C89.7374 13.9982 91.2945 15.653 92.0684 17.7529V17.7435Z" fill="#273246" stroke="#8C9EBC" stroke-width="0.367776"/>
<path d="M69.9931 10.8672L71.3742 13.6667L74.4627 14.1156L72.2279 16.2948L72.7555 19.3717L69.9931 17.919L67.2307 19.3717L67.7583 16.2948L65.5234 14.1156L68.6119 13.6667L69.9931 10.8672Z" fill="#273246" stroke="#8C9EBC" stroke-width="0.275832"/>
<path d="M69.9932 15.5684V10.8672L71.3743 13.6667L69.9932 15.5684Z" fill="#8C9EBC"/>
<path d="M69.9922 15.568L74.4618 14.1152L73.3444 15.2048L69.9922 15.568Z" fill="#8C9EBC"/>
<path d="M69.9932 15.5684L72.228 16.2947L72.7556 19.3717L69.9932 15.5684Z" fill="#8C9EBC"/>
<path d="M69.9968 15.5684V17.919L67.2344 19.3717L69.9968 15.5684Z" fill="#8C9EBC"/>
<path d="M69.9931 15.5677L65.5234 14.1149L68.6119 13.666L69.9931 15.5677Z" fill="#8C9EBC"/>
<path d="M54.1502 55.6627C54.4386 55.8841 54.8519 55.8296 55.0733 55.541C55.2947 55.2524 55.2403 54.839 54.9519 54.6176C54.6635 54.3963 54.2502 54.4508 54.0289 54.7394C53.8075 55.0279 53.8618 55.4414 54.1502 55.6627Z" fill="#8C9EBC"/>
<path d="M85.8561 55.6618C86.1445 55.4405 86.1989 55.027 85.9775 54.7384C85.7561 54.4498 85.3429 54.3954 85.0544 54.6167C84.766 54.8381 84.7117 55.2515 84.9331 55.5401C85.1544 55.8287 85.5677 55.8832 85.8561 55.6618Z" fill="#8C9EBC"/>
<path d="M44.1885 38.4005C44.2359 38.7609 44.5664 39.0146 44.9267 38.9672C45.2869 38.9197 45.5405 38.5891 45.4931 38.2287C45.4457 37.8683 45.1152 37.6146 44.7549 37.6621C44.3946 37.7095 44.141 38.0401 44.1885 38.4005Z" fill="#8C9EBC"/>
<path d="M84.935 13.6662C84.6372 13.4577 84.2267 13.5302 84.0181 13.8282C83.8095 14.1262 83.8818 14.5368 84.1796 14.7454C84.4774 14.954 84.8878 14.8815 85.0964 14.5835C85.305 14.2855 85.2327 13.8748 84.935 13.6662Z" fill="#8C9EBC"/>
<path d="M71.5916 9.00141C71.2289 8.97922 70.9169 9.25535 70.8947 9.61817C70.8725 9.98099 71.1486 10.2931 71.5112 10.3153C71.8739 10.3375 72.186 10.0613 72.2081 9.69853C72.2303 9.33571 71.9543 9.0236 71.5916 9.00141Z" fill="#8C9EBC"/>
<path d="M52.088 50.4628L52.2604 50.523L52.3086 50.4829L51.5866 49.6161L51.5385 49.6562L51.5665 49.8368L49.4242 51.6223L48.6822 50.7313L48.7424 50.5588L48.7022 50.5106L47.956 51.1326L50.1621 53.7812L50.9083 53.1593L50.8682 53.1112L50.6877 53.1392L49.9456 52.2483L52.088 50.4628Z" fill="#8C9EBC"/>
<path d="M50.2108 48.0832L50.3695 48.174L50.4242 48.1433L49.8717 47.1585L49.817 47.1891L49.8118 47.372L46.8054 49.0596L46.6467 48.9688L46.592 48.9995L47.1445 49.9844L47.1992 49.9537L47.2045 49.7709L50.2108 48.0832Z" fill="#8C9EBC"/>
<path d="M48.5266 45.0751L48.5319 44.8923L48.5866 44.8616L49.139 45.8464L49.0844 45.8771L48.9256 45.7864L45.9193 47.474L45.914 47.6568L45.8594 47.6875L45.3069 46.7027L45.3616 46.672L45.5203 46.7627L48.5266 45.0751Z" fill="#8C9EBC"/>
<path d="M48.2734 48.9922L48.9838 48.5934L47.4506 45.8602L46.7402 46.259L48.2734 48.9922Z" fill="#8C9EBC"/>
<path d="M47.9686 43.7332L48.1068 43.8527L48.1663 43.8331L47.2367 41.0047L46.314 41.3081L46.3336 41.3677L46.5118 41.408L47.0891 43.1647L46.4641 43.3702L46.0335 42.0602L45.2597 42.3147L45.6902 43.6248L45.0652 43.8303L44.4879 42.0737L44.6073 41.9354L44.5877 41.8759L43.6651 42.1793L44.5947 45.0078L44.6543 44.9882L44.6946 44.81L47.9686 43.7332Z" fill="#8C9EBC"/>
<path d="M42.7119 35.0293L44.5897 35.1179C46.5613 35.2109 46.6853 32.5811 44.7137 32.4881L42.8359 32.3995" stroke="#8C9EBC" stroke-width="0.956217"/>
<path d="M42.8487 35.4427L42.7473 35.5948L42.6846 35.5918L42.7377 34.4648L42.8004 34.4677L42.887 34.6287L42.8487 35.4427Z" fill="#8C9EBC"/>
<path d="M43.0159 32.0017L42.9293 31.8408L42.8666 31.8378L42.8135 32.9648L42.8762 32.9678L42.9776 32.8157L43.0159 32.0017Z" fill="#8C9EBC"/>
<path d="M46.6028 31.1498L46.6576 31.3243L46.7186 31.339L46.9456 30.3932L43.2895 29.5151L43.0625 30.4609L43.1234 30.4756L43.2514 30.345L46.6028 31.1498Z" fill="#8C9EBC"/>
<path d="M47.407 27.7962L47.535 27.6656L47.5959 27.6803L47.3689 28.6261L43.7129 27.748L43.9399 26.8022L44.0008 26.8169L44.0556 26.9914L47.407 27.7962Z" fill="#8C9EBC"/>
<path d="M43.0918 30.3066L47.362 28.6247L47.5522 27.8323L43.282 29.5143L43.0918 30.3066Z" fill="#8C9EBC"/>
<path d="M47.8909 26.5934L47.92 26.7738L47.9781 26.7971L48.397 25.7495L48.3388 25.7262L48.1934 25.8368L44.9934 24.5565L44.9644 24.3761L44.9062 24.3528L44.4873 25.4004L44.5455 25.4237L44.6909 25.3131L47.8909 26.5934Z" fill="#8C9EBC"/>
<path d="M45.1797 23.5273L49.3319 23.8172L49.7318 23.1073L47.3329 19.7046L46.9331 20.4146L49.3319 23.8172L49.7318 23.1073L45.5796 22.8174L45.1797 23.5273Z" fill="#8C9EBC"/>
<path d="M50.9829 20.8706L50.9542 21.051L51.0022 21.0913L52.9154 18.8105L52.1714 18.186L52.1311 18.234L52.1907 18.4067L51.0025 19.8233L50.4984 19.4002L51.3846 18.3438L50.7605 17.82L49.8744 18.8764L49.3704 18.4533L50.5586 17.0368L50.739 17.0655L50.7793 17.0175L50.0353 16.393L48.1221 18.6738L48.1701 18.7141L48.3428 18.6545L50.9829 20.8706Z" fill="#8C9EBC"/>
<path d="M53.5738 15.6545L55.5284 15.9368M53.8941 17.8404L51.7393 15.2715L52.7473 14.4254C54.0673 13.3173 55.0139 14.4458 53.6938 15.5538L52.6858 16.3999L53.8941 17.8404Z" stroke="#8C9EBC" stroke-width="0.956217"/>
<path d="M55.7918 16.2515C55.9644 16.1066 55.9869 15.8493 55.8421 15.6767C55.6973 15.5041 55.4401 15.4816 55.2675 15.6264C55.095 15.7713 55.0725 16.0286 55.2172 16.2012C55.362 16.3738 55.6193 16.3963 55.7918 16.2515Z" fill="#8C9EBC"/>
<path d="M53.4815 17.9831L53.4218 18.1561L53.4622 18.2042L54.3274 17.4779L54.2871 17.4298L54.1064 17.4586L53.4815 17.9831Z" fill="#8C9EBC"/>
<path d="M56.7571 14.5356C56.7571 14.5356 56.6257 15.1198 57.9796 14.3315C59.3335 13.5432 58.5928 12.2701 57.2389 13.0584C55.885 13.8467 55.1443 12.5735 56.4982 11.7853C57.8521 10.997 57.7207 11.5812 57.7207 11.5812" stroke="#8C9EBC" stroke-width="0.956217"/>
<path d="M56.964 14.8906C57.1587 14.7772 57.2247 14.5275 57.1114 14.3327C56.9981 14.138 56.7484 14.072 56.5537 14.1854C56.359 14.2987 56.293 14.5485 56.4063 14.7432C56.5196 14.9379 56.7693 15.0039 56.964 14.8906Z" fill="#8C9EBC"/>
<path d="M57.92 11.9296C58.1147 11.8163 58.1807 11.5665 58.0674 11.3718C57.9541 11.1771 57.7045 11.1111 57.5098 11.2244C57.3151 11.3378 57.2491 11.5875 57.3624 11.7823C57.4757 11.977 57.7253 12.043 57.92 11.9296Z" fill="#8C9EBC"/>
<path d="M60.388 13.3737L60.2805 13.5215L60.305 13.5792L61.3432 13.1383L61.3187 13.0806L61.1378 13.0553L59.7912 9.88181L59.8987 9.73403L59.8742 9.67633L58.8359 10.1172L58.8604 10.1749L59.0413 10.2002L60.388 13.3737Z" fill="#8C9EBC"/>
<path d="M63.2027 12.3323L63.0773 12.4653L63.0943 12.5256L64.1801 12.2203L64.1632 12.1599L63.9869 12.1118L63.2324 9.42652L64.3484 9.11272L64.4812 9.23814L64.5416 9.22118L64.2788 8.28584L60.9609 9.21875L61.2238 10.1541L61.2841 10.1371L61.3322 9.96082L62.4482 9.64702L63.2027 12.3323Z" fill="#8C9EBC"/>
<path d="M65.2812 8.07812L65.2878 8.14046L65.619 8.29472L65.437 8.06174L66.9914 10.2619L67.8015 10.1767L66.2472 7.97657L66.2636 8.13242L66.4095 8.02253L66.403 7.96019L65.2812 8.07812Z" fill="#8C9EBC"/>
<path d="M69.0168 7.68858L69.0234 7.75092L68.7314 7.9707L68.861 7.70496L67.7979 10.1803L66.9878 10.2655L68.0509 7.79014L68.0672 7.94599L67.9016 7.86886L67.8951 7.80652L69.0168 7.68858Z" fill="#8C9EBC"/>
<path d="M66.9878 10.2356L67.1221 11.5135L66.9761 11.6234L66.9827 11.6858L68.1044 11.5678L68.0979 11.5055L67.9322 11.4284L67.798 10.1504L66.9878 10.2356Z" fill="#8C9EBC"/>
<path d="M75.9478 11.837C76.7355 12.0394 77.538 11.5646 77.7403 10.7766C77.9425 9.98863 77.4679 9.18584 76.6802 8.98352C75.8925 8.7812 75.0899 9.25597 74.8877 10.044C74.6854 10.8319 75.1601 11.6347 75.9478 11.837Z" stroke="#8C9EBC" stroke-width="0.956217"/>
<path d="M78.802 12.9842L78.6202 13.0026L78.5935 13.0593L79.6141 13.5397L79.6408 13.483L79.5391 13.3312L80.0326 12.2819L81.5635 13.0025L81.9103 12.2652L80.3795 11.5446L80.7263 10.8072L82.3989 11.5946L82.4173 11.7764L82.4739 11.8031L82.8875 10.924L80.1943 9.65625L80.1677 9.71297L80.2694 9.86476L78.802 12.9842Z" fill="#8C9EBC"/>
<path d="M87.0219 18.2034C87.593 18.7826 88.5253 18.7892 89.1044 18.2179C89.6834 17.6467 89.69 16.714 89.1189 16.1348C88.5479 15.5555 87.6155 15.549 87.0365 16.1202C86.4574 16.6915 86.4509 17.6241 87.0219 18.2034Z" stroke="#8C9EBC" stroke-width="0.956217"/>
<path d="M89.9495 18.1849L88.5195 16.7344L87.6272 17.6146L89.0571 19.0652L89.9495 18.1849Z" fill="#273246"/>
<path d="M88.3564 20.1981L88.6518 20.1862L88.3199 20.0333L88.2681 20.0686L88.9037 21.0007L88.9555 20.9654L88.9342 20.6005L88.8155 20.8712L89.8285 20.5214L90.2875 21.1946L90.9605 20.7354L90.6898 20.3385L92.6276 19.7875L92.0803 18.9849L92.0285 19.0202L92.0498 19.3851L92.1685 19.1143L88.3564 20.1981Z" fill="#8C9EBC"/>
<path d="M90.4735 23.3028L90.5922 23.0321L90.6135 23.3969L90.5617 23.4323L89.9261 22.5002L89.9779 22.4649L90.3097 22.6178L90.0144 22.6296L90.7096 21.8138L90.2506 21.1406L90.9235 20.6814L91.1942 21.0783L92.4141 19.4746L92.9614 20.2772L92.9096 20.3126L92.5778 20.1596L92.8731 20.1478L90.4735 23.3028Z" fill="#8C9EBC"/>
<path d="M91.124 24.2358L90.9759 24.1288L90.9184 24.1535L92.2143 27.1782L93.107 26.7955L93.0823 26.7378L92.9013 26.7132L92.0497 24.7255L94.7566 23.5649L94.374 22.6719L94.3164 22.6966L94.2917 22.8776L91.124 24.2358Z" fill="#8C9EBC"/>
<path d="M92.5945 27.9667L92.4604 27.8427L92.4002 27.8603L92.7168 28.9432L92.7769 28.9256L92.8232 28.7488L96.131 27.7812L96.2652 27.9052L96.3254 27.8876L96.0088 26.8047L95.9486 26.8223L95.9024 26.9991L92.5945 27.9667Z" fill="#8C9EBC"/>
<path d="M93.1892 30.1096L93.0731 29.9685L93.0111 29.9778L93.1778 31.0937L93.2398 31.0844L93.3096 30.9155L94.4561 30.7441L94.7062 32.418L95.5118 32.2975L95.2617 30.6237L96.0674 30.5032L96.3406 32.3321L96.1996 32.4482L96.2088 32.5102L97.1694 32.3666L96.7295 29.4219L96.6675 29.4311L96.5977 29.6L93.1892 30.1096Z" fill="#8C9EBC"/>
<path d="M93.8997 35.4989C93.8827 36.3123 94.528 36.9854 95.3411 37.0025C96.1542 37.0195 96.8271 36.374 96.8442 35.5606C96.8612 34.7472 96.2159 34.0741 95.4028 34.057C94.5897 34.04 93.9167 34.6856 93.8997 35.4989Z" stroke="#8C9EBC" stroke-width="0.956217"/>
<path d="M94.7838 40.4744L93.0563 41.4317M93.2075 38.927L96.4766 39.6699L96.185 40.9535C95.8033 42.6345 94.3673 42.3081 94.7491 40.6272L95.0406 39.3436L93.2075 38.927Z" stroke="#8C9EBC" stroke-width="0.956217"/>
<path d="M92.6582 41.3383C92.6083 41.558 92.7457 41.7765 92.9651 41.8264C93.1845 41.8762 93.4027 41.7385 93.4526 41.5189C93.5025 41.2992 93.3651 41.0807 93.1458 41.0308C92.9264 40.981 92.7081 41.1186 92.6582 41.3383Z" fill="#8C9EBC"/>
<path d="M93.4458 38.563L93.3887 38.3893L93.3275 38.3754L93.0776 39.4757L93.1388 39.4896L93.2653 39.3577L93.4458 38.563Z" fill="#8C9EBC"/>
<path d="M92.2274 43.2865L92.2072 43.1047L92.1502 43.0786L91.7455 43.9629L95.1646 45.5288L95.5693 44.6445L95.5123 44.6184L95.3616 44.7219L92.2274 43.2865Z" fill="#8C9EBC"/>
<path d="M90.7901 46.4167L90.6394 46.5202L90.5824 46.4941L90.9871 45.6098L94.4062 47.1758L94.0015 48.0601L93.9445 48.034L93.9243 47.8522L90.7901 46.4167Z" fill="#8C9EBC"/>
<path d="M95.5029 44.7832L90.9889 45.6113L90.6498 46.3522L95.1638 45.5241L95.5029 44.7832Z" fill="#8C9EBC"/>
<path d="M90.0677 47.5454L90.0742 47.3627L90.0217 47.3286L89.4074 48.2748L89.4599 48.309L89.6241 48.2288L92.5144 50.1064L92.5079 50.2891L92.5605 50.3232L93.1748 49.377L93.1223 49.3428L92.9581 49.423L90.0677 47.5454Z" fill="#8C9EBC"/>
<path d="M88.9205 49.0683L89.0059 49.3514L89.0708 48.9917L89.0237 48.9504L88.2807 49.7994L88.3279 49.8407L88.6757 49.7287L88.3839 49.6815L88.9761 50.575L88.4396 51.1881L89.0525 51.7248L89.3688 51.3633L90.3873 53.102L91.027 52.371L90.9799 52.3297L90.6321 52.4417L90.9239 52.4889L88.9205 49.0683Z" fill="#8C9EBC"/>
<path d="M86.4468 51.8935L86.7386 51.9408L86.3907 52.0527L86.3436 52.0114L87.0865 51.1625L87.1337 51.2038L87.0688 51.5635L86.9833 51.2804L87.947 51.7494L88.4836 51.1363L89.0965 51.6731L88.7801 52.0346L90.6377 52.8145L89.9979 53.5455L89.9508 53.5042L90.0157 53.1445L90.1011 53.4276L86.4468 51.8935Z" fill="#8C9EBC"/>
<path d="M62.2429 58.876L62.543 57.7559L63.814 58.0966C65.4785 58.5427 64.7163 61.3884 63.0518 60.9423L61.7807 60.6016L62.0808 59.4814L62.2429 58.876Z" stroke="#8C9EBC" stroke-width="0.956217"/>
<path d="M61.3234 60.7418L61.1475 60.7921L61.1313 60.8527L61.4344 60.934L61.3234 60.7418Z" fill="#8C9EBC"/>
<path d="M62.2174 57.409L62.0902 57.2774L62.1064 57.2168L62.4095 57.298L62.2174 57.409Z" fill="#8C9EBC"/>
<path d="M64.8067 61.8321L64.9927 61.6023L64.6588 61.7508L64.6512 61.813L65.7707 61.9505L65.7783 61.8883L65.4903 61.6634L65.6152 61.9314L66.0211 60.9392L66.8296 61.0385L66.9289 60.2297L66.4522 60.1712L67.3173 58.3513L66.3533 58.2329L66.3456 58.2951L66.6337 58.5199L66.5088 58.252L64.8067 61.8321Z" fill="#8C9EBC"/>
<path d="M68.5327 62.2936L68.4078 62.0256L68.6958 62.2505L68.6882 62.3127L67.5687 62.1752L67.5763 62.113L67.9102 61.9645L67.7242 62.1943L67.5703 61.1334L66.7618 61.0341L66.861 60.2253L67.3378 60.2838L66.9385 58.3086L67.9025 58.427L67.8949 58.4892L67.561 58.6377L67.747 58.4079L68.5327 62.2936Z" fill="#8C9EBC"/>
<path d="M68.4219 58.5547L70.3055 62.2676L71.1199 62.2463L72.8067 58.4398L71.9924 58.4612L70.3055 62.2676L71.1199 62.2463L69.2362 58.5334L68.4219 58.5547Z" fill="#8C9EBC"/>
<path d="M73.8443 61.842L73.7043 61.9594L73.7141 62.0213L74.8281 61.8448L74.8183 61.7829L74.6489 61.7145L74.1098 58.3094L74.2498 58.192L74.24 58.1301L73.126 58.3066L73.1358 58.3686L73.3052 58.4369L73.8443 61.842Z" fill="#8C9EBC"/>
<path d="M75.7211 60.8197C75.7211 60.8197 75.4412 61.349 76.9544 60.9434C78.4676 60.5378 78.0864 59.1149 76.5733 59.5205C75.0601 59.9261 74.679 58.5033 76.1922 58.0977C77.7053 57.6921 77.4254 58.2214 77.4254 58.2214" stroke="#8C9EBC" stroke-width="0.956217"/>
<path d="M75.8272 61.2157C76.0445 61.1575 76.1734 60.9339 76.1151 60.7163C76.0568 60.4987 75.8334 60.3695 75.6161 60.4277C75.3988 60.486 75.2699 60.7096 75.3282 60.9272C75.3865 61.1448 75.6099 61.274 75.8272 61.2157Z" fill="#8C9EBC"/>
<path d="M77.5254 58.6181C77.7427 58.5598 77.8716 58.3362 77.8133 58.1186C77.7551 57.901 77.5317 57.7718 77.3144 57.8301C77.0971 57.8883 76.9681 58.1119 77.0264 58.3295C77.0847 58.5471 77.3081 58.6763 77.5254 58.6181Z" fill="#8C9EBC"/>
<path d="M57.3949 43.6846L57.2953 43.6985L57.2819 43.7303L58.9474 44.4375L59.1561 43.9456L59.1244 43.9321L59.0431 43.9912L57.9487 43.5265L58.5816 42.035L58.0898 41.8262L58.0764 41.8579L58.1355 41.9392L57.3949 43.6846Z" fill="#8C9EBC"/>
<path d="M59.2561 44.471L59.1562 44.4604L59.1354 44.4879L60.4428 45.4735L60.7643 45.0467L60.7368 45.0259L60.6436 45.0637L59.8317 44.4516L60.0495 44.1625L60.655 44.6189L60.9246 44.261L60.3191 43.8046L60.5369 43.5155L61.3488 44.1275L61.3383 44.2275L61.3658 44.2482L61.6873 43.8215L60.3799 42.8359L60.3591 42.8635L60.3968 42.9566L59.2561 44.471Z" fill="#8C9EBC"/>
<path d="M60.9589 46.0302L60.8664 45.9909L60.8386 46.0111L61.2032 46.5132L61.2311 46.4929L61.2223 46.3928L62.463 45.491L62.8378 46.007L62.7984 46.0995L62.8187 46.1274L63.2509 45.8133L62.1367 44.2793L61.7045 44.5934L61.7248 44.6213L61.8249 44.6125L62.1997 45.1284L60.9589 46.0302Z" fill="#8C9EBC"/>
<path d="M62.6785 48.6832L62.5868 48.6423L62.5585 48.662L62.9144 49.1704L62.9426 49.1506L62.9355 49.0503L64.1918 48.1704L64.5575 48.6928L64.5166 48.7846L64.5364 48.8129L64.9739 48.5064L63.8867 46.9531L63.4491 47.2596L63.4689 47.2879L63.5691 47.2808L63.9348 47.8032L62.6785 48.6832Z" fill="#8C9EBC"/>
<path d="M63.4927 49.9874L63.3976 49.9546L63.3712 49.9768L63.7703 50.4525L63.7967 50.4303L63.7809 50.331L65.2336 49.1116L65.3287 49.1444L65.3551 49.1222L64.9561 48.6465L64.9296 48.6687L64.9454 48.768L63.4927 49.9874Z" fill="#8C9EBC"/>
<path d="M64.7193 51.4404L64.7351 51.5397L64.7087 51.5619L64.3097 51.0861L64.3361 51.064L64.4311 51.0968L65.8839 49.8774L65.8681 49.778L65.8945 49.7559L66.2936 50.2316L66.2672 50.2537L66.1721 50.2209L64.7193 51.4404Z" fill="#8C9EBC"/>
<path d="M64.4531 49.3008L64.1096 49.5891L65.218 50.9104L65.5615 50.6221L64.4531 49.3008Z" fill="#8C9EBC"/>
<path d="M65.4888 52.0959L65.3883 52.0941L65.37 52.1234L66.7583 52.9911L67.0414 52.538L67.0122 52.5197L66.9227 52.5654L66.0605 52.0264L66.2522 51.7195L66.8952 52.1214L67.1327 51.7413L66.4897 51.3394L66.6814 51.0324L67.5436 51.5713L67.5418 51.6718L67.571 51.6901L67.8541 51.2369L66.4658 50.3691L66.4476 50.3984L66.4932 50.4879L65.4888 52.0959Z" fill="#8C9EBC"/>
<path d="M68.6631 52.5297L69.1525 53.4996M67.7796 53.3636L68.2568 51.582L68.9559 51.7694C69.8714 52.0148 69.6618 52.7974 68.7463 52.552L68.0472 52.3646L67.7796 53.3636Z" stroke="#8C9EBC" stroke-width="0.52592"/>
<path d="M69.0918 53.7181C69.2115 53.7502 69.3345 53.6791 69.3666 53.5595C69.3986 53.4398 69.3276 53.3167 69.2079 53.2846C69.0882 53.2526 68.9652 53.3236 68.9332 53.4433C68.9011 53.563 68.9721 53.686 69.0918 53.7181Z" fill="#8C9EBC"/>
<path d="M67.5794 53.2255L67.4827 53.2531L67.4738 53.2865L68.0739 53.4473L68.0828 53.414L68.0129 53.3416L67.5794 53.2255Z" fill="#8C9EBC"/>
<path d="M69.9326 53.7421L69.8423 53.7861L69.8393 53.8204L71.4701 53.9631L71.5167 53.4308L71.4823 53.4278L71.4233 53.5092L70.4105 53.4205L70.4421 53.0599L71.1974 53.126L71.2364 52.6795L70.4811 52.6134L70.5126 52.2528L71.5255 52.3415L71.5694 52.4318L71.6038 52.4348L71.6503 51.9025L70.0195 51.7598L70.0165 51.7941L70.0979 51.8531L69.9326 53.7421Z" fill="#8C9EBC"/>
<path d="M72.9753 52.4555L73.3626 53.4145L74.0337 53.1433C74.9124 52.7881 74.609 52.0369 73.7303 52.3921L73.0593 52.6633M73.1432 52.8711L72.7559 51.9121L73.4269 51.6409C74.3056 51.2857 74.609 52.0369 73.7303 52.3921L73.0593 52.6633L73.1432 52.8711Z" stroke="#8C9EBC" stroke-width="0.52592"/>
<path d="M73.2031 53.622L73.1424 53.7023L73.1554 53.7343L73.4434 53.6179L73.2031 53.622Z" fill="#8C9EBC"/>
<path d="M72.4903 51.866L72.3909 51.8504L72.3779 51.8184L72.6659 51.702L72.4903 51.866Z" fill="#8C9EBC"/>
<path d="M75.4933 52.6081L75.4476 52.6976L75.4659 52.7269L76.8542 51.8591L76.5711 51.4059L76.5419 51.4242L76.5437 51.5247L75.6815 52.0636L75.4897 51.7566L76.1327 51.3547L75.8953 50.9746L75.2523 51.3765L75.0606 51.0696L75.9228 50.5306L76.0123 50.5763L76.0415 50.558L75.7584 50.1049L74.3701 50.9727L74.3884 51.0019L74.4888 51.0001L75.4933 52.6081Z" fill="#8C9EBC"/>
<path d="M76.8603 45.2192L76.7678 45.2584L76.763 45.2925L78.5547 45.5444L78.6291 45.0153L78.595 45.0105L78.5318 45.0886L77.3543 44.9231L77.5798 43.3185L77.0508 43.2441L77.046 43.2783L77.1241 43.3415L76.8603 45.2192Z" fill="#8C9EBC"/>
<path d="M79.0133 45.5122L78.9194 45.5482L78.9134 45.5821L79.5252 45.69L79.5312 45.6561L79.4552 45.5902L79.7844 43.7227L79.8783 43.6868L79.8843 43.6528L79.2725 43.5449L79.2665 43.5789L79.3425 43.6448L79.0133 45.5122Z" fill="#8C9EBC"/>
<path d="M81.8605 44.6209C80.7979 43.5141 79.7867 45.7567 80.9812 45.9246L81.5785 46.0086L81.6912 45.2063" stroke="#8C9EBC" stroke-width="0.52592"/>
<path d="M81.4553 45.2576L81.377 45.1943L81.3818 45.1602L81.9971 45.2467L81.9923 45.2808L81.8996 45.3201L81.4553 45.2576Z" fill="#8C9EBC"/>
<path d="M82.6214 46.2851L82.5352 46.3368V46.3713H83.1565V46.3368L83.0702 46.2851V44.3889L83.1565 44.3372V44.3027H82.5352V44.3372L82.6214 44.3889V46.2851Z" fill="#8C9EBC"/>
<path d="M84.5116 46.2851L84.5979 46.3368V46.3713H83.9766V46.3368L84.0629 46.2851V44.3889L83.9766 44.3372V44.3027H84.5979V44.3372L84.5116 44.3889V46.2851Z" fill="#8C9EBC"/>
<path d="M82.7061 45.1113V45.56H84.4293V45.1113H82.7061Z" fill="#8C9EBC"/>
<path d="M85.6818 46.15L85.6005 46.209L85.6035 46.2433L86.2215 46.1893L86.2185 46.1549L86.1281 46.1109L85.9944 44.5826L86.6296 44.527L86.6886 44.6084L86.7229 44.6054L86.6764 44.073L84.7881 44.2383L84.8346 44.7706L84.869 44.7676L84.913 44.6772L85.5481 44.6217L85.6818 46.15Z" fill="#8C9EBC"/>
</svg>
