<svg width="140" height="70" viewBox="0 0 140 70" fill="none" xmlns="http://www.w3.org/2000/svg">
<g clip-path="url(#clip0_5332_74386)">
<path d="M37.4314 5.96049H37.0408C37.0189 6.42099 36.7783 6.61654 36.3252 6.61654C35.4283 6.61654 33.9846 5.53469 32.4471 5.5H32.3064C27.8846 5.541 25.2158 9.94724 25.2158 13.833C25.2158 17.7599 27.7783 21.6425 32.0846 21.6425C34.6939 21.6425 35.6721 20.3935 36.3658 20.3935C36.8221 20.3935 37.0846 20.9644 37.1689 21.2924H37.4939V15.9179H37.1689L37.0408 16.6622C36.7377 18.438 35.1064 21.2451 32.3033 21.2451C29.8252 21.2451 28.8689 18.8985 28.8689 13.5681C28.8689 7.97279 30.1721 5.8911 32.3658 5.8911C34.8439 5.8911 36.6908 8.89693 37.0377 11.1332H37.4283V5.96049H37.4314Z" fill="#8C9EBC"/>
<path d="M49.2875 19.4323H48.9031C48.9031 19.9938 48.6688 20.6435 48.1531 20.6435C47.7656 20.6435 47.6594 20.2335 47.6594 19.5617V14.5877C47.6594 12.1212 45.3656 11.5156 43.1594 11.5156C41.0156 11.5156 39.45 12.5754 39.45 13.7866C39.45 14.5435 39.8781 15.1933 40.8438 15.1933C41.6594 15.1933 42.15 14.6539 42.15 13.8969C42.15 12.8561 41.0781 12.9223 41.0563 12.5533C41.0344 12.077 42.2781 11.9067 43.0063 11.9067C44.6125 11.9067 44.8281 12.7079 44.8281 14.0042V15.8209L42.7281 15.9944C40.775 16.1458 38.6562 16.6662 38.6562 18.9151C38.6562 20.798 40.3281 21.555 41.9781 21.555C42.8156 21.555 44.2938 21.2302 44.85 20.1925C45.2344 21.1008 46.0281 21.555 46.9938 21.555C48.3875 21.5519 49.2875 20.7097 49.2875 19.4323ZM44.8313 18.7195C44.7875 19.8676 44.1469 20.9053 43.1375 20.9053C41.6813 20.9053 41.6156 19.5648 41.6156 18.4388C41.6156 17.2907 41.7438 16.5369 43.1375 16.3824L44.8313 16.2089V18.7195Z" fill="#8C9EBC"/>
<path d="M49.4191 21.2913H55.8285V20.9034H53.8566V15.3838C53.8566 13.7184 54.3691 12.5483 55.7223 11.9458H55.8098C55.4441 12.3338 55.2941 12.6807 55.2941 13.2232C55.2941 14.0654 55.916 14.6299 56.7504 14.6299C57.7785 14.6299 58.3785 13.873 58.3785 13.0498C58.3785 12.0121 57.691 11.3844 56.6848 11.3844C55.3129 11.3844 54.2629 12.3369 53.8535 13.4188H53.8129V11.2109C53.3629 11.7755 51.7754 11.7755 50.8973 11.7755H49.416V12.1635H50.8973V20.9034H49.416V21.2913H49.4191Z" fill="#8C9EBC"/>
<path d="M58.7189 21.2913H64.4221V20.9034H63.1564V14.9737C63.1564 13.8698 64.2283 12.2928 65.4283 12.2928C66.0502 12.2928 66.6939 12.5514 66.6939 14.0654V20.9034H65.4689V21.2913H71.1283V20.9034H69.6502V14.8665C69.6502 12.5293 68.6627 11.5137 66.6283 11.5137C65.1939 11.5137 63.7783 12.2707 63.2002 13.526H63.1564V11.2109C62.7064 11.7755 61.1189 11.7755 60.2408 11.7755H58.7158V12.1635H60.1971V20.9034H58.7158V21.2913H58.7189Z" fill="#8C9EBC"/>
<path d="M90.8312 12.4867C90.8312 11.7297 90.0156 11.3418 89.375 11.3418C88.6656 11.3418 88.1312 11.8181 87.725 12.2943C87.1031 11.8401 86.2469 11.5153 85.0437 11.5153C83.2437 11.5153 81.3156 12.7044 81.3156 14.6725C81.3156 15.8616 81.9594 16.792 83.0937 17.3124V17.3566C82.2594 17.4638 80.95 18.0473 80.95 19.8452C80.95 20.927 81.4406 21.7471 82.3437 22.0089V22.053C81.4844 22.2896 80.5 23.1569 80.5 24.1946C80.5 25.7969 82.3656 27.0301 84.7437 27.0301C87.7219 27.0301 89.675 24.9958 89.675 22.3558C89.675 20.2583 88.6469 19.3058 86.5469 19.35H82.9875C82.4531 19.35 81.725 19.3279 81.725 18.7444C81.725 18.205 82.6469 17.6184 83.4594 17.6184C83.6969 17.6184 83.9312 17.6846 84.1656 17.7477C84.425 17.8329 84.7031 17.877 85.0437 17.877C86.8875 17.877 88.8594 16.8173 88.8594 14.7608C88.8594 14.0701 88.5375 13.0955 87.9375 12.575C88.325 12.1839 88.5156 11.7108 89.3531 11.6004V11.6446C88.9031 11.8811 88.775 12.1619 88.775 12.5971C88.775 13.0955 89.1187 13.5906 89.7625 13.5906C90.4437 13.5906 90.8312 13.0734 90.8312 12.4867ZM82.6844 22.0719H86.05C88.1937 22.0719 88.9 22.2643 88.9 23.5859C88.9 25.1661 86.9687 26.6359 84.8062 26.6359C82.8781 26.6359 81.825 25.3143 81.7812 24.2766C81.7844 23.3273 82.1062 22.6996 82.6844 22.0719ZM86.4125 14.6725C86.3906 17.3314 85.8344 17.4859 85.0625 17.4859C84.2062 17.4859 83.7562 17.2052 83.7562 14.6094C83.7562 12.8557 83.95 11.9064 85.0625 11.9064C86.0719 11.9032 86.3937 12.1839 86.4125 14.6725Z" fill="#8C9EBC"/>
<path d="M91.175 21.2913H97.0906V20.9034H95.6094V11.2109C95.1594 11.7755 93.575 11.7755 92.6937 11.7755H91.1719V12.1635H92.65V20.9034H91.1719V21.2913H91.175Z" fill="#8C9EBC"/>
<path d="M92.6035 8.41539C92.6035 9.27329 93.2816 9.95773 94.1316 9.95773C94.9816 9.95773 95.6598 9.27329 95.6598 8.41539C95.6598 7.55748 94.9816 6.87305 94.1316 6.87305C93.2816 6.87305 92.6035 7.55748 92.6035 8.41539Z" fill="#8C9EBC"/>
<path d="M100.247 16.0562H106.162C106.14 13.719 103.997 11.4702 101.75 11.5143C99.2186 11.5143 97.0342 13.7222 97.0342 16.6428C97.0342 19.4563 99.0717 21.5537 101.815 21.5537C104.45 21.5537 105.759 19.9104 106.231 17.7688H105.844C105.372 19.7811 104.128 21.0364 102.456 21.0364C100.462 21.0364 100.25 19.349 100.25 17.8761V16.0562H100.247ZM100.294 15.6682L100.247 13.8073C100.247 12.3564 100.869 11.9023 101.597 11.9023C102.625 11.9023 102.947 12.6151 102.947 13.8073V15.6682H100.294Z" fill="#8C9EBC"/>
<path d="M25 40.3189H29.1562V39.9309H28.8563C27.7 39.9309 27.25 39.6281 27.25 37.8776V25.6083H27.2938L32.4156 40.3189H32.9938L37.9875 25.8669H38.0312V39.9309H36.1875V40.3189H42.9813V39.9309H41.375V25.4758H42.9844V25.0879H37.8156L34.1938 35.5373H34.1531L30.5938 25.0879H25.1063V25.4758H26.7344V38.0669C26.7344 38.9973 26.5188 39.9278 25.0844 39.9278H25V40.3189Z" fill="#8C9EBC"/>
<path d="M45.9879 35.0816H51.9066C51.8848 32.7444 49.741 30.4955 47.491 30.5397C44.9629 30.5397 42.7754 32.7444 42.7754 35.6651C42.7754 38.4785 44.8129 40.5759 47.5566 40.5759C50.1941 40.5759 51.5004 38.9295 51.9723 36.7911H51.5879C51.116 38.8034 49.8723 40.0587 48.2004 40.0587C46.2066 40.0587 45.9941 38.3713 45.9941 36.9015V35.0816H45.9879ZM45.9879 34.6936V32.8327C45.9879 31.385 46.6098 30.9308 47.3379 30.9308C48.366 30.9308 48.6879 31.6436 48.6879 32.8327V34.6936H45.9879Z" fill="#8C9EBC"/>
<path d="M51.9688 40.3182H57.8844V39.9303H56.4063V24.4375C56.0219 25.0872 54.8406 25.0872 53.3188 25.0872H51.9688V25.4752H53.4469V39.9271H51.9688V40.3182Z" fill="#8C9EBC"/>
<path d="M58.2725 40.3182H64.1881V39.9303H62.71V24.4375C62.3225 25.0872 61.1443 25.0872 59.6225 25.0872H58.2725V25.4752H59.7506V39.9271H58.2725V40.3182Z" fill="#8C9EBC"/>
<path d="M74.1943 35.5591C74.1943 32.5943 71.9225 30.541 69.0943 30.541C66.2662 30.541 63.9912 32.5943 63.9912 35.5591C63.9912 38.524 66.2631 40.5773 69.0943 40.5773C71.9225 40.5773 74.1943 38.524 74.1943 35.5591ZM70.8506 37.8963C70.8506 39.5175 70.1881 40.1893 69.0943 40.1893C68.0006 40.1893 67.3381 39.5175 67.3381 37.8963V33.222C67.3381 31.6008 68.0006 30.929 69.0943 30.929C70.1881 30.929 70.8506 31.6008 70.8506 33.222V37.8963Z" fill="#8C9EBC"/>
<path d="M74.1125 40.3187H79.8125V39.9307H78.5469V34.0011C78.5469 32.8972 79.6188 31.3201 80.8188 31.3201C81.4406 31.3201 82.0844 31.5788 82.0844 33.0927V39.9307H80.8625V40.3187H86.5219V39.9307H85.0438V33.8938C85.0438 31.5567 84.0563 30.5411 82.0219 30.5411C80.5844 30.5411 79.1719 31.298 78.5906 32.5534H78.5469V30.2383C78.0969 30.7997 76.5094 30.7997 75.6313 30.7997H74.1094V31.1877H75.5875V39.9276H74.1094V40.3187H74.1125Z" fill="#8C9EBC"/>
<path d="M25.0449 44.0969H26.7168V53.8998C26.7168 57.2525 29.0105 59.2869 32.5043 59.2869C36.448 59.2869 38.1637 57.1895 38.1637 54.0102V45.9168C38.1637 44.6615 38.5074 44.1001 39.2793 44.1001H39.8387V43.7121H35.5887V44.1001H36.2105C37.3043 44.1001 37.6449 44.6647 37.6449 45.9168V54.1395C37.6449 57.0822 35.8855 58.5079 33.8074 58.5079C30.6793 58.5079 30.0574 56.3883 30.0574 53.6191V44.0969H31.7918V43.709H25.0449V44.0969Z" fill="#8C9EBC"/>
<path d="M38.9912 58.939H44.6943V58.5479H43.4287V52.6214C43.4287 51.5175 44.5006 49.9373 45.7006 49.9373C46.3225 49.9373 46.9662 50.1991 46.9662 51.7131V58.5479H45.7443V58.939H51.4037V58.5479H49.9256V52.511C49.9256 50.1739 48.9381 49.1583 46.9037 49.1583C45.4662 49.1583 44.0537 49.9152 43.4725 51.1706H43.4287V48.8555C42.9787 49.42 41.3912 49.42 40.5131 49.42H38.9912V49.808H40.4693V58.5479H38.9912V58.939Z" fill="#8C9EBC"/>
<path d="M51.7217 58.939H57.6373V58.5479H56.1592V48.8555C55.7092 49.42 54.1217 49.42 53.2436 49.42H51.7217V49.808H53.1998V58.5479H51.7217V58.939Z" fill="#8C9EBC"/>
<path d="M53.1494 46.0619C53.1494 46.9198 53.8275 47.6042 54.6775 47.6042C55.5275 47.6042 56.2057 46.9198 56.2057 46.0619C56.2057 45.204 55.5275 44.5195 54.6775 44.5195C53.8307 44.5195 53.1494 45.2071 53.1494 46.0619Z" fill="#8C9EBC"/>
<path d="M61.9912 59.1975H62.5693L65.7412 51.6246C66.2756 50.4135 66.7256 49.8299 67.2193 49.8079H67.4131V49.4199H64.0693V49.8079H64.4756C65.0975 49.8079 65.46 50.0476 65.46 50.609C65.46 50.956 65.3537 51.4322 65.0975 52.0346L63.6412 55.4978L61.1318 49.8079H62.4193V49.4199H57.0381V49.8079H57.96L61.9912 59.1975Z" fill="#8C9EBC"/>
<path d="M69.9412 53.7046H75.8568C75.835 51.3674 73.6912 49.1186 71.4412 49.1627C68.9131 49.1627 66.7256 51.3674 66.7256 54.2913C66.7256 57.1015 68.7631 59.2022 71.5068 59.2022C74.1443 59.2022 75.4506 57.5589 75.9225 55.4173H75.5381C75.0662 57.4296 73.8225 58.6849 72.1506 58.6849C70.1568 58.6849 69.9443 56.9975 69.9443 55.5277V53.7046H69.9412ZM69.9412 53.3167V51.4558C69.9412 50.0049 70.5631 49.5507 71.2912 49.5507C72.3193 49.5507 72.6412 50.2635 72.6412 51.4558V53.3167H69.9412Z" fill="#8C9EBC"/>
<path d="M75.8969 58.939H82.3063V58.5479H80.3344V53.0315C80.3344 51.3661 80.85 50.1959 82.2 49.5904H82.2844C81.9187 49.9783 81.7688 50.3253 81.7688 50.8678C81.7688 51.7099 82.3906 52.2745 83.225 52.2745C84.2563 52.2745 84.8531 51.5175 84.8531 50.6943C84.8531 49.6566 84.1688 49.0289 83.1594 49.0289C81.7875 49.0289 80.7375 49.9815 80.3281 51.0633H80.2844V48.8555C79.8344 49.42 78.2469 49.42 77.3687 49.42H75.8906V49.808H77.3687V58.5479H75.8906V58.939H75.8969Z" fill="#8C9EBC"/>
<path d="M85.3658 59.1976H85.7533C85.8596 58.8507 86.2033 58.6803 86.6314 58.6803C87.1877 58.6803 87.8533 59.1976 89.0533 59.1976C91.0908 59.1976 92.4815 57.425 92.4815 55.6524C92.4815 53.0125 90.6815 52.8169 88.3877 52.4921C87.1877 52.3186 86.4377 52.123 86.4377 51.1737C86.4377 50.1549 87.3158 49.5493 88.4721 49.5493C90.0783 49.5493 90.9377 50.8267 91.4721 52.2303H91.8158L91.6877 49.1582H91.3658C91.3658 49.4168 91.1096 49.6345 90.7033 49.6345C90.0158 49.6345 89.4596 49.1582 88.4721 49.1582C86.3283 49.1582 85.2783 50.997 85.2783 52.3817C85.2783 55.173 87.3783 55.4096 89.0096 55.6051C90.5533 55.8007 91.1971 55.9521 91.1971 56.9488C91.1971 58.0968 90.2533 58.8097 89.0971 58.8097C87.4689 58.8097 86.1377 57.1443 85.7533 55.5641H85.3658V59.1976Z" fill="#8C9EBC"/>
<path d="M92.8193 58.939H98.735V58.5479H97.2568V48.8555C96.8068 49.42 95.2193 49.42 94.3412 49.42H92.8193V49.808H94.2975V58.5479H92.8193V58.939Z" fill="#8C9EBC"/>
<path d="M94.25 46.0619C94.25 46.9198 94.9281 47.6042 95.7781 47.6042C96.625 47.6042 97.3063 46.9198 97.3063 46.0619C97.3063 45.204 96.625 44.5195 95.7781 44.5195C94.9281 44.5195 94.25 45.2071 94.25 46.0619Z" fill="#8C9EBC"/>
<path d="M99.7588 49.8109V56.7341C99.7588 58.7906 101.515 59.2006 102.115 59.2006C103.424 59.2006 104.303 58.6612 104.965 57.5352L104.687 57.3838C104.431 57.7718 104.087 58.2922 103.553 58.2922C102.993 58.2922 102.715 57.8822 102.715 57.1662V49.8109H104.687V49.423H102.715V44.7676H102.328C102.328 47.0606 100.784 49.4198 98.6182 49.4198V49.8078H99.7588V49.8109Z" fill="#8C9EBC"/>
<path d="M104.625 49.8122H105.525L109.641 59.4384L109.513 60.3027C109.428 60.9303 109 63.3968 108.291 63.6144V63.5513C108.375 63.2486 108.397 63.0088 108.397 62.8133C108.397 62.0784 107.881 61.517 106.981 61.517C106.038 61.517 105.566 62.1667 105.566 62.9868C105.566 63.8762 106.381 64.5007 107.325 64.5007C109.019 64.5007 109.447 62.6209 109.641 61.7094L110.219 59.0694L111.334 56.256L113.456 51.4303C113.928 50.3263 114.356 49.8091 114.828 49.8091H115V49.4211H111.653V49.8091H112.103C112.791 49.8091 113.091 50.2002 113.091 50.566C113.091 50.9982 112.813 51.7141 112.469 52.5342L111.225 55.4959L108.719 49.8059H110.131V49.418H104.625V49.8122Z" fill="#8C9EBC"/>
<path d="M74.5184 16.0562H80.434C80.4121 13.719 78.2684 11.4702 76.0184 11.5143C73.4871 11.5143 71.3027 13.7222 71.3027 16.6428C71.3027 19.4563 73.3371 21.5537 76.0809 21.5537C78.7152 21.5537 80.0246 19.9104 80.4965 17.7688H80.1121C79.6402 19.7811 78.3965 21.0364 76.7246 21.0364C74.7309 21.0364 74.5184 19.349 74.5184 17.8761V16.0562ZM74.5652 15.6682L74.5184 13.8073C74.5184 12.3564 75.1402 11.9023 75.8684 11.9023C76.8965 11.9023 77.2184 12.6151 77.2184 13.8073V15.6682H74.5652Z" fill="#8C9EBC"/>
</g>
<defs>
<clipPath id="clip0_5332_74386">
<rect width="90" height="59" fill="white" transform="translate(25 5.5)"/>
</clipPath>
</defs>
</svg>
