<svg width="280" height="64" viewBox="0 0 280 64" fill="none" xmlns="http://www.w3.org/2000/svg">
<g clip-path="url(#clip0_5332_74842)">
<path d="M65.6936 23.4259H66.6734V29.819C66.659 32.2203 67.7968 33.1321 69.6843 33.1321C71.5863 33.1321 72.7245 32.2203 72.7101 29.819V23.4259H73.6895V30.0358C73.6895 32.1623 72.5516 33.9707 69.6842 33.9707C66.8313 33.9707 65.6934 32.1625 65.6934 30.0358V23.4259" fill="#8C9EBC"/>
<path d="M75.4785 26.2898H76.3863V27.5773H76.4151C76.7465 26.6804 77.7407 26.0728 78.792 26.0728C80.8813 26.0728 81.5152 27.1723 81.5152 28.9516V33.7539H80.6075V29.0962C80.6075 27.8087 80.1897 26.8395 78.72 26.8395C77.2796 26.8395 76.4151 27.9389 76.3863 29.3999V33.7537H75.4785V26.2896" fill="#8C9EBC"/>
<path d="M83.2422 26.2886H84.1499V33.752H83.2422V26.2886ZM83.2422 23.4248H84.1499V24.8854H83.2422V23.4248Z" fill="#8C9EBC"/>
<path d="M85.0605 26.2898H86.0692L88.4033 32.8423H88.4321L90.737 26.2898H91.6736L88.8932 33.7539H87.9278L85.0605 26.2898Z" fill="#8C9EBC"/>
<path d="M97.9112 29.5012C97.868 28.1269 97.0179 26.8395 95.5487 26.8395C94.0646 26.8395 93.2433 28.1414 93.0992 29.5012H97.9113H97.9112ZM93.0991 30.2679C93.1135 31.5983 93.8051 33.2045 95.5486 33.2045C96.8742 33.2045 97.5942 32.4229 97.8823 31.295H98.79C98.401 32.987 97.4212 33.9707 95.5486 33.9707C93.1856 33.9707 92.1914 32.148 92.1914 30.0218C92.1914 28.0544 93.1856 26.0725 95.5486 26.0725C97.94 26.0725 98.8909 28.17 98.8188 30.2676H93.0992" fill="#8C9EBC"/>
<path d="M100.044 26.2898H100.88V28.0402H100.908C101.37 26.8395 102.378 26.1307 103.718 26.1886V27.0999C102.076 27.0131 100.952 28.2282 100.952 29.7761V33.7539H100.044V26.2898Z" fill="#8C9EBC"/>
<path d="M109.035 28.4741C108.991 27.3458 108.126 26.8395 107.089 26.8395C106.283 26.8395 105.332 27.1577 105.332 28.1269C105.332 28.937 106.254 29.2264 106.873 29.3855L108.084 29.6603C109.121 29.819 110.202 30.427 110.202 31.729C110.202 33.3487 108.602 33.9707 107.219 33.9707C105.49 33.9707 104.309 33.1606 104.165 31.3379H105.072C105.144 32.5675 106.052 33.2045 107.262 33.2045C108.112 33.2045 109.294 32.8283 109.294 31.7864C109.294 30.9189 108.487 30.6291 107.666 30.427L106.499 30.1662C105.317 29.8484 104.424 29.4433 104.424 28.1703C104.424 26.6514 105.908 26.0728 107.219 26.0728C108.703 26.0728 109.885 26.8539 109.942 28.4741H109.035Z" fill="#8C9EBC"/>
<path d="M111.529 26.2886H112.437V33.752H111.529V26.2886ZM111.529 23.4248H112.437V24.8854H111.529V23.4248Z" fill="#8C9EBC"/>
<path d="M115.62 26.2891H117.132V27.0558H115.62V32.0895C115.62 32.6826 115.706 33.0298 116.355 33.0732C116.614 33.0732 116.873 33.0587 117.132 33.0298V33.8109C116.859 33.8109 116.6 33.8398 116.326 33.8398C115.116 33.8398 114.697 33.4348 114.712 32.1618V27.0559H113.415V26.2892H114.712V24.0474H115.62V26.2892" fill="#8C9EBC"/>
<path d="M117.609 26.2892H118.575L121.024 32.6538L123.315 26.2892H124.222L120.995 34.8959C120.476 36.1545 120.174 36.5156 119.035 36.5156C118.675 36.5016 118.488 36.5016 118.344 36.4438V35.6766C118.56 35.72 118.762 35.7494 118.964 35.7494C119.77 35.7494 119.957 35.272 120.26 34.5776L120.577 33.7242L117.609 26.289" fill="#8C9EBC"/>
<path d="M129.655 30.0218C129.655 31.6126 130.519 33.2043 132.263 33.2043C134.006 33.2043 134.87 31.6126 134.87 30.0218C134.87 28.4305 134.006 26.8393 132.263 26.8393C130.519 26.8393 129.655 28.4305 129.655 30.0218ZM135.778 30.0218C135.778 32.1623 134.539 33.9707 132.263 33.9707C129.986 33.9707 128.747 32.1625 128.747 30.0218C128.747 27.8808 129.986 26.0725 132.263 26.0725C134.539 26.0725 135.778 27.8807 135.778 30.0218Z" fill="#8C9EBC"/>
<path d="M139.999 27.0545H138.53V33.752H137.622V27.0545H136.354V26.2878H137.622V25.6079C137.608 24.3209 137.968 23.424 139.423 23.424C139.682 23.424 139.899 23.4385 140.187 23.4819V24.2626C139.942 24.2196 139.74 24.1907 139.524 24.1907C138.515 24.1907 138.544 24.8267 138.53 25.6368V26.2878H139.999V27.0545Z" fill="#8C9EBC"/>
<path d="M152.562 26.5462C152.216 24.9549 150.905 24.044 149.407 24.044C146.684 24.044 145.532 26.3292 145.532 28.5857C145.532 30.842 146.684 33.1282 149.407 33.1282C151.309 33.1282 152.519 31.6522 152.706 29.8151H153.686C153.413 32.3466 151.813 33.9668 149.407 33.9668C146.166 33.9668 144.552 31.4063 144.552 28.5858C144.552 25.7649 146.166 23.2051 149.407 23.2051C151.352 23.2051 153.282 24.3768 153.542 26.5463H152.562" fill="#8C9EBC"/>
<path d="M155.544 30.0218C155.544 31.6126 156.409 33.2043 158.152 33.2043C159.895 33.2043 160.76 31.6126 160.76 30.0218C160.76 28.4305 159.895 26.8393 158.152 26.8393C156.409 26.8393 155.544 28.4305 155.544 30.0218ZM161.668 30.0218C161.668 32.1623 160.429 33.9707 158.152 33.9707C155.876 33.9707 154.637 32.1625 154.637 30.0218C154.637 27.8808 155.876 26.0725 158.152 26.0725C160.429 26.0725 161.668 27.8807 161.668 30.0218Z" fill="#8C9EBC"/>
<path d="M163.036 23.4244H163.944V33.752H163.036V23.4244Z" fill="#8C9EBC"/>
<path d="M166.224 30.0218C166.224 31.6126 167.089 33.2043 168.832 33.2043C170.575 33.2043 171.439 31.6126 171.439 30.0218C171.439 28.4305 170.575 26.8393 168.832 26.8393C167.089 26.8393 166.224 28.4305 166.224 30.0218ZM172.347 30.0218C172.347 32.1623 171.108 33.9707 168.832 33.9707C166.556 33.9707 165.316 32.1625 165.316 30.0218C165.316 27.8808 166.556 26.0725 168.832 26.0725C171.108 26.0725 172.347 27.8807 172.347 30.0218Z" fill="#8C9EBC"/>
<path d="M173.7 26.2898H174.536V28.0402H174.565C175.026 26.8395 176.034 26.1307 177.374 26.1886V27.0999C175.732 27.0131 174.608 28.2282 174.608 29.7761V33.7539H173.7V26.2898Z" fill="#8C9EBC"/>
<path d="M182.994 29.673H182.965C182.85 29.89 182.447 29.9623 182.201 30.0053C180.66 30.2806 178.744 30.2661 178.744 31.7272C178.744 32.6386 179.551 33.2027 180.401 33.2027C181.783 33.2027 183.008 32.3198 182.994 30.8592V29.673ZM178.153 28.5736C178.239 26.8232 179.464 26.071 181.164 26.071C182.475 26.071 183.901 26.4761 183.901 28.4724V32.4354C183.901 32.7825 184.074 32.9851 184.435 32.9851C184.536 32.9851 184.651 32.9562 184.723 32.9272V33.6944C184.521 33.7373 184.377 33.7518 184.132 33.7518C183.21 33.7518 183.066 33.231 183.066 32.4498H183.037C182.403 33.419 181.755 33.9688 180.329 33.9688C178.96 33.9688 177.836 33.2888 177.836 31.7844C177.836 29.6873 179.867 29.615 181.827 29.3835C182.576 29.2967 182.994 29.1955 182.994 28.3709C182.994 27.1413 182.115 26.8375 181.049 26.8375C179.925 26.8375 179.09 27.3583 179.061 28.5734H178.153" fill="#8C9EBC"/>
<path d="M188.743 33.2025C190.673 33.2025 191.35 31.5674 191.35 30.02C191.35 28.4722 190.673 26.8375 188.743 26.8375C187.014 26.8375 186.308 28.4722 186.308 30.02C186.308 31.5674 187.014 33.2025 188.743 33.2025ZM192.258 33.7518H191.423V32.3341H191.394C191.005 33.3033 189.823 33.9688 188.743 33.9688C186.481 33.9688 185.4 32.132 185.4 30.0198C185.4 27.9078 186.481 26.0705 188.743 26.0705C189.852 26.0705 190.933 26.6347 191.322 27.7052H191.35V23.4237H192.258V33.7513" fill="#8C9EBC"/>
<path d="M194.519 30.0218C194.519 31.6126 195.383 33.2043 197.126 33.2043C198.87 33.2043 199.734 31.6126 199.734 30.0218C199.734 28.4305 198.87 26.8393 197.126 26.8393C195.383 26.8393 194.519 28.4305 194.519 30.0218ZM200.642 30.0218C200.642 32.1623 199.403 33.9707 197.127 33.9707C194.85 33.9707 193.611 32.1625 193.611 30.0218C193.611 27.8808 194.85 26.0725 197.127 26.0725C199.403 26.0725 200.642 27.8807 200.642 30.0218Z" fill="#8C9EBC"/>
<path d="M208.394 31.9871H210.815C211.707 31.9871 212.486 31.6982 212.486 30.6273C212.486 29.5713 211.823 29.1523 210.858 29.1523H208.394V31.9871ZM208.394 27.6045H210.685C211.477 27.6045 212.068 27.2428 212.068 26.3749C212.068 25.3912 211.318 25.1887 210.512 25.1887H208.394V27.6045ZM206.132 23.4242H210.973C212.932 23.4242 214.258 24.0607 214.258 25.9842C214.258 26.9969 213.754 27.7057 212.86 28.1396C214.114 28.5013 214.748 29.4705 214.748 30.7575C214.748 32.8551 212.976 33.752 211.117 33.752H206.132V23.4244" fill="#8C9EBC"/>
<path d="M219.676 32.4093C221.073 32.4093 221.491 31.209 221.491 30.0228C221.491 28.8222 221.073 27.6215 219.676 27.6215C218.293 27.6215 217.875 28.8222 217.875 30.0228C217.875 31.209 218.293 32.4093 219.676 32.4093ZM219.676 26.0736C222.024 26.0736 223.537 27.636 223.537 30.0229C223.537 32.3949 222.024 33.957 219.676 33.957C217.342 33.957 215.829 32.3947 215.829 30.0229C215.829 27.6361 217.342 26.0736 219.676 26.0736Z" fill="#8C9EBC"/>
<path d="M231.85 33.7526H229.905V32.7115H229.862C229.343 33.55 228.45 33.9551 227.586 33.9551C225.41 33.9551 224.862 32.7255 224.862 30.8739V26.2739H226.908V30.4976C226.908 31.7276 227.269 32.3348 228.219 32.3348C229.329 32.3348 229.804 31.7127 229.804 30.1938V26.2738H231.85V33.7524" fill="#8C9EBC"/>
<path d="M233.466 23.4244H235.512V33.752H233.466V23.4244Z" fill="#8C9EBC"/>
<path d="M240.655 27.6176C239.315 27.6176 238.854 28.7749 238.854 30.004C238.854 31.1758 239.387 32.4054 240.655 32.4054C242.009 32.4054 242.413 31.2192 242.413 29.9901C242.413 28.7749 241.98 27.6176 240.655 27.6176ZM242.441 32.7958H242.413C241.937 33.6059 241.102 33.9531 240.15 33.9531C237.903 33.9531 236.808 32.0147 236.808 29.946C236.808 27.9357 237.917 26.0696 240.108 26.0696C240.987 26.0696 241.851 26.4457 242.312 27.1834H242.34V23.4228H244.386V33.7503H242.441V32.7956" fill="#8C9EBC"/>
<path d="M250.941 29.2126C250.753 28.1711 250.307 27.6214 249.313 27.6214C248.016 27.6214 247.641 28.634 247.612 29.2126H250.941ZM247.612 30.5146C247.67 31.8161 248.304 32.4092 249.442 32.4092C250.264 32.4092 250.926 31.9028 251.056 31.44H252.857C252.281 33.2053 251.056 33.957 249.37 33.957C247.022 33.957 245.566 32.3369 245.566 30.0229C245.566 27.7807 247.108 26.0736 249.37 26.0736C251.906 26.0736 253.13 28.2146 252.987 30.5145H247.612" fill="#8C9EBC"/>
<path d="M254.198 26.2735H256.144V27.6623H256.172C256.547 26.722 257.555 26.071 258.55 26.071C258.694 26.071 258.867 26.1 258.996 26.1433V28.0528C258.809 28.0094 258.506 27.9805 258.261 27.9805C256.763 27.9805 256.244 29.0654 256.244 30.3814V33.752H254.198V26.2734" fill="#8C9EBC"/>
<path d="M47.833 23.0738V18.9388L42.9255 14.0009H25.9214L20.998 18.9361V35.9787L25.9214 40.9119H31.322V45.059L36.2842 50.002H50.6329L55.608 45.0668V31.8645H58.1416V23.0749H47.8333" fill="#8C9EBC"/>
<path d="M42.7158 14.5122L47.3224 19.1508V23.5858H57.6307V31.3531H55.0971V44.8497L50.4244 49.4863H36.4934L31.8331 44.8497V40.4018H26.1317L21.5088 35.7651V19.15L26.1317 14.5118H42.7159" fill="#1E2635"/>
<path d="M26.6597 39.1211H33.1071V44.3162L37.0178 48.207H49.9003L53.8215 44.3162V30.0717H56.3569V24.8665H48.5803V43.0083H38.2899V39.1211H42.1842L46.0484 35.2352V30.0718H40.8651V33.9297H38.29V24.8666H30.5356V30.0718H33.1071V33.9297H27.9541V20.9481H40.865V24.8666H46.0483V19.6825L42.1842 15.793H26.6594L22.7812 19.6807V35.2353L26.6594 39.1212" fill="#8C9EBC"/>
<path d="M37.6505 38.4801H41.9204L45.41 34.9713V30.7121H41.5043V34.5686H37.6505V25.5079H31.1731V29.4326H33.7455V34.5686H27.3174V20.3085H41.5045V24.2262H45.4102V19.9459L41.9206 16.4325H26.9244L23.4199 19.9459V34.9715L26.9225 38.4803H33.7452V44.0477L37.2811 47.5684H49.6374L53.1846 44.0459V29.4326H55.7174V25.5079H49.2177V43.6458H37.6503V38.4801" fill="#8C9EBC"/>
</g>
<defs>
<clipPath id="clip0_5332_74842">
<rect width="238" height="36" fill="white" transform="translate(21 14)"/>
</clipPath>
</defs>
</svg>
