<svg width="280" height="64" viewBox="0 0 280 64" fill="none" xmlns="http://www.w3.org/2000/svg">
<path d="M55.9088 32.2153C54.2763 30.8567 53.8564 29.1476 53.8564 27.6137C53.8564 26.5619 54.183 24.7212 55.8156 23.3626C57.0283 22.3546 58.5676 21.6973 61.0398 21.6973C62.0661 21.6973 62.6724 21.7411 63.4654 21.8726C64.1184 21.9602 64.6316 22.0917 65.1447 22.1355C65.3312 22.1355 65.3779 22.2232 65.3779 22.3108C65.3779 22.4423 65.3312 22.6176 65.2846 23.1873C65.2379 23.7132 65.2846 24.5459 65.2379 24.8527C65.2379 25.0718 65.1913 25.2033 65.0514 25.2033C64.9114 25.2033 64.8648 25.0718 64.8648 24.8527C64.8648 24.3706 64.6316 23.8447 64.2117 23.4064C63.652 22.8805 62.3926 22.4423 60.8533 22.4423C59.4073 22.4423 58.4743 22.7929 57.728 23.4064C56.5152 24.4583 56.1887 25.9483 56.1887 27.4384C56.1887 31.1635 59.174 32.9604 61.413 32.9604C62.9057 32.9604 63.7919 32.7851 64.445 32.0838C64.7248 31.7771 64.9581 31.3388 65.0047 31.0759C65.0514 30.8129 65.098 30.7691 65.2379 30.7691C65.3312 30.7691 65.3779 30.8567 65.3779 30.9882C65.3779 31.1635 65.1913 32.5221 65.0047 33.048C64.9114 33.311 64.8648 33.3986 64.5849 33.4863C63.9319 33.7492 62.6724 33.8369 61.5996 33.8369C59.314 33.9245 57.4015 33.4424 55.9088 32.2153Z" fill="#8C9EBC"/>
<path d="M76.8562 29.0186C76.8562 26.0823 75.0837 24.2854 72.7981 24.2854C71.2121 24.2854 69.3929 25.1181 69.3929 28.3612C69.3929 31.0783 70.9789 33.2258 73.6377 33.2258C74.6172 33.2258 76.8562 32.7875 76.8562 29.0186ZM67.4805 28.7556C67.4805 26.5205 69.0664 23.6719 73.2179 23.6719C76.6696 23.6719 78.8153 25.5564 78.8153 28.5365C78.8153 31.5166 76.5764 33.8832 73.0779 33.8832C69.0664 33.8832 67.4805 31.0783 67.4805 28.7556Z" fill="#8C9EBC"/>
<path d="M83.7595 29.8925C83.7595 31.5578 83.7595 32.4782 84.0394 32.6973C84.2726 32.8726 84.6458 33.0041 85.7186 33.0041C86.4649 33.0041 86.978 33.0041 87.3512 32.6535C87.5378 32.4782 87.6777 32.1276 87.7244 31.8646C87.7244 31.7331 87.771 31.6893 87.8643 31.6893C87.9576 31.6893 87.9576 31.7331 87.9576 31.9084C87.9576 32.0399 87.8643 33.0479 87.771 33.3985C87.6777 33.7053 87.6311 33.7491 86.8847 33.7491C84.879 33.7491 83.9927 33.6615 82.8732 33.6615C82.5467 33.6615 81.6604 33.7053 81.1473 33.7053C80.9608 33.7053 80.8675 33.6615 80.8675 33.5738C80.8675 33.53 80.9141 33.4861 81.1007 33.4861C81.2873 33.4861 81.4739 33.4423 81.6138 33.4423C81.8937 33.3985 81.9403 33.0917 82.0336 32.7411C82.0803 32.2152 82.0803 31.1634 82.0803 29.9801V27.6136C82.0803 25.6414 82.0803 25.247 82.0336 24.8526C81.987 24.4143 81.8937 24.1952 81.4272 24.1076C81.3339 24.0637 81.1473 24.0637 80.9608 24.0637C80.8208 24.0637 80.7275 24.0199 80.7275 23.9323C80.7275 23.8446 80.8208 23.8008 81.0541 23.8008C81.7071 23.8008 82.5934 23.8446 82.9665 23.8446C83.293 23.8446 84.3192 23.8008 84.8323 23.8008C85.0189 23.8008 85.1122 23.8446 85.1122 23.9323C85.1122 24.0199 85.0189 24.0637 84.879 24.0637C84.739 24.0637 84.5058 24.0637 84.3192 24.1076C83.9461 24.1514 83.8528 24.4143 83.8061 24.8526C83.7595 25.247 83.7595 25.6414 83.7595 27.6136V29.8925Z" fill="#8C9EBC"/>
<path d="M90.6657 27.6136C90.6657 25.6414 90.6657 25.247 90.6191 24.8526C90.5724 24.4143 90.4792 24.1952 90.0127 24.1076C89.9194 24.0637 89.6862 24.0637 89.453 24.0637C89.313 24.0637 89.2197 24.0199 89.2197 23.9323C89.2197 23.8446 89.313 23.8008 89.5462 23.8008C90.2926 23.8008 91.1322 23.8446 91.552 23.8446C91.8785 23.8446 92.7648 23.8008 93.2779 23.8008C93.4645 23.8008 93.6044 23.8446 93.6044 23.9323C93.6044 24.0199 93.5111 24.0637 93.3712 24.0637C93.2312 24.0637 93.1379 24.0637 92.9514 24.1076C92.5782 24.1514 92.4849 24.4143 92.4383 24.8526C92.3916 25.247 92.3916 25.6414 92.3916 27.6136V29.4542C92.3916 31.3387 92.8114 32.1276 93.4645 32.6535C94.0709 33.1356 94.7239 33.1794 95.1903 33.1794C95.7967 33.1794 96.5431 33.0041 97.1028 32.4782C97.8491 31.777 97.8958 30.5937 97.8958 29.2351V27.6136C97.8958 25.6414 97.8958 25.247 97.8491 24.8526C97.8025 24.4143 97.7092 24.1952 97.2427 24.1076C97.1495 24.0637 96.9162 24.0637 96.7296 24.0637C96.5897 24.0637 96.4964 24.0199 96.4964 23.9323C96.4964 23.8446 96.5897 23.8008 96.7763 23.8008C97.476 23.8008 98.3622 23.8446 98.3622 23.8446C98.5488 23.8446 99.3884 23.8008 99.9482 23.8008C100.135 23.8008 100.228 23.8446 100.228 23.9323C100.228 24.0199 100.135 24.0637 99.9948 24.0637C99.8549 24.0637 99.7616 24.0637 99.575 24.1076C99.2019 24.1514 99.1086 24.4143 99.0619 24.8526C99.0153 25.247 99.0153 25.6414 99.0153 27.6136V29.016C99.0153 30.4622 98.8753 31.9961 97.7092 32.9164C96.7296 33.7053 95.7501 33.8368 94.8172 33.8368C94.0709 33.8368 92.7648 33.7929 91.7386 32.9164C91.0389 32.3029 90.5258 31.3387 90.5258 29.4542V27.6136H90.6657Z" fill="#8C9EBC"/>
<path d="M103.675 23.8877C103.722 23.6686 103.815 23.5371 103.908 23.5371C104.001 23.5371 104.095 23.5809 104.281 23.9315L108.06 31.2942L111.838 23.8439C111.931 23.6248 112.024 23.5371 112.164 23.5371C112.304 23.5371 112.351 23.6686 112.398 23.9315L113.657 31.9954C113.797 32.8281 113.937 33.1787 114.357 33.3101C114.777 33.4416 115.056 33.4416 115.196 33.4416C115.336 33.4416 115.43 33.4416 115.43 33.5293C115.43 33.6169 115.243 33.6607 115.056 33.6607C114.73 33.6607 112.817 33.6169 112.258 33.5731C111.931 33.5293 111.838 33.5293 111.838 33.4416C111.838 33.354 111.884 33.354 111.978 33.3101C112.071 33.2663 112.118 33.1348 112.024 32.7404L111.185 26.9993H111.138L108.106 32.9157C107.78 33.5293 107.733 33.6607 107.593 33.6607C107.453 33.6607 107.313 33.3978 107.127 33.0034C106.8 32.3898 105.681 30.4177 105.541 30.0671C105.401 29.8041 104.561 28.1388 104.095 27.1746H104.048L103.348 32.346C103.302 32.5651 103.302 32.7404 103.302 32.9595C103.302 33.2225 103.488 33.3101 103.722 33.3978C103.955 33.4416 104.188 33.4416 104.281 33.4416C104.375 33.4416 104.468 33.4854 104.468 33.5293C104.468 33.6607 104.328 33.6607 104.141 33.6607C103.582 33.6607 102.929 33.6169 102.695 33.6169C102.415 33.6169 101.762 33.6607 101.343 33.6607C101.203 33.6607 101.109 33.6169 101.109 33.5293C101.109 33.4854 101.203 33.4416 101.343 33.4416C101.436 33.4416 101.529 33.4416 101.762 33.3978C102.136 33.3101 102.276 32.8281 102.322 32.3898L103.675 23.8877Z" fill="#8C9EBC"/>
<path d="M121.971 28.8845C121.691 28.7092 121.364 28.5777 120.805 28.5777C120.571 28.5777 120.431 28.5777 120.198 28.5777C120.152 28.5777 120.105 28.6216 120.105 28.6654V31.7331C120.105 32.6097 120.152 32.8288 120.571 33.0041C120.945 33.1356 121.271 33.1794 121.598 33.1794C122.204 33.1794 123.277 32.8726 123.277 31.514C123.324 30.6813 123.044 29.5857 121.971 28.8845ZM120.152 27.8327C120.152 27.9204 120.198 27.9642 120.245 27.9642C120.385 28.008 120.571 28.008 120.898 28.008C121.364 28.008 121.644 27.9642 121.878 27.7451C122.251 27.4821 122.437 27 122.437 26.3865C122.437 25.51 121.878 24.3705 120.711 24.3705C120.525 24.3705 120.385 24.3705 120.245 24.4143C120.152 24.4582 120.105 24.502 120.105 24.6335V27.8327H120.152ZM118.472 27.6136C118.472 25.6414 118.472 25.247 118.426 24.8526C118.379 24.4143 118.286 24.1952 117.819 24.1076C117.726 24.0637 117.493 24.0637 117.26 24.0637C117.12 24.0637 117.026 24.0199 117.026 23.9323C117.026 23.8446 117.12 23.8008 117.353 23.8008C118.099 23.8008 118.939 23.8446 119.219 23.8446C119.918 23.8446 120.431 23.8008 120.898 23.8008C123.417 23.8008 123.837 25.0717 123.837 25.7729C123.837 26.8247 123.184 27.4821 122.437 28.0518C123.557 28.4024 124.956 29.3228 124.956 30.8566C124.956 32.2591 123.79 33.7053 121.271 33.7053C120.945 33.7053 119.685 33.6176 119.265 33.6176C118.939 33.6176 118.053 33.6615 117.539 33.6615C117.353 33.6615 117.26 33.6176 117.26 33.53C117.26 33.4862 117.306 33.4423 117.493 33.4423C117.679 33.4423 117.866 33.3985 118.006 33.3985C118.286 33.3547 118.332 33.0479 118.426 32.6973C118.472 32.1714 118.472 31.1196 118.472 29.9363V27.6136Z" fill="#8C9EBC"/>
<path d="M128.117 27.6147C128.117 25.6425 128.117 25.2481 128.07 24.8537C128.024 24.4154 127.884 24.1963 127.604 24.1087C127.464 24.0648 127.277 24.0648 127.091 24.0648C126.951 24.0648 126.857 24.021 126.857 23.9334C126.857 23.8457 126.951 23.8457 127.184 23.8457C127.697 23.8457 128.583 23.8895 129.003 23.8895C129.33 23.8895 130.169 23.8457 130.682 23.8457C130.869 23.8457 130.962 23.8895 130.962 23.9334C130.962 24.021 130.869 24.0648 130.729 24.0648C130.589 24.0648 130.496 24.0648 130.309 24.1087C129.936 24.1525 129.843 24.4154 129.796 24.8537C129.749 25.2481 129.749 25.6425 129.749 27.6147V29.8936C129.749 31.1645 129.749 32.1725 129.796 32.7422C129.843 33.0928 129.936 33.312 130.356 33.3996C130.542 33.4434 130.869 33.4434 131.056 33.4434C131.195 33.4434 131.289 33.4873 131.289 33.5311C131.289 33.6187 131.195 33.6626 131.009 33.6626C130.076 33.6626 129.236 33.6187 128.863 33.6187C128.537 33.6187 127.65 33.6626 127.137 33.6626C126.951 33.6626 126.857 33.6187 126.857 33.5311C126.857 33.4873 126.904 33.4434 127.091 33.4434C127.277 33.4434 127.464 33.3996 127.604 33.3996C127.884 33.3558 127.977 33.1367 128.024 32.7422C128.07 32.2163 128.07 31.1645 128.07 29.8936V27.6147H128.117Z" fill="#8C9EBC"/>
<path d="M139.361 29.6344C139.408 29.6344 139.454 29.5906 139.408 29.5468L138.148 26.3475C138.148 26.3037 138.102 26.2161 138.102 26.2161C138.055 26.2161 138.008 26.2599 138.008 26.3475L136.749 29.5468C136.749 29.5906 136.749 29.6344 136.796 29.6344H139.361ZM136.562 30.2918C136.469 30.2918 136.469 30.3356 136.423 30.3795L135.676 32.2201C135.536 32.5269 135.49 32.8775 135.49 33.009C135.49 33.2281 135.63 33.4034 136.049 33.4034H136.236C136.423 33.4034 136.423 33.4472 136.423 33.4911C136.423 33.5787 136.329 33.6225 136.189 33.6225C135.723 33.6225 135.163 33.5787 134.697 33.5787C134.557 33.5787 133.764 33.6225 133.064 33.6225C132.877 33.6225 132.784 33.5787 132.784 33.4911C132.784 33.4034 132.831 33.4034 132.971 33.4034C133.111 33.4034 133.297 33.4034 133.391 33.3596C134.044 33.2719 134.277 32.8337 134.557 32.1763L138.055 23.981C138.242 23.5866 138.288 23.4551 138.428 23.4551C138.568 23.4551 138.615 23.5866 138.755 23.8933C139.081 24.5945 141.32 29.9412 142.207 31.9134C142.72 33.0966 143.139 33.2719 143.419 33.3158C143.606 33.3596 143.839 33.3596 143.979 33.3596C144.072 33.3596 144.166 33.3596 144.166 33.4472C144.166 33.5349 144.026 33.5787 143.513 33.5787C143 33.5787 142.02 33.5787 140.901 33.5349C140.667 33.5349 140.481 33.5349 140.481 33.4472C140.481 33.3596 140.527 33.3596 140.667 33.3158C140.761 33.2719 140.854 33.1843 140.807 33.009L139.688 30.248C139.641 30.1603 139.594 30.1603 139.548 30.1603H136.562V30.2918Z" fill="#8C9EBC"/>
<path d="M151.393 26.4311C151.393 24.0645 151.393 23.6263 151.346 23.1442C151.3 22.6183 151.16 22.3554 150.647 22.2677C150.507 22.2239 150.227 22.2239 149.994 22.2239C149.807 22.2239 149.714 22.1801 149.714 22.0924C149.714 22.0048 149.807 21.9609 150.087 21.9609C150.973 21.9609 151.999 22.0048 152.513 22.0048C152.932 22.0048 153.959 21.9609 154.565 21.9609C154.798 21.9609 154.938 22.0048 154.938 22.0924C154.938 22.1801 154.845 22.2239 154.658 22.2239C154.472 22.2239 154.378 22.2239 154.192 22.2677C153.725 22.3554 153.632 22.6183 153.585 23.1442C153.539 23.6263 153.539 24.0645 153.539 26.4311V28.6224C153.539 30.9013 154.005 31.8216 154.845 32.4352C155.591 33.0049 156.338 33.0925 156.897 33.0925C157.644 33.0925 158.53 32.8734 159.183 32.2599C160.116 31.3834 160.162 29.981 160.162 28.4032V26.4749C160.162 24.1084 160.162 23.6701 160.116 23.188C160.069 22.6621 159.929 22.3992 159.416 22.3115C159.276 22.2677 158.996 22.2677 158.81 22.2677C158.623 22.2677 158.53 22.2239 158.53 22.1362C158.53 22.0486 158.623 22.0048 158.856 22.0048C159.696 22.0048 160.769 22.0486 160.769 22.0486C160.955 22.0486 162.028 22.0048 162.635 22.0048C162.868 22.0048 162.961 22.0486 162.961 22.1362C162.961 22.2239 162.868 22.2677 162.681 22.2677C162.495 22.2677 162.401 22.2677 162.215 22.3115C161.748 22.3992 161.655 22.6621 161.608 23.188C161.562 23.6701 161.562 24.1084 161.562 26.4749V28.1403C161.562 29.8495 161.375 31.6901 159.976 32.8296C158.81 33.7937 157.597 33.969 156.524 33.969C155.638 33.969 154.052 33.9252 152.839 32.8734C151.999 32.1722 151.346 30.9889 151.346 28.7538V26.4311H151.393Z" fill="#8C9EBC"/>
<path d="M166.37 31.9088C166.416 32.9168 166.556 33.2674 166.836 33.3551C167.069 33.4427 167.349 33.4427 167.536 33.4427C167.676 33.4427 167.769 33.4865 167.769 33.5304C167.769 33.618 167.629 33.6618 167.443 33.6618C166.556 33.6618 165.997 33.618 165.717 33.618C165.577 33.618 164.924 33.6618 164.224 33.6618C164.037 33.6618 163.897 33.6618 163.897 33.5304C163.897 33.4427 163.991 33.4427 164.131 33.4427C164.317 33.4427 164.551 33.4427 164.737 33.3551C165.11 33.2674 165.157 32.873 165.157 31.7335L165.297 24.0203C165.297 23.7573 165.343 23.582 165.483 23.582C165.623 23.582 165.763 23.7573 165.997 23.9765C166.183 24.1518 168.282 26.2554 170.288 28.1399C171.221 29.0164 173.087 30.9008 173.32 31.12H173.367L173.227 25.2912C173.227 24.5024 173.087 24.2394 172.76 24.1079C172.574 24.0203 172.2 24.0203 172.014 24.0203C171.827 24.0203 171.781 23.9765 171.781 23.8888C171.781 23.8012 171.921 23.7573 172.154 23.7573C172.853 23.7573 173.553 23.8012 173.833 23.8012C173.973 23.8012 174.533 23.7573 175.186 23.7573C175.372 23.7573 175.512 23.7573 175.512 23.8888C175.512 23.9765 175.419 24.0203 175.279 24.0203C175.139 24.0203 175.046 24.0203 174.859 24.0641C174.486 24.1518 174.346 24.4585 174.346 25.1597L174.206 33.3989C174.206 33.7057 174.16 33.7933 174.02 33.7933C173.88 33.7933 173.693 33.6618 173.553 33.4865C172.667 32.6977 170.894 30.9885 169.448 29.6737C167.956 28.2713 166.416 26.6498 166.136 26.3868H166.09L166.37 31.9088Z" fill="#8C9EBC"/>
<path d="M179.197 27.6088C179.197 25.6367 179.197 25.2423 179.15 24.8478C179.104 24.4096 178.964 24.1904 178.684 24.1028C178.544 24.059 178.357 24.059 178.171 24.059C178.031 24.059 177.938 24.0152 177.938 23.9275C177.938 23.8398 178.031 23.8398 178.264 23.8398C178.777 23.8398 179.663 23.8837 180.083 23.8837C180.41 23.8837 181.249 23.8398 181.762 23.8398C181.949 23.8398 182.042 23.8837 182.042 23.9275C182.042 24.0152 181.949 24.059 181.809 24.059C181.669 24.059 181.576 24.059 181.389 24.1028C181.016 24.1466 180.923 24.4096 180.876 24.8478C180.83 25.2423 180.83 25.6367 180.83 27.6088V29.8877C180.83 31.1587 180.83 32.1666 180.876 32.7364C180.923 33.087 181.016 33.3061 181.436 33.3937C181.622 33.4376 181.949 33.4376 182.136 33.4376C182.276 33.4376 182.369 33.4814 182.369 33.5252C182.369 33.6129 182.276 33.6567 182.089 33.6567C181.156 33.6567 180.316 33.6129 179.943 33.6129C179.617 33.6129 178.73 33.6567 178.217 33.6567C178.031 33.6567 177.938 33.6129 177.938 33.5252C177.938 33.4814 177.984 33.4376 178.171 33.4376C178.357 33.4376 178.544 33.3937 178.684 33.3937C178.964 33.3499 179.057 33.1308 179.104 32.7364C179.15 32.2105 179.15 31.1587 179.15 29.8877V27.6088H179.197Z" fill="#8C9EBC"/>
<path d="M185.255 25.1155C184.928 24.4143 184.695 24.239 184.182 24.1076C183.995 24.0637 183.762 24.0637 183.622 24.0637C183.482 24.0637 183.436 24.0199 183.436 23.9323C183.436 23.8446 183.575 23.8008 183.809 23.8008C184.555 23.8008 185.348 23.8446 185.814 23.8446C186.141 23.8446 186.841 23.8008 187.54 23.8008C187.727 23.8008 187.867 23.8446 187.867 23.9323C187.867 24.0199 187.774 24.0637 187.68 24.0637C187.447 24.0637 187.26 24.0637 187.121 24.1514C187.027 24.1952 186.981 24.3267 186.981 24.4143C186.981 24.5896 187.121 24.9402 187.307 25.4223L189.686 31.3387H189.733C190.339 29.8925 192.112 25.7291 192.485 24.8526C192.531 24.6773 192.625 24.502 192.625 24.3705C192.625 24.2829 192.578 24.1514 192.438 24.1076C192.252 24.0637 192.065 24.0637 191.878 24.0637C191.738 24.0637 191.645 24.0637 191.645 23.9761C191.645 23.8884 191.785 23.8446 192.018 23.8446C192.718 23.8446 193.278 23.8884 193.464 23.8884C193.698 23.8884 194.351 23.8446 194.77 23.8446C194.957 23.8446 195.05 23.8884 195.05 23.9761C195.05 24.0637 194.957 24.1076 194.817 24.1076C194.677 24.1076 194.397 24.1076 194.117 24.2829C193.931 24.4143 193.744 24.6335 193.371 25.4661C192.811 26.6932 192.438 27.3944 191.692 29.016C190.806 30.9005 190.152 32.3467 189.826 33.0041C189.453 33.7491 189.36 33.9682 189.173 33.9682C188.986 33.9682 188.893 33.7929 188.66 33.1794L185.255 25.1155Z" fill="#8C9EBC"/>
<path d="M197.295 27.6114C197.295 25.6392 197.295 25.2448 197.248 24.8504C197.201 24.4121 197.108 24.193 196.642 24.1054C196.548 24.0615 196.315 24.0615 196.082 24.0615C195.942 24.0615 195.849 24.0177 195.849 23.9301C195.849 23.8424 195.942 23.7986 196.175 23.7986C196.921 23.7986 197.808 23.8424 198.181 23.8424C198.647 23.8424 201.399 23.8424 201.633 23.8424C201.913 23.7986 202.099 23.7986 202.239 23.7548C202.286 23.7548 202.379 23.7109 202.472 23.7109C202.519 23.7109 202.566 23.7548 202.566 23.8424C202.566 23.9301 202.472 24.1054 202.472 24.6751C202.472 24.8066 202.426 25.3763 202.426 25.5516C202.426 25.6392 202.379 25.6831 202.286 25.6831C202.192 25.6831 202.146 25.5954 202.146 25.5078C202.146 25.4201 202.146 25.201 202.053 25.0257C201.959 24.8066 201.819 24.6313 201.12 24.5436C200.886 24.4998 199.44 24.4998 199.16 24.4998C199.067 24.4998 199.067 24.5436 199.067 24.6313V27.9182C199.067 28.0058 199.067 28.0496 199.16 28.0496C199.487 28.0496 201.073 28.0496 201.399 28.0058C201.726 27.962 201.959 27.962 202.053 27.8305C202.146 27.7429 202.192 27.6552 202.286 27.6552C202.332 27.6552 202.379 27.699 202.379 27.7429C202.379 27.8305 202.332 28.0496 202.286 28.707C202.239 28.97 202.239 29.4959 202.239 29.5835C202.239 29.6712 202.239 29.8465 202.099 29.8465C202.006 29.8465 201.959 29.8026 201.959 29.715C201.959 29.5835 201.959 29.4082 201.913 29.2329C201.866 28.97 201.633 28.7947 201.12 28.707C200.84 28.6632 199.487 28.6632 199.16 28.6632C199.114 28.6632 199.067 28.707 199.067 28.7947V29.8026C199.067 30.2409 199.067 31.4242 199.067 31.8186C199.114 32.7389 199.3 32.9142 200.746 32.9142C201.12 32.9142 201.679 32.9142 202.053 32.7389C202.426 32.5636 202.566 32.3007 202.659 31.7748C202.706 31.6433 202.706 31.5995 202.799 31.5995C202.892 31.5995 202.892 31.6871 202.892 31.8186C202.892 32.1254 202.799 33.0019 202.706 33.2648C202.612 33.6154 202.472 33.6154 201.959 33.6154C199.86 33.6154 198.927 33.5278 198.134 33.5278C197.808 33.5278 196.921 33.5716 196.408 33.5716C196.222 33.5716 196.129 33.5278 196.129 33.4401C196.129 33.3963 196.175 33.3525 196.362 33.3525C196.548 33.3525 196.735 33.3087 196.875 33.3087C197.155 33.2648 197.201 32.9581 197.295 32.6075C197.388 32.0816 197.388 31.0298 197.388 29.8465V27.6114H197.295Z" fill="#8C9EBC"/>
<path d="M208.441 28.6654C208.441 28.7969 208.488 28.8407 208.581 28.8845C208.861 28.9722 209.281 29.016 209.654 29.016C210.213 29.016 210.4 28.9722 210.633 28.7969C211.053 28.4901 211.473 27.9204 211.473 26.8247C211.473 24.9841 210.167 24.4582 209.374 24.4582C209.047 24.4582 208.767 24.4582 208.627 24.502C208.534 24.5458 208.488 24.5896 208.488 24.6773V28.6654H208.441ZM206.808 27.6136C206.808 25.6414 206.808 25.247 206.762 24.8526C206.715 24.4143 206.622 24.1952 206.155 24.1076C206.062 24.0637 205.829 24.0637 205.596 24.0637C205.456 24.0637 205.362 24.0199 205.362 23.9323C205.362 23.8446 205.456 23.8008 205.689 23.8008C206.435 23.8008 207.275 23.8446 207.601 23.8446C208.068 23.8446 209.141 23.8008 209.56 23.8008C210.447 23.8008 211.38 23.8884 212.126 24.3705C212.499 24.6335 213.059 25.2908 213.059 26.1673C213.059 27.1315 212.639 28.008 211.24 29.1036C212.452 30.5499 213.432 31.7331 214.272 32.522C215.065 33.267 215.624 33.3547 215.811 33.3985C215.951 33.4423 216.091 33.4423 216.184 33.4423C216.277 33.4423 216.371 33.4862 216.371 33.53C216.371 33.6176 216.277 33.6615 216.091 33.6615H214.785C213.992 33.6615 213.665 33.6176 213.292 33.3985C212.686 33.0917 212.173 32.4782 211.38 31.4702C210.82 30.769 210.167 29.8487 210.027 29.6734C209.934 29.5857 209.887 29.5857 209.794 29.5857L208.581 29.5419C208.534 29.5419 208.488 29.5857 208.488 29.6295V29.8048C208.488 31.0319 208.488 32.0399 208.581 32.6097C208.627 33.0041 208.721 33.267 209.141 33.3109C209.327 33.3547 209.654 33.3547 209.84 33.3547C209.934 33.3547 210.027 33.3985 210.027 33.4423C210.027 33.53 209.934 33.5738 209.747 33.5738C208.954 33.5738 207.928 33.53 207.695 33.53C207.415 33.53 206.575 33.5738 206.015 33.5738C205.829 33.5738 205.735 33.53 205.735 33.4423C205.735 33.3985 205.782 33.3547 205.969 33.3547C206.155 33.3547 206.342 33.3109 206.482 33.3109C206.762 33.267 206.808 32.9603 206.902 32.6097C206.995 32.0837 206.995 31.0319 206.995 29.8487V27.6136H206.808Z" fill="#8C9EBC"/>
<path d="M217.4 33.5334C217.167 33.4458 217.12 33.3581 217.12 33.0952C217.12 32.394 217.167 31.6051 217.167 31.386C217.167 31.2107 217.213 31.0354 217.353 31.0354C217.493 31.0354 217.493 31.1669 217.493 31.2545C217.493 31.4298 217.54 31.6928 217.633 31.9119C217.96 32.876 218.753 33.2266 219.592 33.2266C220.852 33.2266 221.458 32.4378 221.458 31.7366C221.458 31.0792 221.272 30.4657 220.105 29.633L219.452 29.1509C217.913 28.0114 217.4 27.1349 217.4 26.0831C217.4 24.6369 218.659 23.6289 220.619 23.6289C221.505 23.6289 222.111 23.7604 222.484 23.848C222.624 23.8919 222.671 23.8919 222.671 24.0233C222.671 24.1986 222.624 24.5492 222.624 25.601C222.624 25.9078 222.578 25.9955 222.484 25.9955C222.391 25.9955 222.344 25.9078 222.344 25.7763C222.344 25.6449 222.251 25.2504 221.971 24.8998C221.785 24.6369 221.365 24.2425 220.479 24.2425C219.452 24.2425 218.846 24.8122 218.846 25.601C218.846 26.2146 219.173 26.6528 220.339 27.4855L220.712 27.7485C222.391 28.9756 222.997 29.8521 222.997 31.0792C222.997 31.8242 222.671 32.7446 221.691 33.3581C220.992 33.7525 220.245 33.884 219.499 33.884C218.613 33.884 217.96 33.7964 217.4 33.5334Z" fill="#8C9EBC"/>
<path d="M226.811 27.6147C226.811 25.6425 226.811 25.2481 226.765 24.8537C226.718 24.4154 226.578 24.1963 226.298 24.1087C226.158 24.0648 225.972 24.0648 225.785 24.0648C225.645 24.0648 225.552 24.021 225.552 23.9334C225.552 23.8457 225.645 23.8457 225.878 23.8457C226.391 23.8457 227.278 23.8895 227.697 23.8895C228.024 23.8895 228.864 23.8457 229.377 23.8457C229.563 23.8457 229.657 23.8895 229.657 23.9334C229.657 24.021 229.563 24.0648 229.423 24.0648C229.283 24.0648 229.19 24.0648 229.004 24.1087C228.63 24.1525 228.537 24.4154 228.49 24.8537C228.444 25.2481 228.444 25.6425 228.444 27.6147V29.8936C228.444 31.1645 228.444 32.1725 228.49 32.7422C228.537 33.0928 228.63 33.312 229.05 33.3996C229.237 33.4434 229.563 33.4434 229.75 33.4434C229.89 33.4434 229.983 33.4873 229.983 33.5311C229.983 33.6187 229.89 33.6626 229.703 33.6626C228.77 33.6626 227.931 33.6187 227.558 33.6187C227.231 33.6187 226.345 33.6626 225.832 33.6626C225.645 33.6626 225.552 33.6187 225.552 33.5311C225.552 33.4873 225.598 33.4434 225.785 33.4434C226.018 33.4434 226.158 33.3996 226.298 33.3996C226.578 33.3558 226.671 33.1367 226.718 32.7422C226.765 32.2163 226.765 31.1645 226.765 29.8936V27.6147H226.811Z" fill="#8C9EBC"/>
<path d="M236.291 24.5922L234.239 24.636C233.446 24.6799 233.119 24.7237 232.886 25.0305C232.746 25.2058 232.7 25.3811 232.653 25.4687C232.606 25.5564 232.606 25.644 232.513 25.644C232.42 25.644 232.373 25.6002 232.373 25.4249C232.373 25.2058 232.653 24.0225 232.653 23.9348C232.7 23.7595 232.746 23.6719 232.84 23.6719C232.933 23.6719 233.073 23.8033 233.446 23.8472C233.866 23.891 234.379 23.891 234.845 23.891H240.349C241.236 23.891 241.562 23.7595 241.702 23.7595C241.795 23.7595 241.795 23.8472 241.795 24.0225C241.795 24.2854 241.749 25.2058 241.749 25.5125C241.749 25.644 241.702 25.7317 241.609 25.7317C241.516 25.7317 241.469 25.6878 241.469 25.4687V25.3372C241.422 24.9866 241.049 24.636 239.836 24.5922L238.11 24.5484V29.8951C238.11 31.0783 238.11 32.1302 238.157 32.6999C238.204 33.0505 238.297 33.3573 238.717 33.4011C238.903 33.4449 239.23 33.4449 239.417 33.4449C239.556 33.4449 239.65 33.4887 239.65 33.5326C239.65 33.6202 239.556 33.664 239.37 33.664C238.437 33.664 237.597 33.6202 237.178 33.6202C236.851 33.6202 235.965 33.664 235.452 33.664C235.265 33.664 235.172 33.6202 235.172 33.5326C235.172 33.4887 235.218 33.4449 235.405 33.4449C235.592 33.4449 235.778 33.4011 235.918 33.4011C236.198 33.3573 236.291 33.0505 236.338 32.6999C236.431 32.174 236.431 31.1222 236.431 29.9389V24.5922H236.291Z" fill="#8C9EBC"/>
<path d="M247.806 30.3307C247.806 29.6295 247.666 29.3228 247.479 28.9722C247.386 28.753 245.52 25.9044 245.054 25.2032C244.727 24.7211 244.354 24.4143 244.074 24.239C243.888 24.1514 243.654 24.0637 243.468 24.0637C243.375 24.0637 243.281 24.0199 243.281 23.9323C243.281 23.8446 243.375 23.8008 243.561 23.8008C243.794 23.8008 244.867 23.8446 245.287 23.8446C245.567 23.8446 246.127 23.8008 246.78 23.8008C246.92 23.8008 246.966 23.8446 246.966 23.9323C246.966 24.0199 246.873 24.0199 246.64 24.0637C246.5 24.1076 246.453 24.1952 246.453 24.2829C246.453 24.3705 246.5 24.5458 246.64 24.7211C246.826 25.1155 248.785 28.271 249.019 28.6216C249.159 28.3148 250.884 25.4223 251.118 25.0279C251.258 24.7211 251.304 24.502 251.304 24.3705C251.304 24.239 251.258 24.1076 251.024 24.0637C250.884 24.0199 250.791 24.0199 250.791 23.9323C250.791 23.8446 250.838 23.8008 251.024 23.8008C251.491 23.8008 251.911 23.8446 252.33 23.8446C252.657 23.8446 253.543 23.8008 253.823 23.8008C253.963 23.8008 254.056 23.8446 254.056 23.8884C254.056 23.9761 253.963 24.0199 253.776 24.0199C253.637 24.0199 253.357 24.0637 253.17 24.1952C252.89 24.3267 252.75 24.502 252.424 24.8526C251.957 25.3785 250.045 28.4463 249.765 29.016C249.578 29.4981 249.578 29.8925 249.578 30.3307V31.3825C249.578 31.6017 249.578 32.1276 249.625 32.6973C249.672 33.0917 249.765 33.3547 250.185 33.3985C250.371 33.4423 250.698 33.4423 250.884 33.4423C251.024 33.4423 251.118 33.4862 251.118 33.53C251.118 33.6176 251.024 33.6615 250.838 33.6615C249.952 33.6615 249.112 33.6176 248.739 33.6176C248.412 33.6176 247.526 33.6615 247.013 33.6615C246.826 33.6615 246.686 33.6176 246.686 33.53C246.686 33.4862 246.733 33.4423 246.92 33.4423C247.106 33.4423 247.293 33.3985 247.386 33.3985C247.666 33.3547 247.806 33.0479 247.806 32.6973C247.853 32.1276 247.852 31.6017 247.852 31.3825V30.3307H247.806Z" fill="#8C9EBC"/>
<path d="M55.7266 43.791C55.7266 42.4762 55.7266 42.2571 55.7266 41.9942C55.7266 41.6874 55.6333 41.5559 55.4 41.5121C55.3068 41.4683 55.1668 41.4683 55.0735 41.4683C54.9802 41.4683 54.9336 41.4683 54.9336 41.3806C54.9336 41.3368 55.0269 41.293 55.1668 41.293C55.4933 41.293 56.0997 41.3368 56.333 41.3368C56.5662 41.3368 57.0793 41.293 57.4524 41.293C57.5924 41.293 57.639 41.293 57.639 41.3806C57.639 41.4683 57.5924 41.4683 57.4991 41.4683C57.4058 41.4683 57.3125 41.4683 57.2192 41.5121C56.986 41.5559 56.8927 41.6874 56.8927 41.9942C56.8927 42.2571 56.8927 42.5201 56.8927 43.791V45.2811C56.8927 46.1138 56.8927 46.7711 56.9393 47.1656C56.986 47.3847 57.0326 47.56 57.3125 47.6038C57.4524 47.6038 57.639 47.6476 57.779 47.6476C57.8723 47.6476 57.9189 47.6915 57.9189 47.7353C57.9189 47.7791 57.8256 47.8229 57.7323 47.8229C57.1259 47.8229 56.5662 47.7791 56.333 47.7791C56.1464 47.7791 55.54 47.8229 55.1668 47.8229C55.0269 47.8229 54.9802 47.7791 54.9802 47.7353C54.9802 47.6915 55.0269 47.6476 55.1202 47.6476C55.2601 47.6476 55.3534 47.6476 55.4467 47.6038C55.6333 47.56 55.6799 47.4285 55.7266 47.1656C55.7732 46.815 55.7732 46.1138 55.7732 45.2811V43.791H55.7266Z" fill="#8C9EBC"/>
<path d="M60.8106 46.5914C60.8106 47.2488 60.9505 47.4679 61.1371 47.5556C61.277 47.5994 61.4636 47.5994 61.6035 47.5994C61.6968 47.5994 61.7435 47.5994 61.7435 47.6871C61.7435 47.7747 61.6502 47.7747 61.5102 47.7747C60.9038 47.7747 60.5773 47.7309 60.3907 47.7309C60.2975 47.7309 59.8776 47.7747 59.4112 47.7747C59.2713 47.7747 59.2246 47.7747 59.2246 47.6871C59.2246 47.6432 59.2713 47.5994 59.3645 47.5994C59.5045 47.5994 59.6444 47.5994 59.7844 47.5556C60.0176 47.4679 60.0642 47.2488 60.0642 46.5038L60.1575 41.4201C60.1575 41.2448 60.2042 41.1133 60.2975 41.1133C60.3907 41.1133 60.484 41.2448 60.624 41.3762C60.7173 41.5077 62.1166 42.8663 63.4693 44.1372C64.0757 44.7069 65.3352 45.934 65.4751 46.1093H65.5217L65.4285 42.2527C65.4285 41.7268 65.3352 41.5515 65.1019 41.4639C64.962 41.4201 64.7288 41.4201 64.6355 41.4201C64.5422 41.4201 64.4955 41.3762 64.4955 41.3324C64.4955 41.2448 64.5888 41.2448 64.7288 41.2448C65.1952 41.2448 65.6617 41.2886 65.8483 41.2886C65.9416 41.2886 66.3147 41.2448 66.7345 41.2448C66.8745 41.2448 66.9211 41.2448 66.9211 41.3324C66.9211 41.3762 66.8745 41.4201 66.7345 41.4201C66.6412 41.4201 66.5479 41.4201 66.4547 41.4639C66.2214 41.5515 66.1281 41.7268 66.1281 42.2089L66.0348 47.5994C66.0348 47.7747 65.9882 47.8624 65.8949 47.8624C65.8016 47.8624 65.6617 47.7747 65.5684 47.6871C65.0086 47.1612 63.8425 46.0655 62.863 45.189C61.8834 44.2687 60.8572 43.2169 60.7173 43.0416H60.6706L60.8106 46.5914Z" fill="#8C9EBC"/>
<path d="M73.8145 41.7709L72.4618 41.8147C71.9487 41.8147 71.7155 41.8586 71.5755 42.0777C71.4822 42.2092 71.4356 42.2968 71.4356 42.3845C71.4356 42.4721 71.389 42.4721 71.3423 42.4721C71.2957 42.4721 71.249 42.4283 71.249 42.3406C71.249 42.2092 71.4356 41.4203 71.4356 41.3765C71.4823 41.245 71.4823 41.2012 71.5289 41.2012C71.6222 41.2012 71.7155 41.2888 71.9021 41.2888C72.1819 41.3326 72.5085 41.3326 72.835 41.3326H76.4267C76.7066 41.3326 76.9398 41.2888 77.0331 41.2888C77.173 41.245 77.2197 41.245 77.2663 41.245C77.3129 41.245 77.3596 41.2888 77.3596 41.4203C77.3596 41.5956 77.3129 42.2092 77.3129 42.4283C77.3129 42.5159 77.2663 42.5598 77.2197 42.5598C77.1264 42.5598 77.1264 42.5159 77.1264 42.3845V42.2968C77.1264 42.0777 76.8465 41.8147 76.0535 41.8147L74.8874 41.7709V45.2769C74.8874 46.0658 74.8874 46.7232 74.934 47.1176C74.9807 47.3367 75.0273 47.5558 75.3072 47.5997C75.4471 47.5997 75.6337 47.6435 75.7736 47.6435C75.8669 47.6435 75.9136 47.6873 75.9136 47.7311C75.9136 47.775 75.8203 47.8188 75.727 47.8188C75.1206 47.8188 74.5609 47.775 74.281 47.775C74.0944 47.775 73.488 47.8188 73.1148 47.8188C72.9749 47.8188 72.9283 47.775 72.9283 47.7311C72.9283 47.6873 72.9749 47.6435 73.0682 47.6435C73.2081 47.6435 73.3014 47.6435 73.3947 47.5997C73.5813 47.5558 73.6279 47.3805 73.6746 47.1176C73.7212 46.767 73.7212 46.0658 73.7212 45.2769V41.7709H73.8145Z" fill="#8C9EBC"/>
<path d="M84.1814 44.0101C84.228 44.0101 84.228 44.0101 84.228 43.9663V43.791C84.228 42.4762 84.228 42.2571 84.228 41.9942C84.228 41.6874 84.1347 41.5559 83.8549 41.5121C83.7616 41.5121 83.6216 41.4683 83.4817 41.4683C83.3884 41.4683 83.3418 41.4683 83.3418 41.3806C83.3418 41.3368 83.3884 41.293 83.5283 41.293C84.0414 41.293 84.6012 41.3368 84.8344 41.3368C85.0676 41.3368 85.6274 41.293 86.0006 41.293C86.1405 41.293 86.1871 41.293 86.1871 41.3806C86.1871 41.4244 86.1405 41.4683 86.0472 41.4683C85.9539 41.4683 85.9073 41.4683 85.7673 41.5121C85.5341 41.5559 85.4408 41.6874 85.4408 41.9942C85.4408 42.2571 85.4408 42.5201 85.4408 43.791V45.2811C85.4408 46.0699 85.4408 46.7273 85.4875 47.1217C85.5341 47.3409 85.5807 47.56 85.8606 47.6038C86.0006 47.6038 86.1871 47.6476 86.3271 47.6476C86.4204 47.6476 86.467 47.6915 86.467 47.7353C86.467 47.7791 86.3737 47.8229 86.2804 47.8229C85.674 47.8229 85.1143 47.7791 84.8811 47.7791C84.6478 47.7791 84.0881 47.8229 83.7616 47.8229C83.6216 47.8229 83.575 47.7791 83.575 47.7353C83.575 47.6915 83.6216 47.6476 83.7149 47.6476C83.8549 47.6476 83.9482 47.6476 84.0414 47.6038C84.228 47.56 84.2747 47.3847 84.3213 47.1217C84.368 46.7711 84.368 46.0699 84.368 45.2811V44.536C84.368 44.4922 84.3213 44.4922 84.3213 44.4922H80.8229C80.7763 44.4922 80.7763 44.4922 80.7763 44.536V45.2811C80.7763 46.0699 80.7763 46.7273 80.8229 47.1217C80.8696 47.3409 80.9162 47.56 81.1961 47.6038C81.336 47.6038 81.5226 47.6476 81.6625 47.6476C81.7558 47.6476 81.8025 47.6915 81.8025 47.7353C81.8025 47.7791 81.7092 47.8229 81.6159 47.8229C81.0095 47.8229 80.4497 47.7791 80.2165 47.7791C80.0299 47.7791 79.4235 47.8229 79.0504 47.8229C78.9104 47.8229 78.8638 47.7791 78.8638 47.7353C78.8638 47.6915 78.9104 47.6476 79.0037 47.6476C79.1437 47.6476 79.237 47.6476 79.3303 47.6038C79.5168 47.56 79.5635 47.3847 79.6101 47.1217C79.6568 46.7711 79.6568 46.0699 79.6568 45.2811V43.791C79.6568 42.4762 79.6568 42.2571 79.6568 41.9942C79.6568 41.6874 79.5635 41.5559 79.2836 41.5121C79.1903 41.5121 79.0504 41.4683 78.9104 41.4683C78.8172 41.4683 78.7705 41.4683 78.7705 41.3806C78.7705 41.3368 78.8172 41.293 78.9571 41.293C79.4702 41.293 80.0299 41.3368 80.2632 41.3368C80.4964 41.3368 81.0561 41.293 81.4293 41.293C81.5692 41.293 81.6159 41.293 81.6159 41.3806C81.6159 41.4244 81.5692 41.4683 81.4293 41.4683C81.336 41.4683 81.2894 41.4683 81.1494 41.5121C80.9162 41.5559 80.8229 41.6874 80.8229 41.9942C80.8229 42.2571 80.8229 42.5201 80.8229 43.791V43.9663C80.8229 44.0101 80.8696 44.0101 80.8696 44.0101H84.1814Z" fill="#8C9EBC"/>
<path d="M88.8416 43.786C88.8416 42.4712 88.8416 42.2521 88.8416 41.9892C88.8416 41.6824 88.7483 41.5509 88.4685 41.5071C88.3752 41.5071 88.2352 41.4633 88.0953 41.4633C88.002 41.4633 87.9554 41.4633 87.9554 41.3756C87.9554 41.3318 88.002 41.288 88.1419 41.288C88.6084 41.288 89.2148 41.3318 89.448 41.3318C89.7279 41.3318 91.5471 41.3318 91.7337 41.3318C91.9202 41.3318 92.0602 41.288 92.1068 41.288C92.1535 41.288 92.2001 41.2441 92.2468 41.2441C92.2934 41.2441 92.2934 41.288 92.2934 41.3318C92.2934 41.3756 92.2468 41.5071 92.2001 41.9015C92.2001 41.9892 92.1535 42.3836 92.1535 42.4712C92.1535 42.5151 92.1068 42.5589 92.0602 42.5589C92.0135 42.5589 91.9669 42.5151 91.9669 42.4274C91.9669 42.3836 91.9669 42.2083 91.9202 42.1206C91.8736 41.9453 91.7803 41.8577 91.3138 41.8139C91.1739 41.8139 90.1944 41.77 90.0078 41.77C89.9611 41.77 89.9611 41.8139 89.9611 41.8577V44.0051C89.9611 44.049 89.9611 44.0928 90.0078 44.0928C90.1944 44.0928 91.2672 44.0928 91.4538 44.0928C91.687 44.0928 91.8269 44.049 91.8736 43.9613C91.9202 43.8737 91.9669 43.8298 92.0135 43.8298C92.0602 43.8298 92.0602 43.8298 92.0602 43.9175C92.0602 43.9613 92.0135 44.0928 91.9669 44.531C91.9669 44.7063 91.9202 45.0569 91.9202 45.1008C91.9202 45.1884 91.9202 45.2761 91.8269 45.2761C91.7803 45.2761 91.7337 45.2322 91.7337 45.1884C91.7337 45.1008 91.7337 45.0131 91.687 44.8816C91.6404 44.7063 91.5004 44.5749 91.1739 44.531C90.9873 44.531 90.1011 44.4872 89.8678 44.4872C89.8212 44.4872 89.8212 44.531 89.8212 44.5749V45.2322C89.8212 45.539 89.8212 46.3279 89.8212 46.547C89.8212 47.1167 89.9611 47.2482 90.894 47.2482C91.1273 47.2482 91.5004 47.2482 91.7337 47.1605C91.9669 47.0729 92.0602 46.8976 92.1535 46.547C92.1535 46.4593 92.2001 46.4155 92.2468 46.4155C92.34 46.4155 92.34 46.5032 92.34 46.5908C92.34 46.7661 92.2468 47.3797 92.2001 47.555C92.1535 47.7741 92.0602 47.7741 91.687 47.7741C90.3343 47.7741 89.6813 47.7303 89.1682 47.7303C88.9816 47.7303 88.3752 47.7741 88.002 47.7741C87.8621 47.7741 87.8154 47.7303 87.8154 47.6864C87.8154 47.6426 87.8621 47.5988 87.9554 47.5988C88.0953 47.5988 88.1886 47.5988 88.2819 47.555C88.4685 47.5111 88.5151 47.3358 88.5618 47.0729C88.6084 46.7223 88.6084 46.0211 88.6084 45.2322V43.786H88.8416Z" fill="#8C9EBC"/>
<path d="M98.4046 46.9373C97.5184 46.1922 97.2852 45.2281 97.2852 44.3954C97.2852 43.8257 97.4717 42.8177 98.358 42.0727C99.011 41.5029 99.8973 41.1523 101.25 41.1523C101.81 41.1523 102.136 41.1962 102.556 41.24C102.883 41.2838 103.209 41.3715 103.442 41.3715C103.536 41.3715 103.582 41.4153 103.582 41.4591C103.582 41.5468 103.536 41.6344 103.536 41.9412C103.536 42.2042 103.536 42.6862 103.489 42.8615C103.489 42.993 103.442 43.0368 103.396 43.0368C103.302 43.0368 103.302 42.9492 103.302 42.8615C103.302 42.5986 103.163 42.2918 102.929 42.0727C102.649 41.7659 101.903 41.5468 101.063 41.5468C100.27 41.5468 99.7574 41.7221 99.3376 42.0727C98.6845 42.6424 98.4979 43.4751 98.4979 44.3078C98.4979 46.3237 100.131 47.3317 101.343 47.3317C102.136 47.3317 102.649 47.244 103.023 46.8496C103.163 46.6743 103.302 46.4552 103.349 46.2799C103.396 46.1484 103.396 46.1046 103.489 46.1046C103.536 46.1046 103.582 46.1484 103.582 46.2361C103.582 46.3237 103.489 47.0688 103.396 47.3755C103.349 47.507 103.302 47.5508 103.163 47.6385C102.789 47.77 102.09 47.8576 101.53 47.8576C100.27 47.9014 99.1976 47.6385 98.4046 46.9373Z" fill="#8C9EBC"/>
<path d="M106.007 43.7851C106.007 42.4704 106.007 42.2513 106.007 41.9883C106.007 41.6815 105.914 41.5501 105.68 41.5062C105.587 41.4624 105.447 41.4624 105.354 41.4624C105.261 41.4624 105.214 41.4624 105.214 41.3748C105.214 41.3309 105.307 41.2871 105.447 41.2871C105.774 41.2871 106.38 41.3309 106.613 41.3309C106.846 41.3309 107.36 41.2871 107.733 41.2871C107.873 41.2871 107.919 41.2871 107.919 41.3748C107.919 41.4624 107.873 41.4624 107.779 41.4624C107.686 41.4624 107.593 41.4624 107.499 41.5062C107.266 41.5501 107.173 41.6815 107.173 41.9883C107.173 42.2513 107.173 42.5142 107.173 43.7851V45.2752C107.173 46.1079 107.173 46.7653 107.22 47.1597C107.266 47.3788 107.313 47.5541 107.593 47.5979C107.733 47.5979 107.919 47.6418 108.059 47.6418C108.153 47.6418 108.199 47.6856 108.199 47.7294C108.199 47.7732 108.106 47.8171 108.013 47.8171C107.406 47.8171 106.846 47.7732 106.613 47.7732C106.427 47.7732 105.82 47.8171 105.447 47.8171C105.307 47.8171 105.261 47.7732 105.261 47.7294C105.261 47.6856 105.307 47.6418 105.4 47.6418C105.54 47.6418 105.634 47.6418 105.727 47.5979C105.914 47.5541 105.96 47.4226 106.007 47.1597C106.053 46.8091 106.053 46.1079 106.053 45.2752V43.7851H106.007Z" fill="#8C9EBC"/>
<path d="M111.784 41.7709L110.432 41.8147C109.918 41.8147 109.685 41.8586 109.545 42.0777C109.452 42.2092 109.405 42.2968 109.405 42.3845C109.405 42.4721 109.359 42.4721 109.312 42.4721C109.265 42.4721 109.219 42.4283 109.219 42.3406C109.219 42.2092 109.405 41.4203 109.405 41.3765C109.452 41.245 109.452 41.2012 109.499 41.2012C109.592 41.2012 109.685 41.2888 109.872 41.2888C110.152 41.3326 110.478 41.3326 110.805 41.3326H114.396C114.676 41.3326 114.909 41.2888 115.003 41.2888C115.143 41.245 115.189 41.245 115.236 41.245C115.283 41.245 115.329 41.2888 115.329 41.4203C115.329 41.5956 115.283 42.2092 115.283 42.4283C115.283 42.5159 115.236 42.5598 115.189 42.5598C115.096 42.5598 115.096 42.5159 115.096 42.3845V42.2968C115.096 42.0777 114.816 41.8147 114.023 41.8147L112.857 41.7709V45.2769C112.857 46.0658 112.857 46.7232 112.904 47.1176C112.95 47.3367 112.997 47.5558 113.277 47.5997C113.417 47.5997 113.603 47.6435 113.743 47.6435C113.837 47.6435 113.883 47.6873 113.883 47.7311C113.883 47.775 113.79 47.8188 113.697 47.8188C113.09 47.8188 112.531 47.775 112.251 47.775C112.064 47.775 111.458 47.8188 111.085 47.8188C110.945 47.8188 110.898 47.775 110.898 47.7311C110.898 47.6873 110.945 47.6435 111.038 47.6435C111.178 47.6435 111.271 47.6435 111.364 47.5997C111.551 47.5558 111.598 47.3805 111.644 47.1176C111.691 46.767 111.691 46.0658 111.691 45.2769V41.7709H111.784Z" fill="#8C9EBC"/>
<path d="M118.555 45.544C118.555 45.0619 118.462 44.8866 118.369 44.6675C118.322 44.536 117.062 42.6516 116.783 42.2133C116.549 41.9065 116.316 41.6874 116.176 41.5997C116.036 41.5559 115.896 41.4683 115.803 41.4683C115.71 41.4683 115.663 41.4683 115.663 41.3806C115.663 41.3368 115.71 41.293 115.85 41.293C115.99 41.293 116.689 41.3368 117.016 41.3368C117.202 41.3368 117.576 41.293 117.995 41.293C118.089 41.293 118.135 41.3368 118.135 41.3806C118.135 41.4244 118.089 41.4244 117.949 41.4683C117.855 41.4683 117.809 41.5559 117.809 41.6436C117.809 41.7312 117.855 41.8189 117.902 41.9503C118.042 42.2133 119.301 44.2731 119.441 44.4922C119.535 44.2731 120.701 42.3886 120.794 42.1257C120.887 41.9504 120.934 41.7751 120.934 41.6874C120.934 41.5997 120.887 41.5121 120.747 41.4683C120.654 41.4683 120.561 41.4244 120.561 41.3806C120.561 41.3368 120.607 41.293 120.701 41.293C120.981 41.293 121.307 41.3368 121.54 41.3368C121.727 41.3368 122.333 41.293 122.52 41.293C122.613 41.293 122.707 41.293 122.707 41.3806C122.707 41.4244 122.613 41.4683 122.52 41.4683C122.427 41.4683 122.24 41.5121 122.1 41.5559C121.914 41.6436 121.82 41.7312 121.587 41.9942C121.307 42.3448 120.001 44.3607 119.861 44.7113C119.721 45.0181 119.721 45.2811 119.721 45.5878V46.2891C119.721 46.4205 119.721 46.7711 119.768 47.1656C119.768 47.4285 119.861 47.6038 120.141 47.6476C120.281 47.6476 120.468 47.6915 120.607 47.6915C120.701 47.6915 120.747 47.7353 120.747 47.7791C120.747 47.8229 120.654 47.8668 120.561 47.8668C120.001 47.8668 119.395 47.8229 119.161 47.8229C118.928 47.8229 118.369 47.8668 118.042 47.8668C117.902 47.8668 117.855 47.8668 117.855 47.7791C117.855 47.7353 117.902 47.6915 117.995 47.6915C118.135 47.6915 118.229 47.6915 118.322 47.6476C118.508 47.6038 118.602 47.4285 118.602 47.1656C118.648 46.815 118.648 46.4644 118.648 46.2891V45.544H118.555Z" fill="#8C9EBC"/>
<path d="M132.508 44.7022C132.508 42.7739 131.341 41.5906 129.849 41.5906C128.823 41.5906 127.61 42.1165 127.61 44.2639C127.61 46.0608 128.636 47.4632 130.409 47.4632C131.015 47.4632 132.508 47.1564 132.508 44.7022ZM126.304 44.5269C126.304 43.0807 127.33 41.1523 130.082 41.1523C132.368 41.1523 133.767 42.3795 133.767 44.3516C133.767 46.3237 132.321 47.8576 129.989 47.8576C127.377 47.9014 126.304 46.0608 126.304 44.5269Z" fill="#8C9EBC"/>
<path d="M137.261 45.2761C137.261 46.1087 137.261 46.7223 137.307 47.1167C137.354 47.3797 137.401 47.555 137.68 47.5988C137.82 47.5988 138.007 47.6426 138.147 47.6426C138.287 47.6426 138.287 47.6865 138.287 47.7303C138.287 47.7741 138.24 47.8179 138.1 47.8179C137.541 47.8179 136.934 47.7741 136.701 47.7741C136.468 47.7741 135.908 47.8179 135.535 47.8179C135.395 47.8179 135.348 47.8179 135.348 47.7303C135.348 47.6865 135.395 47.6426 135.488 47.6426C135.628 47.6426 135.721 47.6426 135.815 47.5988C136.001 47.555 136.048 47.3797 136.095 47.1167C136.141 46.7661 136.141 46.1087 136.141 45.2761V43.786C136.141 42.4712 136.141 42.2521 136.141 41.9892C136.141 41.6824 136.048 41.5509 135.768 41.5071C135.675 41.5071 135.535 41.4633 135.395 41.4633C135.302 41.4633 135.255 41.4633 135.255 41.3756C135.255 41.288 135.348 41.288 135.441 41.288C135.908 41.288 136.468 41.3318 136.748 41.3318C137.074 41.3318 138.94 41.3318 139.126 41.3318C139.313 41.3318 139.406 41.3318 139.5 41.288C139.546 41.288 139.593 41.2441 139.64 41.2441C139.686 41.2441 139.686 41.288 139.686 41.3318C139.686 41.3756 139.64 41.5071 139.593 41.7262C139.593 41.8139 139.546 42.2959 139.546 42.4274C139.546 42.5151 139.5 42.5589 139.453 42.5589C139.406 42.5589 139.36 42.5151 139.36 42.4274C139.36 42.3398 139.36 42.2083 139.313 42.1206C139.266 41.9892 139.08 41.8577 138.707 41.8577L137.307 41.8139C137.261 41.8139 137.214 41.8577 137.214 41.9453V44.0928C137.214 44.1366 137.214 44.1804 137.261 44.1804H138.427C138.567 44.1804 138.707 44.1804 138.847 44.1804C139.033 44.1804 139.126 44.1366 139.22 44.049C139.266 44.0051 139.266 43.9613 139.36 43.9613C139.406 43.9613 139.406 44.0051 139.406 44.049C139.406 44.0928 139.36 44.3119 139.313 44.5749C139.313 44.7502 139.266 45.1446 139.266 45.1884C139.266 45.2761 139.266 45.3637 139.173 45.3637C139.126 45.3637 139.08 45.3199 139.08 45.2322C139.08 45.1884 139.08 45.0569 139.033 44.9693C138.987 44.8378 138.847 44.7063 138.567 44.6625C138.333 44.6187 137.354 44.6187 137.214 44.6187C137.167 44.6187 137.167 44.6187 137.167 44.7063V45.2761H137.261Z" fill="#8C9EBC"/>
<path d="M145.981 46.5914C145.981 47.2488 146.121 47.4679 146.307 47.5556C146.447 47.5994 146.634 47.5994 146.774 47.5994C146.867 47.5994 146.914 47.5994 146.914 47.6871C146.914 47.7747 146.82 47.7747 146.727 47.7747C146.121 47.7747 145.747 47.7309 145.608 47.7309C145.514 47.7309 145.094 47.7747 144.628 47.7747C144.488 47.7747 144.441 47.7747 144.441 47.6871C144.441 47.6432 144.488 47.5994 144.581 47.5994C144.721 47.5994 144.861 47.5994 145.001 47.5556C145.234 47.4679 145.281 47.2488 145.281 46.5038L145.374 41.4201C145.374 41.2448 145.421 41.1133 145.514 41.1133C145.608 41.1133 145.701 41.2448 145.841 41.3762C145.934 41.5077 147.333 42.8663 148.686 44.1372C149.293 44.7069 150.552 45.934 150.692 46.1093H150.739L150.645 42.2527C150.645 41.7268 150.552 41.5515 150.319 41.4639C150.179 41.4201 149.946 41.4201 149.852 41.4201C149.759 41.4201 149.712 41.3762 149.712 41.3324C149.712 41.2448 149.806 41.2448 149.946 41.2448C150.412 41.2448 150.878 41.2886 151.065 41.2886C151.158 41.2886 151.532 41.2448 151.951 41.2448C152.091 41.2448 152.138 41.2448 152.138 41.3324C152.138 41.3762 152.091 41.4201 151.998 41.4201C151.905 41.4201 151.858 41.4201 151.718 41.4639C151.485 41.5515 151.392 41.7268 151.392 42.2089L151.298 47.5994C151.298 47.7747 151.252 47.8624 151.158 47.8624C151.065 47.8624 150.972 47.7747 150.832 47.6871C150.272 47.1612 149.106 46.0655 148.126 45.189C147.147 44.2687 146.121 43.2169 145.981 43.0416H145.934L145.981 46.5914Z" fill="#8C9EBC"/>
<path d="M154.508 43.7899C154.508 42.4751 154.508 42.256 154.508 41.9931C154.508 41.6863 154.414 41.5548 154.134 41.511C154.041 41.511 153.901 41.4672 153.761 41.4672C153.668 41.4672 153.621 41.4672 153.621 41.3795C153.621 41.3357 153.668 41.2919 153.808 41.2919C154.274 41.2919 154.881 41.3357 155.114 41.3357C155.394 41.3357 157.213 41.3357 157.4 41.3357C157.586 41.3357 157.726 41.2919 157.773 41.2919C157.819 41.2919 157.866 41.248 157.913 41.248C157.959 41.248 157.959 41.2919 157.959 41.3357C157.959 41.3795 157.913 41.511 157.866 41.9054C157.866 41.9931 157.819 42.3875 157.819 42.4751C157.819 42.519 157.773 42.5628 157.726 42.5628C157.68 42.5628 157.633 42.519 157.633 42.4313C157.633 42.3875 157.633 42.2122 157.586 42.1246C157.54 41.9493 157.446 41.8616 156.98 41.8178C156.84 41.8178 155.86 41.7739 155.674 41.7739C155.627 41.7739 155.627 41.8178 155.627 41.8616V44.009C155.627 44.0529 155.627 44.0967 155.674 44.0967C155.86 44.0967 156.933 44.0967 157.12 44.0967C157.353 44.0967 157.493 44.0529 157.54 43.9652C157.586 43.8776 157.633 43.8337 157.68 43.8337C157.726 43.8337 157.726 43.8337 157.726 43.9214C157.726 43.9652 157.68 44.0967 157.633 44.5349C157.633 44.7102 157.586 45.0608 157.586 45.1047C157.586 45.1923 157.586 45.28 157.493 45.28C157.446 45.28 157.4 45.2361 157.4 45.1923C157.4 45.1047 157.4 45.017 157.353 44.8855C157.306 44.7102 157.166 44.5788 156.84 44.5349C156.653 44.5349 155.767 44.4911 155.534 44.4911C155.487 44.4911 155.487 44.5349 155.487 44.5788V45.2361C155.487 45.5429 155.487 46.3318 155.487 46.5509C155.487 47.1206 155.674 47.2521 156.56 47.2521C156.793 47.2521 157.166 47.2521 157.4 47.1645C157.633 47.0768 157.726 46.9015 157.819 46.5509C157.819 46.4632 157.866 46.4194 157.913 46.4194C158.006 46.4194 158.006 46.5071 158.006 46.5947C158.006 46.77 157.913 47.3836 157.866 47.5589C157.819 47.778 157.726 47.778 157.353 47.778C156 47.778 155.347 47.7342 154.834 47.7342C154.648 47.7342 154.041 47.778 153.668 47.778C153.528 47.778 153.481 47.7342 153.481 47.6904C153.481 47.6465 153.528 47.6027 153.621 47.6027C153.761 47.6027 153.855 47.6027 153.948 47.5589C154.134 47.5151 154.181 47.3397 154.228 47.0768C154.274 46.7262 154.274 46.025 154.274 45.2361V43.7899H154.508Z" fill="#8C9EBC"/>
<path d="M159.921 42.1246C159.827 41.8178 159.734 41.5986 159.594 41.511C159.501 41.4672 159.314 41.4233 159.221 41.4233C159.128 41.4233 159.081 41.4233 159.081 41.3357C159.081 41.2919 159.174 41.248 159.268 41.248C159.734 41.248 160.247 41.2919 160.34 41.2919C160.434 41.2919 160.807 41.248 161.367 41.248C161.507 41.248 161.553 41.2919 161.553 41.3357C161.553 41.4233 161.46 41.4233 161.367 41.4233C161.273 41.4233 161.227 41.4233 161.133 41.4672C161.04 41.511 161.04 41.5548 161.04 41.6425C161.04 41.7739 161.133 42.0369 161.227 42.4313C161.367 43.0011 162.253 45.5867 162.393 46.0688H162.44L164.212 41.5986C164.305 41.3795 164.352 41.2919 164.445 41.2919C164.539 41.2919 164.585 41.4233 164.725 41.6863L166.638 45.9812H166.684C166.824 45.4114 167.571 43.1325 167.897 42.1684C167.944 41.9492 167.99 41.7739 167.99 41.6863C167.99 41.5548 167.897 41.4233 167.571 41.4233C167.477 41.4233 167.431 41.3795 167.431 41.3357C167.431 41.2919 167.524 41.248 167.617 41.248C168.084 41.248 168.503 41.2919 168.55 41.2919C168.597 41.2919 169.017 41.248 169.296 41.248C169.39 41.248 169.483 41.248 169.483 41.3357C169.483 41.3795 169.436 41.4233 169.343 41.4233C169.25 41.4233 169.11 41.4233 169.017 41.4672C168.783 41.5548 168.69 41.9054 168.503 42.3875C168.084 43.4831 167.151 46.2003 166.684 47.4712C166.591 47.778 166.544 47.8657 166.404 47.8657C166.311 47.8657 166.264 47.778 166.125 47.4274L164.212 43.1325C164.025 43.5708 162.813 46.5947 162.44 47.3836C162.253 47.7342 162.206 47.8218 162.113 47.8218C162.02 47.8218 161.973 47.7342 161.926 47.5151L159.921 42.1246Z" fill="#8C9EBC"/>
<path d="M175.318 45.5382C175.318 45.0561 175.224 44.8808 175.084 44.6617C175.038 44.5302 173.778 42.6457 173.498 42.2074C173.265 41.9007 173.032 41.6815 172.892 41.5939C172.752 41.5501 172.612 41.4624 172.519 41.4624C172.426 41.4624 172.379 41.4624 172.379 41.3748C172.379 41.3309 172.426 41.2871 172.565 41.2871C172.705 41.2871 173.405 41.3309 173.732 41.3309C173.918 41.3309 174.291 41.2871 174.711 41.2871C174.804 41.2871 174.851 41.3309 174.851 41.3748C174.851 41.4186 174.804 41.4186 174.665 41.4624C174.571 41.4624 174.525 41.5501 174.525 41.6377C174.525 41.7254 174.571 41.813 174.618 41.9445C174.758 42.2074 176.017 44.2672 176.157 44.4864C176.25 44.2672 177.417 42.3827 177.51 42.1198C177.603 41.9445 177.65 41.7692 177.65 41.6815C177.65 41.5939 177.603 41.5062 177.463 41.4624C177.37 41.4624 177.277 41.4186 177.277 41.3748C177.277 41.3309 177.323 41.2871 177.417 41.2871C177.696 41.2871 178.023 41.3309 178.256 41.3309C178.443 41.3309 179.049 41.2871 179.236 41.2871C179.329 41.2871 179.376 41.2871 179.376 41.3748C179.376 41.4186 179.282 41.4624 179.189 41.4624C179.096 41.4624 178.909 41.5062 178.769 41.5501C178.583 41.6377 178.489 41.7254 178.256 41.9883C177.976 42.3389 176.67 44.3549 176.53 44.7055C176.39 45.0123 176.39 45.2752 176.39 45.582V46.2832C176.39 46.4147 176.39 46.7653 176.437 47.1597C176.437 47.4226 176.53 47.5979 176.81 47.6418C176.95 47.6418 177.137 47.6856 177.277 47.6856C177.37 47.6856 177.417 47.7294 177.417 47.7732C177.417 47.8171 177.323 47.8609 177.23 47.8609C176.67 47.8609 176.064 47.8171 175.831 47.8171C175.597 47.8171 175.038 47.8609 174.711 47.8609C174.571 47.8609 174.525 47.8609 174.525 47.7732C174.525 47.7294 174.571 47.6856 174.665 47.6856C174.804 47.6856 174.898 47.6856 174.991 47.6418C175.178 47.5979 175.271 47.4226 175.271 47.1597C175.318 46.8091 175.318 46.4585 175.318 46.2832V45.5382Z" fill="#8C9EBC"/>
<path d="M185.861 44.7022C185.861 42.7739 184.695 41.5906 183.203 41.5906C182.176 41.5906 180.964 42.1165 180.964 44.2639C180.964 46.0608 181.99 47.4632 183.762 47.4632C184.369 47.4632 185.861 47.1564 185.861 44.7022ZM179.704 44.5269C179.704 43.0807 180.73 41.1523 183.482 41.1523C185.768 41.1523 187.167 42.3795 187.167 44.3516C187.167 46.3237 185.721 47.8576 183.389 47.8576C180.73 47.9014 179.704 46.0608 179.704 44.5269Z" fill="#8C9EBC"/>
<path d="M190.583 44.4425C190.583 44.5302 190.583 44.574 190.676 44.6178C190.863 44.6617 191.143 44.7055 191.376 44.7055C191.749 44.7055 191.843 44.6617 192.029 44.574C192.309 44.3987 192.589 44.0043 192.589 43.3031C192.589 42.076 191.749 41.7254 191.19 41.7254C190.956 41.7254 190.816 41.7254 190.723 41.7692C190.676 41.7692 190.63 41.813 190.63 41.9007V44.4425H190.583ZM189.51 43.7851C189.51 42.4704 189.51 42.2513 189.51 41.9883C189.51 41.6815 189.417 41.5501 189.137 41.5062C189.044 41.5062 188.904 41.4624 188.764 41.4624C188.671 41.4624 188.624 41.4624 188.624 41.3748C188.624 41.3309 188.671 41.2871 188.811 41.2871C189.277 41.2871 189.883 41.3309 190.07 41.3309C190.397 41.3309 191.05 41.2871 191.376 41.2871C191.936 41.2871 192.542 41.3309 193.055 41.6377C193.289 41.813 193.662 42.2513 193.662 42.821C193.662 43.4345 193.382 44.0481 192.449 44.7493C193.242 45.7135 193.895 46.4585 194.408 46.9844C194.921 47.4665 195.294 47.5541 195.434 47.5541C195.528 47.5541 195.621 47.5979 195.667 47.5979C195.761 47.5979 195.761 47.6418 195.761 47.6856C195.761 47.7732 195.714 47.7732 195.574 47.7732H194.688C194.175 47.7732 193.942 47.7294 193.708 47.5979C193.335 47.4226 192.962 46.9844 192.449 46.327C192.076 45.8449 191.656 45.2752 191.563 45.1437C191.516 45.0999 191.469 45.0999 191.423 45.0999H190.63C190.583 45.0999 190.536 45.0999 190.536 45.1876V45.319C190.536 46.1079 190.536 46.8091 190.583 47.1597C190.63 47.4226 190.676 47.5979 190.956 47.6418C191.096 47.6418 191.283 47.6856 191.423 47.6856C191.516 47.6856 191.516 47.7294 191.516 47.7732C191.516 47.8171 191.469 47.8609 191.329 47.8609C190.816 47.8609 190.117 47.8171 189.977 47.8171C189.79 47.8171 189.23 47.8609 188.857 47.8609C188.717 47.8609 188.671 47.8171 188.671 47.7732C188.671 47.7294 188.717 47.6856 188.811 47.6856C188.951 47.6856 189.044 47.6856 189.137 47.6418C189.324 47.5979 189.37 47.4226 189.417 47.1597C189.464 46.8091 189.464 46.1079 189.464 45.319V43.7851H189.51Z" fill="#8C9EBC"/>
<path d="M197.947 44.1366H197.994C198.321 43.8298 199.627 42.5589 199.907 42.2521C200.14 41.9892 200.373 41.77 200.373 41.5947C200.373 41.5071 200.326 41.4194 200.233 41.4194C200.14 41.4194 200.093 41.3756 200.093 41.3318C200.093 41.288 200.14 41.2441 200.233 41.2441C200.42 41.2441 200.933 41.288 201.166 41.288C201.446 41.288 201.959 41.2441 202.239 41.2441C202.332 41.2441 202.379 41.2441 202.379 41.3318C202.379 41.3756 202.332 41.4194 202.239 41.4194C202.099 41.4194 201.866 41.4633 201.726 41.5071C201.446 41.5947 201.119 41.77 200.746 42.1645C200.466 42.4274 199.067 43.6983 198.787 44.0051C199.114 44.3996 200.886 46.1964 201.259 46.547C201.679 46.8976 202.052 47.292 202.565 47.4673C202.845 47.555 203.032 47.5988 203.125 47.5988C203.172 47.5988 203.265 47.5988 203.265 47.6865C203.265 47.7303 203.218 47.7741 203.032 47.7741H202.239C201.959 47.7741 201.819 47.7741 201.632 47.7741C201.119 47.7303 200.886 47.555 200.513 47.2044C200.093 46.8538 198.321 44.8816 198.134 44.6625L198.041 44.531H197.994V45.3199C197.994 46.1087 197.994 46.7661 198.041 47.1605C198.041 47.3797 198.134 47.5988 198.367 47.6426C198.507 47.6426 198.694 47.6865 198.834 47.6865C198.927 47.6865 198.927 47.7303 198.927 47.7741C198.927 47.8179 198.834 47.8617 198.74 47.8617C198.227 47.8617 197.668 47.8179 197.434 47.8179C197.201 47.8179 196.641 47.8617 196.268 47.8617C196.128 47.8617 196.082 47.8179 196.082 47.7741C196.082 47.7303 196.128 47.6865 196.222 47.6865C196.361 47.6865 196.455 47.6864 196.548 47.6426C196.735 47.5988 196.781 47.4235 196.828 47.1605C196.875 46.8099 196.875 46.1087 196.875 45.3199V43.8298C196.875 42.5151 196.875 42.2959 196.875 42.033C196.875 41.7262 196.781 41.5947 196.501 41.5509C196.408 41.5509 196.268 41.5071 196.128 41.5071C196.035 41.5071 195.988 41.5071 195.988 41.4194C195.988 41.3756 196.035 41.3318 196.175 41.3318C196.641 41.3318 197.248 41.3756 197.434 41.3756C197.668 41.3756 198.227 41.3318 198.554 41.3318C198.694 41.3318 198.74 41.3318 198.74 41.4194C198.74 41.4633 198.694 41.5071 198.6 41.5071C198.507 41.5071 198.46 41.5071 198.367 41.5509C198.134 41.5947 198.041 41.7262 198.041 42.033C198.041 42.2959 198.041 42.5589 198.041 43.8298V44.1366H197.947Z" fill="#8C9EBC"/>
<path d="M42.475 30.1131C41.8686 30.2884 41.4954 30.0254 41.4954 29.5872C41.4954 29.2366 41.5421 28.886 41.8219 28.7107C41.8219 28.7107 42.9881 28.7107 43.0814 28.623C43.2213 28.5354 43.3146 27.878 43.2679 27.7465C43.2213 27.615 42.0085 27.8342 41.9619 27.7465C41.9152 27.615 42.2884 26.87 42.1951 26.7385C42.1484 26.607 41.1689 26.7385 41.1689 26.7385C41.029 26.7823 40.9357 27.6589 40.8424 27.7903C40.7024 27.878 39.8628 27.7465 39.7229 27.8342C39.6296 27.9218 39.443 28.623 39.4897 28.7545C39.5363 28.8421 40.5159 28.7107 40.6091 28.7983C40.7024 29.1051 40.4226 29.5872 40.0494 29.8939C39.7695 30.1131 39.4897 30.2445 39.1165 30.2445C38.5567 30.2445 37.9037 29.5433 37.7171 28.4039C37.5772 27.615 37.9037 26.0811 38.2769 25.3361C39.0232 23.7584 38.5567 23.8899 38.79 23.7584C39.6296 23.2763 41.0756 22.8381 42.1484 22.5313C43.1746 22.2245 44.2008 22.0492 45.1804 22.3998C46.7663 22.9696 46.3932 24.854 45.7868 26.0373C44.9472 27.5274 43.5945 29.8063 42.475 30.1131ZM35.8047 28.3601C35.6181 29.4995 34.9184 30.2007 34.3587 30.2007C33.9855 30.2007 33.7056 30.0692 33.4257 29.8501C33.0526 29.5433 32.7727 29.0613 32.866 28.7545C32.9593 28.6668 33.9388 28.7983 33.9855 28.7107C34.0321 28.623 33.8456 27.9218 33.7523 27.7903C33.659 27.7027 32.7727 27.8342 32.6328 27.7465C32.4928 27.6589 32.3995 26.7823 32.3063 26.6947C32.3063 26.6947 31.3733 26.5632 31.3267 26.6947C31.2801 26.8262 31.6532 27.5712 31.5599 27.7027C31.5133 27.8342 30.2539 27.5712 30.2539 27.7027C30.2539 27.8342 30.3471 28.4915 30.4404 28.5792C30.5804 28.6668 31.6999 28.6668 31.6999 28.6668C31.9331 28.8421 31.9797 29.1927 32.0264 29.5433C32.0264 29.9816 31.6532 30.2445 31.0468 30.0692C29.9273 29.7625 28.528 27.4836 27.735 25.9058C27.1286 24.7664 26.7554 22.8381 28.3414 22.2683C29.3209 21.9177 30.3005 22.1369 31.3733 22.3998C32.4462 22.7066 33.8922 23.101 34.7318 23.6269C34.9184 23.7584 34.4986 23.6708 35.2449 25.2046C35.5714 25.9935 35.9446 27.5712 35.8047 28.3601ZM47.3727 23.4078C47.1395 22.1807 46.0667 21.3042 44.7606 21.2165C42.4283 21.0412 40.4226 22.2245 38.1369 22.5751C37.9504 22.6189 37.7171 22.2245 37.4839 22.0492C38.5101 21.3042 38.3702 19.858 37.1574 19.2006C37.0641 19.1129 37.1107 18.2803 37.1574 18.2364C37.2507 18.1488 38.0436 18.2802 38.1369 18.1926C38.2302 18.1049 38.2302 17.2284 38.1369 17.1408C38.0903 17.0531 37.204 17.1408 37.1574 17.097C37.1107 17.0531 37.204 16.2643 37.1107 16.1766C37.0641 16.1328 36.8309 16.1328 36.6909 16.1328C36.551 16.1328 36.3178 16.1328 36.2711 16.1766C36.1778 16.2205 36.2711 17.0093 36.2245 17.097C36.1778 17.1408 35.2916 17.0531 35.2449 17.1408C35.1983 17.2284 35.1516 18.1049 35.2449 18.1926C35.3382 18.2802 36.1312 18.1488 36.2245 18.2364C36.2711 18.2803 36.3178 19.1129 36.2245 19.2006C35.0117 19.8141 34.8718 21.3042 35.898 22.0492C35.6647 22.2683 35.4315 22.6189 35.2449 22.5751C33.0059 22.1807 30.9535 21.0412 28.6213 21.2165C27.3152 21.3042 26.2423 22.1807 26.0091 23.4078C25.5893 25.6429 27.3152 27.3521 28.1548 29.2366C28.4347 29.8501 28.6679 30.639 28.6213 31.3402C28.6213 31.3402 35.3849 31.3402 36.5976 31.3402C36.5976 31.3402 36.6443 31.3402 36.6909 31.3402C36.7376 31.3402 36.7842 31.3402 36.7842 31.3402C37.997 31.3402 44.7606 31.3402 44.7606 31.3402C44.7139 30.639 44.9472 29.8501 45.227 29.2366C46.1133 27.3521 47.7925 25.6429 47.3727 23.4078Z" fill="#8C9EBC"/>
<path d="M36.8234 32.3906H36.6368H28.5205V33.7054H36.6368H36.8234H44.9864V32.3906H36.8234Z" fill="#8C9EBC"/>
</svg>
