<svg width="280" height="64" viewBox="0 0 280 64" fill="none" xmlns="http://www.w3.org/2000/svg">
<g clip-path="url(#clip0_5332_74883)">
<path d="M122.658 14.1067H123.891V49.9395H122.658V14.1067Z" fill="#8C9EBC"/>
<path d="M39.1714 15.3677H65.6699V24.9323H57.2793V22.712H50.2434V29.093H58.2982V35.9754H50.2434V41.4807H52.6154V48.669H39.1714V41.4807H41.6963V22.712H39.1714V15.3677ZM38 23.8863L40.513 23.8828V40.2995L38 40.3077V49.8255H53.7678V40.3168H51.44V37.1701L59.504 37.1848V27.9343L51.44 27.9179V23.8642H55.989V26.094H66.8855V14.2194H38V23.8863ZM69.334 15.3677H82.7775V22.712H80.356V41.4807H82.7775V48.669H69.3892V41.4807H71.8111V22.712H69.334V15.3677ZM68.1639 23.8642H70.6375V40.3125H68.1639V49.8177H83.9321V40.3125H81.5354V23.8642H83.9515V14.2194H68.1639V23.8642ZM115.205 22.712H112.785L112.78 42.3777L106.645 48.669H94.8914L88.7622 42.3777V22.712H86.3385V15.3677H98.7309V22.712H97.3093V40.7696L97.3111 40.7657L98.0113 41.4807H103.531H103.534L104.238 40.7636V22.712H102.817V15.3677H115.205V22.712ZM101.368 14.2194V23.8681L103.061 23.8642L103.057 40.3203H98.5095V23.8659H100.021V14.2194H85.1782V23.8642H87.5714V42.9618L94.2443 49.8281H107.332L113.953 42.9618V23.8642H116.396V14.2194H101.368Z" fill="#4C5B74"/>
<path d="M102.673 22.7129H104.238V40.7649L103.533 41.4816H103.53H98.0111L97.3105 40.7671L97.3087 40.7705V22.7129H98.7303V15.3686H86.3379V22.7129H88.7616V42.3786L94.8908 48.6699H106.644L112.779 42.3786L112.785 22.7129H115.205V15.3686H102.673V22.7129Z" fill="#8C9EBC"/>
<path d="M82.777 15.3686H69.333V22.7129H71.8102V41.4816H69.3883V48.6699H82.777V41.4816H80.3555V22.7129H82.777V15.3686Z" fill="#8C9EBC"/>
<path d="M39.1709 22.7129H41.6958V41.4816H39.1709V48.6699H52.6149V41.4816H50.2429V35.9763H58.2977V29.0939H50.2429V22.7129H57.2788V24.9332H65.6695V15.3686H39.1709V22.7129Z" fill="#8C9EBC"/>
<path d="M134.819 14.2232C135.724 14.2232 136.516 14.2093 136.813 14.1816C136.813 14.4866 136.813 15.5266 136.841 16.1783C136.785 16.2892 136.53 16.317 136.389 16.2338C136.247 15.4295 136.021 15.0274 135.484 14.8888C135.102 14.7917 134.748 14.7778 134.295 14.7778H133.574C132.98 14.7778 132.98 14.8056 132.98 15.5821V18.0641C132.98 18.4108 132.994 18.4385 133.319 18.4385H134.154C135.384 18.4385 135.597 18.4108 135.738 17.828L135.851 17.3565C135.936 17.2599 136.205 17.2599 136.276 17.3708C136.261 17.7313 136.233 18.2439 136.233 18.757C136.233 19.27 136.261 19.7692 136.276 20.1991C136.205 20.31 135.936 20.31 135.851 20.2129L135.738 19.6722C135.611 19.0898 135.384 19.062 134.154 19.062H133.319C132.994 19.062 132.98 19.0898 132.98 19.4364V21.3777C132.98 22.8475 133.108 22.8614 133.772 22.9446L134.366 23.0139C134.465 23.111 134.451 23.3601 134.338 23.416C133.432 23.3883 132.796 23.3744 132.174 23.3744C131.551 23.3744 130.915 23.3883 130.264 23.416C130.151 23.3601 130.137 23.111 130.236 23.0139L130.547 22.9723C131.212 22.8891 131.339 22.8475 131.339 21.3777V16.2199C131.339 14.7501 131.212 14.7085 130.547 14.6114L130.363 14.5837C130.264 14.4866 130.279 14.2371 130.392 14.1816C130.886 14.2093 131.523 14.2232 132.146 14.2232H134.819Z" fill="#8C9EBC"/>
<path d="M140.516 21.0865C140.516 21.7798 140.545 22.279 140.756 22.5147C140.926 22.7088 141.152 22.8198 142.284 22.8198C143.854 22.8198 144.08 22.7504 144.731 21.3222C144.872 21.2529 145.098 21.2945 145.169 21.4054C145.056 21.9878 144.745 23.0416 144.575 23.416C143.981 23.3883 142.765 23.3744 141.181 23.3744H139.71C138.988 23.3744 138.281 23.3883 137.687 23.416C137.574 23.3601 137.532 23.0832 137.659 23.0139L138.083 22.9446C138.748 22.8336 138.875 22.8198 138.875 21.3777V16.2199C138.875 14.7778 138.748 14.7362 138.083 14.6392L137.687 14.5837C137.588 14.5144 137.588 14.2371 137.716 14.1816C138.423 14.2093 139.059 14.2232 139.71 14.2232C140.332 14.2232 140.968 14.2093 141.591 14.1816C141.718 14.2371 141.732 14.5144 141.619 14.5837L141.308 14.6392C140.643 14.7501 140.516 14.7778 140.516 16.2199V21.0865Z" fill="#8C9EBC"/>
<path d="M147.38 18.5231C147.38 20.4366 148.215 23.043 150.633 23.043C152.246 23.043 153.547 21.8644 153.547 19.0777C153.547 16.9839 152.585 14.5578 150.336 14.5578C148.922 14.5578 147.38 15.57 147.38 18.5231ZM155.47 18.8281C155.47 21.5593 153.349 23.5977 150.492 23.5977C147.295 23.5977 145.456 21.3934 145.456 18.9252C145.456 16.0965 147.55 14.0031 150.52 14.0031C153.787 14.0031 155.47 16.3045 155.47 18.8281Z" fill="#8C9EBC"/>
<path d="M158.697 18.3008C158.697 18.7445 158.697 18.7723 159.376 18.7723C160.762 18.7723 161.398 18.1067 161.398 16.7894C161.398 15.694 160.677 14.7372 159.446 14.7372C158.711 14.7372 158.697 14.7793 158.697 15.4167V18.3008ZM157.056 16.3041C157.056 14.9729 157.042 14.807 156.377 14.7372L156.01 14.6956C155.91 14.599 155.91 14.3767 156.023 14.3078C156.915 14.2242 158.117 14.183 159.277 14.183C160.38 14.183 161.341 14.3212 161.964 14.6545C162.685 15.0284 163.209 15.6801 163.209 16.6785C163.209 17.9542 162.204 18.592 161.512 18.8693C161.427 18.9109 161.455 19.0219 161.512 19.1046C162.643 20.9766 163.35 22.1552 164.015 22.696C164.411 23.0287 164.821 23.1119 164.991 23.1258C165.062 23.1813 165.062 23.3338 165.019 23.4031C164.849 23.4447 164.581 23.4863 164.086 23.4863C162.728 23.4863 161.993 22.9455 161.13 21.656C160.748 21.0736 160.352 20.3114 160.012 19.7706C159.758 19.3546 159.602 19.2992 159.135 19.2992C158.711 19.2992 158.697 19.313 158.697 19.6038V21.3787C158.697 22.8485 158.824 22.8901 159.489 22.9733L159.8 23.0149C159.899 23.1119 159.885 23.3615 159.772 23.417C159.149 23.3893 158.513 23.3754 157.891 23.3754C157.268 23.3754 156.632 23.3893 155.981 23.417C155.868 23.3615 155.826 23.1119 155.953 23.0149L156.264 22.9733C156.929 22.8901 157.056 22.8485 157.056 21.3787V16.3041Z" fill="#8C9EBC"/>
<path d="M167.975 21.3777C167.975 22.8475 168.102 22.8891 168.767 22.9723L169.078 23.0139C169.177 23.111 169.163 23.3606 169.05 23.416C168.428 23.3883 167.791 23.3744 167.169 23.3744C166.547 23.3744 165.882 23.3883 165.26 23.416C165.147 23.3606 165.132 23.111 165.231 23.0139L165.542 22.9723C166.207 22.8891 166.334 22.8475 166.334 21.3777V16.2199C166.334 14.7505 166.207 14.7085 165.542 14.6253L165.231 14.5837C165.132 14.4866 165.147 14.2371 165.26 14.1816C165.882 14.2093 166.518 14.2232 167.169 14.2232C167.791 14.2232 168.428 14.2093 169.05 14.1816C169.163 14.2371 169.177 14.4866 169.078 14.5837L168.767 14.6253C168.102 14.7085 167.975 14.7505 167.975 16.2199V21.3777Z" fill="#8C9EBC"/>
<path d="M172.983 20.8368C172.983 22.1818 173.082 22.9028 174.581 22.9028C177.099 22.9028 178.23 21.1557 178.23 18.8123C178.23 16.0672 176.604 14.7361 174.242 14.7361C173.648 14.7361 173.195 14.847 173.096 14.9302C172.997 15.0134 172.983 15.3046 172.983 15.9563V20.8368ZM171.342 16.303C171.342 14.9718 171.328 14.7777 170.663 14.7222L170.366 14.6945C170.268 14.6252 170.268 14.3756 170.38 14.3062C171.399 14.223 172.53 14.1814 173.916 14.1814C175.26 14.1814 176.222 14.2924 177.254 14.6529C178.952 15.263 180.154 16.7328 180.154 18.7984C180.154 20.3376 179.376 21.9183 177.622 22.7919C176.618 23.2911 175.402 23.457 174.115 23.457C173.251 23.457 172.587 23.3738 172.064 23.3738C171.526 23.3738 170.89 23.3881 170.268 23.4159C170.154 23.36 170.14 23.1108 170.239 23.0133L170.55 22.9721C171.215 22.8885 171.342 22.8474 171.342 21.3775V16.303Z" fill="#8C9EBC"/>
<path d="M184.679 19.3532C185.075 19.3532 185.132 19.3255 185.019 18.9927L184.425 17.3288C184.171 16.5939 184.099 16.3304 184.029 16.2333H184.001C183.944 16.3304 183.817 16.6771 183.576 17.3288L182.982 18.9511C182.841 19.3532 182.869 19.3532 183.209 19.3532H184.679ZM182.982 19.9772C182.615 19.9772 182.628 19.9772 182.501 20.3516L181.921 22.0155C181.639 22.8332 181.695 22.8609 182.219 22.9446L182.628 23.0135C182.728 23.1105 182.714 23.3601 182.6 23.416C182.147 23.3883 181.681 23.3883 181.101 23.374C180.634 23.374 180.196 23.3883 179.701 23.416C179.602 23.3463 179.588 23.1383 179.687 23.0135L180.111 22.9446C180.521 22.8748 180.677 22.7643 180.889 22.3063C181.059 21.9458 181.285 21.3638 181.582 20.6151L183.52 15.6791C183.69 15.2354 183.831 14.9026 183.788 14.6669C184.283 14.5698 184.75 14.0013 184.779 14.0013C184.891 14.0013 184.963 14.0429 185.019 14.1123C185.245 14.7362 185.429 15.3879 185.655 16.0119L187.692 21.8214C188.018 22.75 188.088 22.8332 188.81 22.9723L189.021 23.0135C189.135 23.1105 189.135 23.3463 189.036 23.416C188.456 23.3883 187.932 23.374 187.197 23.374C186.589 23.374 185.967 23.4017 185.471 23.416C185.358 23.3463 185.344 23.0967 185.429 23.0135L185.74 22.9723C186.249 22.9025 186.32 22.8198 186.108 22.237L185.443 20.3516C185.316 19.9772 185.259 19.9772 184.863 19.9772H182.982Z" fill="#8C9EBC"/>
<path d="M132.979 34.5515C132.979 36.0213 133.106 36.0625 133.771 36.1466L134.082 36.1877C134.181 36.2848 134.167 36.5339 134.054 36.5898C133.431 36.5621 132.795 36.5482 132.173 36.5482C131.551 36.5482 130.886 36.5621 130.263 36.5898C130.151 36.5339 130.136 36.2848 130.235 36.1877L130.546 36.1466C131.211 36.0625 131.338 36.0213 131.338 34.5515V29.3937C131.338 27.9244 131.211 27.8823 130.546 27.7996L130.235 27.7575C130.136 27.6605 130.151 27.4113 130.263 27.3559C130.886 27.3836 131.522 27.397 132.173 27.397C132.795 27.397 133.431 27.3836 134.054 27.3559C134.167 27.4113 134.181 27.6605 134.082 27.7575L133.771 27.7996C133.106 27.8823 132.979 27.9244 132.979 29.3937V34.5515Z" fill="#8C9EBC"/>
<path d="M144.122 34.1918C144.122 34.6074 144.122 36.3129 144.165 36.6318C144.052 36.7844 143.854 36.8403 143.684 36.826C143.458 36.5348 143.047 36.0633 142.029 34.9267L138.719 31.2245C137.814 30.1988 137.348 29.6853 137.107 29.4778C137.065 29.4778 137.065 29.6303 137.065 30.3648V33.0687C137.065 34.1086 137.079 35.3839 137.319 35.7999C137.446 36.0083 137.687 36.1049 138.041 36.147L138.352 36.1886C138.479 36.2852 138.465 36.5491 138.324 36.5907C137.8 36.5625 137.248 36.5491 136.711 36.5491C136.117 36.5491 135.735 36.5625 135.24 36.5907C135.127 36.5209 135.099 36.2852 135.212 36.1886L135.523 36.1192C135.792 36.0633 136.046 36.0217 136.146 35.7999C136.329 35.37 136.329 34.1641 136.329 33.0687V29.7828C136.329 28.7013 136.343 28.4794 135.863 28.0773C135.707 27.9525 135.311 27.8416 135.113 27.8L134.901 27.7584C134.802 27.6752 134.816 27.3979 134.957 27.3563C135.495 27.4117 136.273 27.3978 136.626 27.3978C136.923 27.3978 137.263 27.384 137.602 27.3563C137.843 27.9525 139.384 29.6996 139.879 30.2265L141.294 31.7237C141.888 32.3615 143.203 33.8313 143.344 33.9145C143.387 33.8729 143.387 33.8036 143.387 33.5817V30.8778C143.387 29.8383 143.373 28.5626 143.119 28.1466C142.991 27.9386 142.765 27.8416 142.411 27.8L142.086 27.7584C141.958 27.6613 141.973 27.3979 142.114 27.3563C142.666 27.384 143.189 27.3978 143.741 27.3978C144.349 27.3978 144.717 27.384 145.226 27.3563C145.339 27.4256 145.367 27.6613 145.254 27.7584L144.929 27.8277C144.66 27.8832 144.42 27.9248 144.32 28.1466C144.122 28.5765 144.122 29.7828 144.122 30.8778V34.1918Z" fill="#8C9EBC"/>
<path d="M149.458 28.5618C149.458 27.9794 149.444 27.9517 149.076 27.9517H148.284C146.983 27.9517 146.601 28.1042 146.078 29.2273C145.979 29.3105 145.682 29.2689 145.625 29.1303C145.865 28.3815 146.078 27.5218 146.177 27.0365C146.205 26.9949 146.262 26.981 146.333 26.981C146.389 26.981 146.446 26.9949 146.474 27.0365C146.544 27.3831 146.742 27.397 147.704 27.397H153.475C154.168 27.397 154.38 27.3554 154.55 27.0365C154.606 27.0092 154.663 26.981 154.72 26.981C154.805 26.981 154.875 27.0092 154.903 27.0504C154.762 27.6189 154.649 28.8114 154.692 29.2551C154.621 29.366 154.38 29.3937 154.253 29.2967C154.069 28.2151 153.8 27.9517 152.287 27.9517H151.481C151.113 27.9517 151.099 27.9794 151.099 28.5618V34.5515C151.099 36.0209 151.226 36.0625 151.891 36.1318L152.4 36.1877C152.499 36.2848 152.485 36.5339 152.372 36.5898C151.551 36.5617 150.915 36.5482 150.293 36.5482C149.67 36.5482 149.006 36.5617 148.1 36.5898C147.987 36.5339 147.973 36.2571 148.072 36.1877L148.666 36.1184C149.331 36.0352 149.458 36.0209 149.458 34.5515V28.5618Z" fill="#8C9EBC"/>
<path d="M156.46 29.3937C156.46 27.9239 156.333 27.8685 155.668 27.7853L155.441 27.7575C155.342 27.6605 155.357 27.4109 155.47 27.3554C156.007 27.3831 156.672 27.397 157.294 27.397H159.996C160.901 27.397 161.721 27.3831 161.905 27.3554C161.962 27.5911 162.047 28.6866 162.132 29.2828C162.075 29.3937 161.793 29.4215 161.679 29.3383C161.453 28.534 161.24 28.2013 160.788 28.0765C160.463 27.9933 160.039 27.9517 159.656 27.9517H158.709C158.101 27.9517 158.101 27.9794 158.101 28.7698V31.1131C158.101 31.4737 158.114 31.4875 158.44 31.4875H159.119C160.349 31.4875 160.561 31.4737 160.689 30.8774L160.788 30.406C160.901 30.3089 161.17 30.3089 161.24 30.4198C161.226 30.7942 161.198 31.2934 161.198 31.806C161.198 32.3334 161.226 32.8182 161.24 33.262C161.17 33.359 160.901 33.359 160.788 33.2758L160.689 32.7212C160.59 32.1388 160.349 32.1115 159.119 32.1115H158.44C158.114 32.1115 158.101 32.1388 158.101 32.4855V34.2465C158.101 34.9541 158.129 35.4528 158.341 35.6885C158.511 35.8827 158.751 35.9797 159.939 35.9936C161.735 36.0075 162.047 35.6192 162.542 34.4961C162.669 34.399 162.91 34.4406 162.994 34.5793C162.91 35.1616 162.598 36.2155 162.4 36.5898C161.778 36.5617 160.561 36.5482 158.906 36.5482H157.294C156.672 36.5482 155.809 36.5617 155.173 36.5898C155.059 36.5339 155.045 36.2848 155.144 36.1877L155.668 36.1318C156.333 36.0625 156.46 36.0209 156.46 34.5515V29.3937Z" fill="#8C9EBC"/>
<path d="M166.022 31.4746C166.022 31.9184 166.022 31.9461 166.701 31.9461C168.087 31.9461 168.723 31.2805 168.723 29.9632C168.723 28.8678 168.002 27.911 166.772 27.911C166.036 27.911 166.022 27.9526 166.022 28.5905V31.4746ZM164.381 29.4779C164.381 28.1468 164.367 27.9804 163.703 27.911L163.335 27.8694C163.235 27.7728 163.235 27.5505 163.348 27.4816C164.24 27.398 165.442 27.3568 166.602 27.3568C167.705 27.3568 168.667 27.4951 169.289 27.8279C170.01 28.2022 170.534 28.8539 170.534 29.8523C170.534 31.128 169.53 31.7658 168.837 32.0427C168.752 32.0848 168.78 32.1957 168.837 32.2785C169.968 34.1504 170.675 35.329 171.34 35.8698C171.736 36.2026 172.146 36.2858 172.316 36.2996C172.387 36.3551 172.387 36.5076 172.344 36.577C172.175 36.619 171.906 36.6602 171.411 36.6602C170.053 36.6602 169.318 36.1194 168.455 34.8298C168.073 34.2474 167.677 33.4852 167.337 32.9445C167.083 32.5285 166.927 32.473 166.46 32.473C166.036 32.473 166.022 32.4864 166.022 32.7776V34.5525C166.022 36.0223 166.149 36.0635 166.814 36.1475L167.125 36.1887C167.224 36.2858 167.21 36.5349 167.097 36.5908C166.475 36.5631 165.838 36.5492 165.216 36.5492C164.594 36.5492 163.957 36.5631 163.306 36.5908C163.193 36.5349 163.151 36.2858 163.278 36.1887L163.589 36.1475C164.254 36.0635 164.381 36.0223 164.381 34.5525V29.4779Z" fill="#8C9EBC"/>
<path d="M181.44 34.1918C181.44 34.6074 181.44 36.3129 181.483 36.6318C181.369 36.7844 181.171 36.8403 181.002 36.826C180.775 36.5348 180.365 36.0633 179.347 34.9267L176.037 31.2245C175.132 30.1988 174.665 29.6853 174.425 29.4778C174.382 29.4778 174.382 29.6303 174.382 30.3648V33.0687C174.382 34.1086 174.396 35.3839 174.637 35.7999C174.764 36.0083 175.005 36.1049 175.358 36.147L175.669 36.1886C175.796 36.2852 175.783 36.5491 175.641 36.5907C175.118 36.5625 174.566 36.5491 174.029 36.5491C173.435 36.5491 173.053 36.5625 172.558 36.5907C172.444 36.5209 172.416 36.2852 172.53 36.1886L172.84 36.1192C173.109 36.0633 173.364 36.0217 173.463 35.7999C173.647 35.37 173.647 34.1641 173.647 33.0687V29.7828C173.647 28.7013 173.661 28.4794 173.18 28.0773C173.024 27.9525 172.628 27.8416 172.43 27.8L172.218 27.7584C172.119 27.6752 172.133 27.3979 172.275 27.3563C172.812 27.4117 173.59 27.3978 173.944 27.3978C174.241 27.3978 174.58 27.384 174.92 27.3563C175.16 27.9525 176.702 29.6996 177.197 30.2265L178.612 31.7237C179.205 32.3615 180.521 33.8313 180.662 33.9145C180.705 33.8729 180.705 33.8036 180.705 33.5817V30.8778C180.705 29.8383 180.69 28.5626 180.436 28.1466C180.309 27.9386 180.082 27.8416 179.729 27.8L179.404 27.7584C179.276 27.6613 179.291 27.3979 179.432 27.3563C179.983 27.384 180.507 27.3978 181.058 27.3978C181.666 27.3978 182.034 27.384 182.543 27.3563C182.657 27.4256 182.684 27.6613 182.572 27.7584L182.246 27.8277C181.978 27.8832 181.737 27.9248 181.638 28.1466C181.44 28.5765 181.44 29.7828 181.44 30.8778V34.1918Z" fill="#8C9EBC"/>
<path d="M187.354 32.5275C187.75 32.5275 187.807 32.4998 187.694 32.167L187.1 30.503C186.845 29.7681 186.774 29.5047 186.703 29.4076H186.676C186.619 29.5047 186.492 29.8513 186.251 30.503L185.657 32.1254C185.516 32.5275 185.544 32.5275 185.883 32.5275H187.354ZM185.657 33.1515C185.289 33.1515 185.303 33.1515 185.176 33.5259L184.596 35.1894C184.313 36.0079 184.37 36.0352 184.893 36.1188L185.303 36.1882C185.403 36.2848 185.388 36.5344 185.275 36.5898C184.823 36.5621 184.356 36.5621 183.776 36.5487C183.309 36.5487 182.871 36.5621 182.376 36.5898C182.277 36.5205 182.262 36.3125 182.361 36.1882L182.786 36.1188C183.196 36.0495 183.352 35.9386 183.564 35.4806C183.733 35.12 183.96 34.5377 184.257 33.7893L186.195 28.8534C186.364 28.4097 186.505 28.0765 186.463 27.8412C186.958 27.7441 187.425 27.1756 187.454 27.1756C187.566 27.1756 187.637 27.2172 187.694 27.2865C187.92 27.9105 188.104 28.5622 188.33 29.1862L190.367 34.9957C190.692 35.9243 190.763 36.0079 191.484 36.1466L191.696 36.1882C191.81 36.2848 191.81 36.5205 191.71 36.5898C191.131 36.5621 190.607 36.5487 189.872 36.5487C189.264 36.5487 188.641 36.576 188.146 36.5898C188.033 36.5205 188.019 36.2709 188.104 36.1882L188.415 36.1466C188.924 36.0772 188.995 35.9936 188.783 35.4112L188.118 33.5259C187.991 33.1515 187.934 33.1515 187.538 33.1515H185.657Z" fill="#8C9EBC"/>
<path d="M194.174 28.5618C194.174 27.9794 194.16 27.9517 193.792 27.9517H193C191.699 27.9517 191.317 28.1042 190.793 29.2273C190.694 29.3105 190.397 29.2689 190.341 29.1303C190.581 28.3815 190.793 27.5218 190.892 27.0365C190.921 26.9949 190.977 26.981 191.049 26.981C191.105 26.981 191.161 26.9949 191.19 27.0365C191.26 27.3831 191.458 27.397 192.42 27.397H198.191C198.884 27.397 199.096 27.3554 199.266 27.0365C199.322 27.0092 199.379 26.981 199.436 26.981C199.521 26.981 199.591 27.0092 199.62 27.0504C199.478 27.6189 199.365 28.8114 199.407 29.2551C199.337 29.366 199.096 29.3937 198.969 29.2967C198.785 28.2151 198.516 27.9517 197.003 27.9517H196.196C195.829 27.9517 195.815 27.9794 195.815 28.5618V34.5515C195.815 36.0209 195.942 36.0625 196.607 36.1318L197.116 36.1877C197.215 36.2848 197.201 36.5339 197.088 36.5898C196.267 36.5617 195.631 36.5482 195.009 36.5482C194.386 36.5482 193.721 36.5617 192.816 36.5898C192.703 36.5339 192.689 36.2571 192.788 36.1877L193.382 36.1184C194.047 36.0352 194.174 36.0209 194.174 34.5515V28.5618Z" fill="#8C9EBC"/>
<path d="M202.803 34.5515C202.803 36.0213 202.931 36.0625 203.596 36.1466L203.907 36.1877C204.006 36.2848 203.992 36.5339 203.878 36.5898C203.256 36.5621 202.62 36.5482 201.997 36.5482C201.375 36.5482 200.71 36.5621 200.088 36.5898C199.975 36.5339 199.96 36.2848 200.059 36.1877L200.37 36.1466C201.035 36.0625 201.163 36.0213 201.163 34.5515V29.3937C201.163 27.9244 201.035 27.8823 200.37 27.7996L200.059 27.7575C199.96 27.6605 199.975 27.4113 200.088 27.3559C200.71 27.3836 201.346 27.397 201.997 27.397C202.62 27.397 203.256 27.3836 203.878 27.3559C203.992 27.4113 204.006 27.6605 203.907 27.7575L203.596 27.7996C202.931 27.8823 202.803 27.9244 202.803 29.3937V34.5515Z" fill="#8C9EBC"/>
<path d="M206.706 31.695C206.706 33.608 207.541 36.2149 209.959 36.2149C211.572 36.2149 212.873 35.0363 212.873 32.2496C212.873 30.1558 211.911 27.7297 209.662 27.7297C208.248 27.7297 206.706 28.7419 206.706 31.695ZM214.796 32C214.796 34.7312 212.675 36.7695 209.818 36.7695C206.622 36.7695 204.782 34.5648 204.782 32.0971C204.782 29.2684 206.876 27.175 209.846 27.175C213.113 27.175 214.796 29.4764 214.796 32Z" fill="#8C9EBC"/>
<path d="M224.007 34.1918C224.007 34.6074 224.007 36.3129 224.05 36.6318C223.937 36.7844 223.739 36.8403 223.569 36.826C223.343 36.5348 222.932 36.0633 221.914 34.9267L218.604 31.2245C217.699 30.1988 217.232 29.6853 216.992 29.4778C216.949 29.4778 216.949 29.6303 216.949 30.3648V33.0687C216.949 34.1086 216.964 35.3839 217.204 35.7999C217.331 36.0083 217.572 36.1049 217.925 36.147L218.237 36.1886C218.364 36.2852 218.35 36.5491 218.208 36.5907C217.685 36.5625 217.133 36.5491 216.596 36.5491C216.002 36.5491 215.62 36.5625 215.125 36.5907C215.012 36.5209 214.984 36.2852 215.097 36.1886L215.408 36.1192C215.676 36.0633 215.931 36.0217 216.03 35.7999C216.214 35.37 216.214 34.1641 216.214 33.0687V29.7828C216.214 28.7013 216.228 28.4794 215.747 28.0773C215.592 27.9525 215.195 27.8416 214.997 27.8L214.786 27.7584C214.687 27.6752 214.7 27.3979 214.842 27.3563C215.379 27.4117 216.157 27.3978 216.511 27.3978C216.808 27.3978 217.147 27.384 217.487 27.3563C217.727 27.9525 219.269 29.6996 219.764 30.2265L221.179 31.7237C221.772 32.3615 223.088 33.8313 223.229 33.9145C223.272 33.8729 223.272 33.8036 223.272 33.5817V30.8778C223.272 29.8383 223.258 28.5626 223.003 28.1466C222.876 27.9386 222.65 27.8416 222.296 27.8L221.971 27.7584C221.843 27.6613 221.858 27.3979 221.999 27.3563C222.55 27.384 223.074 27.3978 223.626 27.3978C224.234 27.3978 224.601 27.384 225.111 27.3563C225.224 27.4256 225.252 27.6613 225.139 27.7584L224.814 27.8277C224.545 27.8832 224.304 27.9248 224.205 28.1466C224.007 28.5765 224.007 29.7828 224.007 30.8778V34.1918Z" fill="#8C9EBC"/>
<path d="M229.794 32.5275C230.19 32.5275 230.246 32.4998 230.133 32.167L229.539 30.503C229.285 29.7681 229.214 29.5047 229.143 29.4076H229.115C229.058 29.5047 228.931 29.8513 228.69 30.503L228.096 32.1254C227.955 32.5275 227.983 32.5275 228.323 32.5275H229.794ZM228.096 33.1515C227.728 33.1515 227.743 33.1515 227.615 33.5259L227.036 35.1894C226.753 36.0079 226.809 36.0352 227.333 36.1188L227.743 36.1882C227.842 36.2848 227.828 36.5344 227.715 36.5898C227.262 36.5621 226.795 36.5621 226.215 36.5487C225.749 36.5487 225.31 36.5621 224.815 36.5898C224.716 36.5205 224.702 36.3125 224.801 36.1882L225.225 36.1188C225.635 36.0495 225.791 35.9386 226.003 35.4806C226.173 35.12 226.399 34.5377 226.696 33.7893L228.634 28.8534C228.804 28.4097 228.945 28.0765 228.902 27.8412C229.397 27.7441 229.864 27.1756 229.893 27.1756C230.006 27.1756 230.076 27.2172 230.133 27.2865C230.359 27.9105 230.543 28.5622 230.77 29.1862L232.806 34.9957C233.132 35.9243 233.203 36.0079 233.924 36.1466L234.136 36.1882C234.249 36.2848 234.249 36.5205 234.15 36.5898C233.57 36.5621 233.046 36.5487 232.311 36.5487C231.703 36.5487 231.081 36.576 230.586 36.5898C230.473 36.5205 230.458 36.2709 230.543 36.1882L230.854 36.1466C231.364 36.0772 231.434 35.9936 231.222 35.4112L230.557 33.5259C230.43 33.1515 230.374 33.1515 229.977 33.1515H228.096Z" fill="#8C9EBC"/>
<path d="M237.347 34.2603C237.347 34.9541 237.375 35.4528 237.588 35.6885C237.757 35.8827 237.983 35.9936 239.115 35.9936C240.685 35.9936 240.912 35.9243 241.562 34.4961C241.703 34.4267 241.93 34.4683 242.001 34.5793C241.888 35.1616 241.576 36.2155 241.407 36.5898C240.812 36.5621 239.596 36.5482 238.012 36.5482H236.541C235.82 36.5482 235.112 36.5621 234.519 36.5898C234.405 36.5339 234.363 36.2571 234.49 36.1877L234.914 36.1184C235.579 36.0075 235.706 35.9936 235.706 34.5515V29.3937C235.706 27.9517 235.579 27.9101 234.914 27.813L234.519 27.7575C234.419 27.6886 234.419 27.4109 234.546 27.3559C235.254 27.3832 235.89 27.397 236.541 27.397C237.163 27.397 237.799 27.3832 238.422 27.3559C238.55 27.4109 238.564 27.6886 238.451 27.7575L238.139 27.813C237.475 27.9244 237.347 27.9517 237.347 29.3937V34.2603Z" fill="#8C9EBC"/>
<path d="M131.251 42.5666C131.251 41.0972 131.124 41.0695 130.459 40.9585L130.218 40.9169C130.119 40.8199 130.134 40.5841 130.247 40.5287C130.813 40.5564 131.449 40.5703 132.071 40.5703C132.708 40.5703 133.344 40.5564 133.966 40.5287C134.08 40.5841 134.094 40.8199 133.995 40.9169L133.684 40.9585C133.019 41.0417 132.892 41.0972 132.892 42.5666V45.7419C132.892 47.6554 133.486 49.2635 135.452 49.2635C137.305 49.2635 138.068 47.8907 138.068 45.7835V44.0502C138.068 43.0103 138.055 41.7212 137.8 41.319C137.672 41.1111 137.447 41.0136 137.092 40.9585L136.81 40.9169C136.682 40.8199 136.696 40.5703 136.838 40.5287C137.319 40.5564 137.856 40.5703 138.408 40.5703C139.002 40.5703 139.384 40.5564 139.907 40.5287C140.02 40.598 140.048 40.8199 139.935 40.9169L139.624 40.9863C139.356 41.0417 139.101 41.0972 139.002 41.319C138.804 41.7346 138.804 42.9553 138.804 44.0502V45.7003C138.804 46.9621 138.606 48.1269 137.871 48.903C137.135 49.6795 136.074 49.9434 135.098 49.9434C133.769 49.9434 132.835 49.6656 132.185 49.0559C131.548 48.4597 131.251 47.4886 131.251 46.0886V42.5666Z" fill="#8C9EBC"/>
<path d="M149.639 47.3638C149.639 47.7794 149.639 49.4849 149.682 49.8038C149.569 49.9559 149.371 50.0118 149.201 49.998C148.975 49.7063 148.564 49.2349 147.546 48.0983L144.236 44.3965C143.331 43.3704 142.864 42.8573 142.624 42.6493C142.581 42.6493 142.581 42.8023 142.581 43.5368V46.2407C142.581 47.2806 142.596 48.5559 142.836 48.9719C142.963 49.1799 143.204 49.2769 143.557 49.3189L143.869 49.3601C143.995 49.4572 143.982 49.7206 143.84 49.7622C143.317 49.7345 142.765 49.7206 142.228 49.7206C141.634 49.7206 141.252 49.7345 140.757 49.7622C140.644 49.6929 140.615 49.4572 140.729 49.3601L141.04 49.2908C141.308 49.2349 141.563 49.1937 141.662 48.9719C141.846 48.542 141.846 47.3357 141.846 46.2407V42.9544C141.846 41.8728 141.86 41.651 141.379 41.2493C141.224 41.1245 140.827 41.0131 140.629 40.9715L140.418 40.9299C140.318 40.8472 140.332 40.5694 140.474 40.5282C141.011 40.5833 141.789 40.5694 142.143 40.5694C142.44 40.5694 142.779 40.556 143.119 40.5282C143.359 41.1245 144.901 42.8716 145.396 43.3981L146.81 44.8956C147.404 45.5331 148.72 47.0033 148.861 47.0861C148.904 47.0449 148.904 46.9751 148.904 46.7537V44.0498C148.904 43.0098 148.89 41.7342 148.636 41.3186C148.508 41.1102 148.281 41.0131 147.928 40.9715L147.603 40.9299C147.476 40.8329 147.49 40.5694 147.631 40.5282C148.182 40.556 148.706 40.5694 149.257 40.5694C149.866 40.5694 150.233 40.556 150.743 40.5282C150.856 40.5976 150.884 40.8329 150.771 40.9299L150.446 40.9993C150.177 41.0547 149.936 41.0968 149.837 41.3186C149.639 41.7485 149.639 42.9544 149.639 44.0498V47.3638Z" fill="#8C9EBC"/>
<path d="M154.537 47.7234C154.537 49.1932 154.664 49.2344 155.329 49.3184L155.64 49.3596C155.739 49.4567 155.725 49.7058 155.612 49.7617C154.989 49.734 154.353 49.7201 153.731 49.7201C153.108 49.7201 152.443 49.734 151.821 49.7617C151.708 49.7058 151.694 49.4567 151.793 49.3596L152.104 49.3184C152.769 49.2344 152.896 49.1932 152.896 47.7234V42.5656C152.896 41.0962 152.769 41.0542 152.104 40.971L151.793 40.9294C151.694 40.8323 151.708 40.5828 151.821 40.5277C152.443 40.5555 153.08 40.5689 153.731 40.5689C154.353 40.5689 154.989 40.5555 155.612 40.5277C155.725 40.5828 155.739 40.8323 155.64 40.9294L155.329 40.971C154.664 41.0542 154.537 41.0962 154.537 42.5656V47.7234Z" fill="#8C9EBC"/>
<path d="M162.569 46.2851C161.99 47.5469 161.338 49.1688 161.098 49.876C161.07 49.9176 160.957 49.9453 160.857 49.9453C160.758 49.9453 160.66 49.9176 160.589 49.876C160.419 49.3218 160.193 48.6419 159.938 48.0599L157.463 42.2227C157.067 41.2933 156.94 41.0996 156.374 40.9882L156.034 40.9193C155.935 40.8222 155.935 40.5722 156.077 40.5311C156.629 40.5588 157.237 40.5722 157.788 40.5722C158.425 40.5722 158.906 40.5588 159.655 40.5311C159.782 40.6138 159.797 40.8357 159.67 40.9327L159.316 41.0159C159.005 41.0853 158.892 41.1546 158.892 41.2655C158.892 41.3908 159.005 41.6954 159.584 43.1097L160.603 45.5775C160.857 46.2019 161.239 47.0196 161.381 47.3389C162.145 45.5918 162.993 43.6782 163.743 41.7929C163.969 41.2382 163.927 41.1273 163.503 41.0302L163.092 40.9327C162.993 40.8222 163.008 40.6004 163.121 40.5311C163.701 40.5588 164.182 40.5722 164.634 40.5722C165.143 40.5722 165.61 40.5588 166.006 40.5311C166.119 40.6004 166.105 40.8222 166.035 40.9327L165.681 41.0025C165.356 41.0718 165.044 41.1685 164.804 41.571C164.408 42.2362 164.012 43.1656 163.361 44.5652L162.569 46.2851Z" fill="#8C9EBC"/>
<path d="M167.382 42.5676C167.382 41.0982 167.255 41.0427 166.59 40.9595L166.364 40.9318C166.265 40.8343 166.279 40.5851 166.393 40.5297C166.93 40.5574 167.594 40.5713 168.217 40.5713H170.919C171.824 40.5713 172.644 40.5574 172.828 40.5297C172.884 40.7654 172.97 41.8608 173.054 42.4566C172.997 42.5676 172.715 42.5957 172.602 42.5125C172.376 41.7083 172.163 41.3751 171.711 41.2507C171.385 41.1675 170.961 41.1259 170.579 41.1259H169.631C169.023 41.1259 169.023 41.1532 169.023 41.944V44.2874C169.023 44.6479 169.037 44.6614 169.363 44.6614H170.042C171.272 44.6614 171.484 44.6479 171.611 44.0512L171.711 43.5798C171.824 43.4827 172.092 43.4827 172.163 43.5937C172.149 43.9681 172.121 44.4677 172.121 44.9803C172.121 45.5072 172.149 45.9925 172.163 46.4362C172.092 46.5333 171.824 46.5333 171.711 46.4501L171.611 45.8954C171.513 45.3131 171.272 45.2853 170.042 45.2853H169.363C169.037 45.2853 169.023 45.3131 169.023 45.6597V47.4203C169.023 48.1279 169.051 48.6266 169.264 48.8624C169.433 49.0569 169.674 49.1536 170.862 49.1679C172.658 49.1817 172.97 48.793 173.465 47.6699C173.592 47.5733 173.832 47.6149 173.917 47.7535C173.832 48.3359 173.521 49.3893 173.323 49.7637C172.7 49.7359 171.484 49.7225 169.829 49.7225H168.217C167.594 49.7225 166.732 49.7359 166.096 49.7637C165.982 49.7082 165.968 49.4586 166.067 49.362L166.59 49.3061C167.255 49.2368 167.382 49.1952 167.382 47.7253V42.5676Z" fill="#8C9EBC"/>
<path d="M177.51 44.6465C177.51 45.0898 177.51 45.118 178.189 45.118C179.575 45.118 180.212 44.452 180.212 43.1351C180.212 42.0397 179.491 41.0825 178.26 41.0825C177.524 41.0825 177.51 41.1245 177.51 41.7624V44.6465ZM175.869 42.6498C175.869 41.3186 175.856 41.1522 175.191 41.0825L174.823 41.0413C174.724 40.9443 174.724 40.722 174.837 40.6531C175.728 40.5699 176.93 40.5283 178.09 40.5283C179.194 40.5283 180.155 40.6669 180.778 40.9997C181.499 41.3737 182.022 42.0254 182.022 43.0242C182.022 44.2994 181.018 44.9377 180.325 45.2146C180.24 45.2562 180.268 45.3671 180.325 45.4503C181.457 47.3223 182.164 48.5009 182.828 49.0417C183.224 49.374 183.635 49.4576 183.804 49.4715C183.875 49.527 183.875 49.6791 183.833 49.7484C183.663 49.7904 183.394 49.832 182.899 49.832C181.541 49.832 180.806 49.2913 179.943 48.0013C179.561 47.4189 179.165 46.6567 178.825 46.1159C178.571 45.7003 178.416 45.6445 177.949 45.6445C177.524 45.6445 177.51 45.6583 177.51 45.9495V47.7244C177.51 49.1938 177.638 49.2354 178.302 49.319L178.614 49.3606C178.713 49.4576 178.698 49.7068 178.585 49.7627C177.963 49.7345 177.326 49.7211 176.704 49.7211C176.082 49.7211 175.445 49.7345 174.794 49.7627C174.681 49.7068 174.639 49.4576 174.767 49.3606L175.077 49.319C175.742 49.2354 175.869 49.1938 175.869 47.7244V42.6498Z" fill="#8C9EBC"/>
<path d="M184.414 49.361C184.16 49.0698 183.976 48.1126 183.99 47.2533C184.075 47.1147 184.315 47.1008 184.429 47.1979C184.683 47.905 185.447 49.3887 186.833 49.3887C187.908 49.3887 188.516 48.7509 188.516 47.905C188.516 47.1147 188.134 46.4768 187.074 45.8944L186.465 45.5617C185.405 44.9797 184.471 44.1334 184.471 42.8859C184.471 41.5132 185.518 40.3484 187.583 40.3484C188.318 40.3484 188.855 40.5148 189.52 40.6396C189.676 40.9447 189.818 41.8598 189.818 42.5115C189.747 42.6359 189.492 42.6502 189.365 42.5531C189.153 41.8321 188.658 40.9026 187.456 40.9026C186.324 40.9026 185.857 41.6241 185.857 42.359C185.857 42.9414 186.267 43.5654 187.201 44.0502L188.077 44.5083C188.997 44.9797 190.015 45.839 190.015 47.239C190.015 48.8202 188.785 49.9434 186.734 49.9434C185.433 49.9434 184.697 49.5274 184.414 49.361Z" fill="#8C9EBC"/>
<path d="M193.918 47.7234C193.918 49.1932 194.045 49.2344 194.71 49.3184L195.021 49.3596C195.12 49.4567 195.106 49.7058 194.993 49.7617C194.37 49.734 193.734 49.7201 193.112 49.7201C192.489 49.7201 191.824 49.734 191.202 49.7617C191.089 49.7058 191.074 49.4567 191.174 49.3596L191.485 49.3184C192.15 49.2344 192.277 49.1932 192.277 47.7234V42.5656C192.277 41.0962 192.15 41.0542 191.485 40.971L191.174 40.9294C191.074 40.8323 191.089 40.5828 191.202 40.5277C191.824 40.5555 192.461 40.5689 193.112 40.5689C193.734 40.5689 194.37 40.5555 194.993 40.5277C195.106 40.5828 195.12 40.8323 195.021 40.9294L194.71 40.971C194.045 41.0542 193.918 41.0962 193.918 42.5656V47.7234Z" fill="#8C9EBC"/>
<path d="M199.647 41.7356C199.647 41.1532 199.633 41.1259 199.265 41.1259H198.473C197.171 41.1259 196.789 41.278 196.267 42.4012C196.168 42.4848 195.87 42.4432 195.813 42.3041C196.054 41.5553 196.267 40.6961 196.365 40.2103C196.394 40.1692 196.45 40.1553 196.521 40.1553C196.578 40.1553 196.634 40.1692 196.662 40.2103C196.733 40.5574 196.931 40.5708 197.893 40.5708H203.664C204.357 40.5708 204.569 40.5297 204.739 40.2103C204.796 40.183 204.852 40.1553 204.908 40.1553C204.993 40.1553 205.064 40.183 205.092 40.2246C204.951 40.7927 204.838 41.9852 204.88 42.4293C204.809 42.5398 204.569 42.5676 204.442 42.4705C204.258 41.3894 203.989 41.1259 202.475 41.1259H201.669C201.302 41.1259 201.288 41.1532 201.288 41.7356V47.7253C201.288 49.1952 201.415 49.2368 202.08 49.3061L202.589 49.362C202.688 49.4586 202.674 49.7078 202.561 49.7637C201.74 49.7359 201.104 49.7225 200.481 49.7225C199.859 49.7225 199.194 49.7359 198.289 49.7637C198.176 49.7078 198.162 49.4313 198.261 49.362L198.855 49.2927C199.519 49.209 199.647 49.1952 199.647 47.7253V41.7356Z" fill="#8C9EBC"/>
<path d="M208.827 46.9092C208.827 46.1327 208.757 45.9251 208.375 45.1898L206.677 41.9039C206.366 41.3077 206.253 41.1552 205.616 41.0161L205.249 40.9333C205.164 40.8358 205.192 40.5728 205.305 40.5312C205.913 40.5594 206.507 40.5728 207.087 40.5728C207.71 40.5728 208.573 40.5594 208.898 40.5312C209.011 40.5867 209.039 40.8358 208.926 40.9333L208.502 41.0026C208.276 41.0442 208.205 41.072 208.205 41.1829C208.205 41.2938 208.247 41.4464 208.459 41.9039C209.011 43.0964 209.535 44.2196 210.1 45.2318C210.68 44.1776 211.203 43.2074 211.755 42.1674C211.995 41.696 212.137 41.3913 212.137 41.2384C212.137 41.1001 212.009 41.0581 211.811 41.0308L211.387 40.9333C211.288 40.8358 211.288 40.6005 211.43 40.5312C212.052 40.5594 212.49 40.5728 212.915 40.5728C213.353 40.5728 213.806 40.5594 214.259 40.5312C214.385 40.6005 214.385 40.8224 214.287 40.9333L213.877 41.0161C213.24 41.1413 213.07 41.3913 212.335 42.6107C211.854 43.4011 211.43 44.1637 210.991 44.9406C210.567 45.6612 210.468 45.9524 210.468 46.8958V47.7273C210.468 49.1967 210.595 49.2383 211.288 49.3076L211.826 49.3635C211.925 49.4606 211.91 49.7097 211.797 49.7656C210.92 49.7375 210.284 49.724 209.662 49.724C209.011 49.724 208.375 49.7375 207.611 49.7656C207.498 49.7097 207.483 49.4606 207.583 49.3635L208.035 49.3076C208.7 49.2248 208.827 49.1967 208.827 47.7273V46.9092Z" fill="#8C9EBC"/>
</g>
<defs>
<clipPath id="clip0_5332_74883">
<rect width="204" height="36" fill="white" transform="translate(38 14)"/>
</clipPath>
</defs>
</svg>
