<svg width="280" height="64" viewBox="0 0 280 64" fill="none" xmlns="http://www.w3.org/2000/svg">
<path d="M91.8483 23.8402C91.8805 24.1992 91.8483 24.5582 91.7195 24.8846C91.3008 25.5048 90.4634 25.6679 89.8514 25.2436C89.6904 25.1457 89.5937 25.0152 89.4649 24.852C89.3361 24.5256 89.3039 24.1666 89.3361 23.8075V20.1193H88.1443V23.8402C88.0799 24.4603 88.2088 25.0478 88.4664 25.6027C89.4649 26.7777 91.2042 26.9409 92.3637 25.9291C92.4925 25.8311 92.5891 25.7006 92.6858 25.6027C92.9434 25.0478 93.0723 24.4603 93.0078 23.8402V20.1193H91.8161V23.8402H91.8483ZM100.77 22.3061C100.77 22.8936 100.77 23.6117 100.77 24.1013V24.3624C100.673 24.1666 100.512 23.9381 100.416 23.7749L98.0646 20.2173L98.0324 20.1846H96.9373V26.5492H98.129V24.395C98.129 23.5138 98.129 22.6978 98.129 22.2735C98.1934 22.4041 98.2901 22.5673 98.4189 22.7305L100.835 26.4839L100.867 26.5166H101.962V20.152H100.77V22.3061ZM105.923 20.152H107.115V26.5166H105.923V20.152ZM113.428 24.395L113.267 25.0152C113.235 24.8193 113.17 24.6235 113.106 24.395L111.85 20.152H110.594L112.526 26.4513V26.4839H113.911L115.94 20.1193H114.716L113.428 24.395ZM120.417 23.7749H123.348V22.6652H120.417V21.2291H123.638V20.1193H119.226V26.4839H123.896V25.3742H120.45C120.417 25.4068 120.417 23.7749 120.417 23.7749ZM131.4 23.677C131.948 23.3506 132.238 22.7304 132.238 22.1103C132.27 21.4249 131.916 20.8048 131.336 20.4784C130.853 20.2499 130.305 20.152 129.758 20.1846H127.439V26.5492H128.631V24.036H129.661L131.078 26.5492H132.496L130.95 23.9054C131.143 23.8402 131.272 23.7423 131.4 23.677ZM128.663 21.2291H129.79C130.08 21.1964 130.37 21.2617 130.627 21.3596C130.885 21.4902 131.046 21.7839 131.014 22.0777C131.014 22.3714 130.885 22.6652 130.627 22.7957C130.37 22.8936 130.08 22.9263 129.79 22.9263H128.663V21.2291ZM138.647 22.7957L137.907 22.6325C137.166 22.4693 136.94 22.3061 136.94 21.8818C136.94 21.3923 137.359 21.0985 138.003 21.0985C138.615 21.0985 139.163 21.3596 139.549 21.8166L139.581 21.8492L140.483 21.0985L140.451 21.0659C139.839 20.3804 138.937 19.9888 138.003 20.0214C136.618 20.0214 135.62 20.8374 135.62 21.9471C135.62 23.22 136.618 23.6117 137.52 23.8075L138.358 24.0034C138.97 24.1339 139.356 24.3298 139.356 24.7541C139.356 25.2436 138.905 25.5374 138.164 25.5374C137.456 25.5374 136.779 25.211 136.393 24.6235L136.361 24.5582L135.362 25.2763L135.394 25.3089C136.039 26.1575 137.069 26.6471 138.132 26.6145C139.678 26.6145 140.644 25.8311 140.644 24.6235C140.677 23.5138 139.904 23.0895 138.647 22.7957ZM144.284 20.152H145.476V26.5166H144.284V20.152ZM148.858 21.2617H150.661V26.5166H151.853V21.2617H153.657V20.152H148.858V21.2617ZM159.229 22.7631L157.683 20.152H156.298L158.585 23.9054V26.4839H159.776V23.9054L162.192 20.152H160.807L159.229 22.7631ZM171.919 20.0541C170.147 20.0541 168.956 21.3596 168.956 23.3506C168.956 25.3742 170.083 26.6471 171.919 26.6471C173.755 26.6471 174.882 25.3742 174.882 23.3506C174.882 21.3596 173.69 20.0541 171.919 20.0541ZM171.919 21.1311C172.95 21.1311 173.594 21.9798 173.594 23.3179C173.594 24.6888 172.982 25.5048 171.919 25.5048C170.856 25.5048 170.244 24.6888 170.244 23.3179C170.244 21.9798 170.888 21.1311 171.919 21.1311ZM182.29 21.2617V20.152H178.2V26.5166H179.391V23.8728H182.161V22.7631H179.391V21.2617H182.29ZM90.6888 43.3256H88.1443V31.8041H90.6566V43.3256H90.6888ZM95.9066 31.8041V41.0409H100.448V43.3582H93.3621V31.8367H95.9066V31.8041ZM104.7 31.8041V41.0409H109.241V43.3582H102.155V31.8367H104.7V31.8041ZM113.46 43.3256H110.948V31.8041H113.46V43.3256ZM121.48 36.3082C122.06 37.2874 122.608 38.2666 123.155 39.2457H123.187C123.187 39.2457 123.091 36.961 123.091 35.6228V31.7714H125.571V43.2929H123.026L120.321 38.8541C119.677 37.777 118.581 35.7534 118.581 35.7534H118.549C118.549 35.7534 118.678 37.6791 118.678 39.5068V43.2929H116.166V31.7714H118.71L121.48 36.3082ZM133.236 31.6082C136.586 31.6082 138.744 34.0235 138.744 37.5811C138.744 41.1061 136.747 43.5541 133.236 43.5541C129.758 43.5541 127.729 41.1061 127.729 37.5811C127.729 34.0235 129.887 31.6082 133.236 31.6082ZM133.236 41.3673C135.169 41.3673 136.2 39.9638 136.2 37.5485C136.2 35.1332 135.104 33.6971 133.236 33.6971C131.336 33.6971 130.273 35.1659 130.273 37.5485C130.273 39.9311 131.304 41.3673 133.236 41.3673ZM143.479 43.3256H140.966V31.8041H143.479V43.3256ZM153.141 34.97C152.368 34.1867 151.305 33.7297 150.21 33.7297C149.147 33.7297 148.407 34.1867 148.407 34.9047C148.407 35.6554 148.922 35.9492 149.953 36.145L151.789 36.5041C153.882 36.9284 155.203 37.777 155.203 39.8006C155.203 42.1832 153.109 43.5214 150.404 43.5214C148.407 43.5541 146.539 42.6728 145.282 41.1061L147.054 39.5721C147.859 40.6818 149.147 41.3673 150.5 41.3673C151.821 41.3673 152.594 40.845 152.594 39.9964C152.594 39.2131 151.917 38.9846 150.887 38.7888L149.405 38.495C147.344 38.1034 145.766 37.32 145.766 35.0679C145.766 33.0117 147.666 31.5429 150.146 31.5429C151.853 31.4777 153.528 32.1305 154.72 33.3707L153.141 34.97ZM171.114 40.8124C170.276 42.5096 168.795 43.5541 166.508 43.5541C163.126 43.5541 161.065 41.1061 161.065 37.5811C161.065 34.0235 163.19 31.6082 166.508 31.6082C168.537 31.5103 170.405 32.6853 171.21 34.5457L169.117 35.4596C168.73 34.3825 167.7 33.6645 166.572 33.6971C164.704 33.6971 163.641 35.1659 163.641 37.5485C163.641 39.9311 164.672 41.3673 166.572 41.3673C167.667 41.4325 168.666 40.8124 169.085 39.8006L171.114 40.8124ZM175.526 38.5603V43.3256H173.014V31.8041H175.526V36.2429H179.746V31.8041H182.258V43.3256H179.746V38.5603H175.526ZM187.54 43.3256H185.028V31.8041H187.54V43.3256ZM199.779 40.8124C198.942 42.5096 197.46 43.5541 195.173 43.5541C191.792 43.5541 189.73 41.1061 189.73 37.5811C189.73 34.0235 191.856 31.6082 195.173 31.6082C197.203 31.5103 199.071 32.6853 199.876 34.5457L197.782 35.4596C197.396 34.3825 196.365 33.6645 195.238 33.6971C193.37 33.6971 192.307 35.1659 192.307 37.5485C192.307 39.9311 193.338 41.3673 195.238 41.3673C196.333 41.4325 197.331 40.8124 197.75 39.8006L199.779 40.8124ZM203.29 43.3256H200.617L204.45 31.8041H207.509L211.31 43.3256H208.604L207.928 41.0409H203.934L203.29 43.3256ZM206.35 35.6881C206.157 34.97 205.963 34.1867 205.963 34.1867H205.931C205.931 34.1867 205.738 34.9374 205.512 35.6881L204.546 38.9193H207.284L206.35 35.6881ZM217.43 31.6082C219.459 31.5103 221.327 32.6853 222.132 34.5457L220.039 35.4596C219.652 34.3825 218.621 33.6645 217.494 33.6971C215.626 33.6971 214.531 35.1659 214.531 37.5485C214.531 39.9964 215.594 41.4652 217.494 41.4652C219.137 41.4652 219.91 40.3881 220.039 39.0173H216.818V36.7652H222.229V43.3256H220.006V42.3138C219.233 43.1298 218.17 43.5867 217.043 43.5214C213.919 43.5214 212.019 41.0735 212.019 37.5485C211.986 34.0235 214.112 31.6082 217.43 31.6082ZM229.572 31.6082C232.922 31.6082 235.08 34.0235 235.08 37.5811C235.08 41.1061 233.083 43.5541 229.572 43.5541C226.094 43.5541 224.065 41.1061 224.065 37.5811C224.065 34.0235 226.19 31.6082 229.572 31.6082ZM229.572 41.3673C231.505 41.3673 232.535 39.9638 232.535 37.5485C232.535 35.1332 231.44 33.6971 229.572 33.6971C227.672 33.6971 226.609 35.1659 226.609 37.5485C226.609 39.9311 227.608 41.3673 229.572 41.3673Z" fill="#8C9EBC"/>
<path d="M60.3158 13.0039C50.1057 13.0039 41.7959 21.3921 41.7959 31.7713C41.7959 42.1504 50.0735 50.5386 60.3158 50.5386C70.526 50.5386 78.8358 42.1504 78.8358 31.7713C78.8358 21.4247 70.5582 13.0039 60.3158 13.0039ZM49.848 35.2636C50.2345 35.6553 50.7499 35.8185 51.2652 35.7532C51.7806 35.8185 52.2959 35.6227 52.6824 35.2636C53.0045 34.7414 53.1655 34.1539 53.1011 33.5338V26.2227H56.7407V33.4685C56.7407 35.1657 56.5474 36.0143 56.0965 36.8303C55.2913 38.1685 53.1655 38.6907 51.2974 38.6907C49.4293 38.6907 47.3036 38.1685 46.4983 36.8303C46.0152 36.0143 45.8542 35.1657 45.8542 33.4685V26.2227H49.4937V33.5338C49.3971 34.1539 49.526 34.7414 49.848 35.2636ZM58.9309 38.4622V26.2227H62.5382V38.4622H58.9309ZM70.3327 38.6907C66.4999 38.6907 64.3419 36.1122 64.3419 32.3588C64.3419 28.6053 66.6609 26.0268 70.4293 26.0268C73.2959 26.0268 75.0029 27.6914 75.6149 29.2907L72.4585 30.8247C72.1686 29.6497 71.4922 28.9317 70.3649 28.9317C68.8189 28.9317 68.0459 30.2372 68.0459 32.3588C68.0459 34.4803 68.8189 35.7206 70.3649 35.7206C71.299 35.7532 72.1686 35.1331 72.394 34.1865L75.6793 35.3615C74.7775 37.3199 73.0704 38.6907 70.3327 38.6907Z" fill="#8C9EBC"/>
</svg>
