<svg width="280" height="64" viewBox="0 0 280 64" fill="none" xmlns="http://www.w3.org/2000/svg">
<g clip-path="url(#clip0_5332_74820)">
<path d="M46.8185 19.505V22.0678H48.5586V36.3478H44.8781V17.5628H46.8352V15H37.6547V17.5628H39.6118V36.3478H35.8896V22.0678H37.6297V19.505H28.9917V22.0678H30.9405V38.6003L34.1119 41.8983H39.6202V45.7063H37.6714V49.0043H46.8518V45.7063H44.9031V41.8983H50.3696L53.5411 38.6003V22.0678H55.494V19.505H46.856H46.8185Z" fill="#8C9EBC"/>
<path d="M64.8037 37.9499H66.2684V26.8149H64.8037V26.1816H70.312V26.8149H68.8681V37.9499H70.312V38.5831H64.8037V37.9499Z" fill="#4C5B74"/>
<path d="M81.9963 38.7148H80.9155L73.6546 29.4498V36.6323C73.6546 37.2273 73.7089 37.5928 73.8174 37.733C73.9259 37.869 74.1888 37.937 74.6019 37.937H75.3322V38.5703H71.6016V37.937H72.0773C72.4779 37.937 72.7491 37.869 72.8827 37.733C72.9786 37.597 73.0287 37.2315 73.0287 36.6323V26.1348H74.3474L81.3579 35.1023V28.0898C81.3579 27.4948 81.3036 27.1208 81.1951 26.972C81.0866 26.836 80.8237 26.768 80.4106 26.768H79.9349V26.1348H83.411V26.768H82.9352C82.5221 26.768 82.2592 26.836 82.1507 26.972C82.0422 27.1208 81.988 27.4948 81.988 28.0898V38.6723" fill="#4C5B74"/>
<path d="M84.5 37.9499H85.9647V26.8149H84.5V26.1816H90.2169C91.473 26.1816 92.3868 26.3006 92.9585 26.5344C93.5803 26.7936 94.2021 27.2781 94.8238 27.9879C95.8128 29.1439 96.3052 30.6186 96.3052 32.4079C96.3052 33.7126 96.0382 34.8729 95.4998 35.8929C94.8781 37.0361 93.9892 37.8309 92.8292 38.2771C92.366 38.4386 91.9028 38.5364 91.4396 38.5746C91.2309 38.5874 90.8303 38.5916 90.2336 38.5916H84.5167V37.9584L84.5 37.9499ZM88.5603 26.8234V37.9584H90.242C90.8637 37.9584 91.3102 37.9031 91.5773 37.7926C92.2241 37.5334 92.6789 36.9469 92.9502 36.0416C93.1588 35.2724 93.2632 34.0484 93.2632 32.3739C93.2632 30.9076 93.1797 29.7729 93.0086 28.9654C92.825 28.1069 92.4536 27.4991 91.8944 27.1379C91.6524 26.9764 91.377 26.8786 91.0724 26.8404C90.7803 26.8149 90.5048 26.8021 90.2503 26.8021H88.5686" fill="#4C5B74"/>
<path d="M97.436 37.9499H98.9007V26.8149H97.436V26.1816H102.944V26.8149H101.5V37.9499H102.944V38.5831H97.436V37.9499Z" fill="#4C5B74"/>
<path d="M111.624 37.9495L110.635 35.34H106.813L106.174 37.2228C106.091 37.4693 106.045 37.6308 106.045 37.7073C106.045 37.8688 106.253 37.9495 106.667 37.9495H107.509V38.5828H103.725V37.9495H104.271C104.709 37.9495 105.01 37.8815 105.168 37.7456C105.277 37.6606 105.406 37.4056 105.552 36.9805L109.467 26.1855H110.051L114.22 37.958H115.501V38.5913H110.034V37.958H111.607L111.624 37.9495ZM107.017 34.7153H110.401L108.699 29.9128L107.017 34.7153Z" fill="#4C5B74"/>
<path d="M126.229 38.7148H125.148L117.888 29.4498V36.6323C117.888 37.2273 117.942 37.5928 118.05 37.733C118.159 37.869 118.422 37.937 118.835 37.937H119.565V38.5703H115.834V37.937H116.31C116.711 37.937 116.982 37.869 117.116 37.733C117.212 37.597 117.262 37.2315 117.262 36.6323V26.1348H118.58L125.591 35.1023V28.0898C125.591 27.4948 125.537 27.1208 125.428 26.972C125.32 26.836 125.057 26.768 124.644 26.768H124.168V26.1348H127.644V26.768H127.168C126.755 26.768 126.492 26.836 126.384 26.972C126.275 27.1208 126.221 27.4948 126.221 28.0898V38.6723" fill="#4C5B74"/>
<path d="M135.41 37.9495L134.421 35.34H130.599L129.96 37.2228C129.877 37.4693 129.831 37.6308 129.831 37.7073C129.831 37.8688 130.04 37.9495 130.453 37.9495H131.296V38.5828H127.511V37.9495H128.057C128.496 37.9495 128.796 37.8815 128.955 37.7456C129.063 37.6606 129.192 37.4056 129.338 36.9805L133.253 26.1855H133.837L138.006 37.958H139.287V38.5913H133.82V37.958H135.393L135.41 37.9495ZM130.803 34.7153H134.187L132.485 29.9128L130.803 34.7153Z" fill="#4C5B74"/>
<path d="M145.842 34.6349V26.8149H144.377V26.1816H150.053V26.8149H148.425V34.6349C148.425 35.4169 148.45 35.9524 148.5 36.2371C148.596 36.8704 148.884 37.3506 149.36 37.6694C149.773 37.9669 150.316 38.1156 150.987 38.1156C152.147 38.1156 152.961 37.7756 153.437 37.0914C153.646 36.7811 153.771 36.4539 153.821 36.1054C153.883 35.7696 153.913 35.2809 153.913 34.6349V28.1749C153.913 27.5671 153.858 27.1889 153.75 27.0401C153.641 26.9041 153.37 26.8361 152.944 26.8361H152.469V26.2029H155.945V26.8361H155.469C155.069 26.8361 154.81 26.9041 154.701 27.0401C154.593 27.1889 154.539 27.5671 154.539 28.1749V34.6349C154.539 35.6294 154.484 36.3009 154.376 36.6451C154.121 37.4271 153.62 38.0094 152.878 38.3961C152.172 38.7574 151.342 38.9359 150.391 38.9359C149.489 38.9359 148.642 38.7871 147.849 38.4896C146.973 38.1411 146.385 37.6269 146.093 36.9426C145.959 36.6451 145.884 36.2711 145.871 35.8249C145.859 35.6379 145.855 35.2426 145.855 34.6349" fill="#4C5B74"/>
<path d="M166.707 38.7148H165.626L158.365 29.4498V36.6323C158.365 37.2273 158.419 37.5928 158.528 37.733C158.636 37.869 158.899 37.937 159.312 37.937H160.043V38.5703H156.312V37.937H156.788C157.188 37.937 157.46 37.869 157.593 37.733C157.689 37.597 157.739 37.2315 157.739 36.6323V26.1348H159.058L166.068 35.1023V28.0898C166.068 27.4948 166.014 27.1208 165.906 26.972C165.797 26.836 165.534 26.768 165.121 26.768H164.645V26.1348H168.121V26.768H167.646C167.233 26.768 166.97 26.836 166.861 26.972C166.753 27.1208 166.698 27.4948 166.698 28.0898V38.6723" fill="#4C5B74"/>
<path d="M168.793 37.9499H170.258V26.8149H168.793V26.1816H174.301V26.8149H172.857V37.9499H174.301V38.5831H168.793V37.9499Z" fill="#4C5B74"/>
<path d="M180.895 26.814H179.43L182.522 34.9315L184.918 27.579C184.98 27.3665 185.009 27.2432 185.009 27.205C185.009 27.0562 184.955 26.9585 184.847 26.9075C184.726 26.8437 184.438 26.814 183.987 26.814H183.586V26.1807H187.117V26.814H186.825C186.457 26.814 186.174 26.899 185.965 27.0732C185.819 27.1965 185.665 27.4897 185.506 27.9487L181.921 38.8287H181.392L176.76 26.8012H175.625V26.168H180.924V26.8012" fill="#4C5B74"/>
<path d="M187.572 37.9499H189.036V26.8149H187.572V26.1816H197.169L197.445 29.3479H196.84C196.619 28.3916 196.301 27.7286 195.888 27.3546C195.609 27.1081 195.254 26.9466 194.828 26.8701C194.586 26.8319 194.211 26.8149 193.714 26.8149H191.594V31.9574H192.108C192.729 31.9574 193.193 31.8596 193.497 31.6599C193.827 31.4346 194.027 31.1031 194.102 30.6526C194.127 30.4911 194.152 30.2234 194.177 29.8536H194.782V34.9111H194.177C194.14 34.1929 194.031 33.6616 193.848 33.3259C193.581 32.8286 192.984 32.5821 192.053 32.5821H191.594V37.9371H193.276C194.215 37.9371 194.92 37.8394 195.396 37.6396C196.26 37.2911 196.873 36.2881 197.224 34.6221H197.829L197.574 38.5704H187.559V37.9371" fill="#4C5B74"/>
<path d="M198.838 37.9499H200.303V26.8149H198.838V26.1816H204.096C205.244 26.1816 206.108 26.2624 206.692 26.4239C207.472 26.6236 208.081 27.0529 208.52 27.7074C208.787 28.1069 208.92 28.5701 208.92 29.1056C208.92 30.1256 208.44 30.9119 207.476 31.4729C207.026 31.7449 206.537 31.9064 206.012 31.9574C205.657 31.9956 205.386 32.0211 205.19 32.0339C205.786 32.1104 206.437 32.3016 207.147 32.6119C207.864 32.9221 208.365 33.4194 208.645 34.1036C208.791 34.4521 208.866 34.8219 208.866 35.2214L208.828 36.2286V36.3604C208.828 36.9426 208.933 37.3719 209.141 37.6439C209.325 37.8691 209.55 37.9796 209.817 37.9796H210.293V38.6129H208.574C207.889 38.6129 207.397 38.4769 207.092 38.2049C206.85 37.9796 206.671 37.7629 206.562 37.5546C206.416 37.3166 206.341 36.9639 206.341 36.4921V34.8516C206.341 34.0059 206.133 33.3981 205.72 33.0241C205.39 32.7394 205.056 32.5396 204.714 32.4291C204.459 32.3441 204.013 32.2974 203.378 32.2974H202.865V37.9924H204.309V38.6256H198.801V37.9924L198.838 37.9499ZM202.844 26.8574V31.7024H204.071C204.68 31.7024 205.114 31.6386 205.369 31.5154C205.991 31.2561 206.304 30.4486 206.304 29.0929C206.304 28.2599 206.12 27.6521 205.757 27.2654C205.598 27.0911 205.369 26.9721 205.06 26.9126C204.864 26.8744 204.534 26.8574 204.071 26.8574H202.844Z" fill="#4C5B74"/>
<path d="M218.869 26.1767H219.344V29.53H218.76C218.664 28.8712 218.376 28.2338 217.9 27.6133C217.387 26.929 216.619 26.589 215.597 26.589C215 26.589 214.47 26.7335 214.007 27.0183C213.448 27.3668 213.164 27.8513 213.164 28.4718C213.164 28.8798 213.294 29.2368 213.548 29.5343C213.79 29.8445 214.266 30.1123 214.975 30.3333C214.988 30.3333 215.05 30.3502 215.159 30.3885C215.267 30.414 215.422 30.4565 215.618 30.5203C215.826 30.5713 216.043 30.6265 216.277 30.686C217.229 30.9707 217.88 31.1833 218.234 31.3193C219.002 31.6423 219.561 32.1565 219.916 32.8663C220.196 33.4358 220.337 34.0648 220.337 34.749C220.337 35.5565 220.141 36.3088 219.753 37.0015C219.361 37.6603 218.798 38.1575 218.051 38.4932C217.416 38.778 216.765 38.9225 216.094 38.9225C214.946 38.9225 213.861 38.5485 212.839 37.8048L212.217 38.6038H211.704V35.14H212.363C212.572 35.9858 212.901 36.636 213.352 37.095C214.049 37.8388 214.95 38.2127 216.06 38.2127C216.745 38.2127 217.354 38.0087 217.888 37.5965C218.485 37.1375 218.785 36.6105 218.785 36.0112C218.785 35.4885 218.585 35.0253 218.18 34.613C217.838 34.239 217.37 33.967 216.774 33.7928C216.494 33.7163 215.73 33.4867 214.487 33.1042C213.803 32.8917 213.348 32.7133 213.114 32.5645C212.175 31.944 211.708 31.0175 211.708 29.7892C211.708 28.5992 212.088 27.6473 212.843 26.9375C213.573 26.2278 214.487 25.875 215.584 25.875C216.29 25.875 216.97 26.0408 217.612 26.3765L218.251 26.7505L218.873 26.1725" fill="#4C5B74"/>
<path d="M221.372 37.9499H222.837V26.8149H221.372V26.1816H226.88V26.8149H225.436V37.9499H226.88V38.5831H221.372V37.9499Z" fill="#4C5B74"/>
<path d="M230.553 37.9495H232.197V26.8145H231.704C230.974 26.8145 230.431 26.908 230.077 27.095C229.2 27.5668 228.7 28.5358 228.579 30.002H227.974L228.211 26.1855H238.727L238.965 30.002H238.343C238.268 29.0585 238.01 28.2893 237.559 27.6943C237.242 27.299 236.858 27.044 236.407 26.9293C236.165 26.8528 235.781 26.8188 235.255 26.8188H234.763V37.9538H236.39V38.587H230.548V37.9538" fill="#4C5B74"/>
<path d="M242.237 37.9487H243.881V32.8487L240.372 26.8137H239.257V26.1805H244.891V26.8137H243.318L246.226 31.9137L248.492 27.5787C248.613 27.3407 248.676 27.1707 248.676 27.056C248.676 26.9455 248.609 26.8562 248.475 26.7967C248.438 26.784 248.292 26.7797 248.037 26.7797H247.194V26.1465H250.725V26.7797H250.395C250.028 26.7797 249.756 26.8562 249.573 27.005C249.477 27.0815 249.318 27.3152 249.097 27.7147L246.481 32.8147V37.9147H248.108V38.548H242.266V37.9147" fill="#4C5B74"/>
</g>
<defs>
<clipPath id="clip0_5332_74820">
<rect width="222" height="34" fill="white" transform="translate(29 15)"/>
</clipPath>
</defs>
</svg>
