<svg width="140" height="70" viewBox="0 0 140 70" fill="none" xmlns="http://www.w3.org/2000/svg">
<path d="M38.6426 16.7988V53.2006V16.7988ZM51.14 16.7988V41.5725V16.7988ZM63.6373 16.7988V53.2006V16.7988ZM76.1347 16.7988V24.035V16.7988ZM88.8532 28.4193V53.193V28.4193Z" fill="black"/>
<path fill-rule="evenodd" clip-rule="evenodd" d="M42.48 16.7988V53.2006H34.8057V16.7988H42.48ZM54.9774 16.7988V41.5725H47.303V16.7988H54.9774ZM67.4747 16.7988V53.2006H59.8004V16.7988H67.4747ZM79.9721 16.7988V24.035H72.2978V16.7988H79.9721ZM85.0163 53.193V28.4193H92.6906V53.193H85.0163Z" fill="#4C5B74"/>
<path fill-rule="evenodd" clip-rule="evenodd" d="M72.2979 53.1935V28.4199H79.9722V53.1935H72.2979Z" fill="#8C9EBC"/>
<path fill-rule="evenodd" clip-rule="evenodd" d="M105.193 24.0385H85.0176V16.8027H105.193V24.0385Z" fill="#4C5B74"/>
</svg>
