<svg width="280" height="64" viewBox="0 0 280 64" fill="none" xmlns="http://www.w3.org/2000/svg">
<path d="M35.6523 17.1074H65.2813V47.0584H35.6523V17.1074Z" fill="#273246"/>
<path fill-rule="evenodd" clip-rule="evenodd" d="M35.6523 17.1074H65.2813V47.0584H35.6523V17.1074Z" stroke="#231F20" stroke-width="2.23914"/>
<path d="M77.6822 27.8948H79.2924L83.3181 33.0476V27.7337H85.2504V36.2682H83.6401L79.2924 30.9543V36.2682H77.6822V27.7337V27.8948ZM88.471 27.8948H94.912V29.505H90.2422V31.1153H94.2679V32.7256H90.2422V34.6579H94.912V36.2682H88.471V27.7337V27.8948ZM97.0054 27.8948H99.0987L100.709 33.5307L102.641 27.7337H104.252L106.184 33.5307L107.955 27.7337H109.888L106.989 36.2682H105.379L103.446 30.7932L101.514 36.2682H99.9039L97.0054 27.8948ZM119.549 32.8866L116.329 27.8948H118.583L120.676 31.4373L122.609 27.8948H124.863L121.642 33.0476V36.2682H119.549V33.0476V32.8866ZM125.99 32.0815C125.99 29.6661 127.761 27.7337 130.338 27.7337C132.914 27.7337 134.847 29.6661 134.847 32.0815C134.847 34.4969 132.914 36.4292 130.338 36.4292C127.761 36.4292 125.99 34.3358 125.99 32.0815ZM133.075 32.0815C133.075 30.4712 131.948 29.344 130.499 29.344C128.889 29.344 127.923 30.6322 127.923 32.0815C127.923 33.5307 129.05 34.6579 130.499 34.6579C132.109 34.6579 133.075 33.5307 133.075 32.0815ZM137.745 27.8948H141.61C142.737 27.8948 143.542 28.0558 144.025 28.6999C144.508 29.183 144.83 29.8271 144.83 30.6322C144.83 31.9204 144.025 32.8866 142.898 33.2086L144.991 36.2682H142.898L140.966 33.5307H139.516V36.2682H137.745V27.7337V27.8948ZM141.449 31.9204C142.415 31.9204 142.898 31.4373 142.898 30.7932C142.898 29.8271 142.254 29.505 141.288 29.505H139.677V31.9204H141.449ZM147.729 27.8948H149.5V31.4373L152.882 27.8948H155.136L151.754 31.4373L155.297 36.2682H153.043L150.466 32.7256L149.5 33.6917V36.2682H147.729V27.7337V27.8948ZM162.382 32.7256V27.8948H164.154V32.7256C164.154 34.0138 164.959 34.6579 166.086 34.6579C167.213 34.6579 167.857 34.0138 167.857 32.7256V27.8948H169.789V32.7256C169.789 35.141 168.179 36.4292 166.086 36.4292C163.832 36.4292 162.382 35.141 162.382 32.5645V32.7256ZM172.688 27.8948H174.62L178.485 33.0476V27.7337H180.417V36.2682H178.807L174.62 30.9543V36.2682H172.849V27.7337L172.688 27.8948ZM183.638 27.7337H185.57V36.1071H183.638V27.7337ZM188.147 27.8948H190.24L192.333 33.6917L194.588 27.7337H196.52L193.299 36.2682H191.689L187.986 27.8948H188.147ZM199.096 27.8948H205.537V29.505H201.029V31.1153H204.893V32.7256H201.029V34.6579H205.537V36.2682H199.096V27.7337V27.8948ZM208.436 27.8948H212.301C213.267 27.8948 214.233 28.0558 214.716 28.6999C215.199 29.183 215.521 29.8271 215.521 30.6322C215.521 31.9204 214.716 32.8866 213.589 33.2086L215.682 36.2682H213.589L211.656 33.5307H210.207V36.2682H208.436V27.7337V27.8948ZM212.14 31.9204C213.106 31.9204 213.589 31.4373 213.589 30.7932C213.589 29.8271 212.945 29.505 211.979 29.505H210.368V31.9204H212.14ZM217.775 34.9799L218.903 33.6917C219.547 34.3358 220.513 34.6579 221.318 34.6579C222.123 34.6579 222.606 34.4969 222.606 34.0138C222.606 33.3697 222.284 33.2086 220.996 32.8866C219.225 32.4035 218.098 31.9204 218.098 30.3102C218.098 28.6999 219.386 27.7337 220.996 27.7337C222.151 27.6597 223.294 28.0026 224.217 28.6999L223.25 30.3102C222.445 29.6661 221.64 29.344 220.996 29.344C220.352 29.344 219.869 29.6661 219.869 29.9881C219.869 30.6322 220.352 30.7932 221.801 31.2763C223.411 31.5984 224.378 32.2425 224.378 33.6917C224.378 35.302 223.089 36.4292 221.318 36.4292C220.03 36.4292 218.742 35.9461 217.775 34.9799ZM227.437 27.7337H229.369V36.1071H227.437V27.7337ZM234.522 29.505H231.946V27.8948H238.87V29.505H236.294V36.2682H234.522V29.505ZM244.023 32.8866L240.802 27.7337H242.896L244.828 31.2763L246.921 27.7337H249.015L245.794 32.8866V36.1071H244.023V32.8866ZM68.1816 50.5995H30.9844V13.4023H68.1816V50.5995ZM43.8665 25.3183C42.2563 26.9286 41.6121 32.8866 48.2142 32.8866C44.3496 30.6322 44.8327 27.2507 46.443 24.9963C46.443 24.6742 45.3158 21.9368 45.3158 22.4198C45.3158 23.547 44.1886 24.9963 43.8665 25.3183ZM49.3414 32.7256C46.765 27.8948 52.2399 24.5132 52.2399 23.8691C52.2399 22.2588 51.1127 19.0383 50.9517 19.3603C50.6296 20.9706 48.5363 23.064 48.0532 23.547C44.1886 27.8948 45.1547 31.1153 49.1804 32.7256H49.3414ZM49.9855 32.7256C50.3076 27.7337 55.1384 27.0896 55.4605 26.2845C56.1046 24.6742 54.8163 21.4537 54.6553 21.6147C54.1722 22.9029 53.2061 24.0301 53.2061 24.0301C49.1804 26.9286 48.3753 29.505 49.9855 32.5645V32.7256ZM50.4686 32.7256C58.1979 33.5307 57.8759 24.6742 57.8759 24.6742C57.3928 25.6404 56.2656 26.2845 56.2656 26.2845C55.2994 27.5727 51.4348 27.8948 50.4686 32.7256ZM46.926 34.9799H51.9179V33.3697H46.765V34.9799H46.926ZM49.0194 45.7687C49.0194 46.0908 49.6635 46.2518 49.8245 45.7687L51.1127 35.624H47.8922L49.0194 45.7687Z" fill="#8C9EBC"/>
</svg>
