<svg width="280" height="64" viewBox="0 0 280 64" fill="none" xmlns="http://www.w3.org/2000/svg">
<g clip-path="url(#clip0_5332_74959)">
<path d="M85.3781 32.2045C83.9351 13.1992 69.9582 8.30255 67.4924 8.50395C65.433 8.67382 50.3256 14.5372 49.6067 32.2045C49.3688 38.0223 49.6067 55.4987 49.6067 55.4987H85.3781C85.3781 55.4987 85.8192 38.0101 85.3781 32.2045Z" fill="#4C5B74"/>
<path d="M110.356 29.7333C110.356 28.735 110.539 27.7806 110.903 26.8716C111.268 25.9627 111.798 25.1501 112.492 24.4356C113.168 23.735 113.944 23.2009 114.819 22.8331C115.694 22.4653 116.632 22.2832 117.629 22.2832C118.725 22.2832 119.716 22.4618 120.607 22.8191C121.496 23.1764 122.277 23.7088 122.955 24.4163C123.585 25.0783 124.069 25.8524 124.411 26.7421C124.752 27.6317 124.924 28.5757 124.924 29.5739C124.924 30.5389 124.766 31.4636 124.451 32.3463C124.137 33.2289 123.691 34.0047 123.113 34.672C122.404 35.4846 121.586 36.1046 120.662 36.5319C119.737 36.9592 118.74 37.1711 117.67 37.1711C115.493 37.1711 113.729 36.4846 112.381 35.1133C111.03 33.7421 110.356 31.9487 110.356 29.7333ZM111.86 29.1081C111.86 29.9154 111.97 30.7035 112.19 31.4741C112.411 32.2447 112.737 32.9942 113.17 33.721C113.708 34.6265 114.368 35.313 115.147 35.7788C115.927 36.2447 116.807 36.4776 117.785 36.4776C119.511 36.4776 120.878 35.9154 121.885 34.7911C122.892 33.6667 123.396 32.1361 123.396 30.1991C123.396 29.3918 123.264 28.5704 123.001 27.7333C122.739 26.8962 122.364 26.1221 121.88 25.4075C121.348 24.6142 120.706 24.0118 119.956 23.6019C119.204 23.1921 118.36 22.9872 117.42 22.9872C115.746 22.9872 114.401 23.5459 113.385 24.6632C112.369 25.7823 111.86 27.2639 111.86 29.1081Z" fill="#8C9EBC"/>
<path d="M131.264 34.2453V24.0089C131.264 23.818 131.222 23.6849 131.141 23.6113C131.059 23.5378 130.913 23.5028 130.703 23.5028H127.9C127.539 23.5028 127.242 23.5921 127.009 23.7707C126.777 23.9493 126.568 24.2471 126.384 24.6639C126.339 24.776 126.285 24.9423 126.226 25.1595C126.141 25.4905 126.027 25.6551 125.883 25.6551C125.804 25.6481 125.751 25.6271 125.725 25.5903C125.698 25.5535 125.685 25.487 125.685 25.3872C125.685 25.3084 125.686 25.2418 125.69 25.1893C125.693 25.1367 125.698 25.0877 125.704 25.0404L125.921 22.9966C125.94 22.818 125.985 22.7007 126.053 22.6446C126.122 22.5886 126.299 22.5605 126.589 22.5605C126.674 22.5605 126.982 22.5816 127.51 22.6253C128.037 22.6691 128.52 22.6901 128.96 22.6901H135.244C135.735 22.6901 136.268 22.6691 136.841 22.6253C137.414 22.5816 137.744 22.5605 137.829 22.5605C137.967 22.5605 138.069 22.5886 138.135 22.6446C138.201 22.7007 138.239 22.7917 138.253 22.9178L138.39 24.7637V24.9021C138.39 25.0352 138.371 25.1315 138.331 25.1945C138.291 25.2576 138.229 25.2891 138.144 25.2891C138 25.2891 137.904 25.1577 137.859 24.8915C137.814 24.6271 137.76 24.4415 137.701 24.3364C137.569 24.0719 137.361 23.867 137.072 23.7217C136.784 23.5763 136.449 23.5028 136.069 23.5028H133.452C133.209 23.5028 133.045 23.5395 132.96 23.6113C132.875 23.6849 132.832 23.8232 132.832 24.0281V34.3241C132.832 34.9388 132.882 35.3469 132.985 35.55C133.085 35.7514 133.289 35.9196 133.589 36.0509C133.74 36.1245 133.943 36.1858 134.199 36.2401C134.232 36.2471 134.258 36.2541 134.277 36.2593C134.454 36.2856 134.568 36.3206 134.62 36.3626C134.673 36.4064 134.699 36.4695 134.699 36.5553C134.699 36.6604 134.662 36.7392 134.591 36.7882C134.518 36.8372 134.407 36.8618 134.256 36.8618C134.093 36.8618 133.754 36.839 133.243 36.7917C132.733 36.7444 132.306 36.7217 131.965 36.7217C131.512 36.7217 131.038 36.7514 130.54 36.811C130.041 36.8705 129.769 36.9003 129.724 36.9003C129.606 36.9003 129.512 36.8758 129.444 36.8267C129.376 36.7777 129.342 36.7094 129.342 36.6236C129.342 36.5185 129.378 36.4379 129.449 36.3854C129.522 36.3329 129.678 36.2891 129.922 36.2558C129.948 36.2488 129.981 36.2418 130.021 36.2366C130.25 36.184 130.42 36.135 130.533 36.0877C130.814 35.9616 131.007 35.8005 131.108 35.6008C131.214 35.4064 131.264 34.9528 131.264 34.2453Z" fill="#8C9EBC"/>
<path d="M140.94 34.0671V25.2685C140.94 24.6924 140.896 24.2861 140.808 24.0479C140.719 23.8097 140.566 23.6048 140.351 23.4332C140.266 23.3666 140.169 23.3123 140.061 23.2703C139.953 23.2265 139.816 23.1897 139.653 23.1565C139.483 23.1302 139.373 23.0952 139.323 23.0531C139.274 23.0094 139.25 22.9498 139.25 22.8692C139.25 22.7572 139.274 22.6801 139.323 22.6416C139.372 22.603 139.472 22.582 139.623 22.582C139.682 22.582 139.929 22.5995 140.367 22.6363C140.802 22.6731 141.207 22.6906 141.582 22.6906C141.726 22.6906 142.138 22.6731 142.817 22.6363C143.496 22.5995 144.097 22.582 144.621 22.582C145.972 22.582 147.026 22.8868 147.783 23.4945C148.54 24.1022 148.919 24.9463 148.919 26.0234C148.919 26.7834 148.698 27.4735 148.261 28.0917C147.821 28.7099 147.201 29.1985 146.401 29.554L148.712 33.1057C148.771 33.1985 148.856 33.3281 148.967 33.4927C149.917 34.9673 150.647 35.8342 151.15 36.0917C151.287 36.1652 151.473 36.2248 151.706 36.2703C151.938 36.3158 152.055 36.3929 152.055 36.498C152.055 36.6363 151.984 36.7326 151.843 36.7852C151.702 36.8377 151.402 36.864 150.943 36.864C150.294 36.864 149.73 36.6941 149.252 36.3526C148.773 36.0129 148.203 35.3158 147.54 34.265L145.446 30.913C145.243 30.596 145.02 30.3771 144.782 30.258C144.543 30.1389 144.109 30.0794 143.48 30.0794C143.074 30.0794 142.81 30.1284 142.688 30.2283C142.567 30.3281 142.506 30.5155 142.506 30.7939V34.0864C142.506 34.6749 142.556 35.0969 142.659 35.3509C142.759 35.6048 142.938 35.8185 143.195 35.9901C143.365 36.1162 143.624 36.209 143.971 36.2685C143.998 36.2756 144.015 36.2791 144.02 36.2791C144.216 36.3053 144.347 36.3421 144.409 36.3876C144.472 36.4332 144.503 36.4997 144.503 36.5855C144.503 36.6906 144.477 36.7642 144.425 36.8044C144.373 36.8447 144.27 36.864 144.119 36.864C144.034 36.864 143.742 36.8447 143.244 36.8044C142.746 36.7642 142.287 36.7449 141.867 36.7449C141.172 36.7449 140.497 36.7782 139.84 36.8447C139.722 36.8587 139.649 36.864 139.623 36.864C139.524 36.864 139.448 36.8412 139.392 36.7939C139.337 36.7484 139.309 36.6854 139.309 36.6048C139.309 36.4594 139.443 36.3333 139.712 36.2283L139.741 36.2178C139.879 36.1722 140.004 36.1179 140.115 36.0584C140.226 35.9988 140.325 35.9288 140.41 35.85C140.606 35.6784 140.745 35.4822 140.823 35.265C140.901 35.0479 140.94 34.6486 140.94 34.0671ZM142.502 24.0094V28.9393C142.502 29.1249 142.565 29.251 142.69 29.3158C142.815 29.3824 143.122 29.4157 143.614 29.4157H143.81C145.076 29.4157 145.989 29.1915 146.554 28.7414C147.118 28.2913 147.399 27.568 147.399 26.5698C147.399 25.5382 147.062 24.7309 146.39 24.1495C145.718 23.568 144.786 23.2773 143.593 23.2773C143.147 23.2773 142.853 23.3281 142.713 23.4314C142.574 23.5312 142.502 23.7239 142.502 24.0094Z" fill="#8C9EBC"/>
<path d="M153.702 34.0674V25.2688C153.702 24.6926 153.659 24.2863 153.574 24.0482C153.489 23.81 153.338 23.6051 153.12 23.4334C153.028 23.3669 152.928 23.3126 152.82 23.2706C152.712 23.2268 152.572 23.19 152.402 23.1567C152.231 23.1305 152.12 23.0954 152.066 23.0534C152.014 23.0096 151.988 22.9501 151.988 22.8695C151.995 22.7504 152.023 22.6716 152.072 22.6313C152.12 22.5911 152.221 22.5683 152.372 22.5613C152.398 22.5613 152.49 22.5683 152.648 22.5806C153.73 22.6541 154.874 22.6891 156.081 22.6891C157.543 22.6891 159.002 22.6366 160.459 22.5298C160.721 22.5105 160.883 22.5 160.942 22.5C161.105 22.5 161.212 22.528 161.261 22.5841C161.31 22.6401 161.336 22.7469 161.336 22.9063V23.0359C161.336 23.0429 161.332 23.0552 161.325 23.0762C161.318 23.0954 161.315 23.1287 161.315 23.176L161.178 24.8433C161.164 25.0079 161.141 25.12 161.108 25.176C161.075 25.232 161.02 25.2636 160.942 25.2706C160.856 25.2706 160.79 25.2391 160.745 25.176C160.698 25.113 160.676 25.0219 160.676 24.9028C160.676 24.8765 160.679 24.8363 160.686 24.7837C160.693 24.7312 160.697 24.6944 160.697 24.6751C160.697 24.1795 160.521 23.8327 160.171 23.6331C159.82 23.4335 159.176 23.3354 158.238 23.3354H156.831C156.17 23.3354 155.744 23.3914 155.557 23.5035C155.369 23.6156 155.277 23.831 155.277 24.148V28.3336C155.277 28.6979 155.317 28.9168 155.4 28.9939C155.482 29.0692 155.671 29.1077 155.967 29.1077H157.62C158.236 29.1077 158.684 29.0587 158.967 28.9588C159.248 28.859 159.469 28.6909 159.625 28.4527C159.703 28.3406 159.782 28.1567 159.856 27.9028C159.931 27.6489 160.032 27.521 160.157 27.521C160.228 27.521 160.285 27.5613 160.329 27.6401C160.372 27.7189 160.393 27.8292 160.393 27.9676C160.393 28.0009 160.379 28.2233 160.353 28.6366C160.327 29.0499 160.313 29.451 160.313 29.8415C160.313 30.2128 160.339 30.6051 160.391 31.0219C160.403 31.134 160.41 31.2075 160.41 31.2408C160.41 31.3599 160.382 31.4615 160.327 31.5438C160.271 31.6261 160.207 31.6681 160.136 31.6681C159.966 31.6611 159.86 31.5 159.822 31.1813C159.789 30.9571 159.752 30.7872 159.714 30.6751C159.603 30.3914 159.405 30.19 159.123 30.0744C158.842 29.9588 158.392 29.9011 157.776 29.9011H155.876C155.626 29.9011 155.465 29.9413 155.39 30.0201C155.315 30.0989 155.277 30.2811 155.277 30.5666V34.7137C155.277 35.2233 155.387 35.563 155.607 35.7347C155.828 35.9063 156.267 35.9921 156.93 35.9921C157.743 35.9921 158.523 35.9046 159.266 35.7294C160.011 35.5543 160.615 35.3179 161.08 35.0201C161.343 34.8485 161.588 34.6156 161.813 34.3214C162.039 34.0271 162.192 33.88 162.27 33.88C162.322 33.88 162.365 33.9116 162.398 33.9746C162.431 34.0377 162.447 34.1217 162.447 34.2268C162.447 34.4194 162.385 34.6699 162.26 34.9799C162.135 35.2916 161.983 35.5613 161.806 35.7925C161.497 36.176 161.181 36.4475 160.856 36.6051C160.532 36.7627 160.12 36.8433 159.622 36.8433C159.49 36.8433 159.03 36.824 158.24 36.7837C157.45 36.7434 156.731 36.7242 156.081 36.7242C154.921 36.7242 153.822 36.7645 152.787 36.8433C152.636 36.8573 152.544 36.8625 152.511 36.8625C152.466 36.8625 152.417 36.838 152.369 36.789C152.32 36.7399 152.296 36.6856 152.296 36.6261C152.296 36.5403 152.318 36.4685 152.365 36.4124C152.41 36.3564 152.513 36.2916 152.671 36.2198C152.683 36.2128 152.697 36.2058 152.711 36.2005C152.954 36.0954 153.131 35.9799 153.242 35.8538C153.412 35.6751 153.532 35.4685 153.601 35.2338C153.667 34.9991 153.702 34.6103 153.702 34.0674Z" fill="#8C9EBC"/>
<path d="M169.906 34.4244V24.9025C169.906 24.4069 169.859 24.0549 169.763 23.8465C169.668 23.6381 169.5 23.4612 169.256 23.3158C169.131 23.2423 168.947 23.181 168.706 23.1267C168.68 23.1197 168.663 23.1162 168.657 23.1162C168.48 23.0829 168.366 23.0461 168.313 23.0076C168.261 22.9673 168.235 22.9078 168.235 22.829C168.235 22.7624 168.275 22.7046 168.353 22.6556C168.432 22.6065 168.534 22.582 168.659 22.582C168.666 22.582 168.89 22.596 169.333 22.6258C169.776 22.6556 170.213 22.6696 170.646 22.6696C170.981 22.6696 171.529 22.6556 172.294 22.6258C173.058 22.596 173.653 22.582 174.079 22.582C176.492 22.582 178.387 23.195 179.764 24.4227C181.141 25.6486 181.828 27.3403 181.828 29.4962C181.828 31.7186 181.127 33.4962 179.724 34.8272C178.321 36.16 176.438 36.8255 174.079 36.8255C173.429 36.8255 172.722 36.8062 171.958 36.7659C171.194 36.7256 170.75 36.7064 170.626 36.7064C170.227 36.7064 169.826 36.7466 169.427 36.8255C169.027 36.9043 168.824 36.9445 168.817 36.9445C168.725 36.9445 168.642 36.9165 168.567 36.8605C168.492 36.8044 168.454 36.7466 168.454 36.6871C168.454 36.5943 168.487 36.519 168.553 36.4594C168.619 36.3999 168.746 36.3403 168.937 36.2808C168.963 36.2668 169.003 36.251 169.055 36.2318C169.239 36.153 169.366 36.0794 169.439 36.0128C169.609 35.8675 169.73 35.6836 169.803 35.4629C169.869 35.2388 169.906 34.8938 169.906 34.4244ZM171.49 34.6135C171.49 34.8587 171.505 35.0426 171.538 35.1635C171.571 35.2861 171.623 35.3736 171.696 35.4262C171.944 35.6188 172.353 35.7799 172.915 35.913C173.48 36.0461 174.072 36.1109 174.695 36.1109C176.498 36.1109 177.888 35.6013 178.866 34.5838C179.844 33.5663 180.332 32.1109 180.332 30.2195C180.332 28.0514 179.71 26.3281 178.468 25.0514C177.225 23.7747 175.546 23.1372 173.427 23.1372C172.634 23.1372 172.113 23.2195 171.863 23.3859C171.613 23.5505 171.49 23.9025 171.49 24.4367V34.6135Z" fill="#8C9EBC"/>
<path d="M184.076 34.4943L189.653 22.461C189.712 22.342 189.763 22.2666 189.806 22.2334C189.849 22.2001 189.907 22.1808 189.978 22.1738C190.07 22.1808 190.152 22.2789 190.224 22.4716C190.231 22.4856 190.238 22.4943 190.244 22.5013L194.807 34.2456C195.036 34.8411 195.257 35.2789 195.465 35.5591C195.675 35.8411 195.92 36.0407 196.203 36.1598C196.314 36.2053 196.479 36.2491 196.695 36.2894C196.983 36.342 197.127 36.4418 197.127 36.5871C197.127 36.673 197.108 36.7342 197.068 36.771C197.028 36.8078 196.96 36.8253 196.861 36.8253C196.847 36.8253 196.583 36.806 196.069 36.7658C195.555 36.7255 195.048 36.7062 194.55 36.7062C194.033 36.7062 193.498 36.743 192.947 36.8148C192.803 36.8341 192.711 36.8446 192.671 36.8446C192.619 36.8446 192.569 36.8183 192.524 36.7658C192.478 36.7132 192.454 36.6607 192.454 36.6064C192.454 36.468 192.569 36.3577 192.798 36.2789C192.85 36.2596 192.886 36.2456 192.906 36.2386C193.154 36.1458 193.329 36.046 193.432 35.9356C193.532 35.8271 193.585 35.6887 193.585 35.5241C193.585 35.4313 193.567 35.3209 193.531 35.1913C193.494 35.0617 193.444 34.9146 193.378 34.75L192.336 32.0127C192.237 31.7553 192.128 31.5854 192.006 31.5013C191.885 31.419 191.706 31.377 191.47 31.377H186.936C186.719 31.377 186.55 31.4208 186.429 31.5101C186.307 31.5994 186.175 31.806 186.031 32.13L185.038 34.2824C184.926 34.5346 184.847 34.7377 184.801 34.8919C184.756 35.0477 184.732 35.1913 184.732 35.3227C184.732 35.5083 184.796 35.6782 184.923 35.8341C185.051 35.9899 185.239 36.116 185.489 36.2159C185.567 36.2491 185.682 36.2754 185.833 36.2947C186.081 36.3349 186.206 36.4295 186.206 36.5819C186.206 36.6677 186.182 36.729 186.133 36.7658C186.085 36.8025 186.001 36.8201 185.883 36.8201C185.817 36.8201 185.526 36.8008 185.008 36.7605C184.491 36.7202 184.018 36.701 183.591 36.701C183.381 36.701 183.15 36.7202 182.898 36.7605C182.646 36.8008 182.501 36.8201 182.461 36.8201C182.402 36.8201 182.346 36.7938 182.294 36.7413C182.242 36.6887 182.216 36.6257 182.216 36.5521C182.216 36.447 182.334 36.3472 182.57 36.2544H182.58C182.594 36.2474 182.617 36.2386 182.65 36.2246C182.82 36.1511 182.949 36.0863 183.034 36.0267C183.197 35.9006 183.36 35.722 183.52 35.4908C183.681 35.2649 183.867 34.9304 184.076 34.4943ZM187.361 30.5661H191.207C191.325 30.5661 191.419 30.5486 191.487 30.5118C191.556 30.4751 191.589 30.4278 191.589 30.3682C191.589 30.3157 191.56 30.2124 191.501 30.06C191.494 30.0407 191.49 30.0267 191.49 30.0197L189.651 25.2684C189.625 25.1948 189.589 25.1371 189.544 25.0898C189.499 25.0442 189.455 25.0197 189.415 25.0197C189.363 25.0267 189.313 25.0477 189.268 25.0845C189.223 25.1213 189.183 25.1756 189.15 25.2474L186.976 29.9392C186.936 30.0127 186.906 30.0775 186.887 30.137C186.868 30.1966 186.857 30.2526 186.857 30.3052C186.857 30.391 186.897 30.4558 186.976 30.4978C187.057 30.5434 187.184 30.5661 187.361 30.5661Z" fill="#8C9EBC"/>
<path d="M200.695 26.9945C200.655 26.9157 200.615 26.8527 200.572 26.8054C200.529 26.7599 200.489 26.7318 200.449 26.7266C200.376 26.7266 200.32 26.921 200.282 27.3115C200.242 27.7021 200.204 28.4429 200.164 29.5339L200.065 32.2415C200.058 32.4726 200.053 32.7143 200.051 32.9648C200.047 33.2169 200.046 33.5602 200.046 33.9963C200.046 34.6635 200.1 35.1329 200.207 35.3991C200.315 35.6653 200.511 35.8894 200.792 36.0681C200.917 36.1469 201.1 36.2134 201.343 36.266C201.357 36.273 201.365 36.2765 201.372 36.2765C201.379 36.2765 201.386 36.2765 201.392 36.2765C201.687 36.35 201.834 36.4586 201.834 36.604C201.834 36.6828 201.796 36.7458 201.721 36.7931C201.647 36.8387 201.543 36.8632 201.412 36.8632C201.36 36.8632 201.239 36.8527 201.048 36.8334C200.398 36.7739 199.789 36.7441 199.217 36.7441C198.955 36.7441 198.683 36.7634 198.401 36.8036C198.12 36.8439 197.969 36.8632 197.948 36.8632C197.87 36.8632 197.795 36.8317 197.728 36.7686C197.66 36.7056 197.625 36.6355 197.625 36.5549C197.625 36.5024 197.641 36.4499 197.674 36.3956C197.707 36.343 197.743 36.3098 197.781 36.2958C197.8 36.2887 197.821 36.2817 197.84 36.2765C197.88 36.2625 197.91 36.2572 197.929 36.2572C198.276 36.1311 198.509 36.0085 198.627 35.8894C198.745 35.7704 198.834 35.6092 198.893 35.4026C199.03 34.9735 199.167 33.914 199.301 32.2292C199.435 30.5427 199.502 28.7143 199.502 26.7441C199.502 25.8387 199.421 25.1189 199.256 24.5865C199.092 24.0541 198.828 23.6565 198.469 23.3903C198.384 23.3168 198.233 23.2555 198.016 23.2012C198.002 23.1942 197.993 23.1907 197.986 23.1907L197.957 23.1802C197.721 23.1066 197.603 23.0015 197.603 22.8632C197.603 22.7634 197.636 22.6916 197.702 22.6443C197.768 22.5987 197.868 22.5742 198.007 22.5742C198.066 22.5742 198.224 22.5865 198.479 22.6092C198.735 22.632 198.962 22.6443 199.158 22.6443H199.316C199.342 22.6373 199.375 22.632 199.415 22.6303C199.455 22.6268 199.516 22.625 199.603 22.625C200.061 22.625 200.367 22.7896 200.518 23.1206C200.525 23.1346 200.529 23.1434 200.529 23.1504L205.465 33.6758C205.505 33.7616 205.547 33.8264 205.594 33.8684C205.639 33.9122 205.686 33.9332 205.731 33.9332C205.776 33.9332 205.821 33.9105 205.863 33.8632C205.906 33.8176 205.953 33.7406 206.005 33.6355L211.229 23.0015C211.236 22.9875 211.248 22.9648 211.269 22.9315C211.361 22.7529 211.515 22.6635 211.731 22.6635H212.154C212.344 22.6635 212.564 22.6495 212.812 22.6198C213.061 22.59 213.212 22.576 213.266 22.576C213.396 22.576 213.5 22.5987 213.575 22.646C213.649 22.6916 213.688 22.7581 213.688 22.8439C213.688 22.9893 213.563 23.0979 213.314 23.1714H213.304C213.193 23.1854 213.095 23.2064 213.014 23.2362C212.932 23.266 212.861 23.3045 212.802 23.3501C212.592 23.4884 212.444 23.6565 212.359 23.8509C212.274 24.0453 212.231 24.3413 212.231 24.7388V24.9963L212.437 34.1031C212.437 34.1294 212.437 34.1732 212.437 34.2327C212.456 35.238 212.696 35.8562 213.154 36.0873C213.246 36.1329 213.384 36.1837 213.568 36.2362C213.587 36.2432 213.608 36.2502 213.627 36.2555H213.637C213.88 36.322 214.002 36.4148 214.002 36.5339C214.002 36.6268 213.962 36.6968 213.884 36.7476C213.806 36.7984 213.691 36.8211 213.54 36.8211C213.389 36.8211 213.08 36.8071 212.611 36.7809C212.142 36.7546 211.753 36.7406 211.446 36.7406C211.144 36.7406 210.829 36.7599 210.501 36.8001C210.173 36.8404 209.999 36.8597 209.98 36.8597C209.876 36.8597 209.798 36.8422 209.749 36.8054C209.701 36.7686 209.676 36.7143 209.676 36.6425C209.676 36.5497 209.701 36.4779 209.749 36.4236C209.798 36.3711 209.914 36.315 210.098 36.2555C210.124 36.2485 210.154 36.2397 210.187 36.2257C210.22 36.2117 210.268 36.1889 210.334 36.1556C210.551 36.0506 210.703 35.8982 210.791 35.6986C210.88 35.4989 210.923 35.1819 210.923 34.7458C210.923 34.6723 210.92 34.5427 210.913 34.3535C210.906 34.1644 210.902 34.0173 210.902 33.9122L210.784 27.4849C210.77 27.1276 210.746 26.8754 210.711 26.7266C210.675 26.5777 210.617 26.5042 210.539 26.5042C210.473 26.5042 210.395 26.5602 210.303 26.6723C210.211 26.7844 210.11 26.956 209.998 27.1889L205.729 35.928C205.651 36.0996 205.576 36.2204 205.509 36.2905C205.441 36.3606 205.366 36.3938 205.288 36.3938C205.203 36.3938 205.125 36.3553 205.052 36.28C204.979 36.2047 204.911 36.0873 204.845 35.928L200.695 26.9945Z" fill="#8C9EBC"/>
<path d="M91.7385 38.4326L91.9921 30.4116C92.0025 30.2207 92.0094 30.0158 92.0146 29.7951C92.0198 29.5744 92.0216 29.2592 92.0216 28.8476C92.0216 27.4431 91.9191 26.3573 91.716 25.5884C91.5128 24.8214 91.1759 24.2014 90.7088 23.7303C90.3702 23.3993 89.9187 23.1454 89.3509 22.9702C88.783 22.7951 88.5 22.5972 88.5 22.3765C88.5104 22.2364 88.5504 22.1401 88.6198 22.0911C88.6893 22.0403 88.8334 22.0105 89.0522 22C89.1026 22 89.2762 22.0123 89.5749 22.0368C89.8736 22.0613 90.1375 22.0736 90.365 22.0736H91.1863C91.485 22.0736 91.6882 22.0981 91.7976 22.1489C91.907 22.1996 92.0216 22.2942 92.1414 22.4343L106.721 38.9299C106.82 39.0298 106.893 39.0963 106.938 39.1261C106.983 39.1559 107.02 39.1716 107.049 39.1716C107.079 39.1716 107.101 39.1296 107.117 39.0438C107.132 38.958 107.139 38.8249 107.139 38.6445V28.1401C107.139 26.5744 107.058 25.4641 106.893 24.8056C106.728 24.1489 106.448 23.69 106.049 23.4291C105.71 23.2189 105.259 23.0455 104.691 22.9107C104.123 22.7758 103.84 22.6077 103.84 22.4063C103.84 22.296 103.875 22.2014 103.944 22.1208C104.014 22.0403 104.094 22 104.184 22C104.243 22 104.545 22.042 105.087 22.1278C105.629 22.2137 106.153 22.2557 106.662 22.2557C107.23 22.2557 107.843 22.2137 108.504 22.1278C109.166 22.042 109.536 22 109.616 22C109.805 22.0105 109.949 22.0473 110.048 22.1121C110.147 22.1769 110.197 22.2644 110.197 22.3748C110.197 22.4851 110.17 22.5727 110.116 22.6375C110.06 22.7023 109.933 22.7706 109.735 22.8406L109.706 22.8564C109.458 22.937 109.268 23.0315 109.138 23.1419C108.86 23.3923 108.65 23.7618 108.511 24.2487C108.372 24.7356 108.303 25.345 108.303 26.0771V43.0245C108.303 43.3555 108.275 43.5709 108.221 43.6725C108.166 43.7723 108.074 43.8231 107.945 43.8231C107.876 43.8231 107.796 43.7933 107.705 43.732C107.615 43.6707 107.511 43.5709 107.393 43.4308L93.6938 27.7933C93.6243 27.7128 93.5566 27.6427 93.4924 27.5832C93.4281 27.5236 93.3847 27.4921 93.3656 27.4921C93.3153 27.4921 93.2736 27.5219 93.2388 27.5832C93.2041 27.6427 93.1815 27.7285 93.1711 27.8389L92.902 38.7058C92.902 38.8757 92.8968 39.0963 92.8863 39.3678C92.8759 39.6392 92.8707 39.8301 92.8707 39.9405C92.8707 40.7828 92.9575 41.387 93.1312 41.7548C93.3048 42.1208 93.6261 42.4238 94.0932 42.6655C94.2929 42.7653 94.5811 42.8354 94.958 42.8757C94.9684 42.8757 94.9771 42.8757 94.9875 42.8757C95.2167 42.8967 95.3678 42.9334 95.4424 42.9877C95.5171 43.0438 95.5536 43.1313 95.5536 43.2504C95.5536 43.401 95.5119 43.5044 95.4268 43.5587C95.3417 43.613 95.1507 43.641 94.852 43.641C94.6836 43.641 94.2095 43.6165 93.4351 43.5657C92.6589 43.5149 91.973 43.4904 91.3756 43.4904C91.0266 43.4904 90.6446 43.5149 90.2261 43.5657C89.8076 43.6165 89.5697 43.641 89.5106 43.641C89.3509 43.641 89.2449 43.6182 89.1894 43.5727C89.1338 43.5271 89.1078 43.4501 89.1078 43.3398C89.1078 43.0981 89.3075 42.9037 89.7051 42.7531H89.7207C89.7398 42.7426 89.7555 42.7373 89.7659 42.7373C90.0646 42.6462 90.2886 42.5569 90.4379 42.4658C91.2436 41.965 91.676 40.6655 91.7368 38.5674C91.7385 38.5079 91.7385 38.4623 91.7385 38.4326Z" fill="#8C9EBC"/>
<path d="M217.234 39.5675V26.2172C217.234 25.3451 217.169 24.7269 217.039 24.3661C216.909 24.0053 216.682 23.6936 216.353 23.4326C216.214 23.3328 216.062 23.2505 215.898 23.184C215.733 23.1192 215.523 23.0614 215.265 23.0106C215.006 22.9703 214.837 22.9178 214.758 22.853C214.678 22.7882 214.638 22.6953 214.638 22.5745C214.648 22.3941 214.69 22.2733 214.764 22.2137C214.839 22.1542 214.99 22.1192 215.219 22.1086C215.259 22.1086 215.398 22.1192 215.638 22.1384C217.279 22.2488 219.015 22.3048 220.846 22.3048C223.065 22.3048 225.277 22.2242 227.486 22.0631C227.884 22.0333 228.128 22.0176 228.217 22.0176C228.465 22.0176 228.627 22.0596 228.701 22.1454C228.776 22.2312 228.813 22.3941 228.813 22.634V22.8302C228.813 22.8407 228.807 22.86 228.797 22.8897C228.787 22.9195 228.781 22.9703 228.781 23.0403L228.573 25.5692C228.552 25.8197 228.517 25.9878 228.469 26.0736C228.418 26.1594 228.335 26.2067 228.215 26.2172C228.085 26.2172 227.986 26.1699 227.917 26.0736C227.847 25.979 227.812 25.8407 227.812 25.6603C227.812 25.62 227.818 25.5605 227.828 25.4799C227.838 25.3994 227.844 25.3451 227.844 25.3135C227.844 24.5605 227.578 24.0351 227.045 23.7339C226.512 23.4326 225.536 23.282 224.112 23.282H221.978C220.972 23.282 220.328 23.3678 220.045 23.5377C219.762 23.7076 219.62 24.0351 219.62 24.5167V30.8687C219.62 31.4204 219.682 31.7549 219.805 31.8687C219.93 31.9843 220.215 32.0421 220.663 32.0421H223.171C224.105 32.0421 224.787 31.9668 225.215 31.8162C225.642 31.6656 225.975 31.4099 226.215 31.0491C226.335 30.8792 226.451 30.6008 226.566 30.2137C226.68 29.8267 226.831 29.634 227.021 29.634C227.13 29.634 227.217 29.6936 227.281 29.8144C227.345 29.9353 227.378 30.0999 227.378 30.3118C227.378 30.3626 227.357 30.7006 227.319 31.3276C227.279 31.9545 227.26 32.564 227.26 33.1559C227.26 33.7181 227.3 34.3153 227.38 34.9475C227.399 35.1174 227.409 35.2277 227.409 35.2785C227.409 35.4589 227.368 35.613 227.283 35.7374C227.198 35.8635 227.1 35.9248 226.991 35.9248C226.732 35.9142 226.572 35.6691 226.513 35.1875C226.463 34.8459 226.409 34.5903 226.348 34.4204C226.18 33.9896 225.881 33.6848 225.452 33.5097C225.025 33.3346 224.343 33.247 223.409 33.247H220.528C220.149 33.247 219.903 33.3065 219.79 33.4274C219.675 33.5482 219.618 33.8232 219.618 34.2558V40.5465C219.618 41.3188 219.785 41.8354 220.118 42.0964C220.451 42.3573 221.12 42.4869 222.125 42.4869C223.358 42.4869 224.541 42.3538 225.67 42.0876C226.798 41.8214 227.717 41.4624 228.424 41.0123C228.821 40.7514 229.193 40.3976 229.535 39.951C229.879 39.5044 230.11 39.282 230.23 39.282C230.309 39.282 230.374 39.3293 230.424 39.4256C230.474 39.5202 230.499 39.6498 230.499 39.8092C230.499 40.0999 230.405 40.4817 230.216 40.9528C230.026 41.4239 229.797 41.8354 229.53 42.1874C229.063 42.7689 228.582 43.1804 228.09 43.4221C227.599 43.6638 226.974 43.7829 226.217 43.7829C226.017 43.7829 225.319 43.7531 224.121 43.6918C222.922 43.6323 221.83 43.6008 220.846 43.6008C219.085 43.6008 217.418 43.6603 215.846 43.7811C215.617 43.8004 215.478 43.8109 215.428 43.8109C215.358 43.8109 215.285 43.7741 215.211 43.6988C215.136 43.6235 215.1 43.5412 215.1 43.4501C215.1 43.3205 215.134 43.212 215.204 43.1262C215.273 43.0403 215.428 42.944 215.666 42.8319C215.685 42.8214 215.706 42.8127 215.725 42.8022C216.093 42.641 216.362 42.4659 216.53 42.275C216.789 42.0036 216.972 41.6901 217.076 41.3346C217.182 40.979 217.234 40.3906 217.234 39.5675Z" fill="#8C9EBC"/>
<path d="M125.778 40.8031C125.813 40.8031 125.834 40.8171 125.841 40.8434C125.848 40.8696 125.855 40.8994 125.857 40.9309C125.864 41.022 125.867 41.1183 125.87 41.2164C125.874 41.3162 125.879 41.409 125.89 41.4984C125.897 41.5492 125.903 41.5947 125.912 41.635C125.921 41.6752 125.926 41.7208 125.926 41.7681C125.926 41.7926 125.921 41.8154 125.91 41.8311C125.9 41.8486 125.886 41.8574 125.87 41.8574C125.851 41.8574 125.838 41.8486 125.825 41.8294C125.813 41.8101 125.796 41.7733 125.772 41.7155C125.721 41.5964 125.655 41.4809 125.572 41.3723C125.488 41.2637 125.395 41.1674 125.289 41.0868C125.183 41.0045 125.067 40.9397 124.94 40.8907C124.813 40.8416 124.679 40.8171 124.539 40.8171C124.401 40.8171 124.275 40.8486 124.158 40.9117C124.042 40.9747 123.943 41.0623 123.858 41.1761C123.773 41.29 123.707 41.4248 123.658 41.5824C123.61 41.74 123.585 41.9152 123.585 42.1078C123.585 42.325 123.617 42.5281 123.677 42.7173C123.738 42.9064 123.825 43.071 123.938 43.2111C124.051 43.3513 124.184 43.4616 124.341 43.5421C124.497 43.6227 124.671 43.663 124.862 43.663C124.931 43.663 125.006 43.6507 125.089 43.628C125.172 43.6052 125.254 43.5719 125.337 43.5281C125.421 43.4844 125.499 43.4353 125.572 43.3793C125.645 43.3232 125.709 43.2619 125.761 43.1989C125.785 43.1744 125.81 43.1428 125.831 43.1043C125.851 43.0658 125.876 43.0483 125.902 43.0483C125.942 43.0483 125.963 43.0675 125.963 43.1043C125.963 43.1323 125.956 43.1639 125.94 43.1971C125.924 43.2304 125.905 43.2602 125.884 43.29C125.813 43.3933 125.728 43.4896 125.629 43.5754C125.53 43.663 125.422 43.7365 125.306 43.7978C125.19 43.8591 125.067 43.9064 124.94 43.9397C124.813 43.973 124.688 43.9887 124.563 43.9887C124.337 43.9887 124.131 43.9502 123.941 43.8731C123.752 43.7961 123.591 43.6875 123.453 43.5492C123.318 43.4108 123.212 43.2444 123.137 43.0535C123.063 42.8609 123.024 42.6525 123.024 42.4248C123.024 42.1796 123.066 41.9467 123.151 41.7295C123.236 41.5124 123.351 41.3232 123.498 41.1621C123.646 41.001 123.816 40.8731 124.012 40.7786C124.207 40.684 124.419 40.6367 124.643 40.6367C124.712 40.6367 124.787 40.6437 124.869 40.6595C124.95 40.6752 125.032 40.6945 125.112 40.719C125.193 40.7435 125.27 40.7698 125.341 40.7996C125.412 40.8294 125.475 40.8574 125.523 40.8819C125.542 40.8907 125.561 40.8994 125.582 40.9082C125.603 40.9169 125.622 40.9204 125.641 40.9204C125.66 40.9204 125.674 40.9152 125.686 40.9064C125.697 40.8977 125.706 40.8837 125.712 40.8679C125.721 40.8521 125.73 40.8364 125.739 40.8224C125.745 40.8101 125.759 40.8031 125.778 40.8031Z" fill="#8C9EBC"/>
<path d="M137.282 40.623C137.517 40.623 137.734 40.6616 137.932 40.7386C138.13 40.8157 138.302 40.9243 138.446 41.0626C138.59 41.201 138.701 41.3691 138.781 41.567C138.861 41.7649 138.901 41.9821 138.901 42.222C138.901 42.4672 138.859 42.6984 138.776 42.9155C138.692 43.1309 138.58 43.3201 138.434 43.4812C138.288 43.6423 138.119 43.7684 137.925 43.8612C137.73 43.954 137.526 44.0013 137.307 44.0013C137.048 44.0013 136.81 43.9663 136.595 43.8945C136.38 43.8227 136.194 43.7176 136.037 43.5758C135.881 43.4339 135.76 43.2553 135.671 43.0416C135.584 42.8279 135.539 42.5758 135.539 42.285C135.539 42.0556 135.586 41.8385 135.678 41.6371C135.77 41.4357 135.895 41.2588 136.053 41.1099C136.211 40.9611 136.395 40.842 136.607 40.7544C136.817 40.6668 137.043 40.623 137.282 40.623ZM136.124 42.1747C136.124 42.3551 136.149 42.5407 136.197 42.7334C136.246 42.926 136.32 43.1012 136.423 43.2588C136.525 43.4164 136.654 43.546 136.812 43.6458C136.97 43.7474 137.157 43.7964 137.376 43.7964C137.51 43.7964 137.637 43.7596 137.757 43.6878C137.875 43.616 137.979 43.5162 138.066 43.3919C138.152 43.2675 138.222 43.1204 138.272 42.9523C138.323 42.7842 138.347 42.6055 138.347 42.4164C138.347 42.1887 138.316 41.9803 138.255 41.7877C138.194 41.595 138.107 41.4287 137.998 41.2868C137.887 41.1449 137.753 41.0346 137.597 40.954C137.44 40.8735 137.267 40.8332 137.076 40.8332C136.907 40.8332 136.763 40.8717 136.642 40.9488C136.52 41.0258 136.423 41.1274 136.347 41.2518C136.27 41.3761 136.213 41.5197 136.178 41.6791C136.143 41.8385 136.124 42.0048 136.124 42.1747Z" fill="#8C9EBC"/>
<path d="M148.713 43.9666C148.663 43.9666 148.639 43.9421 148.639 43.8913C148.639 43.8685 148.644 43.8527 148.653 43.8422C148.661 43.8317 148.675 43.823 148.691 43.8177C148.706 43.8125 148.727 43.809 148.752 43.8037C148.776 43.7984 148.804 43.7897 148.831 43.7774C148.96 43.7231 149.026 43.5603 149.028 43.2853C149.035 43.0016 149.038 42.7266 149.04 42.4587C149.042 42.1907 149.042 41.907 149.042 41.6076C149.042 41.5568 149.042 41.4972 149.042 41.4272C149.042 41.3571 149.038 41.2976 149.033 41.2468C149.024 41.1329 149 41.0506 148.96 41.0016C148.92 40.9508 148.856 40.9123 148.765 40.8843C148.687 40.8597 148.623 40.8387 148.573 40.823C148.522 40.8072 148.498 40.7774 148.498 40.7336C148.498 40.6986 148.505 40.6759 148.521 40.6618C148.536 40.6496 148.561 40.6426 148.595 40.6426C148.639 40.6426 148.726 40.6496 148.852 40.6653C148.981 40.6811 149.128 40.6899 149.297 40.6899C149.391 40.6899 149.47 40.6881 149.536 40.6846C149.602 40.6811 149.658 40.6794 149.705 40.6776C149.752 40.6759 149.792 40.6741 149.823 40.6706C149.854 40.6671 149.88 40.6653 149.903 40.6653C149.958 40.6653 149.988 40.6881 149.988 40.7319C149.988 40.7722 149.976 40.8002 149.95 40.8125C149.925 40.8247 149.879 40.8352 149.814 40.8457C149.755 40.858 149.714 40.8895 149.689 40.9386C149.665 40.9876 149.649 41.0576 149.641 41.1487C149.632 41.2555 149.623 41.3781 149.615 41.5182C149.606 41.6583 149.599 41.8019 149.594 41.9508C149.587 42.1014 149.583 42.2485 149.58 42.3921C149.576 42.5375 149.575 42.6688 149.575 42.7897C149.575 42.844 149.575 42.9 149.575 42.9596C149.575 43.0191 149.575 43.0787 149.575 43.1365C149.575 43.1942 149.575 43.2503 149.576 43.3011C149.578 43.3536 149.58 43.3974 149.583 43.4359C149.59 43.506 149.596 43.562 149.602 43.6041C149.609 43.6461 149.625 43.6794 149.649 43.7004C149.674 43.7231 149.714 43.7372 149.766 43.7424C149.82 43.7494 149.894 43.7512 149.991 43.7512C150.273 43.7512 150.504 43.7039 150.686 43.6111C150.867 43.5182 151.002 43.4062 151.089 43.2783C151.113 43.2433 151.131 43.217 151.141 43.1977C151.15 43.1785 151.164 43.1697 151.183 43.1697C151.223 43.1697 151.243 43.1872 151.243 43.2223C151.243 43.3011 151.228 43.3869 151.197 43.4797C151.165 43.5725 151.122 43.6601 151.065 43.7389C151.009 43.8195 150.941 43.886 150.865 43.9403C150.788 43.9946 150.703 44.0209 150.61 44.0209C150.544 44.0209 150.46 44.0174 150.356 44.0086C150.254 44.0016 150.141 43.9928 150.019 43.9823C149.898 43.9736 149.773 43.9648 149.644 43.9561C149.516 43.9473 149.392 43.9438 149.274 43.9438C149.168 43.9438 149.071 43.9473 148.981 43.9526C148.894 43.9631 148.804 43.9666 148.713 43.9666Z" fill="#8C9EBC"/>
<path d="M160.988 43.9666C160.937 43.9666 160.913 43.9421 160.913 43.8913C160.913 43.8685 160.918 43.8527 160.927 43.8422C160.936 43.8317 160.95 43.823 160.965 43.8177C160.981 43.8125 161.002 43.809 161.026 43.8037C161.05 43.7984 161.078 43.7897 161.106 43.7774C161.234 43.7231 161.3 43.5603 161.302 43.2853C161.309 43.0016 161.313 42.7266 161.314 42.4587C161.316 42.1907 161.316 41.907 161.316 41.6076C161.316 41.5568 161.316 41.4972 161.316 41.4272C161.316 41.3571 161.313 41.2976 161.307 41.2468C161.299 41.1329 161.274 41.0506 161.234 41.0016C161.194 40.9508 161.13 40.9123 161.04 40.8843C160.962 40.8597 160.897 40.8387 160.847 40.823C160.797 40.8072 160.772 40.7774 160.772 40.7336C160.772 40.6986 160.779 40.6759 160.795 40.6618C160.811 40.6496 160.835 40.6426 160.87 40.6426C160.913 40.6426 161 40.6496 161.128 40.6653C161.257 40.6811 161.405 40.6899 161.573 40.6899C161.667 40.6899 161.747 40.6881 161.813 40.6846C161.879 40.6811 161.934 40.6794 161.981 40.6776C162.028 40.6759 162.066 40.6741 162.097 40.6706C162.129 40.6671 162.155 40.6653 162.177 40.6653C162.233 40.6653 162.262 40.6881 162.262 40.7319C162.262 40.7722 162.25 40.8002 162.226 40.8125C162.202 40.8247 162.155 40.8352 162.09 40.8457C162.031 40.858 161.99 40.8895 161.965 40.9386C161.941 40.9876 161.925 41.0576 161.917 41.1487C161.908 41.2555 161.899 41.3781 161.891 41.5182C161.882 41.6583 161.877 41.8019 161.87 41.9508C161.863 42.1014 161.86 42.2485 161.856 42.3921C161.853 42.5375 161.851 42.6688 161.851 42.7897C161.851 42.844 161.851 42.9 161.851 42.9596C161.851 43.0191 161.851 43.0787 161.851 43.1365C161.851 43.1942 161.851 43.2503 161.853 43.3011C161.854 43.3536 161.856 43.3974 161.86 43.4359C161.866 43.506 161.872 43.562 161.879 43.6041C161.886 43.6461 161.899 43.6794 161.925 43.7004C161.95 43.7231 161.99 43.7372 162.042 43.7424C162.096 43.7494 162.17 43.7512 162.268 43.7512C162.549 43.7512 162.78 43.7039 162.962 43.6111C163.143 43.5182 163.278 43.4062 163.365 43.2783C163.389 43.2433 163.407 43.217 163.417 43.1977C163.426 43.1785 163.44 43.1697 163.459 43.1697C163.499 43.1697 163.52 43.1872 163.52 43.2223C163.52 43.3011 163.504 43.3869 163.473 43.4797C163.441 43.5725 163.398 43.6601 163.341 43.7389C163.283 43.8177 163.217 43.886 163.141 43.9403C163.065 43.9946 162.98 44.0209 162.886 44.0209C162.82 44.0209 162.736 44.0174 162.632 44.0086C162.53 44.0016 162.417 43.9928 162.295 43.9823C162.174 43.9736 162.049 43.9648 161.92 43.9561C161.792 43.9473 161.668 43.9438 161.55 43.9438C161.444 43.9438 161.347 43.9473 161.257 43.9526C161.168 43.9631 161.08 43.9666 160.988 43.9666Z" fill="#8C9EBC"/>
<path d="M173.96 43.9331C173.827 43.9331 173.71 43.9401 173.616 43.9524C173.521 43.9646 173.431 43.9716 173.347 43.9716C173.293 43.9716 173.257 43.9664 173.234 43.9576C173.212 43.9489 173.201 43.9278 173.201 43.8963C173.201 43.8613 173.217 43.8385 173.25 43.828C173.283 43.8175 173.316 43.8052 173.351 43.793C173.382 43.7842 173.413 43.758 173.446 43.7177C173.479 43.6774 173.498 43.6371 173.505 43.6003C173.514 43.5461 173.523 43.469 173.531 43.3657C173.54 43.2623 173.545 43.1468 173.552 43.0189C173.559 42.8911 173.564 42.751 173.568 42.6056C173.573 42.4585 173.575 42.3149 173.575 42.173C173.575 42.0469 173.575 41.9243 173.573 41.8035C173.571 41.6844 173.57 41.5741 173.566 41.4742C173.563 41.3744 173.559 41.2904 173.557 41.2221C173.554 41.152 173.55 41.1047 173.549 41.0802C173.542 41.0172 173.519 40.9629 173.481 40.9191C173.441 40.8753 173.38 40.8455 173.295 40.8298C173.245 40.821 173.205 40.8123 173.174 40.807C173.142 40.8 173.118 40.7947 173.099 40.7877C173.08 40.7807 173.066 40.772 173.059 40.7615C173.05 40.751 173.047 40.7317 173.047 40.7072C173.047 40.6879 173.057 40.6721 173.078 40.6599C173.099 40.6476 173.125 40.6406 173.156 40.6406C173.175 40.6406 173.21 40.6424 173.262 40.6459C173.314 40.6494 173.373 40.6529 173.443 40.6546C173.512 40.6581 173.583 40.6616 173.658 40.6634C173.733 40.6669 173.806 40.6686 173.873 40.6686C174.311 40.6686 174.665 40.6651 174.938 40.6564C175.211 40.6494 175.386 40.6441 175.468 40.6441C175.483 40.6441 175.497 40.6511 175.509 40.6669C175.521 40.6827 175.528 40.7019 175.528 40.7229C175.532 40.8245 175.539 40.9121 175.551 40.9909C175.563 41.0679 175.57 41.145 175.57 41.2203C175.57 41.2869 175.563 41.3394 175.551 41.3814C175.539 41.4217 175.513 41.4427 175.471 41.4427C175.431 41.4427 175.41 41.4182 175.41 41.3674C175.41 41.194 175.363 41.0697 175.27 40.9944C175.176 40.9191 175.014 40.8806 174.787 40.8806C174.7 40.8806 174.613 40.8806 174.526 40.8823C174.44 40.8841 174.384 40.8858 174.354 40.8893C174.301 40.8963 174.255 40.9068 174.219 40.9226C174.181 40.9383 174.155 40.9769 174.139 41.0364C174.136 41.0487 174.132 41.0732 174.13 41.11C174.129 41.1468 174.125 41.1835 174.123 41.2238C174.122 41.2641 174.122 41.3009 174.122 41.3376C174.122 41.3744 174.122 41.3989 174.122 41.4112C174.122 41.5128 174.122 41.6126 174.123 41.7142C174.125 41.8158 174.129 41.8876 174.136 41.9313C174.136 42.0031 174.151 42.0487 174.184 42.0644C174.217 42.0802 174.255 42.0872 174.299 42.0872H174.495C174.582 42.0872 174.658 42.082 174.721 42.0714C174.783 42.0609 174.837 42.0399 174.882 42.0119C174.927 41.9839 174.967 41.9436 175.002 41.8946C175.037 41.8438 175.068 41.7772 175.096 41.6967C175.103 41.6809 175.11 41.6669 175.122 41.6546C175.132 41.6424 175.146 41.6354 175.162 41.6354C175.209 41.6354 175.231 41.6599 175.231 41.7107C175.231 41.7422 175.23 41.7877 175.224 41.8455C175.219 41.9033 175.217 41.9594 175.217 42.0137C175.217 42.0574 175.219 42.11 175.224 42.1695C175.23 42.2291 175.235 42.2904 175.244 42.3534C175.25 42.4165 175.257 42.4795 175.263 42.5443C175.268 42.6091 175.27 42.6704 175.27 42.7264C175.27 42.7825 175.245 42.8123 175.195 42.8123C175.171 42.8088 175.151 42.7912 175.139 42.758C175.127 42.7247 175.117 42.6914 175.112 42.6564C175.096 42.5933 175.08 42.5425 175.065 42.5023C175.049 42.462 175.028 42.4305 175.002 42.4077C174.976 42.3832 174.943 42.3674 174.903 42.3587C174.863 42.3499 174.815 42.3411 174.756 42.3359C174.684 42.3289 174.611 42.3271 174.539 42.3271C174.466 42.3271 174.387 42.3271 174.306 42.3271C174.212 42.3271 174.16 42.3657 174.151 42.441C174.144 42.4883 174.143 42.5338 174.143 42.5776C174.143 42.6214 174.143 42.6651 174.143 42.7107C174.143 42.9313 174.148 43.1117 174.156 43.2501C174.165 43.3884 174.183 43.497 174.209 43.5758C174.224 43.6301 174.249 43.6704 174.28 43.6984C174.311 43.7264 174.37 43.7404 174.459 43.7404C174.611 43.7404 174.754 43.7264 174.882 43.6984C175.011 43.6704 175.127 43.6319 175.23 43.5828C175.33 43.5338 175.417 43.4778 175.49 43.4147C175.561 43.3517 175.619 43.2834 175.659 43.2116C175.674 43.1835 175.686 43.159 175.697 43.138C175.705 43.117 175.721 43.1065 175.744 43.1065C175.778 43.1065 175.796 43.138 175.796 43.201C175.796 43.2991 175.78 43.3954 175.749 43.4918C175.718 43.5881 175.671 43.6739 175.608 43.7527C175.546 43.8298 175.466 43.8928 175.372 43.9401C175.278 43.9874 175.164 44.0102 175.032 44.0102C174.997 44.0102 174.945 44.0066 174.877 43.9979C174.808 43.9909 174.728 43.9821 174.634 43.9751C174.54 43.9681 174.436 43.9594 174.321 43.9506C174.2 43.9366 174.084 43.9331 173.96 43.9331Z" fill="#8C9EBC"/>
<path d="M186.939 40.6289C187.008 40.6289 187.083 40.6359 187.166 40.6482C187.25 40.6604 187.333 40.6779 187.416 40.6972C187.501 40.7182 187.583 40.7427 187.663 40.7725C187.743 40.8023 187.814 40.8338 187.876 40.8653C187.92 40.8881 187.958 40.8986 187.989 40.8986C188.008 40.8986 188.021 40.8934 188.029 40.8828C188.036 40.8723 188.043 40.8601 188.05 40.8478C188.073 40.8233 188.1 40.8093 188.135 40.8093C188.159 40.8093 188.177 40.8198 188.187 40.8426C188.196 40.8653 188.201 40.8916 188.201 40.9231C188.201 40.9862 188.201 41.065 188.201 41.1613C188.201 41.2576 188.205 41.3504 188.21 41.4433C188.213 41.4941 188.217 41.5483 188.218 41.6079C188.222 41.6674 188.224 41.7147 188.224 41.7497C188.224 41.804 188.205 41.8303 188.168 41.8303C188.14 41.8303 188.12 41.8216 188.107 41.804C188.095 41.7865 188.081 41.748 188.066 41.6885C188.031 41.5589 187.977 41.4415 187.904 41.3347C187.831 41.2279 187.743 41.1368 187.639 41.0597C187.534 40.9827 187.421 40.9249 187.296 40.8828C187.171 40.8408 187.039 40.8198 186.902 40.8198C186.762 40.8198 186.631 40.8496 186.512 40.9091C186.392 40.9687 186.288 41.0562 186.202 41.1701C186.117 41.2839 186.048 41.4223 185.999 41.5869C185.951 41.7515 185.925 41.9371 185.925 42.1455C185.925 42.3785 185.947 42.5939 185.996 42.7918C186.043 42.9879 186.11 43.1596 186.197 43.3049C186.284 43.4503 186.392 43.5641 186.517 43.6447C186.642 43.727 186.784 43.7673 186.944 43.7673C186.991 43.7673 187.045 43.762 187.105 43.7515C187.166 43.741 187.227 43.7252 187.286 43.706C187.345 43.6867 187.402 43.6674 187.454 43.6447C187.507 43.6219 187.552 43.5991 187.586 43.5729C187.606 43.5606 187.621 43.5431 187.635 43.5238C187.649 43.5046 187.661 43.466 187.67 43.4135C187.685 43.3592 187.698 43.2997 187.704 43.2331C187.711 43.1666 187.717 43.114 187.717 43.0772C187.717 43.03 187.713 42.9739 187.708 42.9074C187.701 42.8408 187.685 42.7778 187.661 42.7182C187.645 42.6744 187.618 42.6412 187.576 42.6184C187.536 42.5956 187.493 42.5834 187.449 42.5799C187.418 42.5764 187.378 42.5746 187.331 42.5729C187.284 42.5711 187.246 42.5711 187.218 42.5711C187.194 42.5711 187.175 42.5624 187.163 42.5431C187.151 42.5238 187.144 42.5028 187.144 42.4818C187.144 42.4433 187.152 42.4187 187.17 42.403C187.187 42.389 187.213 42.382 187.248 42.382C187.288 42.382 187.336 42.382 187.394 42.3837C187.449 42.3855 187.508 42.3855 187.569 42.3855C187.63 42.3855 187.691 42.3855 187.751 42.3872C187.812 42.389 187.869 42.389 187.923 42.389C188.04 42.389 188.137 42.3837 188.217 42.375C188.297 42.3662 188.371 42.361 188.439 42.361C188.482 42.361 188.515 42.3645 188.538 42.3732C188.561 42.382 188.571 42.4065 188.571 42.452C188.571 42.487 188.561 42.5116 188.54 42.5256C188.519 42.5396 188.486 42.5536 188.439 42.5659C188.377 42.5816 188.331 42.6219 188.305 42.6885C188.279 42.755 188.265 42.8461 188.265 42.9634C188.265 43.0177 188.267 43.0913 188.272 43.1876C188.278 43.2839 188.279 43.3732 188.279 43.4555C188.279 43.4993 188.264 43.5326 188.232 43.5518C188.201 43.5729 188.165 43.5904 188.125 43.6061C188.015 43.6499 187.906 43.6955 187.797 43.741C187.687 43.7865 187.578 43.8286 187.468 43.8671C187.359 43.9056 187.248 43.9371 187.133 43.9617C187.019 43.9862 186.901 44.0002 186.779 44.0002C186.553 44.0002 186.352 43.9599 186.171 43.8811C185.991 43.8023 185.838 43.692 185.711 43.5518C185.584 43.4117 185.487 43.2471 185.421 43.058C185.353 42.8688 185.32 42.6622 185.32 42.438C185.32 42.1701 185.362 41.9266 185.445 41.7042C185.529 41.4835 185.642 41.2944 185.787 41.135C185.933 40.9757 186.105 40.8513 186.303 40.7638C186.498 40.6727 186.711 40.6289 186.939 40.6289Z" fill="#8C9EBC"/>
<path d="M199.007 43.9331C198.873 43.9331 198.757 43.9401 198.663 43.9524C198.568 43.9646 198.478 43.9716 198.394 43.9716C198.34 43.9716 198.304 43.9664 198.281 43.9576C198.259 43.9489 198.248 43.9278 198.248 43.8963C198.248 43.8613 198.264 43.8385 198.297 43.828C198.33 43.8175 198.363 43.8052 198.398 43.793C198.429 43.7842 198.46 43.758 198.493 43.7177C198.526 43.6774 198.545 43.6371 198.552 43.6003C198.561 43.5461 198.57 43.469 198.578 43.3657C198.587 43.2623 198.592 43.1468 198.599 43.0189C198.606 42.8911 198.611 42.751 198.615 42.6056C198.62 42.4585 198.622 42.3149 198.622 42.173C198.622 42.0469 198.622 41.9243 198.62 41.8035C198.618 41.6844 198.616 41.5741 198.613 41.4742C198.609 41.3744 198.606 41.2904 198.604 41.2221C198.601 41.152 198.597 41.1047 198.596 41.0802C198.589 41.0172 198.566 40.9629 198.528 40.9191C198.488 40.8753 198.427 40.8455 198.342 40.8298C198.292 40.821 198.252 40.8123 198.221 40.807C198.189 40.8 198.165 40.7947 198.146 40.7877C198.127 40.7807 198.113 40.772 198.106 40.7615C198.097 40.751 198.094 40.7317 198.094 40.7072C198.094 40.6879 198.104 40.6721 198.125 40.6599C198.146 40.6476 198.172 40.6406 198.203 40.6406C198.222 40.6406 198.257 40.6424 198.309 40.6459C198.361 40.6494 198.42 40.6529 198.49 40.6546C198.559 40.6581 198.63 40.6616 198.705 40.6634C198.78 40.6669 198.853 40.6686 198.92 40.6686C199.358 40.6686 199.712 40.6651 199.985 40.6564C200.257 40.6494 200.433 40.6441 200.514 40.6441C200.53 40.6441 200.544 40.6511 200.556 40.6669C200.568 40.6827 200.575 40.7019 200.575 40.7229C200.579 40.8245 200.586 40.9121 200.598 40.9909C200.61 41.0679 200.617 41.145 200.617 41.2203C200.617 41.2869 200.61 41.3394 200.598 41.3814C200.586 41.4217 200.56 41.4427 200.518 41.4427C200.478 41.4427 200.457 41.4182 200.457 41.3674C200.457 41.194 200.41 41.0697 200.316 40.9944C200.223 40.9191 200.061 40.8806 199.834 40.8806C199.747 40.8806 199.66 40.8806 199.573 40.8823C199.486 40.8841 199.431 40.8858 199.401 40.8893C199.347 40.8963 199.302 40.9068 199.266 40.9226C199.228 40.9383 199.202 40.9769 199.186 41.0364C199.183 41.0487 199.179 41.0732 199.177 41.11C199.176 41.1468 199.172 41.1835 199.17 41.2238C199.169 41.2641 199.169 41.3009 199.169 41.3376C199.169 41.3744 199.169 41.3989 199.169 41.4112C199.169 41.5128 199.169 41.6126 199.17 41.7142C199.172 41.8158 199.176 41.8876 199.183 41.9313C199.183 42.0031 199.198 42.0487 199.231 42.0644C199.264 42.0802 199.302 42.0872 199.346 42.0872H199.542C199.629 42.0872 199.705 42.082 199.768 42.0714C199.83 42.0609 199.884 42.0399 199.929 42.0119C199.974 41.9839 200.014 41.9436 200.049 41.8946C200.084 41.8438 200.115 41.7772 200.143 41.6967C200.15 41.6809 200.157 41.6669 200.169 41.6546C200.179 41.6424 200.193 41.6354 200.209 41.6354C200.256 41.6354 200.278 41.6599 200.278 41.7107C200.278 41.7422 200.276 41.7877 200.271 41.8455C200.266 41.9033 200.264 41.9594 200.264 42.0137C200.264 42.0574 200.266 42.11 200.271 42.1695C200.276 42.2291 200.282 42.2904 200.29 42.3534C200.297 42.4165 200.304 42.4795 200.309 42.5443C200.315 42.6091 200.316 42.6704 200.316 42.7264C200.316 42.7825 200.292 42.8123 200.242 42.8123C200.217 42.8088 200.198 42.7912 200.186 42.758C200.174 42.7247 200.164 42.6914 200.158 42.6564C200.143 42.5933 200.127 42.5425 200.112 42.5023C200.096 42.462 200.075 42.4305 200.049 42.4077C200.023 42.3832 199.99 42.3674 199.95 42.3587C199.91 42.3499 199.861 42.3411 199.802 42.3359C199.731 42.3289 199.658 42.3271 199.585 42.3271C199.512 42.3271 199.434 42.3271 199.353 42.3271C199.259 42.3271 199.207 42.3657 199.198 42.441C199.191 42.4883 199.189 42.5338 199.189 42.5776C199.189 42.6214 199.189 42.6651 199.189 42.7107C199.189 42.9313 199.195 43.1117 199.203 43.2501C199.212 43.3884 199.229 43.497 199.255 43.5758C199.271 43.6301 199.295 43.6704 199.327 43.6984C199.358 43.7264 199.417 43.7404 199.505 43.7404C199.658 43.7404 199.801 43.7264 199.929 43.6984C200.058 43.6704 200.174 43.6319 200.276 43.5828C200.377 43.5338 200.464 43.4778 200.537 43.4147C200.608 43.3517 200.665 43.2834 200.705 43.2116C200.721 43.1835 200.733 43.159 200.744 43.138C200.752 43.117 200.768 43.1065 200.79 43.1065C200.825 43.1065 200.843 43.138 200.843 43.201C200.843 43.2991 200.827 43.3954 200.796 43.4918C200.764 43.5881 200.718 43.6739 200.655 43.7527C200.593 43.8298 200.513 43.8928 200.419 43.9401C200.325 43.9874 200.211 44.0102 200.079 44.0102C200.044 44.0102 199.992 44.0066 199.924 43.9979C199.855 43.9909 199.775 43.9821 199.681 43.9751C199.587 43.9681 199.483 43.9594 199.368 43.9506C199.247 43.9366 199.129 43.9331 199.007 43.9331Z" fill="#8C9EBC"/>
<path d="M61.801 50.1607C61.7315 50.1607 61.6725 50.1642 61.6221 50.1712C61.5735 50.1782 61.5266 50.1817 61.4815 50.1817C61.4537 50.1817 61.4346 50.1799 61.4224 50.1747C61.4103 50.1694 61.4051 50.1589 61.4051 50.1431C61.4051 50.1256 61.4138 50.1134 61.4311 50.1081C61.4485 50.1029 61.4659 50.0959 61.4832 50.0906C61.4988 50.0854 61.5162 50.0731 61.5336 50.0521C61.5509 50.0311 61.5614 50.01 61.5631 49.9908C61.5683 49.9628 61.5718 49.9225 61.577 49.8699C61.5805 49.8174 61.5839 49.7561 61.5874 49.6896C61.5909 49.623 61.5926 49.5512 61.5961 49.4741C61.5996 49.3971 61.5996 49.3235 61.5996 49.25C61.5996 49.1852 61.5996 49.1204 61.5978 49.0591C61.5978 48.9978 61.5961 48.94 61.5943 48.8892C61.5926 48.8384 61.5909 48.7946 61.5891 48.7579C61.5874 48.7211 61.5857 48.6966 61.5839 48.6843C61.5805 48.651 61.5683 48.623 61.5492 48.6002C61.5284 48.5775 61.4971 48.5617 61.4537 48.5529C61.4276 48.5477 61.4068 48.5442 61.3912 48.5407C61.3756 48.5372 61.3617 48.5337 61.353 48.5302C61.3426 48.5267 61.3356 48.5232 61.3321 48.5162C61.3287 48.5109 61.3252 48.5004 61.3252 48.4882C61.3252 48.4776 61.3304 48.4706 61.3408 48.4636C61.3512 48.4566 61.3651 48.4531 61.3808 48.4531C61.3912 48.4531 61.4085 48.4531 61.4346 48.4549C61.4606 48.4566 61.4919 48.4584 61.5284 48.4601C61.5648 48.4619 61.6013 48.4636 61.6395 48.4654C61.6777 48.4671 61.7159 48.4671 61.7506 48.4671C61.9781 48.4671 62.1622 48.4654 62.3028 48.4601C62.4435 48.4566 62.5355 48.4549 62.5772 48.4549C62.5859 48.4549 62.5928 48.4584 62.5998 48.4671C62.6067 48.4759 62.6102 48.4846 62.6102 48.4969C62.6119 48.5494 62.6154 48.595 62.6223 48.6353C62.6293 48.6755 62.6328 48.7158 62.6328 48.7544C62.6328 48.7894 62.6293 48.8156 62.6223 48.8384C62.6154 48.8594 62.6015 48.8699 62.5807 48.8699C62.5598 48.8699 62.5494 48.8577 62.5494 48.8314C62.5494 48.7421 62.5251 48.6773 62.4765 48.637C62.4279 48.5985 62.3445 48.5775 62.2264 48.5775C62.1813 48.5775 62.1361 48.5775 62.091 48.5792C62.0458 48.5792 62.0163 48.581 62.0024 48.5827C61.9746 48.5862 61.9521 48.5915 61.9312 48.6002C61.9121 48.609 61.8982 48.6283 61.8896 48.6598C61.8878 48.6668 61.8861 48.679 61.8843 48.6983C61.8826 48.7176 61.8809 48.7368 61.8809 48.7579C61.8809 48.7789 61.8791 48.7981 61.8791 48.8174C61.8791 48.8367 61.8791 48.8489 61.8791 48.8559C61.8791 48.9085 61.8791 48.961 61.8809 49.0135C61.8809 49.0661 61.8843 49.1029 61.8878 49.1256C61.8878 49.1624 61.8965 49.1869 61.9139 49.1939C61.9312 49.2027 61.9503 49.2062 61.9729 49.2062H62.0754C62.1205 49.2062 62.1587 49.2027 62.1917 49.1974C62.2247 49.1922 62.2525 49.1817 62.275 49.1677C62.2976 49.1537 62.3185 49.1326 62.3376 49.1064C62.3567 49.0801 62.3723 49.0451 62.3862 49.003C62.3897 48.9943 62.3931 48.9873 62.4001 48.9803C62.4053 48.9733 62.4122 48.9698 62.4209 48.9698C62.4452 48.9698 62.4574 48.982 62.4574 49.0083C62.4574 49.0241 62.4556 49.0486 62.4539 49.0783C62.4522 49.1081 62.4504 49.1379 62.4504 49.1659C62.4504 49.1887 62.4522 49.2149 62.4539 49.2465C62.4556 49.278 62.4591 49.3095 62.4643 49.3428C62.4678 49.3761 62.4713 49.4093 62.4747 49.4426C62.4765 49.4759 62.4782 49.5074 62.4782 49.5372C62.4782 49.567 62.4643 49.581 62.44 49.581C62.4279 49.5792 62.4174 49.5705 62.4105 49.553C62.4035 49.5354 62.3983 49.5179 62.3966 49.5004C62.3879 49.4671 62.381 49.4409 62.3723 49.4199C62.3636 49.3988 62.3532 49.3831 62.3393 49.3708C62.3254 49.3586 62.308 49.3498 62.2889 49.3445C62.2698 49.3393 62.2438 49.3358 62.2125 49.3323C62.1761 49.3288 62.1379 49.327 62.0997 49.327C62.0615 49.327 62.0215 49.327 61.9798 49.327C61.9312 49.327 61.9052 49.3463 61.9 49.3866C61.8965 49.4111 61.8948 49.4356 61.8948 49.4584C61.8948 49.4811 61.8948 49.5039 61.8948 49.5267C61.8948 49.6405 61.8965 49.7351 61.9017 49.8069C61.9069 49.8787 61.9156 49.9347 61.9278 49.9768C61.9364 50.0048 61.9486 50.0258 61.9642 50.0398C61.9798 50.0538 62.0111 50.0626 62.0563 50.0626C62.1361 50.0626 62.2091 50.0556 62.2768 50.0398C62.3445 50.0258 62.4035 50.0048 62.4574 49.9803C62.5095 49.954 62.5546 49.926 62.5928 49.8927C62.6293 49.8594 62.6588 49.8244 62.6796 49.7876C62.6883 49.7736 62.6935 49.7596 62.6988 49.7491C62.704 49.7386 62.7109 49.7333 62.7231 49.7333C62.7404 49.7333 62.7491 49.7491 62.7491 49.7824C62.7491 49.8332 62.7404 49.884 62.7248 49.933C62.7092 49.982 62.6849 50.0276 62.6519 50.0678C62.6189 50.1081 62.5789 50.1396 62.5286 50.1642C62.48 50.1887 62.4209 50.2009 62.3532 50.2009C62.3358 50.2009 62.308 50.1992 62.2733 50.1957C62.2368 50.1922 62.1952 50.1869 62.1466 50.1834C62.0979 50.1799 62.0441 50.1747 61.9851 50.1712C61.926 50.1624 61.8652 50.1607 61.801 50.1607Z" fill="white"/>
<path d="M63.1748 49.6251C63.1748 49.6093 63.1783 49.5953 63.1852 49.5848C63.1922 49.5743 63.2009 49.569 63.2113 49.569C63.2234 49.569 63.2304 49.5743 63.2356 49.5831C63.2408 49.5936 63.2443 49.6023 63.246 49.6128C63.2599 49.6671 63.2842 49.7232 63.3172 49.781C63.3502 49.8387 63.3901 49.8913 63.4353 49.9386C63.4804 49.9859 63.529 50.0244 63.5794 50.0559C63.6298 50.0857 63.6801 50.1014 63.7287 50.1014C63.7791 50.1014 63.8242 50.0944 63.8659 50.0787C63.9076 50.0629 63.9423 50.0419 63.9718 50.0156C64.0014 49.9894 64.0239 49.9561 64.0396 49.9193C64.0552 49.8825 64.0639 49.8423 64.0639 49.7985C64.0639 49.7424 64.05 49.6969 64.0239 49.6584C63.9979 49.6198 63.9632 49.5883 63.9215 49.562C63.8798 49.5358 63.8347 49.5113 63.7826 49.492C63.7322 49.4727 63.6801 49.4517 63.6298 49.4289C63.5742 49.4044 63.5204 49.3799 63.4683 49.3536C63.4162 49.3274 63.3676 49.2958 63.3259 49.2573C63.2842 49.2188 63.2495 49.1732 63.2234 49.119C63.1974 49.0647 63.1852 48.9964 63.1852 48.9158C63.1852 48.851 63.1956 48.788 63.22 48.7302C63.2425 48.6724 63.2738 48.6216 63.3137 48.5796C63.3537 48.5375 63.3988 48.5025 63.4526 48.478C63.5047 48.4535 63.562 48.4395 63.6211 48.4395C63.6888 48.4395 63.7548 48.4482 63.8208 48.4657C63.885 48.4832 63.9389 48.5007 63.9788 48.5183C64.0014 48.5305 64.0222 48.5358 64.0413 48.5358C64.0483 48.5358 64.0535 48.534 64.0587 48.5288C64.0639 48.5253 64.0691 48.52 64.0726 48.5148C64.0778 48.5095 64.083 48.5042 64.0899 48.5007C64.0969 48.4972 64.1073 48.4955 64.1177 48.4955C64.1351 48.4955 64.1455 48.5007 64.1472 48.513C64.149 48.5253 64.1507 48.5375 64.1507 48.5515C64.1507 48.5831 64.1507 48.6111 64.1524 48.6391C64.1542 48.6654 64.1559 48.6951 64.1594 48.7284C64.1629 48.7669 64.1681 48.8037 64.1768 48.8388C64.1854 48.8738 64.1906 48.9123 64.1906 48.9543C64.1906 48.9719 64.1889 48.9859 64.1854 48.9946C64.182 49.0034 64.1715 49.0086 64.1542 49.0086C64.1333 49.0086 64.1194 48.9964 64.116 48.9701C64.1038 48.9141 64.0812 48.8615 64.0483 48.809C64.0135 48.7564 63.9753 48.7109 63.9319 48.6689C63.8885 48.6286 63.8416 48.5953 63.793 48.5708C63.7444 48.5463 63.6975 48.534 63.6523 48.534C63.5672 48.534 63.5013 48.5568 63.4526 48.6041C63.4023 48.6514 63.378 48.7127 63.378 48.7897C63.378 48.8335 63.3884 48.8703 63.4075 48.9018C63.4266 48.9316 63.4579 48.9613 63.503 48.9876C63.5464 49.0139 63.6037 49.0437 63.6749 49.0752C63.7461 49.1067 63.8329 49.1452 63.9354 49.1908C63.9805 49.21 64.0222 49.2363 64.0587 49.2696C64.0951 49.3028 64.1281 49.3396 64.1542 49.3799C64.1802 49.4202 64.2011 49.464 64.2167 49.5095C64.2323 49.555 64.2393 49.6006 64.2393 49.6461C64.2393 49.7267 64.2254 49.8002 64.1976 49.8685C64.1698 49.9368 64.1316 49.9946 64.083 50.0454C64.0344 50.0962 63.9771 50.1347 63.9111 50.1627C63.8451 50.1908 63.7739 50.2048 63.6975 50.2048C63.6697 50.2048 63.6384 50.203 63.6037 50.1978C63.569 50.1925 63.5343 50.1855 63.4995 50.1785C63.4648 50.1697 63.4318 50.161 63.4005 50.1522C63.3693 50.1435 63.3415 50.133 63.3172 50.1225C63.2981 50.1137 63.2842 50.1067 63.2755 50.0997C63.2668 50.0927 63.2616 50.0822 63.2582 50.0699C63.2529 50.0331 63.246 49.9946 63.2356 49.9578C63.2252 49.9211 63.2165 49.8825 63.2061 49.8458C63.1956 49.809 63.1887 49.7722 63.1818 49.7372C63.1783 49.6916 63.1748 49.6566 63.1748 49.6251Z" fill="white"/>
<path d="M65.0574 50.1414C65.0574 50.1274 65.0608 50.1151 65.0695 50.1064C65.0782 50.0976 65.0886 50.0924 65.1043 50.0871C65.1181 50.0836 65.1355 50.0801 65.1546 50.0766C65.1737 50.0731 65.1928 50.0678 65.2119 50.0591C65.2519 50.0451 65.2796 50.0258 65.2935 50.0048C65.3074 49.982 65.3161 49.9453 65.3196 49.8927C65.3213 49.8419 65.3231 49.7841 65.3248 49.7176C65.3265 49.651 65.3283 49.5827 65.3283 49.5109C65.3283 49.4391 65.33 49.3691 65.33 49.3008C65.33 49.2325 65.33 49.1677 65.33 49.1081C65.33 49.0398 65.33 48.9715 65.33 48.9015C65.33 48.8332 65.3283 48.7631 65.3248 48.6913C65.3231 48.6598 65.3144 48.637 65.3005 48.623C65.2866 48.609 65.2588 48.6002 65.2206 48.6002C65.1755 48.6002 65.1338 48.602 65.0973 48.6072C65.0608 48.6125 65.0174 48.6195 64.9688 48.6265C64.9167 48.6353 64.8803 48.6528 64.8577 48.679C64.8351 48.7053 64.8177 48.7438 64.8038 48.7911C64.7986 48.8086 64.7952 48.8279 64.79 48.8472C64.7865 48.8664 64.7813 48.8839 64.7761 48.9015C64.7709 48.9172 64.7622 48.9312 64.7518 48.9417C64.7413 48.9523 64.7274 48.9575 64.7083 48.9575C64.684 48.9575 64.6719 48.94 64.6719 48.9067C64.6719 48.8927 64.6736 48.8717 64.6771 48.8437C64.6806 48.8174 64.684 48.7876 64.6892 48.7561C64.6944 48.7246 64.6997 48.6913 64.7031 48.658C64.7083 48.6248 64.7118 48.5932 64.7153 48.5652C64.7205 48.5214 64.7274 48.4917 64.7344 48.4776C64.7431 48.4636 64.757 48.4566 64.7761 48.4566C64.8733 48.4566 64.9844 48.4584 65.1112 48.4636C65.238 48.4689 65.3595 48.4706 65.4759 48.4706C65.5349 48.4706 65.5974 48.4689 65.6669 48.4671C65.7363 48.4654 65.8023 48.4619 65.8683 48.4601C65.9343 48.4584 65.9951 48.4566 66.0506 48.4549C66.1062 48.4531 66.1496 48.4531 66.1791 48.4531C66.2243 48.4531 66.2486 48.4724 66.2503 48.5127C66.2538 48.6002 66.259 48.6668 66.266 48.7176C66.2729 48.7684 66.2764 48.7999 66.2764 48.8139C66.2764 48.8507 66.2625 48.8682 66.2347 48.8682C66.2173 48.8682 66.2034 48.8559 66.1965 48.8297C66.1878 48.8051 66.1757 48.7754 66.16 48.7403C66.1479 48.7106 66.127 48.6843 66.0975 48.6598C66.068 48.6353 66.0385 48.623 66.0072 48.6195C65.9551 48.6125 65.9065 48.609 65.8614 48.609C65.8162 48.609 65.7693 48.6072 65.7224 48.6072C65.6981 48.6072 65.6773 48.6177 65.6617 48.637C65.646 48.6563 65.6356 48.6843 65.6321 48.7176C65.6304 48.7508 65.6287 48.7859 65.6269 48.8227C65.6252 48.8594 65.6235 48.898 65.6235 48.9365C65.6235 48.975 65.6217 49.0118 65.6217 49.0468C65.6217 49.0818 65.6217 49.1134 65.6217 49.1379C65.6217 49.2202 65.6217 49.299 65.6235 49.3778C65.6252 49.4566 65.6252 49.5267 65.6269 49.5915C65.6287 49.6563 65.6304 49.7123 65.6321 49.7579C65.6339 49.8051 65.6356 49.8367 65.6391 49.8524C65.6495 49.9207 65.6669 49.968 65.6929 49.9943C65.719 50.0206 65.7502 50.0416 65.7884 50.0573C65.8075 50.0661 65.8266 50.0713 65.8457 50.0731C65.8648 50.0748 65.8822 50.0783 65.8961 50.0819C65.9117 50.0854 65.9239 50.0906 65.9326 50.0959C65.9412 50.1029 65.9464 50.1134 65.9464 50.1309C65.9464 50.1432 65.943 50.1519 65.936 50.1607C65.9291 50.1694 65.9169 50.1729 65.9013 50.1729C65.8683 50.1729 65.8162 50.1694 65.745 50.1624C65.6738 50.1554 65.5922 50.1519 65.5002 50.1519C65.3977 50.1519 65.3161 50.1554 65.2571 50.1624C65.198 50.1694 65.1477 50.1729 65.106 50.1729C65.0713 50.1782 65.0574 50.1659 65.0574 50.1414Z" fill="white"/>
<path d="M66.8316 50.1596C66.8073 50.1333 66.7813 50.1071 66.7518 50.079C66.724 50.051 66.6962 50.023 66.6684 49.995C66.6597 49.9862 66.6562 49.974 66.6562 49.9582C66.6562 49.9477 66.6615 49.9389 66.6701 49.9284C66.6962 49.9022 66.7205 49.8776 66.7448 49.8549C66.7691 49.8321 66.7986 49.8023 66.8316 49.7673C66.8368 49.7621 66.8421 49.7586 66.8473 49.7533C66.8525 49.7498 66.8594 49.748 66.8681 49.748C66.8768 49.748 66.8855 49.7498 66.8941 49.7515C66.9028 49.7533 66.9098 49.7568 66.915 49.7621L67.0782 49.9284C67.0817 49.9319 67.0834 49.9372 67.0869 49.9459C67.0886 49.9547 67.0904 49.96 67.0904 49.9652C67.0904 49.9687 67.0886 49.974 67.0852 49.9827C67.0817 49.9915 67.0782 49.9967 67.0747 50.0002C67.047 50.0283 67.0209 50.0528 66.9966 50.0755C66.9723 50.0983 66.9462 50.1246 66.9185 50.1579C66.9063 50.1719 66.8907 50.1806 66.875 50.1806C66.8594 50.1789 66.8438 50.1719 66.8316 50.1596Z" fill="white"/>
<path d="M68.4849 50.1477C68.4849 50.139 68.4884 50.1319 68.4936 50.1249C68.4988 50.1179 68.5058 50.1127 68.5144 50.1109C68.5856 50.0987 68.6377 50.0864 68.669 50.0689C68.7002 50.0531 68.7176 50.0234 68.7211 49.9813C68.7228 49.9446 68.7246 49.9025 68.7263 49.8605C68.728 49.8167 68.7298 49.7747 68.7298 49.7309C68.7298 49.6871 68.7315 49.6451 68.7315 49.6048C68.7315 49.5645 68.7315 49.526 68.7315 49.4927C68.7315 49.4349 68.7315 49.3789 68.7298 49.3228C68.7298 49.2668 68.728 49.2143 68.728 49.1652C68.728 49.1179 68.7263 49.0742 68.7263 49.0391C68.7263 49.0023 68.7246 48.9778 68.7228 48.9603C68.7193 48.9095 68.7107 48.878 68.6968 48.864C68.6829 48.85 68.6534 48.843 68.6117 48.843C68.5891 48.843 68.5683 48.8482 68.5474 48.857C68.5266 48.8675 68.511 48.871 68.4971 48.871C68.4762 48.871 68.4658 48.8587 68.4658 48.8325C68.4658 48.8202 68.4745 48.8062 68.4936 48.7922C68.5127 48.7782 68.5353 48.7694 68.5631 48.7642C68.6065 48.7554 68.6447 48.7484 68.6794 48.7397C68.7124 48.7309 68.7437 48.7204 68.7714 48.7081C68.7992 48.6959 68.827 48.6801 68.8531 48.6626C68.8791 48.6451 68.9069 48.6223 68.9364 48.5943C68.9451 48.5908 68.9503 48.5873 68.9538 48.5855C68.9572 48.5838 68.9625 48.582 68.9677 48.582C68.9781 48.582 68.985 48.5855 68.992 48.5943C68.9989 48.603 69.0024 48.6118 69.0024 48.6241C69.0024 48.6486 69.0007 48.6784 68.9972 48.7116C68.9937 48.7449 68.992 48.7747 68.9902 48.7992C68.9868 48.9218 68.985 49.0409 68.9833 49.1547C68.9816 49.2685 68.9816 49.3876 68.9816 49.5102C68.9816 49.5418 68.9816 49.5768 68.9833 49.6136C68.9833 49.6521 68.985 49.6906 68.985 49.7309C68.985 49.7712 68.9868 49.8115 68.9868 49.85C68.9868 49.8885 68.9885 49.9235 68.9902 49.9551C68.992 49.9971 69.0041 50.0286 69.0267 50.0461C69.0493 50.0654 69.0753 50.0777 69.1066 50.0864C69.1222 50.0917 69.1396 50.0934 69.1569 50.0952C69.1743 50.0952 69.1899 50.0969 69.2038 50.1004C69.2177 50.1022 69.2281 50.1074 69.2386 50.1109C69.249 50.1144 69.2524 50.1232 69.2524 50.1355C69.2524 50.1582 69.2403 50.1705 69.2142 50.1705C69.1778 50.1705 69.1257 50.1687 69.0614 50.167C68.9972 50.1652 68.9329 50.1635 68.8722 50.1635C68.8426 50.1635 68.8114 50.1635 68.7784 50.1652C68.7454 50.167 68.7124 50.1687 68.6811 50.1705C68.6499 50.1722 68.6204 50.174 68.5926 50.1757C68.5648 50.1775 68.544 50.1775 68.5266 50.1775C68.5179 50.1775 68.511 50.174 68.5023 50.1687C68.4936 50.1635 68.4849 50.1565 68.4849 50.1477Z" fill="white"/>
<path d="M69.761 50.1889C69.761 50.1731 69.7749 50.1608 69.8027 50.1556C69.8304 50.1503 69.8669 50.1398 69.9086 50.1276C69.9989 50.0995 70.0805 50.0593 70.1499 50.005C70.2211 49.9507 70.2802 49.8929 70.3271 49.8316C70.374 49.7703 70.4104 49.7108 70.4365 49.653C70.4608 49.5952 70.4747 49.5479 70.4747 49.5094C70.4747 49.4936 70.4695 49.4848 70.4573 49.4848C70.4486 49.4848 70.4417 49.4866 70.4365 49.4918C70.4313 49.4971 70.426 49.5006 70.4208 49.5041C70.3618 49.5374 70.308 49.5636 70.2576 49.5847C70.2073 49.6057 70.1465 49.6162 70.0753 49.6162C70.0214 49.6162 69.9711 49.6057 69.9225 49.5812C69.8738 49.5566 69.8322 49.5269 69.7974 49.4866C69.761 49.4463 69.7332 49.399 69.7141 49.3412C69.6933 49.2852 69.6846 49.2221 69.6846 49.1538C69.6846 49.068 69.6985 48.9892 69.728 48.9157C69.7558 48.8421 69.7957 48.7791 69.8443 48.7265C69.8929 48.674 69.952 48.6337 70.018 48.6022C70.084 48.5724 70.1552 48.5566 70.2316 48.5566C70.3323 48.5566 70.4191 48.5724 70.492 48.6057C70.565 48.639 70.6275 48.6915 70.6796 48.765C70.7212 48.8263 70.7542 48.8929 70.7786 48.9682C70.8029 49.0435 70.815 49.1258 70.815 49.2134C70.815 49.343 70.7872 49.4656 70.7317 49.5829C70.6761 49.7002 70.6049 49.8053 70.5146 49.8964C70.4538 49.9577 70.3913 50.0102 70.3271 50.0523C70.2611 50.0943 70.1986 50.1276 70.1361 50.1521C70.0753 50.1766 70.018 50.1941 69.9641 50.2029C69.9103 50.2116 69.8669 50.2169 69.8322 50.2169C69.8009 50.2169 69.7818 50.2134 69.7731 50.2064C69.7644 50.1994 69.761 50.1959 69.761 50.1889ZM69.9312 48.9997C69.9312 49.047 69.9381 49.0995 69.952 49.1556C69.9659 49.2116 69.9867 49.2642 70.0145 49.3132C70.0423 49.3622 70.0788 49.4025 70.1204 49.4358C70.1621 49.4691 70.2125 49.4848 70.268 49.4848C70.3062 49.4848 70.3427 49.4743 70.3774 49.4533C70.4122 49.4323 70.4399 49.406 70.4642 49.3728C70.4886 49.3412 70.5077 49.3062 70.5216 49.2659C70.5354 49.2256 70.5424 49.1889 70.5424 49.1538C70.5424 49.096 70.5337 49.0365 70.5181 48.9752C70.5025 48.9139 70.4781 48.8579 70.4469 48.8088C70.4156 48.7598 70.3774 48.7178 70.3323 48.6862C70.2871 48.6547 70.2368 48.639 70.1777 48.639C70.0996 48.639 70.0388 48.6722 69.9954 48.7388C69.952 48.8053 69.9312 48.8911 69.9312 48.9997Z" fill="white"/>
<path d="M71.2529 50.1399C71.2529 50.1311 71.2547 50.1241 71.2599 50.1189C71.2651 50.1136 71.2703 50.1066 71.2772 50.0979C71.3016 50.0733 71.3293 50.0436 71.3606 50.0068C71.3918 49.97 71.4231 49.9297 71.4561 49.8842C71.4891 49.8387 71.5238 49.7914 71.5586 49.7423C71.5933 49.6933 71.6263 49.6425 71.6593 49.5935C71.7391 49.4744 71.7982 49.3693 71.8364 49.28C71.8746 49.1907 71.8954 49.1014 71.8954 49.012C71.8954 48.9332 71.8711 48.8719 71.8242 48.8282C71.7774 48.7844 71.7096 48.7616 71.6263 48.7616C71.5863 48.7616 71.5447 48.7739 71.503 48.7966C71.4613 48.8212 71.4248 48.8457 71.3936 48.8719C71.3814 48.8824 71.3693 48.8947 71.3571 48.9087C71.345 48.9227 71.3345 48.9315 71.3224 48.9315C71.305 48.9315 71.2963 48.9227 71.2963 48.9052C71.2963 48.893 71.2998 48.8789 71.3068 48.8667C71.3137 48.8544 71.3224 48.8422 71.3293 48.8352C71.3866 48.7616 71.4509 48.7003 71.5256 48.6495C71.5985 48.5987 71.6836 48.5742 71.7791 48.5742C71.8347 48.5742 71.885 48.583 71.9319 48.6005C71.9788 48.618 72.0187 48.6408 72.0517 48.6688C72.0864 48.6968 72.1125 48.7301 72.1316 48.7686C72.1507 48.8071 72.1594 48.8474 72.1594 48.893C72.1594 48.9595 72.1455 49.0278 72.1177 49.0961C72.0899 49.1644 72.0535 49.2327 72.01 49.3028C71.9649 49.3711 71.9145 49.4394 71.8572 49.5094C71.7999 49.5795 71.7444 49.646 71.6871 49.7126C71.6575 49.7494 71.6332 49.7809 71.6124 49.8089C71.5915 49.8369 71.5811 49.8579 71.5811 49.8754C71.5811 49.886 71.5863 49.8947 71.5968 49.9017C71.6072 49.9087 71.628 49.9157 71.661 49.9192C71.6888 49.9227 71.7166 49.9245 71.7444 49.9262C71.7721 49.9262 71.7895 49.928 71.7947 49.928C71.8555 49.928 71.9059 49.9262 71.9493 49.9227C71.9927 49.9192 72.0291 49.9122 72.0604 49.9035C72.0917 49.8947 72.1177 49.8825 72.1385 49.8684C72.1594 49.8544 72.1785 49.8352 72.1976 49.8141C72.208 49.8001 72.2167 49.7879 72.2219 49.7791C72.2271 49.7704 72.2306 49.7651 72.234 49.7599C72.2375 49.7546 72.2393 49.7511 72.2427 49.7493C72.2445 49.7476 72.2497 49.7476 72.2584 49.7476C72.2775 49.7476 72.2879 49.7581 72.2879 49.7791C72.2879 49.8001 72.2827 49.8264 72.2705 49.8562C72.2584 49.886 72.2445 49.9192 72.2271 49.9525C72.2097 49.9875 72.1924 50.0208 72.1767 50.0558C72.1594 50.0909 72.1472 50.1206 72.1368 50.1469C72.1333 50.1592 72.1264 50.1662 72.1177 50.1714C72.1073 50.1767 72.0969 50.1784 72.083 50.1784C72.0482 50.1784 72.01 50.1784 71.9666 50.1767C71.9232 50.1749 71.8763 50.1749 71.8277 50.1749C71.7791 50.1749 71.7305 50.1749 71.6801 50.1732C71.6297 50.1732 71.5829 50.1714 71.536 50.1714C71.5186 50.1714 71.4995 50.1714 71.4804 50.1732C71.4613 50.1732 71.4422 50.1749 71.4214 50.1749C71.4023 50.1749 71.3849 50.1749 71.3675 50.1767C71.3519 50.1767 71.338 50.1784 71.3293 50.1784C71.3033 50.1784 71.2842 50.1767 71.2738 50.1732C71.2599 50.1627 71.2529 50.1539 71.2529 50.1399Z" fill="white"/>
<path d="M72.7236 50.1399C72.7236 50.1311 72.7254 50.1241 72.7306 50.1189C72.7358 50.1136 72.741 50.1066 72.7479 50.0979C72.7723 50.0733 72.8 50.0436 72.8313 50.0068C72.8626 49.97 72.8938 49.9297 72.9268 49.8842C72.9598 49.8387 72.9945 49.7914 73.0293 49.7423C73.064 49.6933 73.097 49.6425 73.13 49.5935C73.2098 49.4744 73.2689 49.3693 73.3071 49.28C73.3453 49.1907 73.3661 49.1014 73.3661 49.012C73.3661 48.9332 73.3418 48.8719 73.2949 48.8282C73.248 48.7844 73.1803 48.7616 73.097 48.7616C73.057 48.7616 73.0154 48.7739 72.9737 48.7966C72.932 48.8212 72.8955 48.8457 72.8643 48.8719C72.8521 48.8824 72.84 48.8947 72.8278 48.9087C72.8157 48.9227 72.8052 48.9315 72.7931 48.9315C72.7757 48.9315 72.767 48.9227 72.767 48.9052C72.767 48.893 72.7705 48.8789 72.7775 48.8667C72.7844 48.8544 72.7931 48.8422 72.8 48.8352C72.8573 48.7616 72.9216 48.7003 72.9963 48.6495C73.0692 48.5987 73.1543 48.5742 73.2498 48.5742C73.3054 48.5742 73.3557 48.583 73.4026 48.6005C73.4495 48.618 73.4894 48.6408 73.5224 48.6688C73.5571 48.6968 73.5832 48.7301 73.6023 48.7686C73.6214 48.8071 73.6301 48.8474 73.6301 48.893C73.6301 48.9595 73.6162 49.0278 73.5884 49.0961C73.5606 49.1644 73.5242 49.2327 73.4807 49.3028C73.4356 49.3711 73.3852 49.4394 73.3279 49.5094C73.2706 49.5795 73.2151 49.646 73.1578 49.7126C73.1282 49.7494 73.1039 49.7809 73.0831 49.8089C73.0622 49.8369 73.0518 49.8579 73.0518 49.8754C73.0518 49.886 73.057 49.8947 73.0675 49.9017C73.0779 49.9087 73.0987 49.9157 73.1317 49.9192C73.1595 49.9227 73.1873 49.9245 73.2151 49.9262C73.2428 49.9262 73.2602 49.928 73.2654 49.928C73.3262 49.928 73.3765 49.9262 73.42 49.9227C73.4634 49.9192 73.4998 49.9122 73.5311 49.9035C73.5624 49.8947 73.5884 49.8825 73.6092 49.8684C73.6301 49.8544 73.6492 49.8352 73.6683 49.8141C73.6787 49.8001 73.6874 49.7879 73.6926 49.7791C73.6978 49.7704 73.7013 49.7651 73.7047 49.7599C73.7082 49.7546 73.71 49.7511 73.7134 49.7493C73.7152 49.7476 73.7204 49.7476 73.7291 49.7476C73.7482 49.7476 73.7586 49.7581 73.7586 49.7791C73.7586 49.8001 73.7534 49.8264 73.7412 49.8562C73.7291 49.886 73.7152 49.9192 73.6978 49.9525C73.6804 49.9875 73.6631 50.0208 73.6474 50.0558C73.6301 50.0909 73.6179 50.1206 73.6075 50.1469C73.604 50.1592 73.5971 50.1662 73.5884 50.1714C73.578 50.1767 73.5676 50.1784 73.5537 50.1784C73.5189 50.1784 73.4807 50.1784 73.4373 50.1767C73.3939 50.1749 73.347 50.1749 73.2984 50.1749C73.2498 50.1749 73.2012 50.1749 73.1508 50.1732C73.1004 50.1732 73.0536 50.1714 73.0067 50.1714C72.9893 50.1714 72.9702 50.1714 72.9511 50.1732C72.932 50.1732 72.9129 50.1749 72.8921 50.1749C72.873 50.1749 72.8556 50.1749 72.8382 50.1767C72.8226 50.1767 72.8087 50.1784 72.8 50.1784C72.774 50.1784 72.7549 50.1767 72.7445 50.1732C72.7306 50.1627 72.7236 50.1539 72.7236 50.1399Z" fill="white"/>
<path d="M230.374 18.373H88.1562V19.599H230.374V18.373Z" fill="#8C9EBC"/>
<path d="M230.374 46.3926H88.1562V47.6185H230.374V46.3926Z" fill="#8C9EBC"/>
<path d="M211.793 38.6875H112.727V39.0378H211.793V38.6875Z" fill="#8C9EBC"/>
<path d="M59.1566 32.0332C58.8093 32.0332 57.941 33.084 57.7674 33.4343C57.5938 33.7845 57.5938 43.0665 57.5938 43.0665C57.5938 43.0665 58.462 40.7898 59.3302 40.9649C60.1985 41.14 60.5458 41.6654 60.5458 41.6654V33.4343C60.5458 33.4343 59.5039 32.0332 59.1566 32.0332ZM60.0248 40.0892H58.2883V37.2871H60.0248V40.0892ZM60.0248 36.7617H58.2883V34.1348H60.0248V36.7617Z" fill="#1E2635"/>
<path d="M57.7672 32.209H53.5996V36.7624H56.7253C56.7253 36.7624 56.8989 33.9603 56.8989 33.61C56.8989 33.0846 57.7672 32.209 57.7672 32.209ZM56.2043 35.5365H54.9888V34.3981C54.9888 34.0601 55.2614 33.7852 55.5966 33.7852C55.9317 33.7852 56.2043 34.0601 56.2043 34.3981V35.5365Z" fill="#1E2635"/>
<path d="M56.7252 37.2871H54.4678V39.9141H56.7252V37.2871Z" fill="#1E2635"/>
<path d="M54.4678 43.3635C54.4678 43.3635 55.5843 43.5474 55.857 43.2286L56.7252 42.5509C56.7252 42.1113 56.7252 40.7891 56.7252 40.7891H54.4678V43.3635Z" fill="#1E2635"/>
<path d="M75.9068 32.008C75.6532 31.987 74.5176 33.4091 74.5176 33.4091V42.889C74.5176 42.889 74.8649 41.1149 75.7331 40.9397C76.6014 40.7646 77.4696 41.1376 77.4696 41.1376C77.4696 41.1376 77.4696 33.7594 77.2959 33.4091C77.1223 33.0588 76.1742 32.0326 75.9068 32.008ZM76.775 40.0641H75.0385V37.262H76.775V40.0641ZM76.775 36.7366H75.0385V34.1096H76.775V36.7366Z" fill="#1E2635"/>
<path d="M74.5174 21.3255H73.8228L73.7429 19.2467C73.7429 19.2467 73.6492 17.998 73.1282 17.998C72.6073 17.998 72.4336 19.224 72.4336 19.224V21.3255H71.9127V22.3763H70.5235V23.9525H69.6553V22.3763H67.9188V21.8509H67.3979V21.8737H67.1443V22.3991H65.4079V23.9753H64.5396V22.3991H63.1504V21.3483H62.6295V19.2467C62.6295 19.2467 62.4558 18.0208 61.9349 18.0208C61.414 18.0208 61.0667 19.2467 61.0667 19.2467L60.893 21.3483H60.5457L60.3721 32.2065L61.0667 33.0821H61.414H62.2822V35.5375L61.414 35.534V40.4376H62.2822C62.2822 40.4376 62.7094 38.6863 63.3241 38.6863C64.1958 38.6863 65.0658 39.3063 65.7552 39.9788V34.308H66.2761V40.5304C66.797 40.2625 66.9707 41.3133 66.9707 41.3133V34.6583L67.318 33.7826V24.8509H62.2822V32.2065H61.414V25.0261H61.0667V24.1504L61.9349 23.625V22.3991H61.0667V22.3886C61.0667 22.1031 61.2959 21.8737 61.5772 21.8737H61.9349V21.3483H61.5876C61.5876 21.3483 61.5147 20.1627 61.5876 19.7721C61.6293 19.548 61.8203 18.8895 61.8203 18.8895C61.8724 18.8089 61.9887 18.8089 62.0426 18.8877C62.0426 18.8877 62.2527 19.5445 62.2822 19.7721C62.3517 20.2923 62.2822 21.8737 62.2822 21.8737H62.3534C62.6017 21.8737 62.8031 22.0769 62.8031 22.3273V22.3991H62.2822V23.9753L62.8031 24.3255H67.6653L72.26 24.3028L72.7809 23.9525V22.3763H72.26C72.26 22.0856 72.4927 21.8509 72.7809 21.8509C72.7809 21.8509 72.6403 19.8649 72.7809 19.224C72.8087 19.0944 73.0015 18.7441 73.0015 18.7441C73.0379 18.6635 73.1525 18.6653 73.1855 18.7476C73.1855 18.7476 73.3644 19.1154 73.3939 19.2467C73.5051 19.7546 73.4738 21.3255 73.4738 21.3255H73.1265V21.8509H73.3001C73.5884 21.8509 73.8211 22.0856 73.8211 22.3763H73.1265V23.6023L73.9947 24.1276V25.0033H73.6474V32.1837H72.7792V24.8282H67.7434L67.6635 33.7826L68.0108 34.6583V39.9122C68.0108 39.9122 68.1845 39.2117 68.7054 39.3868L68.7853 34.2853H69.3062L69.4 38.8614C70.9628 38.3361 70.9628 39.9122 72.1784 39.0366C72.6785 38.6776 72.7792 39.5392 72.7792 39.5392L73.6474 41.1154V35.5112L72.7792 35.5147V33.0593H73.6474H73.9947L74.6893 32.1837L74.5174 21.3255ZM65.4079 38.1627H64.0187V36.4114C64.0187 36.4114 64.2166 35.7108 64.7133 35.7108C65.2099 35.7108 65.4079 36.4114 65.4079 36.4114V38.1627ZM63.1504 28.0296C63.1504 28.0296 63.6714 25.7283 64.9737 25.7283C66.2761 25.7283 66.797 28.0296 66.797 28.0296V33.7844H63.1504V28.0296ZM71.0445 38.1382H69.6553V36.3868C69.6553 36.3868 69.8532 35.6863 70.3499 35.6863C70.8465 35.6863 71.0445 36.3868 71.0445 36.3868V38.1382ZM71.9127 33.7599H68.2661V28.0051C68.2661 28.0051 68.787 25.7038 70.0894 25.7038C71.3918 25.7038 71.9127 28.0051 71.9127 28.0051V33.7599Z" fill="#1E2635"/>
<path d="M77.2959 32.1836C77.2959 32.1836 77.9575 32.9226 78.0843 33.4323C78.2579 34.1328 78.2579 36.737 78.2579 36.737H81.4634V32.1836H77.2959ZM80.0743 35.5111H78.8587V34.3727C78.8587 34.0347 79.1314 33.7598 79.4665 33.7598C79.8016 33.7598 80.0743 34.0347 80.0743 34.3727V35.5111Z" fill="#1E2635"/>
<path d="M80.248 37.2617H78.3379V39.8887H80.248V37.2617Z" fill="#1E2635"/>
<path d="M79.82 41.4909V42.0163H80.1516L80.1672 41.3157H80.5145L80.5944 40.7676H79.4727C79.4727 40.7658 79.82 41.1406 79.82 41.4909Z" fill="#1E2635"/>
<path d="M68.1861 33.7598H66.7969V34.6582H68.1861V33.7598Z" fill="#1E2635"/>
<path d="M81.1386 47.2031H53.7734V47.5324H81.1386V47.2031Z" fill="#1E2635"/>
<path d="M81.0361 46.4805H53.7734V46.8097H81.0361V46.4805Z" fill="#1E2635"/>
<path d="M65.582 30.1055H66.2766V29.405C66.2766 28.9812 65.9779 28.6274 65.582 28.5469V30.1055Z" fill="#1E2635"/>
<path d="M65.4083 30.1055V28.5293C64.929 28.5293 64.54 28.9216 64.54 29.405V30.1055H65.4083Z" fill="#1E2635"/>
<path d="M65.4083 30.2812H64.54V33.4336H65.4083V30.2812Z" fill="#1E2635"/>
<path d="M66.2766 30.2812H65.582V33.4336H66.2766V30.2812Z" fill="#1E2635"/>
<path d="M70.6173 30.1158V28.5273C70.138 28.5273 69.749 28.9196 69.749 29.403V30.1158H70.6173Z" fill="#1E2635"/>
<path d="M70.791 30.1158H71.4856V29.4031C71.4856 28.9792 71.1869 28.6255 70.791 28.5449V30.1158Z" fill="#1E2635"/>
<path d="M70.6173 30.291H69.749V33.4311H70.6173V30.291Z" fill="#1E2635"/>
<path d="M71.4856 30.291H70.791V33.4311H71.4856V30.291Z" fill="#1E2635"/>
<path d="M81.3918 32.168C80.2718 16.5323 69.4153 12.485 67.5 12.6514C65.9007 12.7897 54.1673 17.6233 53.6082 32.168C53.4241 36.9596 53.6082 51.3501 53.6082 51.3501H81.3918C81.3918 51.3501 81.7356 36.9508 81.3918 32.168ZM80.7979 50.7372H54.2073C54.2073 50.7372 54.0301 36.8825 54.2073 32.2696C54.7421 18.2678 65.9719 13.6146 67.5035 13.4815C69.3372 13.3204 79.7265 17.217 80.7997 32.2696C81.1261 36.8755 80.7979 50.7372 80.7979 50.7372Z" fill="#1E2635"/>
</g>
<defs>
<clipPath id="clip0_5332_74959">
<rect width="181" height="47" fill="white" transform="translate(49.5 8.5)"/>
</clipPath>
</defs>
</svg>
