<svg width="140" height="70" viewBox="0 0 140 70" fill="none" xmlns="http://www.w3.org/2000/svg">
<path d="M26.2261 17.2703V26.7201V26.8895C26.2261 30.4477 25.8743 35.0358 23.1244 39.0632C22.551 39.8843 21.9124 40.6533 21.1435 41.3962L21.1304 41.4093C19.6317 42.843 17.6638 44.1985 14.8489 45.7625C12.0339 44.1984 10.0529 42.8429 8.56737 41.4093L8.55434 41.3962C7.78556 40.653 7.13394 39.8971 6.5734 39.063C3.82356 35.0486 3.47168 30.4477 3.47168 26.8893V25.7163V17.2704L3.92782 17.2183C3.99298 17.2052 10.0922 16.4492 14.8488 16.4492C19.6058 16.4492 25.7047 17.2052 25.7698 17.2182L26.226 17.2704L26.2261 17.2703Z" fill="#8C9EBC"/>
<path d="M14.8485 17.5059C11.3036 17.5059 6.99037 17.936 5.07456 18.1445L4.52715 25.717H14.8486H25.17L24.6363 18.1445C22.7075 17.936 18.3935 17.5059 14.8486 17.5059L14.8485 17.5059ZM14.8485 26.3558L4.51367 26.9296C4.51371 30.3313 4.85258 34.7108 7.43296 38.4776C7.96743 39.2468 8.58 39.976 9.30972 40.6799C11.5774 42.7652 14.1318 43.9125 14.8485 44.2124C15.5652 43.9125 18.1196 42.7652 20.3873 40.6799C21.117 39.976 21.73 39.2598 22.2641 38.4776C24.8315 34.7108 25.17 30.3313 25.17 26.9296L14.8485 26.3558V26.3558Z" fill="#1E2635"/>
<path d="M13.6104 18.8478C13.076 18.8478 12.5022 18.9397 11.9028 19.0179C11.2381 19.1221 10.5482 19.2127 9.85747 19.2127H9.5316V20.5555H9.04931V21.3373H9.5316V22.4061H9.04931V23.1879H9.5316V24.6476H9.85747C10.6003 24.6476 11.3294 24.5311 12.0201 24.4268C12.6196 24.3356 13.1803 24.2437 13.6494 24.2437C14.0404 24.2437 14.3273 24.2965 14.5488 24.4138H15.1745C15.3961 24.2965 15.6829 24.2437 16.0739 24.2437C16.5561 24.2437 17.1156 24.3356 17.7021 24.4268C18.4059 24.5311 19.1361 24.6476 19.8659 24.6476H20.1918V23.1879H20.674V22.4061H20.1918V21.3373H20.674V20.5685H20.1918V19.2128H19.8659C19.1752 19.2128 18.484 19.1091 17.8194 19.0179C17.2068 18.9265 16.6341 18.8477 16.1126 18.8477C15.6174 18.8477 15.2001 18.9263 14.8613 19.0827C14.5224 18.9263 14.1051 18.8477 13.6097 18.8477L13.6104 18.8478ZM14.8487 26.8903C14.8356 26.8903 14.8226 26.9033 14.8226 26.9163L13.6886 30.3955H10.04C10.0269 30.3955 10.0139 30.3967 10.0009 30.4097C10.0009 30.4358 10.0009 30.4487 10.0269 30.4487L12.9847 32.5992L11.8507 36.1044C11.8507 36.1044 11.8507 36.1174 11.8637 36.1174H11.8768L14.8618 33.9538L17.8456 36.1174H17.8586C17.8717 36.1043 17.8717 36.0914 17.8586 36.0914L16.7246 32.5992L19.6836 30.4487C19.6966 30.4487 19.7096 30.4358 19.6966 30.4097C19.6966 30.3967 19.6836 30.3955 19.6705 30.3955H16.0089L14.8749 26.9164C14.8749 26.9033 14.8618 26.8904 14.8488 26.8904L14.8487 26.8903ZM8.11076 27.5942L7.9022 27.7761C7.39392 28.1541 7.04189 28.7023 6.92458 29.3279C6.85942 29.6407 6.85942 29.9528 6.92458 30.2526C6.67721 30.0565 6.39034 29.9134 6.0906 29.8092L5.81686 29.7314L5.75169 30.0042C5.60834 30.6298 5.71265 31.2684 6.02543 31.8158C6.33821 32.3632 6.85979 32.7683 7.45927 32.9507L7.6939 33.0157C7.71996 33.2112 7.77212 33.4059 7.83728 33.6015C7.49844 33.3799 7.10725 33.2496 6.70326 33.2235L6.42952 33.1976V33.4845C6.41649 34.1232 6.6512 34.723 7.06824 35.1923C7.49831 35.6615 8.07206 35.9479 8.71066 36.0001L8.95833 36.026C9.02349 36.2215 9.11477 36.4046 9.21902 36.561C8.94534 36.4567 8.64543 36.4039 8.34569 36.4039C8.24143 36.4039 8.13711 36.4039 8.03285 36.4169L7.75911 36.4559L7.81125 36.7299C7.92854 37.3555 8.2806 37.9037 8.80189 38.2817C9.23196 38.5945 9.72749 38.7506 10.2618 38.7506C10.3661 38.7506 10.4704 38.7506 10.5746 38.7376L10.8211 38.7116C10.9254 38.881 11.0427 39.0371 11.1861 39.1805C10.7951 39.1153 10.379 39.154 10.0011 39.2844L9.74042 39.3765L9.8447 39.6363C10.0923 40.2228 10.5475 40.6925 11.121 40.9401C11.4468 41.0835 11.7858 41.1621 12.1247 41.1621C12.3983 41.1621 12.6852 41.1093 12.9458 41.018L13.1414 40.9531C13.4672 41.2268 13.8323 41.5011 14.3406 41.853C14.106 42.0094 13.8582 42.1653 13.5715 42.3608L14.0669 42.6608C14.3406 42.4783 14.5883 42.3212 14.8099 42.1648C15.0315 42.3081 15.2792 42.4783 15.5529 42.6608L16.0483 42.3608C15.7615 42.1784 15.5138 42.0094 15.2792 41.853C15.7875 41.5011 16.1526 41.2268 16.4784 40.9531L16.6728 41.018C16.9334 41.1093 17.2203 41.1621 17.494 41.1621C17.8458 41.1621 18.1849 41.0835 18.4977 40.9401C19.0711 40.6794 19.5275 40.2228 19.7751 39.6363L19.8794 39.3765L19.6187 39.2844C19.2407 39.154 18.8235 39.1153 18.4325 39.1805C18.5759 39.0371 18.6932 38.881 18.7975 38.7116L19.0451 38.7376C19.1494 38.7506 19.2537 38.7506 19.358 38.7506C19.8923 38.7506 20.3878 38.5945 20.8179 38.2817C21.3262 37.9037 21.6782 37.3555 21.8085 36.7299L21.8607 36.4559L21.587 36.4169C21.4827 36.4039 21.3784 36.4039 21.2741 36.4039C20.9744 36.4039 20.6875 36.4568 20.4008 36.561C20.505 36.3916 20.5963 36.2085 20.6615 36.026L20.9091 36.0001C21.5477 35.9479 22.1215 35.6615 22.5516 35.1923C22.9816 34.723 23.2021 34.1102 23.1891 33.4845V33.1976L22.9023 33.2235C22.4983 33.2496 22.1083 33.3929 21.7694 33.6015C21.8476 33.419 21.8868 33.2112 21.9128 33.0157L22.1996 32.9507C22.8121 32.7683 23.3195 32.3632 23.6323 31.8158C23.945 31.2684 24.0493 30.6298 23.906 30.0042L23.8408 29.7314L23.5671 29.8093C23.2543 29.9006 22.9816 30.0567 22.734 30.2522C22.7861 29.9524 22.7861 29.6403 22.734 29.3275C22.6167 28.7019 22.2647 28.1537 21.7564 27.7757L21.5348 27.6068L21.3914 27.8407C21.0526 28.375 20.9352 29.0136 21.0525 29.6393C21.1698 30.2649 21.5218 30.8001 22.0301 31.1781C21.9389 31.3867 21.8737 31.6215 21.8346 31.843C21.6782 31.426 21.4305 31.061 21.0786 30.7742L20.8558 30.5907L20.6865 30.8258C20.3216 31.3471 20.1521 31.9728 20.2433 32.5984C20.3215 33.224 20.6475 33.797 21.1297 34.201L21.1428 34.214C20.9994 34.4095 20.882 34.6183 20.8039 34.8529C20.7387 34.4228 20.5692 34.0062 20.2824 33.6412L20.113 33.4192L19.9044 33.6141C19.4353 34.0442 19.1484 34.6312 19.0963 35.2568C19.0441 35.8824 19.2397 36.5082 19.6307 37.0035L19.6437 37.0165C19.4613 37.1729 19.3048 37.3689 19.1745 37.5644C19.2005 37.1213 19.1223 36.6777 18.9138 36.2736L18.7834 36.0256L18.5357 36.1697C17.9884 36.4955 17.5841 37.0038 17.4017 37.6164C17.2193 38.229 17.2845 38.8675 17.5712 39.441V39.454C17.3627 39.5713 17.1671 39.7274 17.0107 39.8968C17.128 39.4667 17.141 39.0232 17.0237 38.58L16.9585 38.3072L16.6978 38.3982C16.0984 38.6067 15.604 39.0234 15.2913 39.5839C15.0045 40.1182 14.9263 40.744 15.0697 41.3435C14.9915 41.3957 14.9002 41.4615 14.822 41.5136C14.7308 41.4484 14.6525 41.3957 14.5743 41.3435C14.7177 40.744 14.6395 40.1183 14.3527 39.5839C14.053 39.0234 13.5575 38.6067 12.945 38.3982L12.6843 38.3072L12.6191 38.58C12.5018 39.0102 12.5148 39.4667 12.6321 39.8968C12.4627 39.7274 12.2801 39.5713 12.0586 39.454L12.0716 39.441C12.3584 38.8675 12.4105 38.229 12.2411 37.6164C12.0586 37.0038 11.6544 36.4955 11.1071 36.1697L10.8594 36.0256L10.7291 36.2736C10.5205 36.6776 10.4435 37.1213 10.4696 37.5644C10.3392 37.3559 10.1827 37.1729 10.0003 37.0165L10.0133 37.0035C10.4043 36.5082 10.5999 35.8824 10.5477 35.2438C10.4956 34.6051 10.2087 34.0312 9.73958 33.6011L9.53101 33.4062L9.36156 33.6282C9.07485 33.9801 8.90531 34.3968 8.84015 34.8399C8.76089 34.6186 8.64374 34.3965 8.50017 34.2012L8.51321 34.1882C9.00843 33.7841 9.32138 33.2112 9.3996 32.5856C9.47779 31.96 9.32132 31.3212 8.9564 30.8129L8.78695 30.5779L8.56535 30.761C8.21348 31.0477 7.95267 31.4127 7.80933 31.8298C7.78326 31.5951 7.71806 31.3734 7.6138 31.1649C8.12208 30.7869 8.47412 30.2386 8.59143 29.626C8.70872 29.0004 8.59136 28.3618 8.25252 27.8274L8.10913 27.5935L8.11076 27.5942Z" fill="#8C9EBC"/>
<path d="M13.5977 19.4864C13.1155 19.4864 12.5678 19.564 11.9814 19.6553C11.4601 19.7335 10.9396 19.7992 10.3923 19.8383L10.2489 23.9706C10.7963 23.9446 11.3558 23.8658 11.9031 23.7746C12.5157 23.6833 13.1025 23.5915 13.6368 23.5915C13.9235 23.5915 14.1713 23.6185 14.3928 23.6707L14.5101 20.2163V19.6423C14.2758 19.5381 13.976 19.4865 13.5978 19.4865L13.5977 19.4864ZM16.1004 19.4864C15.7225 19.4864 15.4356 19.538 15.1879 19.6423V20.2162L15.3053 23.6706C15.5268 23.6185 15.7746 23.5915 16.0613 23.5915C16.5956 23.5915 17.1812 23.6833 17.7937 23.7745C18.3411 23.8658 18.9018 23.9445 19.4492 23.9706L19.306 19.8383C18.7585 19.7991 18.224 19.7334 17.7156 19.6552C17.1291 19.564 16.5827 19.4863 16.1003 19.4863L16.1004 19.4864ZM7.98077 28.3886C7.69405 28.6753 7.5115 29.0274 7.43328 29.4184C7.36812 29.8094 7.40724 30.2132 7.56363 30.5652C7.85035 30.2784 8.0329 29.9263 8.11112 29.5353C8.17628 29.1443 8.13716 28.7535 7.98077 28.3886H7.98077ZM21.6782 28.3886C21.5219 28.7535 21.4697 29.1573 21.5479 29.5483C21.6261 29.9393 21.8217 30.2914 22.0954 30.5781C22.2518 30.2132 22.3039 29.8094 22.2257 29.4184C22.1475 29.0274 21.952 28.6623 21.6783 28.3886H21.6782ZM14.8492 29.3534L14.1714 31.047L12.3335 31.178L13.7543 32.3508L13.2981 34.1234L14.8492 33.1456L16.4004 34.1234L15.9442 32.3508L17.3507 31.178L15.527 31.0599L14.8492 29.3534V29.3534ZM6.22116 30.4222C6.19509 30.8132 6.28637 31.2171 6.48186 31.5559C6.67734 31.8948 6.97723 32.1683 7.32912 32.3377C7.36822 31.9467 7.27694 31.5559 7.06842 31.204C6.87293 30.8651 6.57304 30.5916 6.22116 30.4222ZM23.4497 30.4222C23.0848 30.5916 22.7991 30.8651 22.6037 31.204C22.4082 31.5559 22.3169 31.9467 22.343 32.3377C22.6948 32.1683 22.9935 31.8948 23.189 31.5559C23.3845 31.204 23.4758 30.8132 23.4497 30.4222ZM8.71088 31.3989C8.45023 31.6986 8.2807 32.0637 8.22859 32.4547C8.17646 32.8457 8.24166 33.2495 8.42412 33.6014C8.68477 33.3016 8.8543 32.9378 8.9064 32.5468C8.95853 32.1428 8.89333 31.7508 8.71088 31.3989ZM20.9615 31.3989C20.7791 31.7508 20.7139 32.1558 20.766 32.5468C20.8181 32.9378 20.9877 33.3016 21.2483 33.6014C21.4308 33.2495 21.496 32.8457 21.4438 32.4547C21.3917 32.0637 21.2222 31.6987 20.9615 31.3989ZM6.9773 33.7845C7.04246 34.1755 7.21198 34.5405 7.47264 34.8403C7.73329 35.14 8.08537 35.349 8.46328 35.4272C8.39812 35.0362 8.2286 34.6582 7.96794 34.3714C7.70729 34.0847 7.35522 33.8757 6.9773 33.7845V33.7845ZM22.6821 33.7845C22.3042 33.8757 21.9651 34.0716 21.6915 34.3714C21.4178 34.6712 21.2483 35.0362 21.1961 35.4272C21.5741 35.336 21.9261 35.1401 22.1868 34.8403C22.4604 34.5535 22.63 34.1885 22.6821 33.7845ZM20.049 34.2273C19.8014 34.5401 19.6449 34.9051 19.6189 35.3091C19.5928 35.7131 19.6841 36.104 19.8666 36.4428C20.1142 36.13 20.2707 35.752 20.2967 35.3611C20.3358 34.957 20.2445 34.5662 20.049 34.2273ZM9.61044 34.2403C9.41495 34.5792 9.33671 34.97 9.34974 35.3741C9.38884 35.7781 9.53228 36.143 9.77988 36.4558C9.97537 36.1169 10.0666 35.7261 10.0406 35.3221C10.0015 34.9181 9.85804 34.5531 9.61044 34.2403ZM11.0822 36.8208C10.9649 37.1988 10.9519 37.6037 11.0692 37.9817C11.1865 38.3597 11.4082 38.6977 11.7079 38.9453C11.8252 38.5674 11.8382 38.1636 11.7209 37.7856C11.6037 37.4076 11.382 37.0684 11.0822 36.8208H11.0822ZM18.5763 36.8208C18.2765 37.0684 18.0549 37.4077 17.9375 37.7856C17.8203 38.1636 17.8333 38.5674 17.9506 38.9453C18.2503 38.6977 18.472 38.3596 18.5893 37.9817C18.7066 37.6037 18.6936 37.1988 18.5763 36.8208V36.8208ZM8.41141 36.9389C8.55476 37.3038 8.78948 37.629 9.11529 37.8636C9.4411 38.0982 9.81925 38.2154 10.1972 38.2415C10.0669 37.8635 9.83216 37.5514 9.50634 37.3168C9.18053 37.0822 8.80238 36.9519 8.41141 36.9389ZM21.2356 36.9389C20.8446 36.9519 20.4665 37.0822 20.1407 37.3168C19.8279 37.5514 19.5801 37.8635 19.4498 38.2415C19.8408 38.2285 20.2189 38.0982 20.5447 37.8636C20.8705 37.629 21.1053 37.3038 21.2356 36.9389ZM16.5965 39.0375C16.2577 39.22 15.9708 39.5064 15.7753 39.8583C15.5798 40.2102 15.5016 40.601 15.5537 40.992C15.9056 40.8095 16.1925 40.5231 16.3749 40.1712C16.5574 39.8193 16.6356 39.4285 16.5965 39.0375ZM13.064 39.0505C13.0249 39.4415 13.1032 39.8323 13.2856 40.1712C13.4681 40.5232 13.755 40.8096 14.1068 40.992C14.1459 40.601 14.0677 40.2102 13.8852 39.8583C13.7028 39.5194 13.4159 39.233 13.064 39.0505ZM10.777 39.6729C10.6797 39.6757 10.5821 39.6861 10.4843 39.7024C10.6928 40.0413 10.9916 40.3148 11.3565 40.4712C11.7083 40.6276 12.1126 40.6793 12.5035 40.6141C12.295 40.2752 11.9951 40.0017 11.6302 39.8453C11.3565 39.7182 11.069 39.6643 10.777 39.6729V39.6729ZM18.8943 39.6752C18.5993 39.6697 18.3062 39.728 18.0423 39.8453C17.6774 40.0147 17.3775 40.2752 17.169 40.6141C17.2863 40.6271 17.4036 40.6401 17.5209 40.6401C17.7946 40.6401 18.0685 40.5885 18.3161 40.4712C18.681 40.3017 18.9809 40.0412 19.1894 39.7024C19.0917 39.6861 18.9927 39.6771 18.8943 39.6752L18.8943 39.6752Z" fill="#1E2635"/>
<path d="M129.063 17.623C124.385 18.6006 121.009 20.7511 121.009 24.4266C121.009 27.4244 123.003 28.9748 125.428 30.0172L129.506 31.8029C131.526 32.6762 133.011 33.9931 133.011 36.287C133.011 38.7504 131.33 40.562 128.437 40.562C126.548 40.562 124.697 39.6886 123.694 38.4374L122.521 35.57H120.163L120.904 40.1189C122.69 41.5266 124.775 42.4124 127.877 42.4124C134.211 41.096 136.361 38.0332 136.361 34.8659C136.361 31.425 134.042 29.7431 131.383 28.5961L127.512 26.9156C125.661 26.1075 124.345 24.9601 124.345 23.1093C124.345 20.8544 125.922 19.4081 128.594 19.4081C130.614 19.4081 131.695 20.1503 132.568 21.0627L133.546 24.1261H135.227V19.5772C133.546 18.3263 131.188 17.623 129.063 17.623H129.063ZM108.55 17.897L106.531 18.4698L98.1763 40.3015L96.5599 40.5235L94.9448 40.2755L87.4638 29.2618L94.3713 19.761L97.0031 19.396L96.8337 18.2221L92.8983 18.3272L88.9629 18.2221L88.7935 19.396L91.7252 19.8389L86.382 27.6983L81.6254 19.813L84.4919 19.3701L84.3224 18.1962L79.5398 18.3273L74.7181 18.1962L74.5487 19.3701L77.1817 19.735L84.1531 30.2786L76.8819 40.2885L74.2489 40.6534L74.4183 41.8663L78.1843 41.7611L82.1208 41.8663L82.2902 40.6534L79.5269 40.2495L85.2739 31.8564L90.5129 40.2236L87.6464 40.6664L87.8158 41.8793L92.6375 41.7742L96.5729 41.8533L99.3363 41.7742L103.376 41.8793L103.545 40.7054L100.614 40.2625L102.802 33.9668H111.118L113.412 40.2625L110.544 40.7054L110.713 41.8793L115.157 41.7742L119.811 41.8793L119.98 40.7054L117.347 40.3405L108.55 17.8972L108.55 17.897ZM32.4036 18.1958V24.1527H33.7201L35.27 19.8777L40.3146 19.8128V40.2235L36.2739 40.6664L36.4433 41.8391L42.0993 41.7352L47.5596 41.8391L47.729 40.6664L43.8587 40.2235V19.8128L48.9021 19.8777L50.4532 24.1527H51.7698V18.1958L42.0728 18.3009L32.4034 18.1958H32.4036ZM53.7891 18.1958L53.6197 19.3697L56.6568 19.8126V40.2234L53.6197 40.6662L53.7891 41.839L58.4428 41.735L71.8128 41.839L72.986 35.6092H71.7086L69.4547 40.1582L60.188 40.2621V30.1481L64.9067 30.291L66.2481 33.8233H67.4343L67.0954 29.2744L67.4343 25.0654H66.2481L64.9067 28.5966L60.188 28.7406V19.7736L69.1159 19.8775L71.0059 24.2567H72.1518L71.8129 18.196L58.4428 18.3011L53.7892 18.196L53.7891 18.1958ZM13.5471 20.1042C13.1775 20.1005 12.7842 20.1447 12.3835 20.2034V20.7372C12.9439 20.659 13.4524 20.6071 13.8955 20.6462L13.9086 20.1254C13.7913 20.1124 13.6703 20.1054 13.5471 20.1041L13.5471 20.1042ZM16.4113 20.1171C16.1962 20.1057 15.9876 20.1059 15.7856 20.1254L15.7987 20.6462C16.1766 20.6202 16.6057 20.646 17.0749 20.7112V20.1774C16.8468 20.1513 16.6264 20.1286 16.4113 20.1172L16.4113 20.1171ZM17.4659 20.2163V20.7513C17.5572 20.7644 17.6354 20.7773 17.7266 20.7903C18.0655 20.8424 18.4045 20.8941 18.7564 20.9332L18.7434 20.3994C18.4306 20.3603 18.1176 20.3204 17.8048 20.2683C17.6875 20.2553 17.5832 20.2424 17.4659 20.2163H17.4659ZM11.9926 20.2553C11.9535 20.2684 11.9274 20.2683 11.8884 20.2683C11.5756 20.3204 11.2626 20.3603 10.9498 20.3994L10.9368 20.9332C11.2887 20.8941 11.6277 20.8424 11.9665 20.7903H11.9926V20.2553H11.9926ZM13.4087 21.304C12.9365 21.3181 12.4325 21.39 11.9144 21.4682V22.002C11.9405 22.002 11.9535 22.002 11.9796 21.989C12.6834 21.8847 13.3223 21.794 13.8566 21.8331L13.8696 21.3111C13.7198 21.3013 13.5661 21.2993 13.4087 21.304L13.4087 21.304ZM15.8379 21.3111L15.851 21.8331C16.1898 21.8071 16.5668 21.833 16.9708 21.8851V21.3631C16.5668 21.324 16.1898 21.2981 15.8379 21.3111H15.8379ZM17.3618 21.4021V21.937C17.4791 21.9501 17.6095 21.976 17.7268 21.989C18.0787 22.0411 18.4308 22.0928 18.7957 22.1319L18.7826 21.5981C18.4568 21.559 18.1308 21.5073 17.805 21.4682C17.6617 21.4421 17.5052 21.4281 17.3618 21.4021H17.3618ZM11.5103 21.5202C11.3148 21.5462 11.1062 21.572 10.9107 21.5981L10.8976 22.1319L11.5233 22.054V21.5202H11.5103H11.5103ZM106.818 22.237L110.493 32.338H103.325L106.818 22.237H106.818ZM15.8787 22.4968L15.8917 23.0189C16.3218 22.9928 16.8291 23.0446 17.3635 23.1228V22.602C16.842 22.5241 16.3347 22.4711 15.8787 22.497L15.8787 22.4968ZM13.8191 22.5098C13.376 22.4838 12.8935 22.5368 12.3853 22.602V23.1358C12.9066 23.0576 13.3891 23.0058 13.8061 23.0318L13.8191 22.5098L13.8191 22.5098ZM17.7675 22.6409V23.1877H17.7545C18.1064 23.2398 18.4715 23.2927 18.8494 23.3318L18.8364 22.7968C18.4845 22.7577 18.1455 22.706 17.8197 22.6539C17.8066 22.6539 17.7936 22.6539 17.7675 22.6409L17.7675 22.6409ZM11.994 22.6539C11.9549 22.6539 11.9289 22.6669 11.9028 22.6669C11.564 22.719 11.2249 22.7707 10.8861 22.8098L10.873 23.3448C11.251 23.3057 11.6291 23.2528 11.994 23.2007H12.0201V22.6539H11.994L11.994 22.6539ZM40.9054 47.0611L40.1352 47.1497L38.3743 47.1627L36.3124 47.1497V48.3779H36.5861L36.912 47.504L37.9951 47.4792V51.6977L37.1336 51.7863L37.1727 52.0272L38.3743 52.0012L39.5344 52.0272L39.5747 51.7863L38.7523 51.6977V47.4792L40.2134 47.504L40.4741 47.4662V51.7355L40.044 51.7992L40.0831 52.039L40.8403 52.0142L41.5181 52.039L41.5572 51.7992L41.1662 51.7355V49.6699L41.3747 49.5436C41.6357 49.3789 41.9101 49.2271 42.1319 49.2271C42.419 49.2271 42.5881 49.3793 42.5881 49.7467V51.7355L42.2362 51.7992L42.2753 52.039L42.9531 52.0142L43.7625 52.0272L43.8016 51.7862L43.2671 51.7225V49.8731C43.2671 48.9863 43.1105 48.6566 42.1971 48.6566L41.1531 49.3156V47.0612H40.9054L40.9054 47.0611ZM118.843 47.0859L118.412 47.2005L116.638 51.7094L116.076 51.7861L116.116 52.0271L116.886 52.0011L117.747 52.0271L117.786 51.7861L117.16 51.6976L117.63 50.3926V50.4056H119.391L119.873 51.7094L119.261 51.7991L119.3 52.0389L120.252 52.0141L121.244 52.0389L121.283 51.7991L120.722 51.7224L118.843 47.0856L118.843 47.0859ZM87.1743 47.1119L86.5747 47.7709C86.3138 48.0496 86.1837 48.3272 86.1837 48.7452V48.809H85.7654L85.5438 49.0499V49.1633H86.1706V51.7354L85.6611 51.7992L85.7002 52.039L86.5225 52.0142L87.6317 52.039L87.6708 51.7732L86.8485 51.7225V49.1515H87.7491V48.822H86.8485V48.6448C86.8485 48.1888 86.9005 47.9861 87.0049 47.8595L87.1483 47.6693H88.0749V47.1119H87.1743L87.1743 47.1119ZM48.7586 47.1497L48.7195 47.3906L49.3724 47.4792V50.3041C49.3724 51.4189 49.8817 52.1535 51.2909 52.1535C52.7262 51.8242 53.1039 51.2292 53.1039 50.3171V47.4792L53.7178 47.3907L53.6787 47.1497L52.8432 47.1745L51.9296 47.1497L51.8905 47.3907L52.5173 47.4662V50.3797C52.5173 51.2791 52.0998 51.7603 51.356 51.7603C50.534 51.7603 50.1556 51.2671 50.1556 50.4057V47.4792L50.7683 47.3906L50.7292 47.1497L49.7504 47.1745L48.7585 47.1497L48.7586 47.1497ZM90.0036 47.1627V48.3909H90.2904L90.6163 47.5039L91.6994 47.4921V51.7095L90.8391 51.7993L90.8782 52.039L92.0786 52.0142L93.2399 52.039L93.2659 51.7993L92.4436 51.7095V47.4921L93.5267 47.5039L93.8525 48.3909H94.1263V47.1627L92.0656 47.1875L90.0037 47.1627H90.0036ZM58.9617 47.1745L58.4403 47.2135L58.3751 47.5418L58.4142 47.935L58.6097 47.9728L59.1181 47.935L59.1963 47.6056L59.1572 47.2135L58.9616 47.1745L58.9617 47.1745ZM73.8238 47.1745L73.3012 47.2135L73.236 47.5418L73.2751 47.935L73.4718 47.9728L73.9801 47.935L74.0583 47.6056L74.0193 47.2135L73.8237 47.1745L73.8238 47.1745ZM131.838 47.1745L131.315 47.2135L131.25 47.5418L131.289 47.935L131.485 47.9728L131.994 47.935L132.073 47.6056L132.033 47.2135L131.838 47.1745L131.838 47.1745ZM118.528 47.8465L118.58 48.2267L119.259 50.0631H117.733L118.528 47.8464L118.528 47.8465ZM75.7821 47.8842L75.3116 48.3401V48.7959H74.8423L74.5947 49.0369V49.1514H75.2856V51.2288C75.2856 51.8622 75.3902 52.1405 76.1992 52.1405L77.0998 51.6598L76.9825 51.4189C76.7868 51.5076 76.5644 51.609 76.3556 51.609C76.0555 51.609 75.9776 51.3937 75.9776 51.191V49.0629H77.0607L78.2611 52.0011L78.5479 51.9126L77.8298 52.9636H77.2171V53.6604V53.6864H78.0786L78.8868 51.9255L80.0481 49.0746L80.5055 48.9991L80.4664 48.7581L79.8656 48.7841L79.24 48.7581L79.2008 48.9991L79.5267 49.0746L78.6391 51.596L78.587 51.1142L77.7907 49.0746L78.2611 48.9991L78.2221 48.7581H75.9647V47.8842H75.7822L75.7821 47.8842ZM113.335 47.8842L112.864 48.3401V48.7959H112.395L112.147 49.0369V49.1514H112.838V51.2288C112.838 51.8622 112.943 52.1405 113.752 52.1405L114.587 51.6846L114.47 51.4437C114.261 51.5324 114.104 51.609 113.895 51.609C113.595 51.609 113.517 51.3937 113.517 51.191V49.1514H114.6V48.8349H113.517V47.8842H113.334L113.335 47.8842ZM129.135 47.8842L128.666 48.3401V48.7959H128.197L127.948 49.0369V49.1514H128.64V51.2288C128.64 51.8622 128.745 52.1405 129.554 52.1405L130.388 51.6846L130.271 51.4437C130.075 51.5324 129.919 51.609 129.71 51.609C129.41 51.609 129.332 51.3937 129.332 51.191V49.1514H130.401V48.8349H129.319V47.8842H129.135V47.8842ZM71.2169 48.6188C70.3818 48.7962 69.9122 49.0752 69.9122 49.5565C69.9122 49.9492 70.1987 50.2147 70.5118 50.3667L71.0735 50.6584C71.4519 50.8484 71.5949 50.9758 71.5949 51.2418C71.5949 51.5331 71.3998 51.7732 71.0214 51.7732C70.7995 51.7732 70.5902 51.6974 70.4336 51.5961L70.1859 51.0127H69.7285L69.8601 51.7992C70.0558 51.9005 70.5114 52.1157 70.955 52.1157C71.777 51.9384 72.3 51.7098 72.3 51.0765C72.3 50.6838 72.1038 50.4184 71.621 50.1777L71.0735 49.9108C70.7604 49.7588 70.577 49.6204 70.577 49.3924C70.577 49.139 70.8516 48.9861 71.1256 48.9861C71.3866 48.9861 71.5948 49.1005 71.6731 49.1385L71.8556 49.6321H72.2348V48.9354C72.026 48.7833 71.6083 48.6189 71.2169 48.6189L71.2169 48.6188ZM105.82 48.6188C104.985 48.7962 104.515 49.0752 104.515 49.5565C104.515 49.9492 104.803 50.2147 105.116 50.3667L105.676 50.6584C106.055 50.8484 106.199 50.9758 106.199 51.2418C106.199 51.5331 106.003 51.7732 105.624 51.7732C105.402 51.7732 105.194 51.6974 105.038 51.5961L104.789 51.0127H104.333L104.463 51.7992C104.659 51.9005 105.129 52.1157 105.559 52.1157C106.381 51.9384 106.903 51.7098 106.903 51.0765C106.903 50.6838 106.708 50.4184 106.225 50.1777L105.676 49.9108C105.363 49.7588 105.181 49.6204 105.181 49.3924C105.181 49.139 105.455 48.9861 105.729 48.9861C105.99 48.9861 106.199 49.1005 106.277 49.1385L106.46 49.6321H106.838V48.9354C106.629 48.7833 106.211 48.6189 105.82 48.6189L105.82 48.6188ZM126.619 48.6188C125.784 48.7962 125.314 49.0752 125.314 49.5565C125.314 49.9492 125.602 50.2147 125.915 50.3667L126.475 50.6584C126.841 50.8484 126.998 50.9758 126.998 51.2418C126.998 51.5331 126.802 51.7732 126.423 51.7732C126.201 51.7732 125.993 51.6974 125.837 51.5961L125.588 51.0127H125.132L125.262 51.7992C125.458 51.9005 125.914 52.1157 126.358 52.1157C127.18 51.9384 127.702 51.7098 127.702 51.0765C127.702 50.6838 127.507 50.4184 127.024 50.1777L126.475 49.9108C126.162 49.7588 125.98 49.6204 125.98 49.3924C125.98 49.139 126.254 48.9861 126.528 48.9861C126.789 48.9861 127.011 49.1005 127.076 49.1385L127.259 49.6321H127.637V48.9354C127.426 48.7835 127.009 48.6187 126.618 48.6187L126.619 48.6188ZM45.7329 48.6448C44.7542 48.8475 44.1141 49.4044 44.1141 50.4305C44.1141 51.5326 44.8977 52.1275 45.7719 52.1275C46.2286 52.0135 46.6852 51.8111 47.0245 51.5831L46.9072 51.3174C46.6332 51.482 46.2937 51.6091 46.0066 51.6091C45.2628 51.6091 44.8192 51.0514 44.8192 50.2533V50.2403H46.9984V49.9486C46.9984 49.2265 46.6854 48.6448 45.7329 48.6448L45.7329 48.6448ZM65.1348 48.6448C64.1562 48.8475 63.5173 49.4044 63.5173 50.4305C63.5173 51.5326 64.2997 52.1275 65.174 52.1275C65.6306 52.0135 66.0885 51.8111 66.4277 51.5831L66.3092 51.3174C66.0352 51.482 65.6969 51.6091 65.4098 51.6091C64.6661 51.6091 64.2225 51.0514 64.2225 50.2533V50.2403H66.4017V49.9486C66.4017 49.2265 66.0874 48.6448 65.1349 48.6448L65.1348 48.6448ZM83.6241 48.6448C82.515 48.8348 81.8632 49.4168 81.8632 50.4682C81.8632 51.4057 82.5152 52.1275 83.4677 52.1275C84.5768 51.9502 85.2298 51.3558 85.2298 50.3171C85.2298 49.367 84.5897 48.6448 83.6241 48.6448V48.6448ZM95.4456 48.6448C94.4669 48.8475 93.828 49.4044 93.828 50.4305C93.828 51.5326 94.5974 52.1275 95.4716 52.1275C95.9283 52.0135 96.3861 51.8111 96.7254 51.5831L96.6069 51.3174C96.3329 51.482 95.9945 51.6091 95.7075 51.6091C94.9637 51.6091 94.5201 51.0514 94.5201 50.2533V50.2403H96.7123V49.9486C96.7123 49.2265 96.3981 48.6448 95.4456 48.6448L95.4456 48.6448ZM102.413 48.6448L101.108 49.2141V49.7467H101.722L101.84 49.1892C101.996 49.1259 102.23 49.0629 102.426 49.0629C102.805 49.0629 102.845 49.3157 102.845 49.7337V50.0761L101.226 50.5958C101.069 50.8111 100.978 50.9884 100.978 51.2418C100.978 51.7992 101.422 52.1275 102.035 52.1275L102.897 51.5205L103.118 52.0519L104.045 51.8748L104.019 51.6339H103.667C103.602 51.5199 103.548 51.4183 103.548 51.1142V49.7466C103.548 48.8726 103.313 48.6448 102.413 48.6448L102.413 48.6448ZM110.542 48.6448L109.264 49.2141V49.7467H109.878L109.995 49.1892C110.151 49.1259 110.386 49.0629 110.581 49.0629C110.96 49.0629 111 49.3157 111 49.7337V50.0761L109.381 50.5958C109.225 50.8111 109.133 50.9884 109.133 51.2418C109.133 51.7992 109.577 52.1275 110.19 52.1275L111.039 51.5205L111.26 52.0519L112.187 51.8748L112.161 51.6339H111.796C111.731 51.5199 111.678 51.4183 111.678 51.1142V49.7466C111.678 48.8726 111.443 48.6448 110.542 48.6448L110.542 48.6448ZM56.0658 48.6566L55.0087 49.3286L54.9696 48.7452L54.6556 48.7712L53.7953 48.9861L53.8344 49.227L54.3297 49.1892V51.7354L53.8344 51.7992L53.8735 52.0389L54.6959 52.0141L55.3867 52.0519L55.4258 51.811L55.0348 51.7484V49.6829L55.2433 49.5435C55.4913 49.3788 55.7396 49.227 55.9875 49.227C56.2876 49.227 56.4568 49.3793 56.4568 49.7467V51.7354L56.0918 51.7992L56.1309 52.0389L56.8218 52.0141L57.6442 52.0389L57.6833 51.7992L57.1358 51.7354V49.7974C57.1358 48.9614 56.9791 48.6566 56.0657 48.6566L56.0658 48.6566ZM135.087 48.6566L134.03 49.3286L133.991 48.7452L133.677 48.7712L132.817 48.9861L132.856 49.227L133.351 49.1892V51.7354L132.856 51.7992L132.895 52.0389L133.716 52.0141L134.395 52.0519L134.434 51.811L134.043 51.7484V49.6829L134.265 49.5435C134.513 49.3788 134.76 49.227 135.008 49.227C135.308 49.227 135.478 49.3793 135.478 49.7467V51.7354L135.113 51.7992L135.152 52.0389L135.843 52.0141L136.666 52.0389L136.705 51.7992L136.156 51.7354V49.7974C136.156 48.9614 136.001 48.6566 135.087 48.6566V48.6566ZM68.8417 48.6826L68.0193 49.6581L67.9932 48.7334L67.7064 48.7582L66.8449 48.9743L66.884 49.214L67.3793 49.1762V51.7224L66.884 51.7862L66.9231 52.0271L67.7325 52.0011L68.7765 52.0271L68.8156 51.7602L68.0584 51.6976V50.0383L68.2018 49.873C68.3975 49.645 68.7112 49.4173 68.8808 49.3793H69.4152V48.6826H68.8417L68.8417 48.6826ZM122.219 48.7334L121.868 48.7582L121.006 48.9353L121.045 49.2022L121.555 49.1632V50.9879C121.555 51.7986 121.711 52.1275 122.664 52.1275L123.708 51.4945L123.903 52.0649L124.83 51.8878L124.804 51.6469H124.438C124.386 51.5329 124.347 51.4312 124.347 51.1272V48.7334L123.982 48.7582L123.185 48.9353L123.224 49.2022L123.656 49.1633V51.1272L123.512 51.2158C123.238 51.3931 122.951 51.5701 122.729 51.5701C122.377 51.5701 122.219 51.419 122.219 51.0516V48.7334L122.219 48.7334ZM59.1324 48.7452L58.7675 48.7712L57.9059 48.9861L57.9451 49.227L58.4416 49.1892V51.7354L57.9451 51.7992L57.9842 52.0389L58.8065 52.0141L59.6289 52.0389L59.668 51.7992L59.1324 51.7354V48.7452L59.1324 48.7452ZM59.7332 48.7452L59.6941 48.9861L60.1373 49.0629L61.3898 52.1405L61.9124 51.9255L63.0868 49.0629L63.543 48.9861L63.5039 48.7452L62.9043 48.7712L62.2774 48.7452L62.2383 48.9861L62.5642 49.0629L61.6908 51.5831L61.6636 51.1024L60.8815 49.0629L61.3508 48.9861L61.3117 48.7452L60.5556 48.7712L59.7333 48.7452H59.7332ZM73.9686 48.7452L73.6166 48.7712L72.7551 48.9861L72.7942 49.227L73.2896 49.1892V51.7354L72.7942 51.7992L72.8333 52.0389L73.6557 52.0141L74.465 52.0389L74.5042 51.7992L73.9686 51.7354V48.7452L73.9686 48.7452ZM97.077 48.7452L97.0379 48.9991L97.4811 49.0747L98.5251 50.4564L97.468 51.7224L96.9597 51.7862L96.9988 52.0271L97.7417 52.0011L98.3034 52.0271L98.3426 51.7862L97.9906 51.7354L98.7466 50.6714L98.7988 50.8355L99.4387 51.7354L99.1389 51.7992L99.178 52.0389L99.8558 52.0141L100.678 52.0389L100.717 51.7992L100.274 51.7354L99.1519 50.1895L100.103 49.0747L100.626 48.9991L100.587 48.7452L99.8427 48.7712L99.2822 48.7452L99.2431 48.9991L99.595 49.0747L98.9161 50.0254L98.8639 49.8483L98.3295 49.0747L98.6163 48.9991L98.5771 48.7452L97.8993 48.7712L97.077 48.7452L97.077 48.7452ZM131.981 48.7452L131.629 48.7712L130.767 48.9861L130.806 49.227L131.302 49.1892V51.7354L130.806 51.7992L130.846 52.0389L131.668 52.0141L132.476 52.0389L132.515 51.7992L131.981 51.7354V48.7452L131.981 48.7452ZM45.5894 48.9861C46.1504 48.9861 46.2541 49.367 46.2541 49.899L44.8191 49.9616C44.8713 49.3789 45.1457 48.9861 45.5894 48.9861V48.9861ZM65.0044 48.9861C65.5654 48.9861 65.6703 49.367 65.6703 49.899L64.2353 49.9616C64.2875 49.3789 64.5608 48.9861 65.0044 48.9861L65.0044 48.9861ZM83.4676 48.9861C84.0809 48.9861 84.5246 49.5815 84.5246 50.4682C84.5246 51.2156 84.2242 51.7862 83.6501 51.7862C83.0107 51.7862 82.5801 51.1151 82.5931 50.3171C82.5931 49.557 82.8804 48.9861 83.4676 48.9861ZM95.289 48.9861C95.8501 48.9861 95.955 49.367 95.955 49.899L94.52 49.9616C94.5722 49.3789 94.8585 48.9861 95.289 48.9861V48.9861ZM102.858 50.3549V51.2666L102.558 51.4697C102.467 51.533 102.283 51.6468 102.087 51.6468C101.879 51.6468 101.67 51.5197 101.67 51.165C101.67 51.013 101.709 50.8743 101.814 50.7729L102.858 50.3548L102.858 50.3549ZM110.987 50.3549V51.2666L110.687 51.4697C110.596 51.533 110.412 51.6468 110.217 51.6468C110.008 51.6468 109.8 51.5197 109.8 51.165C109.8 51.013 109.839 50.8743 109.943 50.7729L110.987 50.3548L110.987 50.3549Z" fill="#8C9EBC"/>
</svg>
