<svg width="140" height="70" viewBox="0 0 140 70" fill="none" xmlns="http://www.w3.org/2000/svg">
<path d="M23.6454 18.6855C23.4823 18.6855 23.4619 18.7297 23.4619 18.8599V19.3381C23.4619 19.4915 23.4828 19.5342 23.6047 19.5342H24.562C25.1935 19.5342 25.3358 19.8819 25.3358 20.6443V25.8245C25.3358 28.6758 25.417 30.1355 25.6621 31.1149C25.9876 32.4863 26.7005 33.4432 28.0854 34.0313C28.7576 34.3365 29.7764 34.4877 30.835 34.4877C32.607 34.4877 33.8504 33.9872 34.6653 33.1814C35.8058 32.137 36.2535 30.7662 36.376 28.9818C36.4369 28.1326 36.478 24.3236 36.478 24.0183C36.478 23.7138 36.4782 20.6228 36.5188 20.4058C36.5804 20.1447 36.6412 19.5342 37.3946 19.5342H38.2296C38.3318 19.5342 38.3519 19.4472 38.3519 19.3163V18.8393C38.3519 18.7735 38.3315 18.6856 38.148 18.6856C37.9645 18.6856 37.313 18.751 35.9071 18.751C34.5426 18.751 33.606 18.6856 33.4022 18.6856C33.2797 18.6856 33.2595 18.73 33.2595 18.8393V19.3611C33.2595 19.4696 33.2797 19.5342 33.4022 19.5342H34.2983C34.8284 19.5342 35.154 19.9266 35.2149 20.493C35.2765 21.0369 35.3169 22.2987 35.3169 23.953V28.6114C35.3169 30.2222 35.0515 31.5283 34.2576 32.4418C33.5449 33.2259 32.3629 33.6391 31.2021 33.6391C30.021 33.6391 28.7172 33.2472 27.9631 32.0725C27.4955 31.3326 27.3331 30.3092 27.3128 29.3075C27.2918 28.6117 27.2097 25.847 27.2097 24.6927V23.2569C27.2097 22.1466 27.2302 20.6221 27.2505 20.4276C27.2911 19.948 27.638 19.5342 28.2282 19.5342H29.2478C29.3899 19.5342 29.4098 19.4921 29.4098 19.3829V18.8163C29.4098 18.7295 29.3894 18.6856 29.2263 18.6856C29.0022 18.6856 28.0245 18.751 26.4359 18.751C24.8466 18.751 23.8486 18.6856 23.6456 18.6856L23.6454 18.6855ZM87.341 21.8743C86.5441 21.8743 85.8366 22.0891 85.2609 22.5849C84.7744 23.0343 84.3093 23.7681 84.3093 24.5716C84.3093 25.7307 84.5752 26.4867 85.0842 27.0074C85.7484 27.6458 86.8103 28.0703 87.2525 28.2362C88.4257 28.7096 89.2896 29.3008 89.2896 30.6489C89.2896 31.6662 88.2261 32.2567 87.5177 32.2567C86.6992 32.2567 85.9684 31.784 85.6371 31.0751C85.239 30.2941 85.2394 29.7978 85.2394 29.4662C85.2394 29.3716 85.1512 29.3243 85.0627 29.3003L84.6639 29.2543C84.5755 29.2543 84.5305 29.3249 84.5087 29.4201C84.4862 29.7982 84.3318 31.6886 84.2651 32.351C84.2434 32.4696 84.3085 32.5653 84.4419 32.6125C84.6188 32.6598 84.73 32.6124 84.775 32.4939L84.8406 32.3038C84.8849 32.1148 85.0174 32.1381 85.1726 32.2566C85.6816 32.682 86.4557 33.0847 87.5846 33.0847C89.598 33.0847 90.6605 31.5714 90.6605 29.7979C90.6605 28.6147 90.3947 28.0242 89.9524 27.5268C89.3992 26.9124 88.5811 26.6521 87.5631 26.2508C87.1426 26.085 86.3453 25.7305 86.0133 25.2811C85.7696 24.9735 85.6598 24.4766 85.6598 24.1225C85.6598 23.6964 86.0138 22.6795 87.2311 22.6795C87.8721 22.6795 88.3594 22.9166 88.6915 23.3187C89.1562 23.8858 89.333 24.7134 89.4664 24.9978C89.4882 25.0683 89.5318 25.1155 89.5979 25.0922L89.9966 24.9978C90.0633 24.9738 90.0862 24.9254 90.0862 24.8549C90.0644 24.5233 89.8641 22.9863 89.8641 22.2061C89.8641 22.0883 89.8416 21.9942 89.6647 21.9942C89.4878 21.9942 89.4216 21.9947 89.3781 22.0644L89.2897 22.2303C89.2448 22.3496 89.1343 22.3241 88.9124 22.1831C88.6471 22.0405 88.1822 21.8744 87.3411 21.8744L87.341 21.8743ZM96.9351 22.0402C96.8684 22.0324 96.8776 22.0313 96.8501 22.0522C96.8226 22.0724 96.8187 22.0962 96.8093 22.1334C96.6295 22.8485 96.2455 24.3062 96.1171 24.7362C96.0953 24.8308 96.0952 24.9255 96.2055 24.9735L96.6042 25.1394C96.6927 25.1866 96.7594 25.1153 96.8036 25.0207C97.0915 24.4063 97.5563 23.6501 98.1088 23.2C98.9281 22.9636 100.17 22.9869 100.591 22.9869V28.0715C100.591 29.4901 100.591 30.7441 100.524 31.6428C100.502 31.8319 100.347 32.0205 100.015 32.0205H99.1306C99.0414 32.0205 98.998 32.0679 98.998 32.1864V32.6585C98.998 32.8003 99.042 32.8716 99.1748 32.8716C99.3517 32.8716 100.791 32.8002 101.41 32.8002C102.14 32.8002 103.512 32.8716 103.667 32.8716C103.778 32.8716 103.822 32.8013 103.822 32.73V32.2336C103.822 32.0918 103.778 32.0205 103.667 32.0205H102.826C102.472 32.0205 102.362 31.7844 102.317 31.4055C102.296 31.2165 102.295 29.4434 102.295 26.9602V22.9869C102.694 22.9869 104.313 23.01 104.866 23.223C105.331 23.6724 105.707 24.4526 105.972 25.0438C106.017 25.1623 106.083 25.1867 106.216 25.1394L106.592 25.0208C106.68 24.9743 106.725 24.9252 106.703 24.8307C106.632 24.4239 106.453 23.5849 106.321 22.9434C106.521 22.9589 106.835 23.0231 107.022 23.223C107.377 23.5779 110.077 27.8108 110.276 28.2362V29.0885C110.276 30.4838 110.276 31.3346 110.253 31.5485C110.232 31.8793 110.098 32.0206 109.39 32.0206H109.058C108.97 32.0206 108.926 32.0917 108.926 32.1623V32.6828C108.926 32.8238 108.97 32.8717 109.08 32.8717C109.213 32.8717 110.497 32.8002 110.983 32.8002C111.714 32.8002 112.953 32.8717 113.086 32.8717C113.218 32.8717 113.264 32.8003 113.264 32.7058V32.1393C113.264 32.068 113.219 32.0206 113.108 32.0206H112.821C112.423 32.0206 112.068 31.9967 112.024 31.5C111.98 31.2165 112.002 30.578 111.98 29.9868V28.0001C112.489 27.1727 115.056 23.3177 115.388 23.1286C115.587 23.0101 115.83 22.9398 116.184 22.9398H116.406C116.495 22.9398 116.539 22.8916 116.539 22.7739V22.2775C116.539 22.135 116.495 22.0887 116.384 22.0887C116.252 22.0887 115.477 22.1589 115.079 22.1589C114.415 22.1589 113.307 22.0887 113.175 22.0887C113.064 22.0887 113.02 22.1588 113.02 22.2533V22.7739C113.02 22.8684 113.064 22.9398 113.175 22.9398H113.53C114.016 22.9398 113.994 23.2469 113.816 23.625C113.728 23.814 111.892 26.6766 111.56 27.2677C111.206 26.6998 109.368 23.554 109.235 23.3417C109.147 23.1999 109.169 22.9398 109.568 22.9398H109.9C110.033 22.9398 110.055 22.8684 110.055 22.7739V22.2534C110.055 22.1348 109.988 22.0887 109.9 22.0887C109.745 22.0887 108.24 22.1589 107.753 22.1589C107.222 22.1589 104.622 22.1247 104.198 22.1371C103.355 22.1743 102.575 22.2062 101.852 22.2062H100.968C98.537 22.2062 97.2801 22.0814 96.9349 22.0403L96.9351 22.0402ZM49.5378 22.0886C49.4494 22.0886 49.4064 22.1357 49.4064 22.2302V22.7738C49.4064 22.8683 49.4276 22.9396 49.5378 22.9396H49.9366C50.8661 22.9396 51.0661 23.1757 51.0661 23.436C51.0661 23.7668 51.1092 26.1316 51.1092 26.5097V27.5509C51.1092 28.3544 51.0878 31.3583 51.0661 31.5714C51.0211 31.996 50.6677 32.0206 50.1145 32.0206H49.6273C49.5388 32.0206 49.4947 32.0917 49.4947 32.1622V32.6828C49.4947 32.8006 49.5388 32.8717 49.6273 32.8717C49.7607 32.8717 51.0438 32.8002 51.7956 32.8002C52.7919 32.8002 53.9435 32.8717 54.1204 32.8717C54.2306 32.8717 54.253 32.8003 54.253 32.7058V32.1392C54.253 32.0679 54.2307 32.0206 54.1204 32.0206H53.7874C53.1457 32.0206 52.8807 31.6892 52.8357 31.1453C52.814 30.7905 52.8142 28.0717 52.8142 27.9299V26.7472C52.8142 26.5813 52.8357 23.7668 52.8357 23.5305C52.8589 23.0339 53.0574 22.9397 53.6548 22.9397H54.0321C54.1423 22.9397 54.1646 22.8684 54.1646 22.7739V22.2073C54.1646 22.136 54.1205 22.0887 54.0321 22.0887C53.8552 22.0887 52.7252 22.1589 52.0835 22.1589C51.0437 22.1829 49.6712 22.0887 49.5378 22.0887L49.5378 22.0886ZM55.0155 22.0886C54.9263 22.0886 54.8829 22.1355 54.8829 22.206V22.7968C54.8829 22.8681 54.9044 22.9396 54.9928 22.9396H55.2149C55.502 22.9396 55.6792 23.1284 55.8561 23.3888C56.0113 23.6251 56.6757 25.7766 57.0513 26.8644L57.2065 27.385C57.3835 27.9049 58.5557 31.334 59.043 32.7287C59.1097 32.9185 59.2195 33.0846 59.3965 33.0846C59.5741 33.0846 59.6843 33.0131 59.7511 32.8945C59.928 32.5877 61.7435 27.9523 61.9422 27.4564C62.164 26.8412 63.3581 23.7436 63.7786 23.2943C63.9787 23.0804 64.2882 22.9395 64.7087 22.9395H65.0157H65.0622H65.2367C66.122 22.9395 66.2549 23.0345 66.3209 23.5303C66.3433 23.7674 66.365 25.3045 66.365 26.5581V28.0241V31.5955C66.365 31.9263 66.2986 32.0204 65.2582 32.0204H65.0599C64.949 32.0204 64.9047 32.0675 64.9047 32.1621V32.7056C64.9047 32.8002 64.9263 32.8715 65.0372 32.8715C65.3026 32.8715 66.5202 32.8001 66.919 32.8001C71.5667 32.8001 72.7386 32.8715 72.8941 32.8715C72.9826 32.8715 73.0927 32.7535 73.1377 32.6342L73.9341 30.1282C73.9566 30.0577 73.9115 29.9868 73.8672 29.9636L73.5126 29.7505C73.4459 29.7032 73.3362 29.7271 73.226 29.8921C73.0041 30.271 72.2292 31.3351 72.0523 31.4768C71.2997 32.116 70.6798 32.139 69.706 32.139C68.7547 32.139 68.1131 32.0681 68.1131 30.9563C68.1131 30.6495 68.069 29.2766 68.069 28.4491V27.6452C68.2909 27.6452 69.0646 27.646 69.7288 27.8111C70.3037 27.9529 70.4376 28.3321 70.5478 28.9225C70.5703 29.017 70.6144 29.0169 70.6804 29.0169L71.146 28.9697C71.212 28.9697 71.2559 28.9468 71.2559 28.8523C71.2342 28.5439 71.1675 27.8105 71.1675 27.2906C71.1675 27.0775 71.1675 25.8238 71.2117 25.6115C71.2342 25.517 71.1676 25.4698 71.0792 25.4698L70.592 25.4457C70.5035 25.4457 70.4821 25.4698 70.4821 25.5643C70.4821 26.2981 70.2602 26.628 69.6845 26.7931C69.5076 26.8411 68.2024 26.9129 68.069 26.9129V22.8913L70.4153 22.9397C70.6364 22.9397 70.9905 23.0341 71.2559 23.2944C71.6322 23.6725 72.6947 24.9967 72.7389 25.068C72.8056 25.1858 72.8936 25.1857 72.9371 25.1625L73.2917 24.9966C73.3359 24.9734 73.3362 24.9252 73.3143 24.8307C73.2685 24.6652 72.6496 22.6323 72.6055 22.4193C72.5609 22.1357 72.5168 22.0887 72.4727 22.0887C72.3842 22.0887 72.0964 22.1359 71.8745 22.1359L66.918 22.1589H63.534C63.025 22.1589 61.8737 22.0887 61.7417 22.0887C61.6533 22.0887 61.6092 22.1591 61.6092 22.2304V22.7739C61.6092 22.8917 61.6533 22.9398 61.7417 22.9398H61.9853C62.3609 22.9398 62.4498 23.0581 62.4498 23.1758C62.4498 23.4129 62.1625 24.0507 61.3214 26.6757C61.2104 27.0306 60.1256 29.9635 59.9936 30.4602H59.9268C59.7934 30.0821 58.9754 27.3375 58.7984 26.7472C58.201 24.7606 57.8241 23.8385 57.8241 23.2946C57.8241 22.9862 58.1578 22.9399 58.4449 22.9399H58.9536C59.042 22.9399 59.1088 22.8916 59.1088 22.797V22.2535C59.1088 22.1357 59.064 22.0888 58.9321 22.0888C58.7986 22.0888 57.4485 22.159 56.9178 22.159C56.3428 22.159 55.1254 22.0888 55.0145 22.0888L55.0155 22.0886ZM74.232 22.0886C74.1429 22.0886 74.0995 22.1347 74.0995 22.206V22.7738C74.0995 22.8683 74.1212 22.9396 74.1879 22.9396H74.4099C75.0291 22.9396 75.2281 23.1994 75.2505 23.672V25.9419V27.4092C75.2281 28.8519 75.2503 30.2471 75.2279 31.4054C75.2279 31.9261 74.9622 32.0204 74.4315 32.0204H74.1664C74.0772 32.0204 74.0327 32.0666 74.0327 32.1378V32.6826C74.0327 32.8012 74.0772 32.8727 74.1664 32.8727C74.3208 32.8727 75.4496 32.8012 76.0028 32.8012C76.733 32.8012 77.9277 32.8727 78.0829 32.8727C78.2156 32.8727 78.2608 32.8246 78.2608 32.7068V32.1378C78.2608 32.0665 78.2163 32.0204 78.1271 32.0204H77.5516C77.1093 32.0204 76.9772 31.76 76.933 31.4284V28.8752V28.3075C77.0874 28.2594 77.2862 28.2603 77.5074 28.2603C78.4369 28.2603 78.769 28.7802 79.5659 30.2469C79.7646 30.601 80.7383 32.5177 81.1588 32.8485C81.5358 32.8245 82.0671 32.8013 82.5761 32.8013C82.7972 32.8013 83.0621 32.8243 83.2615 32.8243C83.4826 32.8483 83.6595 32.8727 83.7045 32.8727C83.7929 32.8727 83.837 32.8014 83.837 32.7069V32.2335C83.837 32.0925 83.8155 32.0205 83.7271 32.0205C83.3283 32.0205 83.0405 31.9965 82.7301 31.7602C82.3096 31.4286 81.801 30.7195 81.4907 30.2469C80.5836 28.8747 80.1417 28.142 79.6327 28.0242V27.9758C81.3808 27.3141 82.2441 26.3691 82.2441 24.7374C82.2441 24.1927 81.9557 23.5077 81.4692 23.0111C80.9152 22.4904 79.9203 22.0886 78.5927 22.0886C78.3048 22.0886 76.3792 22.1588 76.1138 22.1588C75.7158 22.1588 74.343 22.0886 74.2321 22.0886L74.232 22.0886ZM91.1342 22.0886C91.0457 22.0886 91.0028 22.1357 91.0028 22.2302V22.7738C91.0028 22.8683 91.024 22.9396 91.1342 22.9396H91.533C92.4625 22.9396 92.6625 23.1757 92.6625 23.436C92.6625 23.7668 92.7055 26.1316 92.7055 26.5097V27.5509C92.7055 28.3544 92.6842 31.3583 92.6625 31.5714C92.6175 31.996 92.2629 32.0206 91.7097 32.0206H91.2225C91.1341 32.0206 91.0911 32.0917 91.0911 32.1622V32.6828C91.0911 32.8006 91.1341 32.8717 91.2225 32.8717C91.3559 32.8717 92.6402 32.8002 93.392 32.8002C94.3883 32.8002 95.5387 32.8717 95.7157 32.8717C95.8259 32.8717 95.8482 32.8003 95.8482 32.7058V32.1392C95.8482 32.0679 95.8259 32.0206 95.7157 32.0206H95.3837C94.7421 32.0206 94.477 31.6892 94.4321 31.1453C94.4103 30.7905 94.4106 28.0717 94.4106 27.9299V26.7472C94.4106 26.5813 94.4321 23.7668 94.4321 23.5305C94.4546 23.0339 94.6537 22.9397 95.2512 22.9397H95.6273C95.7375 22.9397 95.7598 22.8684 95.7598 22.7739V22.2073C95.7598 22.136 95.7158 22.0887 95.6273 22.0887C95.4504 22.0887 94.3215 22.1589 93.6798 22.1589C92.6401 22.1829 91.2676 22.0887 91.1342 22.0887L91.1342 22.0886ZM77.5946 22.8452C78.4799 22.8452 79.1005 23.0581 79.6973 23.4602C80.0961 23.7438 80.4281 24.3816 80.4281 25.0921C80.4281 25.7065 80.0519 27.5509 77.5946 27.5509C77.3075 27.5509 77.0863 27.5269 76.9318 27.5037V23.3645C76.9318 22.9392 77.2625 22.8452 77.5946 22.8452V22.8452ZM36.8233 34.0047C34.9606 34.0047 33.6308 36.5643 33.6308 38.4501C33.6308 39.5875 34.3029 40.381 35.073 40.381C37.1039 40.381 38.3222 37.4028 38.3222 35.7564C38.3222 34.7392 37.7616 34.0047 36.8234 34.0047H36.8233ZM37.0612 34.6935C37.5238 34.6935 37.7758 35.0672 37.7613 35.5312C37.7613 36.5191 36.32 39.6618 34.8633 39.6618C34.5269 39.6618 34.2187 39.378 34.2187 38.8991C34.2187 38.1949 34.5535 37.2823 35.0299 36.4743C35.7303 35.2617 36.4732 34.6935 37.0613 34.6935L37.0612 34.6935ZM106.714 35.6524C106.581 35.6524 106.493 35.7225 106.448 35.8171C106.249 36.0061 105.629 36.4322 105.208 36.5035C105.01 36.55 104.965 36.6213 104.987 36.6693C104.965 36.7398 105.031 36.8589 105.076 36.9054C105.231 36.9767 105.098 37.237 105.053 37.3787C104.921 37.7809 103.615 40.997 103.46 41.3278C102.929 42.5109 101.8 45.348 101.645 45.5371C101.468 45.7974 101.115 46.0334 100.738 46.0334H100.483C99.8404 46.0334 99.5753 45.7033 99.5311 45.1594C99.5094 44.8045 99.5085 42.0853 99.5085 41.9428V40.7612C99.5085 40.5954 99.5311 37.7809 99.5311 37.5445C99.5536 37.0479 99.7516 36.9538 100.349 36.9538H100.726C100.837 36.9538 100.859 36.8824 100.859 36.7879V36.2201C100.859 36.1488 100.815 36.1015 100.726 36.1015C100.549 36.1015 99.4201 36.1717 98.7777 36.1717C97.738 36.1957 96.3658 36.1015 96.2331 36.1015C96.1447 36.1015 96.1006 36.1486 96.1006 36.2431V36.7879C96.1006 36.8824 96.1229 36.9538 96.2331 36.9538H96.6308C97.5603 36.9538 97.7603 37.1898 97.7603 37.4501C97.7603 37.781 97.8045 40.1458 97.8045 40.5239V41.5638C97.8045 42.3681 97.7828 45.3716 97.7603 45.5855C97.716 46.01 97.3618 46.0334 96.8086 46.0334H96.3215C96.233 46.0334 96.1889 46.1037 96.1889 46.175V46.6968C96.1889 46.8146 96.233 46.8857 96.3215 46.8857C96.4542 46.8857 97.7384 46.8142 98.491 46.8142H102.154C102.508 46.8142 103.681 46.8857 103.858 46.8857C103.969 46.8857 103.991 46.8143 103.991 46.7198V46.1992C103.991 46.1039 103.969 46.0334 103.836 46.0334H103.283C102.818 46.0334 102.753 45.7264 102.884 45.2537C102.973 44.9702 103.681 43.0072 103.769 42.7236H107.332C107.509 43.2675 108.107 45.1589 108.196 45.6315C108.196 45.8205 108.106 46.0334 107.841 46.0334H107.487C107.399 46.0334 107.378 46.1038 107.378 46.175V46.6726C107.378 46.7671 107.399 46.8857 107.554 46.8857C107.841 46.8857 109.147 46.8142 109.568 46.8142C110.077 46.8142 111.249 46.8857 111.516 46.8857C111.648 46.8857 111.67 46.7439 111.67 46.6726V46.175C111.67 46.1038 111.648 46.0334 111.559 46.0334H111.139C110.763 46.0334 110.387 45.8208 110.099 45.3954C109.944 45.1591 108.993 42.3684 108.661 41.1861C108.373 40.2401 107.244 36.8583 106.935 35.9114C106.89 35.7464 106.846 35.6524 106.714 35.6524L106.714 35.6524ZM74.5848 35.8885C73.0136 35.8885 71.6634 36.3855 70.623 37.3315C69.5608 38.324 68.9848 39.7672 68.9848 41.2092C68.9848 43.0539 69.428 44.3307 70.3125 45.3713C71.353 46.6017 73.1237 47.0988 74.2744 47.0988C75.6904 47.0988 76.8863 46.7665 78.0594 46.1521C78.2139 46.0808 78.3019 46.0096 78.3019 45.8918C78.3019 45.7741 78.2362 45.632 78.2362 45.4197V43.5977C78.2362 43.1956 78.6563 43.1013 78.8774 43.1013H79.2536C79.3203 43.1013 79.3646 43.031 79.3646 42.9597V42.3919C79.3646 42.3214 79.3205 42.2745 79.232 42.2745C79.1436 42.2745 78.148 42.3217 77.3288 42.3217C76.1346 42.3217 75.0484 42.2745 74.9157 42.2745C74.8272 42.2745 74.8058 42.3214 74.8058 42.3919V42.9597C74.8058 43.031 74.8273 43.0783 74.9157 43.0783H75.4482C76.0232 43.0783 76.5313 43.2426 76.5313 43.7865V44.663C76.5313 45.1356 76.4879 45.4428 76.1993 45.6799C75.8455 45.9867 75.1379 46.1992 74.3629 46.1992C73.7437 46.1992 72.859 45.844 72.2398 45.1351C71.3762 44.1651 70.8882 42.818 70.8882 40.9972C70.8882 39.9335 71.3758 38.6787 72.0393 37.8993C72.8586 36.9533 73.7216 36.6936 74.4082 36.6936C75.4255 36.6936 76.0457 37.1655 76.6424 37.8279C77.1731 38.3951 77.5499 39.1282 77.705 39.5071C77.7703 39.6961 77.8162 39.7192 77.8829 39.6959L78.3021 39.5543C78.3688 39.5303 78.3916 39.4832 78.3916 39.3654C78.3466 38.9393 78.0596 36.7399 78.0596 36.6222C78.0596 36.4564 78.0147 36.3619 77.816 36.3619C77.6391 36.3619 77.5725 36.4332 77.5283 36.5277L77.4173 36.7396C77.3737 36.8109 77.2845 36.811 77.1068 36.6452C76.6863 36.3151 75.6472 35.8885 74.585 35.8885L74.5848 35.8885ZM54.8677 36.1016C54.7792 36.1016 54.7363 36.1487 54.7363 36.2432V36.788C54.7363 36.8825 54.7574 36.9538 54.8677 36.9538H55.2664C56.1952 36.9538 56.3959 37.1899 56.3959 37.4502C56.3959 37.781 56.439 40.1459 56.439 40.524V41.5639C56.439 42.3681 56.4177 45.3717 56.3959 45.5855C56.351 46.0101 55.9975 46.0335 55.4443 46.0335H54.9571C54.8687 46.0335 54.8246 46.1038 54.8246 46.1751V46.6969C54.8246 46.8146 54.8687 46.8857 54.9571 46.8857C55.0905 46.8857 56.3729 46.8143 57.1255 46.8143C58.1217 46.8143 59.2733 46.8857 59.4502 46.8857C59.5604 46.8857 59.5816 46.8144 59.5816 46.7199V46.1521C59.5816 46.0808 59.5605 46.0335 59.4502 46.0335H59.1171C58.4755 46.0335 58.2105 45.7033 58.1655 45.1594C58.1438 44.8046 58.144 42.0854 58.144 41.9428V40.7613C58.144 40.5955 58.1655 37.781 58.1655 37.5446C58.188 37.048 58.3879 36.9538 58.9846 36.9538H59.3619C59.4721 36.9538 59.4933 36.8825 59.4933 36.788V36.2202C59.4933 36.1489 59.4504 36.1016 59.3619 36.1016C59.1849 36.1016 58.0556 36.1718 57.4132 36.1718C56.3735 36.1958 55.001 36.1016 54.8676 36.1016L54.8677 36.1016ZM60.3442 36.1016C60.2557 36.1016 60.2116 36.1489 60.2116 36.2202V36.7868C60.2116 36.8813 60.2333 36.9526 60.3 36.9526H60.5209C61.1401 36.9526 61.3409 37.2129 61.3626 37.6863V39.9562V41.4234C61.3409 42.8653 61.3619 44.2605 61.34 45.4196C61.34 45.9395 61.0732 46.0334 60.5424 46.0334H60.2773C60.1889 46.0334 60.1448 46.0808 60.1448 46.1521V46.6956C60.1448 46.8142 60.1889 46.8857 60.2773 46.8857C60.4325 46.8857 61.5605 46.8143 62.1138 46.8143C62.8446 46.8143 64.0405 46.8857 64.1949 46.8857C64.3283 46.8857 64.3717 46.8376 64.3717 46.7198V46.1521C64.3717 46.0808 64.3276 46.0334 64.2391 46.0334H63.6636C63.2206 46.0334 63.0889 45.7743 63.0439 45.4426V42.8882V42.3205C63.199 42.2732 63.3975 42.2733 63.6194 42.2733C64.5489 42.2733 64.8799 42.794 65.6768 44.2599C65.8762 44.6148 66.8502 46.5315 67.2708 46.8615C67.6471 46.8382 68.1779 46.8143 68.6869 46.8143C68.9088 46.8143 69.1741 46.8385 69.3735 46.8385C69.5946 46.8617 69.7718 46.8857 69.8153 46.8857C69.9037 46.8857 69.949 46.8143 69.949 46.7198V46.2464C69.949 46.1047 69.9264 46.0334 69.838 46.0334C69.4406 46.0334 69.1525 46.0106 68.8421 45.7743C68.4216 45.4427 67.9123 44.7324 67.6027 44.2598C66.6949 42.8884 66.2525 42.1556 65.7435 42.0371V41.9899C67.4917 41.3282 68.3549 40.382 68.3549 38.7503C68.3549 38.2056 68.0673 37.5214 67.58 37.024C67.0268 36.5041 66.0318 36.1016 64.7035 36.1016C64.4164 36.1016 62.4907 36.1718 62.2247 36.1718C61.8266 36.1718 60.4542 36.1016 60.344 36.1016L60.3442 36.1016ZM79.0184 36.1016C78.9299 36.1016 78.8858 36.1487 78.8858 36.2432V36.788C78.8858 36.8825 78.9074 36.9538 79.0184 36.9538H79.4172C80.3467 36.9538 80.5455 37.1899 80.5455 37.4502C80.5455 37.781 80.5896 40.1459 80.5896 40.524V41.5639C80.5896 42.3681 80.5672 45.3717 80.5455 45.5855C80.5013 46.0101 80.1478 46.0335 79.5939 46.0335H79.1067C79.0182 46.0335 78.9741 46.1038 78.9741 46.1751V46.6969C78.9741 46.8146 79.0182 46.8857 79.1067 46.8857C79.2394 46.8857 80.5236 46.8143 81.2762 46.8143C82.2717 46.8143 83.4229 46.8857 83.5998 46.8857C83.7108 46.8857 83.7324 46.8144 83.7324 46.7199V46.1521C83.7324 46.0808 83.7108 46.0335 83.5998 46.0335H83.2679C82.6262 46.0335 82.3601 45.7033 82.3151 45.1594C82.2934 44.8046 82.2936 42.0854 82.2936 41.9428V40.7613C82.2936 40.5955 82.3151 37.781 82.3151 37.5446C82.3384 37.048 82.5379 36.9538 83.1353 36.9538H83.5115C83.6224 36.9538 83.644 36.8825 83.644 36.788V36.2202C83.644 36.1489 83.5999 36.1016 83.5115 36.1016C83.3346 36.1016 82.2057 36.1718 81.5639 36.1718C80.5245 36.1941 79.1515 36.0999 79.0187 36.0999L79.0184 36.1016ZM84.4949 36.1016C84.4064 36.1016 84.3623 36.1719 84.3623 36.2432V36.811C84.3623 36.9055 84.4064 36.9526 84.4949 36.9526H84.6943C85.3142 36.9526 85.8669 37.3549 85.8669 38.2056V40.6898C85.8669 43.362 85.8229 45.0417 85.8012 45.3252C85.7345 45.8691 85.3807 46.0335 85.1588 46.0335H84.6501C84.5842 46.0335 84.5618 46.0576 84.5618 46.1049V46.7199C84.5618 46.8377 84.5832 46.8857 84.6275 46.8857C84.8044 46.8857 85.8008 46.8143 86.1104 46.8143C86.7521 46.8143 87.6376 46.8857 87.7928 46.8857C87.903 46.8857 87.9027 46.8374 87.9027 46.7429V46.1763C87.9027 46.081 87.903 46.0335 87.7928 46.0335H87.3272C87.1068 46.0335 86.8637 45.7747 86.797 45.2308C86.7527 45.017 86.6644 42.652 86.6644 41.2334V37.9938H86.7087C87.0625 38.4192 88.855 40.9737 89.3857 41.6354C89.6294 41.943 90.5811 43.148 91.5984 44.4488C92.5061 45.6079 93.2588 46.5771 93.4133 46.7429C93.5017 46.8142 93.7244 46.9802 93.9231 46.9802C94.1885 46.9802 94.255 46.7433 94.255 46.531V40.9972C94.255 40.0279 94.2109 38.538 94.3219 37.4502C94.3654 37.1186 94.4763 36.9526 95.0288 36.9526H95.2498C95.3382 36.9526 95.3834 36.8813 95.3834 36.7868V36.2904C95.3834 36.1486 95.3384 36.1015 95.2282 36.1015C95.0731 36.1015 94.3002 36.1717 93.8347 36.1717C93.1264 36.1717 92.175 36.1015 92.0198 36.1015C91.9096 36.1015 91.8646 36.1489 91.8646 36.2202V36.7867C91.8646 36.9053 91.9096 36.9526 92.0198 36.9526H92.3959C92.7715 36.9526 93.1037 37.0952 93.2139 37.3787C93.3248 37.6623 93.3917 39.0343 93.3917 39.6015C93.4359 40.3584 93.4574 41.091 93.4574 42.4391V44.0008H93.369C93.1037 43.6924 91.0459 40.9253 90.6478 40.4294C90.183 39.8383 87.6374 36.4091 87.5707 36.3146C87.4823 36.172 87.3509 36.1257 87.0405 36.1257C86.7752 36.1257 86.3097 36.1718 85.9552 36.1718C85.7123 36.1718 85.3583 36.149 85.0704 36.1257C84.7832 36.1257 84.5391 36.1016 84.4949 36.1016L84.4949 36.1016ZM63.8363 36.8582C64.7216 36.8582 65.3404 37.0718 65.9379 37.4732C66.3359 37.7568 66.6686 38.3946 66.6686 39.1051C66.6686 39.7187 66.2928 41.5639 63.8363 41.5639C63.5485 41.5639 63.3265 41.5411 63.1713 41.5178V37.3787C63.1713 36.9533 63.5042 36.8581 63.8363 36.8581V36.8582ZM105.807 37.6621C105.873 37.6621 105.895 37.7568 105.939 37.8993C105.984 38.0884 107.024 41.6354 107.112 41.967H104.102C104.212 41.7299 105.563 38.1114 105.629 37.9223C105.696 37.7333 105.74 37.6621 105.807 37.6621V37.6621ZM37.8018 22.0881C37.7134 22.0881 37.6693 22.1584 37.6693 22.2297V22.7975C37.6693 22.892 37.7134 22.9391 37.8018 22.9391H38.0001C38.6207 22.9391 39.1738 23.3414 39.1738 24.1921V26.6751C39.1738 29.3474 39.1287 31.027 39.107 31.3106C39.0403 31.8545 38.6869 32.02 38.4657 32.02H37.957C37.8903 32.02 37.8687 32.0434 37.8687 32.0914V32.7064C37.8687 32.8242 37.8906 32.8723 37.9355 32.8723C38.1124 32.8723 39.107 32.8008 39.4173 32.8008C39.7709 32.8008 40.1697 32.8201 40.5084 32.8396C40.3591 33.2168 40.2161 33.6085 40.0767 34.0357H38.8577C38.7461 34.0357 38.6492 34.2757 38.621 34.3795L38.5654 34.635C38.5379 34.7396 38.5719 34.8117 38.6413 34.8117H39.8875L38.4668 39.8721C37.7106 42.6404 36.9543 43.8986 36.2814 43.8986C36.1698 43.8986 36.0718 43.7939 36.0435 43.6443C36.0022 43.3894 35.7921 42.97 35.3853 42.97C35.0213 42.97 34.7837 43.2701 34.7837 43.6141C34.7837 44.0937 35.2315 44.4967 35.792 44.4967C37.2899 44.4967 38.2856 42.8354 39.1397 40.5017C39.8401 38.5857 40.4831 36.0243 40.8471 34.8117L42.7424 34.8311C43.1702 34.8311 43.3736 35.0505 43.5774 35.5503C43.8421 36.2034 44.7995 39.3591 45.2881 40.9048L45.492 41.6445C45.7574 42.4286 47.4067 47.3916 48.0592 49.3937C48.16 49.6772 48.2416 49.8948 48.4048 49.8948C48.507 49.8948 48.6083 49.7851 48.6903 49.6116C48.7918 49.3931 51.4187 42.4717 51.663 41.7533C52.0096 40.839 53.6397 36.3774 54.169 35.6808C54.5554 35.1803 54.9432 34.831 55.6146 34.831H56.1652C56.2877 34.831 56.3079 34.7664 56.3079 34.6796V34.1349C56.3079 34.0264 56.2877 33.9835 56.1652 33.9835C55.9817 33.9835 55.4726 34.0477 53.9854 34.0477C52.7028 34.0477 51.7659 33.9835 51.5825 33.9835C51.481 33.9835 51.4602 34.0264 51.4602 34.1349V34.6349C51.4602 34.7658 51.4802 34.831 51.5621 34.831H52.0923C52.6013 34.831 52.7426 35.0703 52.7426 35.3322C52.7426 35.6359 52.6214 36.0279 52.4583 36.5718C52.153 37.5302 51.3791 40.0333 51.1747 40.6214C51.0123 41.1226 49.4226 45.6069 48.9542 46.6297C48.4858 45.3017 47.3047 41.557 47.0611 40.7303C46.6942 39.5108 45.9408 36.9214 45.8183 36.1373C45.7574 35.832 45.7356 35.5711 45.7356 35.3976C45.7356 35.0272 46.0222 34.831 46.592 34.831H47.5697C47.7126 34.831 47.7317 34.7441 47.7317 34.6349V34.1349C47.7317 34.0481 47.7124 33.9836 47.5289 33.9836C47.3455 33.9836 46.4286 34.0477 44.7181 34.0477C43.1295 34.0477 41.1822 33.992 41.1822 33.992C41.6448 32.3154 41.9261 30.3396 43.2283 30.3396C43.6481 30.3396 43.7889 30.6234 43.8027 30.773C43.8447 31.1023 43.9709 31.3722 44.419 31.3722C44.6996 31.3722 44.9787 31.1483 44.9787 30.6834C44.9787 30.6122 44.9567 30.5335 44.922 30.4546C45.8187 31.5997 46.5661 32.5658 46.72 32.7293C46.8084 32.8006 47.0304 32.9666 47.2298 32.9666C47.4951 32.9666 47.5606 32.7286 47.5606 32.5163V26.9825C47.5606 26.0132 47.5165 24.5232 47.6274 23.4354C47.6717 23.1046 47.783 22.9391 48.3355 22.9391H48.5575C48.646 22.9391 48.6901 22.8677 48.6901 22.7732V22.2769C48.6901 22.1343 48.6451 22.088 48.5349 22.088C48.3797 22.088 47.6062 22.1582 47.1414 22.1582C46.4323 22.1582 45.4816 22.088 45.3264 22.088C45.2155 22.088 45.1712 22.1342 45.1712 22.2054V22.7732C45.1712 22.8918 45.2155 22.9391 45.3264 22.9391H45.7026C46.0782 22.9391 46.4103 23.0804 46.5205 23.364C46.6322 23.6483 46.6984 25.0196 46.6984 25.5867C46.7419 26.3445 46.7641 27.0775 46.7641 28.4256V29.9861H46.6757C46.4103 29.6785 44.3521 26.9114 43.9533 26.4148C43.4892 25.8236 40.9434 22.3944 40.8774 22.2999C40.7889 22.1574 40.6564 22.1111 40.346 22.1111C40.0807 22.1111 39.6157 22.1583 39.2619 22.1583C39.0182 22.1583 38.6642 22.1343 38.377 22.1111C38.0892 22.1111 37.8465 22.0881 37.8015 22.0881L37.8018 22.0881ZM39.9702 23.9791H40.0155C40.3693 24.4052 42.1618 26.9589 42.6926 27.6206C42.9071 27.8921 43.7679 28.9833 44.6423 30.0987C44.429 29.927 44.1185 29.7997 43.719 29.7997C42.8083 29.7997 42.0392 30.339 41.647 30.8178C41.3376 31.1852 41.0946 31.5898 40.8766 32.02H40.6341C40.413 32.02 40.1699 31.76 40.1039 31.2161C40.059 31.0031 39.9703 28.6385 39.9703 27.2199V23.9791L39.9702 23.9791Z" fill="#8C9EBC"/>
</svg>
