<svg width="140" height="70" viewBox="0 0 140 70" fill="none" xmlns="http://www.w3.org/2000/svg">
<path d="M55.6137 24.2226L46.8576 38.9812V48.91C47.8668 51.2985 50.4139 51.6157 52.8552 51.7214V53.1006H35.7081V51.7214C38.1495 51.6157 41.1242 51.2456 41.9172 49.6501V39.4041L32.9976 24.3283C31.4598 21.7812 29.9748 20.9306 27 20.7192V19.3399H41.9172V20.7192C39.1058 20.8778 38.2023 21.4112 37.4046 22.0456L45.685 36.3813L53.8068 22.0984C52.9561 21.4593 51.8412 20.8778 49.0298 20.7192V19.3399H61.77V20.7192C58.9057 20.8249 57.1035 21.7812 55.6137 24.2226ZM73.03 53.5812C70.1657 53.5812 68.7816 51.6157 68.6759 50.2364C66.8689 52.1491 64.5333 53.5812 62.3034 53.5812C59.4343 53.5812 56.993 51.8271 56.993 48.8043C56.993 47.3193 57.363 45.7766 58.1079 44.5559L68.6711 40.7353V36.809C68.6711 34.4205 67.5562 32.1377 65.1677 32.1377C63.7355 32.1377 62.3563 33.8871 62.2457 36.5975L57.4688 37.3953V36.8667C59.0595 32.0897 64.317 30.2298 66.8641 30.2298C71.6939 30.2298 73.4481 32.7769 73.3952 36.7081L73.2366 47.8575C73.1837 50.0345 74.3516 50.5632 75.4136 50.5632C76.2643 50.5632 77.1101 50.0345 78.1193 49.0253V50.5632C76.9563 51.9328 74.885 53.5812 73.03 53.5812ZM62.4091 44.926C62.1977 45.7766 62.0391 46.5167 62.0391 47.6845C62.0391 49.2752 62.9426 50.8708 64.6919 50.8708C66.2826 50.8708 67.1861 50.3421 68.6182 49.2272L68.6711 42.0617C67.2966 42.6961 63.8989 44.1859 62.4091 44.926ZM78.6047 53.1006V51.88C80.9932 51.7214 81.6852 51.1879 82.1081 50.2893V22.7905C82.1081 20.9835 81.8438 20.2434 78.1818 19.9262V18.8593L87.8943 16.418L88.2115 17.3215L86.6736 19.2342V50.2893C87.2023 51.3513 88.2115 51.7214 90.3885 51.88V53.1006H78.6047V53.1006ZM103.129 53.5284C97.554 53.5284 93.2528 49.1214 93.2528 42.9652C93.2528 35.4249 97.8711 30.2779 104.402 30.2779C109.66 30.2779 112.577 33.2527 112.577 37.9768V38.9331L98.2412 38.8274C98.1355 39.4089 98.0826 40.3653 98.0826 41.5331C98.0826 46.9492 101.48 50.5055 105.993 50.5055C108.699 50.5055 110.083 49.5492 112.202 47.747L113 48.9677C109.977 51.7214 107.483 53.5284 103.129 53.5284ZM103.609 31.9215C100.956 31.9215 99.0966 34.0456 98.4575 37.3905L107.8 37.2848C107.8 34.4686 106.051 31.9215 103.609 31.9215Z" fill="#8C9EBC"/>
</svg>
